<?xml version="1.0" standalone="no"?>
<!DOCTYPE svg PUBLIC "-//W3C//DTD SVG 20010904//EN"
 "http://www.w3.org/TR/2001/REC-SVG-20010904/DTD/svg10.dtd">
<svg version="1.0" xmlns="http://www.w3.org/2000/svg"
 width="772.000000pt" height="772.000000pt" viewBox="0 0 772.000000 772.000000"
 preserveAspectRatio="xMidYMid meet">
<metadata>
Created by potrace 1.14, written by Peter Selinger 2001-2017
</metadata>
<g transform="translate(0.000000,772.000000) scale(0.100000,-0.100000)"
fill="#000000" stroke="none">
<path d="M4653 7548 c-75 -28 -126 -86 -140 -158 -4 -21 -4 -86 1 -142 3 -36
0 -51 -16 -68 -11 -12 -29 -46 -39 -76 -24 -68 -19 -126 18 -197 24 -45 27
-65 29 -154 2 -91 -1 -106 -19 -129 -22 -29 -28 -103 -10 -126 5 -7 11 -40 12
-73 1 -33 11 -80 22 -104 10 -24 19 -49 19 -57 0 -25 49 -70 107 -98 32 -16
60 -30 61 -31 2 -2 -6 -17 -18 -33 -19 -26 -22 -42 -20 -99 5 -142 3 -469 -3
-495 -3 -14 -10 -36 -17 -47 -7 -14 -11 -121 -13 -313 -2 -250 -4 -291 -17
-293 -8 -1 -40 -5 -70 -8 -30 -4 -64 -8 -75 -11 -11 -2 -48 -7 -82 -11 l-62
-6 0 113 c0 104 -3 183 -15 433 -9 176 -18 432 -21 575 -4 198 -15 502 -20
575 -17 232 -17 282 -4 306 7 13 14 30 15 38 2 8 7 17 13 20 18 11 24 66 9 78
-15 12 -56 23 -112 29 -22 3 -47 9 -55 13 -9 4 -34 9 -56 10 -22 2 -42 6 -45
9 -3 4 -16 7 -30 8 -24 1 -76 8 -130 18 -14 3 -45 7 -70 10 -25 4 -58 8 -75
11 -62 10 -91 15 -114 20 -12 2 -43 7 -68 10 -24 2 -48 7 -51 9 -4 2 -29 7
-56 10 -27 4 -85 14 -130 22 -44 9 -92 18 -106 20 -14 2 -34 5 -45 7 -11 3
-40 8 -65 12 -25 4 -54 9 -65 11 -11 3 -40 7 -65 10 -49 6 -58 7 -140 20 -30
4 -58 7 -61 6 -4 0 -18 -3 -33 -6 -15 -3 -48 -17 -74 -32 -26 -15 -57 -32 -69
-38 -13 -6 -23 -14 -23 -18 0 -5 -5 -8 -11 -8 -5 0 -37 -18 -69 -40 -32 -22
-63 -40 -68 -40 -4 0 -17 -8 -28 -18 -10 -10 -38 -29 -61 -42 -24 -13 -43 -28
-43 -34 0 -5 -3 -6 -7 -3 -3 4 -13 1 -22 -7 -9 -7 -92 -62 -186 -121 -93 -60
-214 -137 -267 -172 -54 -34 -100 -63 -103 -63 -3 0 -11 -5 -18 -10 -16 -14
-155 -103 -186 -120 -32 -17 -47 -28 -87 -68 -28 -28 -34 -41 -34 -76 0 -65
25 -123 74 -172 34 -36 45 -55 51 -92 3 -26 9 -56 11 -67 3 -11 6 -29 8 -40 2
-11 9 -45 16 -75 6 -30 13 -67 15 -82 2 -15 6 -35 9 -45 3 -10 7 -31 10 -47 3
-16 10 -52 15 -80 6 -28 12 -64 15 -81 4 -31 33 -165 42 -200 10 -34 34 -158
39 -195 4 -30 10 -65 38 -215 2 -11 7 -27 10 -35 3 -8 8 -28 11 -45 4 -16 8
-40 11 -52 3 -13 7 -33 9 -45 3 -13 7 -34 10 -48 3 -13 8 -41 11 -61 3 -21 12
-68 20 -105 8 -37 12 -71 9 -76 -3 -4 -1 -8 4 -8 5 0 8 -16 7 -35 -1 -41 -26
-67 -81 -85 -21 -7 -51 -19 -66 -26 -15 -8 -35 -15 -45 -17 -10 -2 -27 -8 -39
-15 -11 -6 -32 -13 -45 -15 -88 -17 -210 -107 -239 -177 -7 -17 -24 -33 -43
-40 -75 -27 -108 -51 -213 -155 -127 -126 -163 -175 -243 -340 -59 -122 -71
-149 -75 -170 -3 -11 -12 -40 -21 -65 -9 -25 -18 -61 -21 -80 -3 -19 -9 -39
-12 -45 -3 -5 -8 -23 -10 -40 -5 -49 -10 -80 -12 -80 -1 0 -3 -13 -5 -30 -20
-150 -23 -204 -25 -340 -1 -119 4 -159 35 -320 4 -16 8 -40 11 -53 2 -12 6
-32 8 -45 3 -12 8 -38 11 -57 3 -19 8 -42 11 -50 3 -8 8 -26 10 -40 3 -14 19
-68 36 -120 18 -52 32 -97 33 -100 0 -3 27 -59 60 -125 52 -107 69 -129 145
-205 96 -95 99 -97 190 -159 36 -25 71 -51 78 -58 7 -7 17 -13 22 -13 5 0 15
-6 22 -12 8 -7 21 -17 30 -23 16 -10 171 -116 232 -159 17 -11 33 -23 36 -26
3 -3 30 -21 60 -40 30 -19 57 -37 60 -40 7 -7 123 -84 135 -89 5 -2 14 -8 20
-12 68 -55 186 -144 208 -157 15 -9 27 -20 27 -24 0 -4 5 -8 10 -8 10 0 325
-211 546 -365 l92 -63 128 3 c129 4 292 10 564 20 80 4 210 8 290 11 80 2 192
6 250 9 58 2 182 6 275 9 94 3 231 8 305 11 300 11 422 16 560 20 80 3 204 7
275 10 321 13 605 23 820 30 83 3 204 7 270 10 325 12 484 18 528 19 42 1 46
2 30 14 -10 7 -79 43 -153 78 -74 36 -154 75 -177 86 -48 24 -49 26 -27 94 17
52 21 66 22 74 1 3 15 43 32 90 17 47 30 85 29 85 -1 0 6 27 15 60 10 33 19
71 21 85 2 14 4 25 5 25 1 0 3 7 5 15 22 86 34 141 39 170 3 19 10 60 16 90 6
30 13 71 15 90 2 19 6 49 9 65 5 32 12 99 23 235 9 116 9 410 0 492 -8 71 -34
204 -43 219 -7 12 -2 264 6 264 1 0 3 25 5 55 2 30 6 75 9 100 3 25 8 81 11
125 4 44 8 96 10 115 9 76 18 217 17 247 -1 40 -52 118 -90 137 -44 23 -98 28
-257 26 -82 -1 -247 -3 -366 -4 -119 -2 -221 -6 -227 -10 -6 -3 -13 -3 -15 1
-6 9 -59 9 -74 0 -31 -19 -33 21 -18 338 4 88 9 185 10 215 8 169 6 389 -3
406 -6 10 -80 59 -166 107 -166 95 -170 99 -168 177 7 248 -10 312 -108 408
-21 21 -31 23 -69 18 -56 -8 -128 -41 -259 -118 -56 -33 -105 -58 -107 -56 -3
3 -8 36 -10 74 -5 61 -6 81 -3 119 4 63 -53 236 -84 256 -5 3 -11 28 -14 55
-14 147 -18 196 -18 261 -1 40 -3 73 -6 73 -3 0 -6 17 -6 38 -3 89 -8 133 -16
138 -14 9 2 24 25 24 37 0 122 46 142 76 19 30 28 101 15 119 -9 12 6 55 19
55 16 0 51 66 51 97 0 16 -15 52 -34 81 -29 46 -33 59 -29 103 2 30 -1 56 -7
64 -9 11 -8 21 7 42 45 65 59 155 31 206 -6 12 -12 66 -13 122 -3 101 -9 145
-24 174 -5 9 -12 39 -16 66 -10 66 -24 92 -75 138 -94 84 -201 111 -297 75z
m-1748 -648 c33 -5 83 -12 110 -15 28 -3 66 -7 85 -10 19 -3 55 -7 80 -10 142
-18 182 -24 187 -28 10 -11 -22 -45 -51 -54 -17 -5 -85 -8 -151 -7 -138 2
-167 -6 -263 -73 -35 -24 -68 -41 -73 -37 -8 4 -10 44 -9 159 0 98 -8 90 85
75z m963 -134 c36 -5 36 -12 1 -43 -17 -15 -41 -37 -53 -49 -28 -27 -112 -94
-118 -94 -3 0 0 21 7 48 8 26 21 72 29 103 l16 56 47 -9 c27 -5 58 -11 71 -12z
m-1291 -322 c1 -164 4 -441 7 -614 9 -444 8 -460 -9 -487 -9 -13 -22 -23 -30
-23 -8 0 -15 -4 -15 -8 0 -5 -15 -16 -32 -26 -38 -20 -83 -47 -158 -96 -149
-97 -386 -240 -398 -240 -5 0 -12 10 -15 23 -9 39 -49 221 -53 242 -15 74 -24
125 -28 155 -6 35 -10 61 -22 130 -3 19 -8 49 -10 65 -3 17 -9 50 -14 75 -5
25 -15 79 -21 120 -7 41 -13 77 -14 80 -1 3 -5 23 -9 45 -4 22 -12 60 -17 85
-39 182 -40 188 -28 214 6 12 37 40 69 62 33 21 60 42 60 47 0 4 5 7 10 7 12
0 73 41 78 53 2 4 10 7 18 7 8 0 14 5 14 10 0 6 5 10 10 10 10 0 66 36 80 50
3 3 73 49 155 103 83 53 155 101 162 107 7 5 15 10 17 10 3 0 40 22 82 49 42
27 84 48 93 46 14 -2 16 -35 18 -301z m1450 238 c6 -164 14 -343 18 -392 1
-30 6 -122 10 -205 4 -82 9 -177 11 -210 4 -81 14 -310 19 -478 3 -76 1 -137
-4 -135 -5 2 -46 46 -92 98 l-84 95 1 63 c1 34 3 78 4 97 2 42 -42 184 -99
315 -8 19 -15 37 -16 40 -1 3 -5 14 -10 25 -73 177 -147 365 -151 383 -5 25
44 78 180 197 38 33 75 66 82 73 42 41 118 101 123 96 3 -2 6 -31 8 -62z"/>
</g>
</svg>
