<?xml version="1.0" encoding="UTF-8"?><svg id="b" xmlns="http://www.w3.org/2000/svg" viewBox="0 0 169.1613 43.27776"><g id="c"><rect x="125.65281" y="1.16389" width="43.00864" height="41.01339" rx="3.65795" ry="3.65795" style="fill:#fff; stroke-width:0px;"/><rect x=".35389" y=".50467" width="114.72483" height="42.36688" rx="4.8195" ry="4.8195" style="fill:#fff; stroke-width:0px;"/><path d="m114.81915,5.68219c0-2.89308-2.34917-5.23811-5.24706-5.23811H39.57019v42.39028h70.0019c1.39146,0,2.72647-.55218,3.71033-1.53467.98364-.98176,1.5365-2.31438,1.53673-3.70413V5.68219Z" style="stroke-width:0px;"/><path d="m109.57209,43.27776H39.12748V0h70.44461c3.14231.00275,5.68839,2.54539,5.69115,5.68219v31.91338c-.00275,3.13681-2.54883,5.68013-5.69115,5.68219m-69.55576-.88679h69.55576c2.65073-.00344,4.79885-2.14812,4.80229-4.79472V5.68219c-.00345-2.64591-2.15156-4.79059-4.80229-4.79472H40.01633v41.5035ZM17.33506,14.30566l-1.82659,2.52198c-.91777,1.26202-.63342,3.49827.61965,4.4009l3.39431,2.44624c.58247.41999.62791.84066.35182,1.27992l.49366.36628,1.71919-2.37739c1.06236-1.46926.96941-3.46798-.60588-4.61295l-3.42873-2.49237c-.40897-.29881-.45303-.71398-.22583-1.17665l-.49297-.35114m2.93783-11.13443l-2.85039,3.93547c-1.33707,1.84931-.84204,4.99301.97629,6.33833l4.688,3.43493c.95013.69539,1.07406,2.46965.38212,3.3771l.39726.29812,3.2332-4.53997c1.45136-2.03865,1.36736-5.05153-.91295-6.70462l-5.01367-3.63529c-.70227-.50467-1.05203-1.37356-.46818-2.19907l-.431-.30432m-7.51223,24.68481h3.77711l.67335,2.28582h6.17309l.67335-2.28582h3.77849l-.49503-1.68132h-14.08534l-.49503,1.68132m1.77014,7.64924c.66303-.38831,1.07062-.95839,1.07062-1.73984,0-1.56221-1.2813-2.19907-2.68033-2.19907h-3.90655v8.2923h3.87282c1.65309,0,3.40463-.72086,3.12166-2.62043-.16868-1.08783-.599-1.34533-1.47683-1.73502m-3.75508-2.35467h2.03796c1.26753,0,1.31297,1.76945.07849,1.76945h-2.11645v-1.76945Zm2.26861,5.1431h-2.26861v-1.89131h2.26861c1.66479,0,1.5629,1.892,0,1.892v-.00069Zm9.24036-2.78705c.66371-.38831,1.07131-.95839,1.07131-1.73984,0-1.56221-1.2813-2.19907-2.68102-2.19907h-3.90655v8.29299h3.87282c1.6524,0,3.40463-.72086,3.12235-2.62043-.16868-1.08783-.59968-1.34533-1.47683-1.73502m-3.7482-2.35467h2.02075c1.26753,0,1.31297,1.76945.07849,1.76945h-2.09993v-1.76945h.00069Zm2.2631,5.14172h-2.2631v-1.88993h2.2631c1.66342,0,1.5629,1.892,0,1.892v-.00207Zm10.71582-1.05065c-.16868-1.08783-.59899-1.34533-1.47683-1.73502.66371-.38831,1.07062-.95839,1.07062-1.73984,0-1.56221-1.28061-2.19907-2.68033-2.19907h-3.90724v8.29299h3.87282c1.6524,0,3.40463-.72086,3.12166-2.62043m-5.21952-4.08763h2.02075c1.26753,0,1.31297,1.76945.07849,1.76945h-2.10475l.00688-1.76945h-.00138Zm2.2631,5.14172h-2.26999v-1.892h2.2631c1.66342,0,1.5629,1.892,0,1.892h.00689Z" style="stroke-width:0px;"/><path d="m50.59583,19.90248l-.37868-1.04446h-2.64866l-.389,1.04446h-1.50093l2.38979-6.1669h1.64827l2.37946,6.1669s-1.50024,0-1.50024,0Zm-1.70197-4.85531l-.9639,2.65279h1.9278l-.9639-2.65279Zm3.54578,1.77495c0-1.89475,1.43483-3.19464,3.2869-3.19464,1.0794-.03018,2.08175.55702,2.58325,1.51332l-1.12983.55493c-.28144-.54137-.83518-.8867-1.44516-.90125-1.1195,0-1.93468.85925-1.93468,2.01731,0,1.15875.81518,2.01731,1.93468,2.01731.61276-.00689,1.17252-.35114,1.45274-.89505l1.12364.55906c-.44477.76699-1.22209,1.51332-2.58325,1.51332-1.84518,0-3.28828-1.2875-3.28828-3.18432Zm6.42715,0c0-1.89475,1.43483-3.19464,3.2869-3.19464,1.0794-.03018,2.08175.55702,2.58325,1.51332l-1.12983.55493c-.28514-.54342-.84331-.88872-1.45687-.90125-1.1195,0-1.93468.85925-1.93468,2.01731,0,1.15875.81518,2.01731,1.93468,2.01731.61276-.00689,1.17252-.35114,1.45274-.89505l1.13052.54392c-.44477.76699-1.22278,1.51332-2.58325,1.51332-1.85207.01515-3.28346-1.27235-3.28346-3.16917Zm10.2139,3.08035l-1.21176-2.18599h-.9639v2.18599h-1.31504v-6.1669h2.88964c1.28681,0,2.07445.83997,2.07445,1.98701,0,1.09127-.68506,1.68132-1.34671,1.83141l1.38939,2.35329-1.51608-.00482h.00001Zm.12462-4.1792c0-.51844-.39727-.84135-.92603-.84135h-1.37907v1.66479h1.37907c.53428.00826.92603-.30638.92603-.82414v.00069Zm2.40493,4.1792v-6.1669h4.37818v1.1553h-3.06176v1.30264h2.99085v1.1553h-2.99085v1.3949h3.05626v1.1553l-4.37267.00344Zm5.46394,0v-6.1669h2.43454c1.93468,0,3.27864,1.22897,3.27864,3.08861,0,1.85895-1.34671,3.0776-3.27864,3.0776h-2.43454v.00069Zm4.37818-3.07829c0-1.09127-.67404-1.93193-1.93468-1.93193h-1.12019v3.85354h1.12019c1.21383,0,1.9278-.87784,1.9278-1.92367,0,0,.00689.00207.00688.00207Zm2.33677,3.07829v-6.1669h1.31504v6.1669h-1.31504Zm4.02773,0v-5.01159h-1.80663v-1.1553h4.93379v1.1553h-1.80387v5.01159h-1.3233Zm4.02773,0v-6.1669h4.37817v1.1553h-3.06314v1.30264h2.98741v1.1553h-2.98741v1.3949h3.05625v1.1553l-4.37128.00344Zm5.46394,0v-6.1669h2.43523c1.93468,0,3.27795,1.22897,3.27795,3.08861,0,1.85895-1.3467,3.0776-3.27795,3.0776h-2.43523v.00069Zm4.37817-3.07829c0-1.09127-.67335-1.93193-1.93468-1.93193h-1.11951v3.85354h1.11951c1.2159,0,1.9278-.87784,1.9278-1.92367l.00688.00207Zm-55.34923,13.66949v-6.16621h3.24972c1.17871,0,1.7784.74771,1.7784,1.57185,0,.77663-.48195,1.29438-1.06442,1.41349.65683.10121,1.17871.74014,1.17871,1.51333,0,.92466-.61965,1.66479-1.79699,1.66479,0,0-3.34542.00276-3.34542.00275Zm3.68623-4.3706c-.00038-.37188-.30216-.67304-.67404-.67267h-1.69715v1.34464h1.64827c.44339,0,.72086-.27747.72086-.67198,0,0,.00206,0,.00206,0Zm.11911,2.52129c0-.38831-.27747-.72086-.79659-.72086h-1.69371v1.43208h1.7006c.48883,0,.78971-.27058.78971-.71122Zm2.39254-.61001v-3.70689h1.3474v3.66145c0,.85925.50536,1.45067,1.45274,1.45067.94806,0,1.44516-.59211,1.44516-1.45067v-3.66145h1.34671v3.69863c0,1.53536-.90744,2.57912-2.78636,2.57912-1.87961,0-2.80564-1.05409-2.80564-2.57086Zm6.44299,1.59044l.71191-.99833c.51346.5338,1.22294.83431,1.9636.83171.72224,0,1.07406-.33599,1.07406-.68437,0-.45166-.57421-.5811-1.24963-.74771-1.01003-.23065-2.3051-.50467-2.3051-1.91334,0-1.02587.88954-1.87616,2.34228-1.87616.9818,0,1.79699.29606,2.40769.85925l-.73188.96321c-.49391-.44087-1.13499-.68085-1.79699-.67267-.56457,0-.87922.25061-.87922.61896,0,.39795.56457.52601,1.23104.68437,1.01072.24029,2.31543.54598,2.31543,1.94157,0,1.12776-.80554,1.97875-2.47171,1.97875-1.1856-.0117-2.03796-.40346-2.61148-.98524Zm6.03471.86889v-6.16621h1.31504v6.16621h-1.31504Zm6.86504,0l-2.9454-4.02084v4.02084h-1.31504v-6.16621h1.3474l2.86209,3.86662v-3.86662h1.31504v6.16621h-1.26409Zm2.56398,0v-6.16621h4.37818v1.15462h-3.0714v1.30333h2.99085v1.15461h-2.99085v1.39559h3.05487v1.1553l-4.36165.00275Zm5.03501-.86889l.71191-.99833c.51346.5338,1.22294.83431,1.9636.83171.72293,0,1.07406-.33599,1.07406-.68437,0-.45166-.57421-.5811-1.24894-.74771-1.01072-.23065-2.3051-.50467-2.3051-1.91334,0-1.02587.88817-1.87616,2.34159-1.87616.9818,0,1.79699.29606,2.40838.85925l-.71948.96321c-.49408-.44013-1.13465-.68001-1.7963-.67267-.56457,0-.87922.25061-.87922.61896,0,.39795.56595.52601,1.23104.68437,1.01072.24029,2.31543.54598,2.31543,1.94157,0,1.12776-.80554,1.97875-2.47171,1.97875-1.19386-.0117-2.04622-.40346-2.62525-.98524Zm5.62711,0l.7126-.99833c.51329.53363,1.22249.83412,1.96291.83171.72293,0,1.07406-.33599,1.07406-.68437,0-.45166-.57352-.5811-1.24894-.74771-1.01003-.23065-2.3051-.50467-2.3051-1.91334,0-1.02587.88885-1.87616,2.34228-1.87616.9818,0,1.79698.29606,2.40769.85925l-.73256.96321c-.49426-.44029-1.1351-.68018-1.79699-.67267-.56388,0-.87853.25061-.87853.61896,0,.39795.56595.52601,1.23104.68437,1.01003.24029,2.31543.54598,2.31543,1.94157,0,1.12776-.80554,1.97875-2.47171,1.97875-1.18766-.0117-2.03934-.40346-2.61218-.98524Z" style="fill:#fff; stroke-width:0px;"/><path d="m116.46399,39.63491v-.02065c-.0038-2.01809,1.6289-3.65727,3.64698-3.66145,2.01834-.00723,3.6604,1.62309,3.66764,3.64144v.02138c.0038,2.01809-1.6289,3.65727-3.64698,3.66145-2.01834.00724-3.6604-1.62309-3.66764-3.64144v-.00073Zm6.98139-.02065v-.01997c-.00419-1.18625-.64126-2.28005-1.67099-2.86898-1.03054-.58975-2.29723-.58581-3.32408.01033-1.02588.5954-1.65587,1.69317-1.6524,2.87931v.01997c.00404,1.1861.64083,2.27987,1.6703,2.86898,1.03054.58975,2.29723.58581,3.32408-.01033,1.02566-.59528,1.65562-1.69273,1.6524-2.87862l.00069-.00069Zm-4.75892-1.97668h1.68407c.40745-.0185.80607.12252,1.11124.39313.1976.19003.30776.45303.30294.72637v.02065c0,.60519-.40415.96803-.96941,1.09885l1.1615,1.50369h-.68712l-1.08095-1.4128h-.95977v1.4128h-.55562l-.00688-3.74269h.00001Zm1.62693,1.83554c.52533,0,.88885-.24166.88885-.67198v-.02065c0-.39313-.3236-.64513-.85856-.64513h-1.1016v1.33156l1.07131.00688v-.00069Zm-114.62156,3.80465c-3.143-.00276-5.68977-2.54539-5.69183-5.6822V5.68219C.00275,2.54539,2.54952.00275,5.69114,0h34.32519v43.27776H5.69114h.00069ZM5.69183.88748c-2.65073.00413-4.79885,2.14812-4.80298,4.79472v31.91337c.00413,2.6466,2.15156,4.79127,4.80229,4.79472h33.43634V.88817H5.69114l.00069-.00069Z" style="stroke-width:0px;"/><path d="m165.00309,42.67714h-35.69238c-2.29297,0-4.1582-1.86523-4.1582-4.1582V4.82167c0-2.29297,1.86523-4.1582,4.1582-4.1582h35.69238c2.29297,0,4.1582,1.86523,4.1582,4.1582v33.69727c0,2.29297-1.86523,4.1582-4.1582,4.1582ZM129.31071,1.66346c-1.74121,0-3.1582,1.41699-3.1582,3.1582v33.69727c0,1.74121,1.41699,3.1582,3.1582,3.1582h35.69238c1.74121,0,3.1582-1.41699,3.1582-3.1582V4.82167c0-1.74121-1.41699-3.1582-3.1582-3.1582h-35.69238Z" style="stroke-width:0px;"/><path d="m137.78716,26.88434l-1.11719,4.58691h-5.49805l5.7627-19.81738h7.05664l5.91016,19.81738h-5.7334l-1.26465-4.58691h-5.11621Zm4.38086-3.93945l-.91113-3.55859c-.29395-1.11719-.67578-2.73438-.9707-3.91016h-.05859c-.29395,1.17578-.58789,2.82227-.88184,3.93945l-.85254,3.5293h3.6748Z" style="stroke-width:0px;"/><rect x="156.79802" y="14.90858" width="2" height="13.74512" style="stroke-width:0px;"/><rect x="150.92595" y="20.78163" width="13.74512" height="2" style="stroke-width:0px;"/></g></svg>