<svg xmlns="http://www.w3.org/2000/svg" xmlns:xlink="http://www.w3.org/1999/xlink" viewBox="0 0 2826.93426 1012.14679"><defs><clipPath id="a" transform="translate(586.10499 -104.81861)"><rect width="1579.71999" height="792.1615" style="fill:none"/></clipPath></defs><g style="opacity:0.39"><g style="clip-path:url(#a)"><path d="M2006.55642,565.47061l9.3186,31.22306s-343.52025-16.50212-639.95452,42.52871c-296.42845,59.03809-464.09892,160.677-464.09892,160.677L664.49479,657.494s303.82378-133.48264,680.37175-147.2442C1722.89085,496.4338,2006.55642,565.47061,2006.55642,565.47061Zm-1007.865-133.7347c298.386-48.20075,634.03172,6.39232,634.03172,6.39232l-1.12616-57.13241s-280.95986-79.31895-659.23368-79.27637c-376.80959.04526-685.28952,122.3771-685.28952,122.3771L512.0274,561.67376S700.31154,479.9372,998.69146,431.73591ZM2231.01859,707.21549s-225.10388-52.00888-544.93715-16.42905c-385.69724,42.90142-658.33772,226.23594-658.33772,226.23594l236.6032,193.34091s180.30578-201.666,467.73265-295.15362c287.43274-93.48034,508.74971-80.945,508.74971-80.945ZM-453.05283,104.81861-586.105,112.66292s306.99665,211.89456,494.31538,427.997c187.31726,216.10922,300.555,467.64557,300.555,467.64557s157.543-17.94792,432.55732,1.09245c275.01527,19.03218,516.14154,106.67542,523.80962,107.56748,0,0-383.25887-358.0831-774.31182-582.34769C58.23421,343.88043-453.05283,104.81861-453.05283,104.81861Z" transform="translate(586.10499 -104.81861)" style="fill:#d62432"/></g></g></svg>