<?xml version="1.0" encoding="utf-8"?>
<!-- Generator: Adobe Illustrator 25.2.3, SVG Export Plug-In . SVG Version: 6.00 Build 0)  -->
<svg version="1.1" id="Layer_1" xmlns="http://www.w3.org/2000/svg" xmlns:xlink="http://www.w3.org/1999/xlink" x="0px" y="0px"
	 viewBox="0 0 1579.2 496" style="enable-background:new 0 0 1579.2 496;" xml:space="preserve">
<style type="text/css">
	.st0{opacity:0.39;}
	.st1{clip-path:url(#SVGID_2_);}
	.st2{fill:#D62432;}
</style>
<g class="st0">
	<g>
		<defs>
			<rect id="SVGID_1_" x="0.8" y="-296.4" width="1579.7" height="792.2"/>
		</defs>
		<clipPath id="SVGID_2_">
			<use xlink:href="#SVGID_1_"  style="overflow:visible;"/>
		</clipPath>
		<g class="st1">
			<path class="st2" d="M2007.4,269.1l9.3,31.2c0,0-343.5-16.5-640,42.5c-296.4,59-464.1,160.7-464.1,160.7L665.3,361.1
				c0,0,303.8-133.5,680.4-147.2C1723.7,200.1,2007.4,269.1,2007.4,269.1z M999.5,135.4c298.4-48.2,634,6.4,634,6.4l-1.1-57.1
				c0,0-281-79.3-659.2-79.3c-376.8,0-685.3,122.4-685.3,122.4l225,137.6C512.9,265.3,701.1,183.6,999.5,135.4L999.5,135.4z
				 M2231.9,410.9c0,0-225.1-52-544.9-16.4c-385.7,42.9-658.3,226.2-658.3,226.2L1265.2,814c0,0,180.3-201.7,467.7-295.2
				c287.4-93.5,508.7-80.9,508.7-80.9L2231.9,410.9z M-452.2-191.5l-133.1,7.8c0,0,307,211.9,494.3,428
				C96.4,460.4,209.6,711.9,209.6,711.9S367.1,694,642.2,713c275,19,516.1,106.7,523.8,107.6c0,0-383.3-358.1-774.3-582.3
				C59.1,47.5-452.2-191.5-452.2-191.5z"/>
		</g>
	</g>
</g>
</svg>
