<svg xmlns="http://www.w3.org/2000/svg" viewBox="0 0 2378.88034 851.72695"><path d="M2181.73848,387.64113l7.84165,26.27437S1900.506,400.02888,1651.055,449.70364c-249.44613,49.68087-390.54173,135.21056-390.54173,135.21056L1052.38642,465.0793s255.66934-112.32636,572.53647-123.90679C1943.03238,329.54629,2181.73848,387.64113,2181.73848,387.64113ZM1333.61471,275.10266c251.0934-40.56119,533.54109,5.37917,533.54109,5.37917l-.94767-48.07722s-236.42923-66.74733-554.74867-66.7115c-317.0873.03809-576.67481,102.981-576.67481,102.981l189.29965,115.772S1082.52641,315.6643,1333.61471,275.10266ZM2370.62459,506.92021s-189.42612-43.76575-458.56753-13.82514c-324.56629,36.10177-553.99472,190.37876-553.99472,190.37876l199.10287,162.69741s151.72828-169.703,393.59952-248.37335c241.8762-78.66421,428.11561-68.11563,428.11561-68.11563ZM111.96411,0,0,6.601S258.33932,184.91144,415.969,366.76277C573.59752,548.61985,668.88772,760.289,668.88772,760.289s132.57325-15.10327,363.9993.9193c231.42683,16.01569,434.33588,89.76794,440.78861,90.51862,0,0-322.5144-301.32885-651.58755-490.04871C542.21489,201.17181,111.96411,0,111.96411,0Z" style="fill:#d62d36;opacity:0.65"/></svg>