<svg xmlns="http://www.w3.org/2000/svg" viewBox="0 0 341.16422 137.91021"><path d="M218.43817,137.6078c-.9089,0-30.29662-6.96857-62.71389-5.45344-32.41727,1.51442-50.595,5.75585-50.595,5.75585s-16.66274-27.8726-41.50592-50.59514C38.78032,64.59352,0,43.99176,0,43.99176l15.45156-2.727s63.038,20.99984,104.52279,38.77948C168.75181,100.9491,218.43817,137.6078,218.43817,137.6078Z"/><path d="M134.51546,81.55936,106.33961,68.53169a243.39122,243.39122,0,0,1,78.46857-23.63116c44.23208-5.1502,78.16448.30325,78.16448.30325l.90876,6.66532s-39.99065-1.81824-74.2263,7.87663C155.42032,69.4406,134.51546,81.55936,134.51546,81.55936Zm49.98947,22.41845L153.64732,90.69a243.38586,243.38586,0,0,1,77.55516-26.47218c44.01562-6.75733,78.12459-2.543,78.12459-2.543l1.51428,3.52416S270.448,67.942,236.588,78.87675C202.72873,89.8121,184.50493,103.97781,184.50493,103.97781Zm45.44481,31.5085-30.2965-19.38974s29.387-25.14629,73.90417-35.409c36.91516-8.5109,63.94465-5.49121,63.94465-5.49121l1.51515,3.02955S312.96735,79.77044,280.62857,94.611C248.29049,109.45225,229.94974,135.48631,229.94974,135.48631Z" style="fill:#fff;fill-rule:evenodd;opacity:0.6000000000000001"/><path d="M111.03211,85.1499c-5.28744-3.068-13.106-6.98661-21.24419-10.87589l-7.49278.1312c3.91422,2.10345,7.934,4.36219,11.90613,6.73775,2.42769,1.45185,5.05676,3.0876,7.8087,4.84412,3.01673-.16219,6.60656-.34172,9.61948-.4887C111.42738,85.38072,111.22672,85.26305,111.03211,85.1499Z" style="fill:#fff;fill-rule:evenodd"/><path d="M54.72848,58.30064l-4.80861.60114s8.57106,3.53544,20.1356,9.21816c2.01594-.1033,4.07923-.205,5.93228-.29635C64.30343,62.466,54.72848,58.30064,54.72848,58.30064Z" style="fill:#fff;fill-rule:evenodd"/><path d="M167.33631,122.01757s-21.6086-14.80138-39.51718-26.39593l-10.26713.64173c17.81952,12.10073,35.1571,24.75271,35.1571,24.75271Z" style="fill:#fff;fill-rule:evenodd"/><path d="M212.85974,92.31984H297.8568l.06707-.89439c6.02106,2.10359,15.22371,1.46284,21.3427-.23491L320.70194,92.32h12.76838L335.613,63.7693a9.99288,9.99288,0,0,0-1.42634-7.22321h.32677L322.15844,4.86323H218.52794v.60354c-2.69812-.71458-30.14176-2.47885-35.477,2.98051a15.75939,15.75939,0,0,0-6.82539-2.79647c-8.9235-.98867-29.048-.77884-38.12507-.79138V6.95865L134.25138,5.6587c-5.36974-.99134-32.60046-.79138-38.32489-.79927V15.13924l-2.45644-10.276H62.83847L61.96887,8.592A11.50236,11.50236,0,0,0,54.74215,5.5578L35.16922,4.88141,16.61116,4.86013v51.686H44.05382V41.90761l10.249-.44487L50.78509,56.54609h92.05863L140.159,92.31984H165.0267l.79744-10.62562,6.28006-.22969-3.75457,10.85531Zm47.46384-40.4847h-6.274V21.21947h6.274Zm-33.71666,0h-.18853q.096-.12936.18853-.26126Z" style="fill-rule:evenodd"/><path d="M218.24527,87.7016h84.99705l.06722-.89439c6.021,2.10359,15.22356,1.46285,21.3427-.23491l1.43536,1.12959H338.856l2.1425-28.55083a9.99207,9.99207,0,0,0-1.42622-7.2232h.32678L327.544.245H223.9136V.84854c-2.69812-.71459-30.14176-2.47885-35.477,2.98051a15.75922,15.75922,0,0,0-6.8254-2.79648c-8.92349-.98866-29.048-.77884-38.12506-.79138V2.34041L139.637,1.04047C134.26716.04912,107.03658.24922,101.31216.24119V10.521L98.85557.245H68.224L67.3544,3.97377A11.50165,11.50165,0,0,0,60.12782.93957L40.55488.26317,21.99668.2419v51.686H49.43935V37.28938l10.24908-.44487L56.17075,51.92786h92.0585L145.54466,87.7016h24.86756l.79744-10.62562,6.28006-.22969L173.73516,87.7016ZM265.7091,47.2169h-6.274V16.60124h6.274Zm-33.71651,0H231.804q.09576-.12936.18855-.26112Z" style="fill-rule:evenodd"/><path d="M300.90706,82.26338c4.9501,4.93135,19.76176,2.63893,24.32532,1.28431l1.80246,1.41845h9.283l1.96451-26.17822c.72952-5.84335-2.80492-7.953-7.538-8.56726l-10.73257-.45234-11.07528.45093a10.92607,10.92607,0,0,0-5.77826,2.0461l.17361-2.31271H285.817l-.447,7.27478-3.21386-7.27478H234.31742l-1.69677,6.92686-.51857-6.92686H212.76124l7.68442,35.01322h20.10728l5.96878-16.15079-1.212,16.15079h35.13624l.4095-7.414,3.223,7.414h16.62582Z" style="fill:#fff;fill-rule:evenodd"/><path d="M181.507,73.601l-3.93071,11.36486h19.41187l1.47242-6.295h1.11493l.52759,6.295h19.363l-7.09229-35.01322H189.68627l-1.87221,5.41342c-.977-3.31265-3.64788-4.46745-6.88219-4.9336-3.87265-.55817-22.83527-.47982-29.81089-.47982l-2.62752,35.01322h19.38072l.79054-10.5343,10.99482-.40218Z" style="fill:#fff;fill-rule:evenodd"/><path d="M290.416,49.19212h19.639l1.18765-8.68112h2.11443l1.18764,8.68112h21.88747L325.38513,2.98074H299.08361L298.495,5.5044V2.98074H226.64934V4.40328c-.27422-.11921-3.52008-.99571-4.14982-1.09914-6.25794-1.02827-23.52535-.63807-28.81956.72825a7.96716,7.96716,0,0,0-4.14983,2.80916,11.3981,11.3981,0,0,0-.80955,1.61447c-1.52669-3.06562-4.34388-4.01187-7.41134-4.69743-4.04076-.90313-27.06218-.77785-35.08734-.77785V7.853c-1.49906-2.58425-4.34316-3.48118-7.08666-4.09445-4.04076-.90313-27.06218-.77785-35.08734-.77785V33.73153L96.69674,2.98074H70.39522L68.30671,11.9358c-.574-5.47642-3.50444-7.26266-8.31517-8.26387-3.85278-.80181-27.27482-.69119-35.259-.69119V49.19212h21.971V34.66975l13.374-.58043c.23209-.03678,3.25347-.92906,3.28165-.94L59.61783,49.19212H81.36665L82.55428,40.511h2.11445l1.18764,8.68112H189.81619V45.59961c3.67889,4.24551,14.76051,4.58582,20.37587,3.87758l-.36244.01508,12.89056-.63018c6.26921-.90129,9.04976-4.11446,8.79484-10.39564V13.86536h3.21331V49.19212h21.971V13.86536h11.74548V49.19212H290.416Zm6.129-35.32676-6.129,26.28052V13.86536ZM187.92073,25.54883v1.514a7.7154,7.7154,0,0,0-.84944-.82943l.75179-.55915Q187.87254,25.6119,187.92073,25.54883Zm-41.69883-.68231v2.79521a7.71873,7.71873,0,0,0-1.32461-1.42833A3.94525,3.94525,0,0,0,146.2219,24.86652Z" style="fill:#fff;fill-rule:evenodd"/><path d="M27.4683,5.71648v40.7399H43.96786V32.05464h3.81262a70.63425,70.63425,0,0,0,11.7948-.6647q3.83917-.69733,4.98687-2.51465a9.02436,9.02436,0,0,0,1.029-5.1454V13.9912a8.7387,8.7387,0,0,0-1.08618-5.15471Q63.3056,7.03264,59.43451,6.35708a72.886,72.886,0,0,0-11.7731-.6406Zm16.49956,5.31281H45.1593q2.91168-.02812,3.5446.52716a2.34756,2.34756,0,0,1,.50645,2.03314V24.232a2.23351,2.23351,0,0,1-.52139,1.94521q-.62925.53963-3.29137.51448H43.96786Z" style="fill:#cc2127;fill-rule:evenodd"/><path d="M72.56631,5.71648l-9.50125,40.7399H78.97967l1.18764-8.68112H87.0557l1.18765,8.68112h16.03354l-9.739-40.7399ZM83.374,13.791h.475l2.49407,18.571h-5.582Z" style="fill:#cc2127;fill-rule:evenodd"/><path d="M106.78365,5.71648v40.7399h16.49954V29.54563q.35-.00316.65526-.02508.30545-.02178.6554-.02509a7.43165,7.43165,0,0,1,3.03815.43924,1.44118,1.44118,0,0,1,.89369,1.41818v15.1035h16.38076V32.60787a5.03323,5.03323,0,0,0-1.46891-4.02033q-1.569-1.51554-6.00921-2.25,4.90746-.95076,6.27625-2.62667a6.10912,6.10912,0,0,0,1.20187-4.3977V13.99148a8.03542,8.03542,0,0,0-1.19158-4.999q-1.29171-1.81359-5.176-2.55734a65.31368,65.31368,0,0,0-11.56214-.71867Zm16.49954,5.31281h1.07237q2.99729-.02347,3.64888.546a2.29128,2.29128,0,0,1,.52125,2.0144v7.8321a1.66938,1.66938,0,0,1-.74474,1.65661,6.62942,6.62942,0,0,1-3.068.45191q-.27922-.00316-.6702-.02508-.39083-.022-.75954-.02508Z" style="fill:#cc2127;fill-rule:evenodd"/><path d="M148.95764,5.71648v40.7399h16.49955V29.54563q.35-.00316.6554-.02508.30523-.02178.65526-.02509a7.43287,7.43287,0,0,1,3.03829.43924,1.44106,1.44106,0,0,1,.89355,1.41818v15.1035h16.38076V32.60787a5.03323,5.03323,0,0,0-1.46891-4.02033q-1.569-1.51554-6.00921-2.25,4.90767-.95076,6.27639-2.62667a6.10973,6.10973,0,0,0,1.20173-4.3977V13.99148a8.0345,8.0345,0,0,0-1.19158-4.999q-1.29171-1.81359-5.176-2.55734a65.31173,65.31173,0,0,0-11.56215-.71867Zm16.49955,5.31281h1.07237q2.99728-.02347,3.64888.546a2.29041,2.29041,0,0,1,.52125,2.0144v7.8321a1.66913,1.66913,0,0,1-.74474,1.65661,6.62867,6.62867,0,0,1-3.06787.45191q-.27945-.00316-.67035-.02508-.39083-.022-.75954-.02508Z" style="fill:#cc2127;fill-rule:evenodd"/><path d="M190.65647,13.58888v24.995a8.09947,8.09947,0,0,0,1.2402,5.23939Q193.249,45.596,197.4124,46.1985a91.44343,91.44343,0,0,0,12.4843.55887,85.26034,85.26034,0,0,0,12.33817-.59227q4.08057-.63179,5.3703-2.40867a8.24439,8.24439,0,0,0,1.17411-5.1726V13.58888a8.07361,8.07361,0,0,0-1.23569-5.22629q-1.34686-1.76052-5.48487-2.351a91.94908,91.94908,0,0,0-12.40031-.5459,90.18938,90.18938,0,0,0-12.52756.56817q-4.09959.61-5.3486,2.3733A8.39573,8.39573,0,0,0,190.65647,13.58888Zm16.38077-.95372a1.52,1.52,0,0,1,.53618-1.31108,3.25757,3.25757,0,0,1,1.96592-.44529,3.8405,3.8405,0,0,1,2.17433.44529,1.46367,1.46367,0,0,1,.56606,1.31108V39.58758a1.47226,1.47226,0,0,1-.49152,1.28613,3.38683,3.38683,0,0,1-2.01057.42036,4.07487,4.07487,0,0,1-2.12982-.40147,1.40252,1.40252,0,0,1-.61058-1.305Z" style="fill:#cc2127;fill-rule:evenodd"/><polygon points="229.385 5.716 229.385 11.13 237.464 11.13 237.464 46.456 253.964 46.456 253.964 11.13 262.043 11.13 262.043 5.716 229.385 5.716" style="fill:#cc2127;fill-rule:evenodd"/><polygon points="263.102 5.716 263.102 11.13 271.181 11.13 271.181 46.456 287.68 46.456 287.68 11.13 295.759 11.13 295.759 5.716 263.102 5.716" style="fill:#cc2127;fill-rule:evenodd"/><path d="M301.2547,5.71648l-9.50125,40.7399h15.91461l1.18764-8.68112h6.88839l1.18764,8.68112h16.03355l-9.739-40.7399ZM312.06238,13.791h.475l2.49407,18.571h-5.582Z" style="fill:#cc2127;fill-rule:evenodd"/><path d="M153.65916,52.68838l-2.217,29.54174H165.336l.78363-10.44313h3.21063a69.75248,69.75248,0,0,0,9.96824-.48207q3.27081-.50539,4.33613-1.82346a6.13736,6.13736,0,0,0,1.14635-3.731l.53-7.06186a5.38183,5.38183,0,0,0-.63412-3.73779q-.91165-1.308-4.13475-1.79781a70.30867,70.30867,0,0,0-9.87891-.4646Zm13.60472,3.8525h1.00332a6.07534,6.07534,0,0,1,2.95613.38216q.50266.40289.31565,1.47427l-.579,7.71711A1.576,1.576,0,0,1,170.415,67.525a5.92411,5.92411,0,0,1-2.79958.37314h-1.204Z" style="fill-rule:evenodd"/><path d="M191.63485,52.68838,181.41718,82.23012h13.40124l1.47243-6.295h5.80052l.52774,6.295h13.50142l-5.984-29.54174Zm8.66139,5.85506h.40006l1.08957,13.46648h-4.70039Z" style="fill-rule:evenodd"/><polygon points="216.163 52.688 222.646 82.23 238.647 82.23 249.565 52.688 236.464 52.688 231.562 72.7 231.062 72.7 229.563 52.688 216.163 52.688" style="fill-rule:evenodd"/><polygon points="250.475 52.688 248.259 82.23 262.152 82.23 264.369 52.688 250.475 52.688" style="fill-rule:evenodd"/><polygon points="267.981 52.688 265.764 82.23 277.857 82.23 278.693 67.095 279.293 67.095 285.872 82.23 298.166 82.23 300.383 52.688 288.39 52.688 287.484 67.423 286.883 67.423 280.374 52.688 267.981 52.688" style="fill-rule:evenodd"/><path d="M303.26318,58.43394,301.843,77.3581a3.52955,3.52955,0,0,0,2.29918,3.827q2.61321,1.2657,9.61342,1.26331a45.942,45.942,0,0,0,6.92855-.40429,18.48975,18.48975,0,0,0,5.12722-1.522l2.17081,1.70818h5.79742l1.14931-15.31459H318.92851l-.292,3.88885h2.10669l-.48364,6.44437a1.06152,1.06152,0,0,1-.45768.91933,3.591,3.591,0,0,1-1.84221.31847,3.98008,3.98008,0,0,1-1.8956-.3048.88417.88417,0,0,1-.41908-.933l1.46665-19.54306a1.08461,1.08461,0,0,1,.47165-.93737,3.75155,3.75155,0,0,1,1.93125-.33679,3.53555,3.53555,0,0,1,1.88179.32312.93714.93714,0,0,1,.32988.951l-.38244,5.09636h13.89388l.32777-4.36825a4.98483,4.98483,0,0,0-.73431-3.73511q-1.01331-1.28959-4.43871-1.75483a81.89686,81.89686,0,0,0-10.38268-.43754,87.863,87.863,0,0,0-10.74921.43754q-3.55382.46524-4.73561,1.75483A5.62709,5.62709,0,0,0,303.26318,58.43394Z" style="fill-rule:evenodd"/><path d="M220.71,112.96472l-.36258,2.48265h12.16485l1.21582-8.33221a1.17132,1.17132,0,0,1,.58311-.92906l-1.29291,9.26127h6.31839l.46925-3.2126a6.99677,6.99677,0,0,0,.7415,1.26219c2.53648,3.172,6.38292,2.18363,9.57481,1.26317l.00253-1.44834c2.46265,3.65451,7.53294,2.18293,10.81417,1.27416l-.23956-4.00722h1.0015l.56253-2.62963c.48448-3.87491-1.11267-7.63933-5.43273-7.54548a7.16875,7.16875,0,0,0-4.83736,1.87714l.3086-.86029-2.73715-.83155-1.60066-.1636a8.36536,8.36536,0,0,0-7.3575,3.94085c-.459-3.17624-3.65775-4.60034-6.59937-3.62717l.00465-.08568h-5.35367a3.30089,3.30089,0,0,0-.22265-3.82967,3.41835,3.41835,0,0,0-4.66262-.083l.0348-.03142a3.53251,3.53251,0,0,0-.49376.53421l-2.61526-.97415-2.30384-.2552a7.3856,7.3856,0,0,0-7.81956,5.99583c-.4567,2.97628,1.59263,5.30745,4.20916,6.34812a3.77707,3.77707,0,0,1,1.18848.76066c.085.114-.0899.40316-.19686.47813a3.951,3.951,0,0,1-2.45517.09455l-2.88384-1.25246L208.3827,113.846a11.00464,11.00464,0,0,0,3.19654,1.49681l-.04156-.00958C214.68728,116.11179,218.47819,115.55362,220.71,112.96472Zm2.17588-12.3114h-.37765l-.77589,5.31225a6.66368,6.66368,0,0,0-3.43863-2.944,5.96575,5.96575,0,0,1-1.40394-.83873c.25562-1.19637,3.57405.33327,4.65473.7873l1.15-2.859A3.06811,3.06811,0,0,0,222.8859,100.65332Zm26.49993,5.87253a10.10776,10.10776,0,0,0-.30846,1.39492,7.031,7.031,0,0,0-.153,1.5195l-1.59376.49771c-.39738.08033-1.19172.21025-1.49878-.20263-.60988-.82-.13188-2.41135.56916-3.176C247.22672,105.65837,248.4665,106.1854,249.38583,106.52585Z" style="fill:#fff;fill-rule:evenodd"/><polygon points="270.056 103.606 268.326 115.447 274.562 115.447 277.327 96.513 272.533 96.513 267.012 99.135 267.874 104.666 270.056 103.606" style="fill:#fff;fill-rule:evenodd"/><path d="M288.90836,110.67878a5.75757,5.75757,0,0,0,6.07855,4.99744c4.0664-.11034,6.79425-3.087,7.47488-6.918.49954-2.81212-.66639-5.88338-3.57631-6.70591l3.12284-.29352.79492-5.44189c-4.84174-.35243-9.01074.91891-11.75366,5.02182a5.66993,5.66993,0,0,0-5.85928-5.09623,7.94415,7.94415,0,0,0-7.59861,6.91221c-.5166,2.94627.97274,6.0095,4.05514,6.596a15.1539,15.1539,0,0,1-3.76936.26971l-.8052,5.51277c3.08916.21194,5.26561.23181,7.93753-1.19877A10.527,10.527,0,0,0,288.90836,110.67878Zm6.30288-.43444c-.39329-.05665-.241-1.76512-.23728-1.78935.08355-.54591.47191-1.20357,1.10688-1.22738a.03886.03886,0,0,1,.02931.0117,3.301,3.301,0,0,1-.48983,2.74687A.55458.55458,0,0,1,295.21124,110.24434Zm-10.43608-8.59545a4.122,4.122,0,0,1,.09061,1.856l-.1047.53112-.04312.09681a1.01391,1.01391,0,0,1-.78279.41133C283.7817,104.17227,283.88908,101.89282,284.77516,101.64889Z" style="fill:#fff;fill-rule:evenodd"/><polygon points="305.76 103.606 304.03 115.447 310.265 115.447 313.031 96.513 308.236 96.513 302.716 99.135 303.578 104.666 305.76 103.606" style="fill:#fff;fill-rule:evenodd"/><path d="M221.67628,98.34484a5.7085,5.7085,0,0,0-1.35322-.50406,8.34167,8.34167,0,0,0-1.97225-.22349,6.82629,6.82629,0,0,0-4.24706,1.33574,5.08816,5.08816,0,0,0-1.94323,3.30194,3.52312,3.52312,0,0,0,.65553,2.70023,6.51872,6.51872,0,0,0,2.57919,1.91984,5.21646,5.21646,0,0,1,1.7644,1.16016,1.68953,1.68953,0,0,1,.396,1.44114,2.10954,2.10954,0,0,1-.872,1.44383,3.42178,3.42178,0,0,1-2.02256.55408,6.96193,6.96193,0,0,1-1.86009-.26013,5.33658,5.33658,0,0,1-1.46144-.63469l-.97965,2.57848a5.24189,5.24189,0,0,0,1.56262.61834,9.42556,9.42556,0,0,0,2.237.27535,7.29083,7.29083,0,0,0,4.50944-1.36688,5.2511,5.2511,0,0,0,2.0206-3.45808,3.84534,3.84534,0,0,0-.49391-2.72094,5.84114,5.84114,0,0,0-2.51747-2.00312,7.56987,7.56987,0,0,1-1.93491-1.18623,1.46817,1.46817,0,0,1-.43966-1.37351,1.88286,1.88286,0,0,1,.74559-1.22005,3.02318,3.02318,0,0,1,1.86572-.54886,5.88306,5.88306,0,0,1,1.67184.23406,5.1915,5.1915,0,0,1,1.07743.45276Z" style="fill-rule:evenodd"/><path d="M227.53781,99.09324a1.33815,1.33815,0,0,0-1.42339-1.64237,1.88594,1.88594,0,0,0-1.24738.46262,1.92431,1.92431,0,0,0-.63483,1.17975,1.4611,1.4611,0,0,0,.28352,1.172,1.40819,1.40819,0,0,0,1.11888.47038,1.93,1.93,0,0,0,1.25556-.447A1.9021,1.9021,0,0,0,227.53781,99.09324Zm-.5662,3.16384h-3.07675l-1.6924,11.58653h3.07676Z" style="fill-rule:evenodd"/><path d="M238.98809,106.7375a4.79792,4.79792,0,0,0-.56523-3.56714,2.95418,2.95418,0,0,0-2.5107-1.14212,4.45284,4.45284,0,0,0-2.19856.58466,4.68565,4.68565,0,0,0-1.4172,1.22357h-.06228l.08511-1.57939h-2.66105q-.07864.76074-.17869,1.615-.1.85437-.24646,1.86516l-1.184,8.10633h3.07661l1.00755-6.89769a2.91972,2.91972,0,0,1,.94851-1.86051,2.18331,2.18331,0,0,1,1.38041-.54225,1.271,1.271,0,0,1,1.26895.73868,3.30233,3.30233,0,0,1,.13007,1.79978l-.98769,6.762h3.07676Z" style="fill-rule:evenodd"/><path d="M248.52469,111.24526a4.459,4.459,0,0,1-.87466.27324,5.25546,5.25546,0,0,1-1.05264.10146,2.47674,2.47674,0,0,1-2.06555-.93921A3.4808,3.4808,0,0,1,244.041,108.04a4.66973,4.66973,0,0,1,1.17835-2.56537,3.26392,3.26392,0,0,1,2.40613-1.03545,4.42741,4.42741,0,0,1,1.05969.1171,3.17425,3.17425,0,0,1,.6957.25759l.84241-2.34864a4.94531,4.94531,0,0,0-.97614-.29663,6.8788,6.8788,0,0,0-1.37351-.14035,7.12623,7.12623,0,0,0-3.39522.81858,6.64455,6.64455,0,0,0-2.39205,2.18222,7.60822,7.60822,0,0,0-1.18185,3.1358,5.42122,5.42122,0,0,0,.89382,4.32485,4.74684,4.74684,0,0,0,3.84052,1.56191,9.27307,9.27307,0,0,0,1.69254-.15585,5.5779,5.5779,0,0,0,1.18919-.34285Z" style="fill-rule:evenodd"/><path d="M259.13383,111.26569a9.8801,9.8801,0,0,1-1.33095.341,8.792,8.792,0,0,1-1.56755.1381,3.1228,3.1228,0,0,1-2.08175-.643,2.34016,2.34016,0,0,1-.67823-2.12684h6.92855a5.16362,5.16362,0,0,0,.14768-.56635q.0647-.31431.11457-.65976a5.95766,5.95766,0,0,0-.64131-4.27567,3.61594,3.61594,0,0,0-3.15835-1.46567,5.55539,5.55539,0,0,0-3.00954.8672,6.6167,6.6167,0,0,0-2.12811,2.24465,8.497,8.497,0,0,0-1.07223,3.08662,5.42986,5.42986,0,0,0,.84183,4.27327,4.771,4.771,0,0,0,3.921,1.57234,12.16366,12.16366,0,0,0,2.078-.17657,8.66607,8.66607,0,0,0,1.76313-.48841Zm-5.34579-4.43124a4.61563,4.61563,0,0,1,.45137-1.20553,3.28323,3.28323,0,0,1,.85732-1.03911,2.05532,2.05532,0,0,1,1.26965-.44192,1.50606,1.50606,0,0,1,1.13043.42811,1.89046,1.89046,0,0,1,.46939,1.02516,3.87463,3.87463,0,0,1-.01438,1.23329Z" style="fill-rule:evenodd"/><polygon points="273.175 113.844 275.472 98.117 272.895 98.117 268.781 100.071 269.125 102.275 272.036 100.86 272.078 100.86 270.182 113.844 273.175 113.844" style="fill-rule:evenodd"/><path d="M286.013,107.0206a7.3446,7.3446,0,0,1-1.92449,3.07437,5.63382,5.63382,0,0,1-3.3001,1.48328q-.53478.04882-.86269.07017a4.36082,4.36082,0,0,1-.664-.00775l-.35213,2.41093a9.98082,9.98082,0,0,0,5.35028-1.13494,9.30483,9.30483,0,0,0,3.50556-3.45215,13.48662,13.48662,0,0,0,1.69282-4.96658,8.92305,8.92305,0,0,0-.08793-3.40481,4.32522,4.32522,0,0,0-1.39591-2.36246,4.19624,4.19624,0,0,0-2.74475-.88438,5.6723,5.6723,0,0,0-2.89935.79392,6.45482,6.45482,0,0,0-2.10895,2.03524,6.87962,6.87962,0,0,0-1.04967,2.75731,4.46229,4.46229,0,0,0,.74924,3.50049,3.58657,3.58657,0,0,0,2.89737,1.29262,4.65185,4.65185,0,0,0,1.76863-.33242,4.2948,4.2948,0,0,0,1.36675-.89355Zm-1.20624-6.99238a1.52641,1.52641,0,0,1,1.48682,1.09914,6.88509,6.88509,0,0,1,.006,3.39664,1.44665,1.44665,0,0,1-.19333.43331,2.94354,2.94354,0,0,1-.8827.82253,2.45949,2.45949,0,0,1-1.26895.36807,1.55844,1.55844,0,0,1-1.41395-.79631,3.4032,3.4032,0,0,1-.27337-2.1904,4.70106,4.70106,0,0,1,.89975-2.24A2.12155,2.12155,0,0,1,284.80672,100.02822Z" style="fill-rule:evenodd"/><path d="M293.91778,104.877a7.01957,7.01957,0,0,1,1.81683-2.88934,6.22994,6.22994,0,0,1,3.5057-1.62645q.39547-.04755.73347-.07539.338-.02811.633-.02874l.34609-2.36922a10.97682,10.97682,0,0,0-4.72616.97612,9.19246,9.19246,0,0,0-3.13427,2.41755,11.29217,11.29217,0,0,0-1.82824,3.092,13.3612,13.3612,0,0,0-.80857,3.0001,8.54064,8.54064,0,0,0,.12386,3.44821,4.36674,4.36674,0,0,0,1.49725,2.36964,4.5678,4.5678,0,0,0,2.87114.881,5.50529,5.50529,0,0,0,2.85693-.78927,6.2706,6.2706,0,0,0,2.05314-2.03271,7.12563,7.12563,0,0,0,1.02432-2.77365,4.823,4.823,0,0,0-.703-3.67452,3.46677,3.46677,0,0,0-2.87285-1.31757,4.66378,4.66378,0,0,0-1.8674.38442,4.59266,4.59266,0,0,0-1.45878,1.00783Zm1.33419,6.97181a1.683,1.683,0,0,1-1.59558-1.06673,4.89275,4.89275,0,0,1-.26351-2.59666,3.12361,3.12361,0,0,1,.59127-1.45016,2.91586,2.91586,0,0,1,1.00149-.83958,2.34023,2.34023,0,0,1,1.02968-.27056,1.64268,1.64268,0,0,1,1.52357.882,3.435,3.435,0,0,1,.26606,2.11543,5.08026,5.08026,0,0,1-.86594,2.27649A2.10618,2.10618,0,0,1,295.252,111.8488Z" style="fill-rule:evenodd"/><polygon points="308.879 113.844 311.176 98.117 308.598 98.117 304.484 100.071 304.828 102.275 307.74 100.86 307.781 100.86 305.885 113.844 308.879 113.844" style="fill-rule:evenodd"/><path d="M109.4943,117.88958l52.7782-1.89109c-1.43058-.71613-2.85214-1.451-4.30231-2.12444-.76165-.3537-.67343-.32806-.43852-1.01784.55619-1.63293,1.10562-3.26474,1.54105-4.937a45.75794,45.75794,0,0,0,1.38168-8.823c.08272-1.38436.14049-2.77675.08652-4.16082a16.09638,16.09638,0,0,0-.45135-3.47569,6.27833,6.27833,0,0,1-.22349-2.45574c.10174-.81.13415-1.62885.20616-2.44306.04227-.47785.11188-.9533.15289-1.43128.14613-1.69607.29874-3.39213.42021-5.09031a2.24127,2.24127,0,0,0-.63623-1.65322,2.72906,2.72906,0,0,0-2.16137-.7167c-1.12324-.044-2.25127.04974-3.37733.07-2.14545.039-4.29075.0682-6.43619.09864a2.76753,2.76753,0,0,1-.34215-.03819,1.79966,1.79966,0,0,1-.03269-.25661c.02945-1.06349.04946-2.12741.09681-3.19.0582-1.3046.159-2.60765.2056-3.91253q.07165-2.00066.05876-4.00342a.84437.84437,0,0,0-.36779-.60143c-1.15382-.68231-2.33808-1.31333-3.49316-1.99339a.77625.77625,0,0,1-.32411-.55916c-.01311-.67344.05327-1.34786.06891-2.02242a4.66439,4.66439,0,0,0-1.049-3.26671,1.29429,1.29429,0,0,0-1.18805-.60467,7.467,7.467,0,0,0-1.81923.69119c-.891.4715-1.73722,1.02727-2.63809,1.56867a1.31355,1.31355,0,0,1-.12175-.294c-.041-.54421-.10779-1.08956-.101-1.63364a5.48158,5.48158,0,0,0-.91046-3.51895,1.36468,1.36468,0,0,1-.2428-.6196c-.08976-.70867-.16078-1.42086-.20686-2.13375-.08089-1.252-.11075-2.508-.22307-3.757-.03086-.34383-.19432-.85818-.44148-.96767a1.54409,1.54409,0,0,0-2.1749,1.47877c.09216,1.88334.09117,3.77162.10188,5.65792a3.94985,3.94985,0,0,1-.20771,1.02276,4.5327,4.5327,0,0,0-.25619.69148c-.04269.47277-.01691.9516-.01677,1.42776,0,.81054.00254,1.62109.003,2.43164.00057.98233.00015,1.96451.00015,3.02194-1.26148.17009-2.48041.33454-3.77176.50871,0-.54591.00226-.97007-.00055-1.39436-.00523-.82845.0107-1.65788-.02481-2.48506-.07582-1.76342-.196-3.52487-.26648-5.28843-.08919-2.239-.14148-4.47929-.22011-6.71887q-.08835-2.51365-.20686-5.02618c-.02578-.54182-.12189-1.08012-.1474-1.62194a8.414,8.414,0,0,1,.01437-1.70734,3.76786,3.76786,0,0,1,.52266-1.11634c.26957-.49081.16163-.89805-.34552-1.00205q-1.83051-.37562-3.67439-.68288c-1.3294-.22307-2.66655-.39963-3.99637-.62031-1.60616-.26647-3.20738-.56225-4.812-.83718-1.5102-.259-3.02-.52-4.53383-.75587a3.74454,3.74454,0,0,0-2.54522.13105c-.76615.43416-1.51006.90834-2.25422,1.37985q-2.64135,1.67323-5.27351,3.36126-3.83664,2.45109-7.6685,4.90937a1.41705,1.41705,0,0,0-.677,1.262,2.77582,2.77582,0,0,0,1.10408,2.248.96408.96408,0,0,1,.33651.4694c.11428.46445.16022.94512.25408,1.41521.2914,1.45806.60071,2.91259.88649,4.37164.15515.79208.25985,1.59432.41936,2.38556.11908.58959.31988,1.163.4305,1.75356.20208,1.07969.34426,2.17081.54943,3.24994.164.86269.40373,1.71072.57564,2.57214.28959,1.45157.53534,2.91188.83366,4.36162.1312.63765.02369.96486-.579,1.201-1.04066.40753-2.0716.85423-3.13989,1.173a3.90482,3.90482,0,0,0-2.52534,2.05893c-.10654.21123-.33173.48277-.5276.505a2.36784,2.36784,0,0,0-1.25612.64624,14.88991,14.88991,0,0,0-3.68467,4.15406,22.64946,22.64946,0,0,0-1.67676,3.61378,21.51784,21.51784,0,0,0-.81985,3.64775c-.19121,1.19539-.282,2.40994-.35694,3.61971a15.58952,15.58952,0,0,0,.03692,2.33258c.07.79265.2242,1.57924.36751,2.36372.17559.96076.34975,1.92364.57874,2.87257a20.03685,20.03685,0,0,0,.645,2.04976,4.4563,4.4563,0,0,0,.74122,1.65027c.00916.01014.00268.033.00973.04664a9.9793,9.9793,0,0,0,1.18961,2.221A16.3593,16.3593,0,0,0,89.06,103.78813c1.23963.9478,2.56354,1.78513,3.84912,2.673.87494.6041,1.73875,1.22456,2.61963,1.81964,1.04784.70768,2.1219,1.37689,3.15946,2.099.76983.53576,1.4792,1.15847,2.25171,1.69,1.18664.81633,2.41444,1.5729,3.60617,2.38246,1.1603.788,2.29467,1.61377,3.44526,2.41629.45275.31579.93271.59382,1.37476.9237Q109.43053,117.84041,109.4943,117.88958Zm12.1034-79.04322c.589.10794,1.20793.22138,1.96648.36032a21.24115,21.24115,0,0,1-2.63062,2.23042C121.164,40.53862,121.37209,39.72624,121.5977,38.84636Zm-11.34387,1.463v-3.008c2.27593.299,4.51847.59367,6.81117.89509a1.17932,1.17932,0,0,1-1.23414.7649c-.73431.03367-1.47328-.05059-2.21069-.06934a3.58112,3.58112,0,0,0-2.05666.66175c-.387.25083-.75264.53463-1.1279.8035ZM125.65,57.53828q-.68845-.81336-1.37647-1.627c-.052-.06172-.08286-.1529-.147-.1908a1.29974,1.29974,0,0,1-.641-1.44989c.02663-.21236.07-.443.10329-.65948a4.64314,4.64314,0,0,0-.4553-2.319c-.1543-.41965-.2621-.861-.43825-1.27783-.76-1.79837-1.48581-3.61111-2.22576-5.41807-.41331-1.00952-.41824-1.04292.4219-1.8002,1.1968-1.07857,2.408-2.14136,3.61548-3.20795a4.70811,4.70811,0,0,1,.39963-.279,2.35919,2.35919,0,0,1,.10414.4119c.07089,1.52767.12852,3.056.20335,4.58357.03846.78575.11428,1.5698.15486,2.35555.02677.51914.00606,1.04066.03283,1.5598.08159,1.58882.18841,3.17624.2614,4.76549.061,1.3318.08892,2.665.12978,3.99764.00522.16967.00071.33961.00071.50941ZM107.25176,39.29067c0,2.02355-.00423,3.92549.0024,5.82757.00239.69119.03663,1.38224.04636,2.07344.02143,1.52879.03,3.05773.0565,4.58638.01748,1.00051.06553,2.00059.08329,3.00123a12.23666,12.23666,0,0,1-.04552,1.49286.72262.72262,0,0,1-.32256.44192q-1.99367,1.2769-4.00807,2.52225-1.60623.99874-3.22485,1.97747a3.36277,3.36277,0,0,1-.46446.20207c-.26986-1.26162-.55831-2.46828-.78223-3.68678-.38442-2.09316-.71684-4.19577-1.09365-6.29062-.2318-1.28966-.50616-2.57186-.75911-3.85786a4.736,4.736,0,0,1-.167-1.01769.89506.89506,0,0,1,.31114-.62806c1.11887-.79153,2.26254-1.54782,3.40072-2.31187,1.21639-.81675,2.42685-1.64279,3.65634-2.43925.935-.6058,1.8949-1.17355,2.84707-1.75229A2.68468,2.68468,0,0,1,107.25176,39.29067Z" style="fill-rule:evenodd"/><path d="M116.38156,88.14211q.08435-.096.16825-.19193-1.01416-1.01354-2.02834-2.02693c-.31015.89425-.18319,1.22089.44741,1.54937C115.4308,87.7133,115.91005,87.92016,116.38156,88.14211Z" style="fill:#8c8d8e;fill-rule:evenodd"/><path d="M139.89605,61.83537l.09934.04073a8.1068,8.1068,0,0,0,.16163,1.48018c.15318.52561.09555,1.12789.55746,1.56388.38456.363.68218.32439.91286-.1636a5.578,5.578,0,0,0,.20137-2.06949,12.78033,12.78033,0,0,0-.02156-1.73144,8.42513,8.42513,0,0,0-.1753-1.47651.60776.60776,0,0,0-.53422-.26493,1.22865,1.22865,0,0,0-.62679.58382C140.22832,60.45848,140.08107,61.1539,139.89605,61.83537Z" style="fill:#b0b0b1;fill-rule:evenodd"/><path d="M121.30135,64.32324c.22293.58607.44657,1.24753.73037,1.88207.10907.24407.78434.24.86931.00832a4.61,4.61,0,0,0,.24858-1.10168,7.85018,7.85018,0,0,0-.03284-.98261c-.02536-1.088-.03044-2.177-.08441-3.26361a.6987.6987,0,0,0-.35426-.50293.68615.68615,0,0,0-.551.16205,2.37131,2.37131,0,0,0-.80618,1.61264A18.60109,18.60109,0,0,0,121.30135,64.32324Z" style="fill:#b0b0b1;fill-rule:evenodd"/><path d="M111.291,101.631c.26859.81168.51915,1.57826.77969,2.34132a.3034.3034,0,0,0,.16727.15557,2.05063,2.05063,0,0,0,1.54894-.40823,2.98675,2.98675,0,0,0-.20756-4.10967,1.02449,1.02449,0,0,0-1.54205.14514A18.94165,18.94165,0,0,0,111.291,101.631Z" style="fill:#939598;fill-rule:evenodd"/><path d="M90.46121,88.07926a3.45945,3.45945,0,0,0,.69134,2.414,1.36272,1.36272,0,0,0,2.18476-.0372,3.204,3.204,0,0,0,.42894-2.68741,4.31373,4.31373,0,0,0-.43853-1.01389,1.36371,1.36371,0,0,0-2.00536-.43092C90.86607,86.83835,90.30636,87.3689,90.46121,88.07926Z" style="fill:#939598;fill-rule:evenodd"/><path d="M133.48494,61.33822c-.00268.67682.12259.80294.57663.51772.54309-.34087,1.0408-.75418,1.55769-1.1369a.85746.85746,0,0,0,.34706-.79054c-.03551-1.09365-.04283-2.18843-.05242-3.28278a2.33461,2.33461,0,0,0-.75516-1.89236.622.622,0,0,1-.2025-.35609c-.071-.53464-.13711-1.07223-.15811-1.61053-.01606-.41063.07835-.82689.04989-1.23555-.0248-.355-.19207-.6988-.228-1.05433-.08638-.85381-.12428-1.71227-.20558-2.5665-.00945-.09822-.15713-.22843-.264-.25675-.0744-.01987-.23082.08835-.27394.17685a.93948.93948,0,0,0-.06087.41922c.03917,1.86362.08652,3.72723.12485,5.59084a1.9064,1.9064,0,0,1-.35116,1.40606,1.17343,1.17343,0,0,0-.24759.7267C133.37136,57.7753,133.43322,59.55676,133.48494,61.33822Z" style="fill:#909090;fill-rule:evenodd"/><path d="M90.32678,74.97014a2.85354,2.85354,0,0,0-.47432.25689,12.40023,12.40023,0,0,0-4.50677,6.92249,13.51235,13.51235,0,0,0-.53407,3.01433c-.12147,1.48863-.15107,2.98643-.166,4.481a13.047,13.047,0,0,0,.173,2.24972c.217,1.31052.52717,2.60554.75926,3.9138a12.93659,12.93659,0,0,0,1.92026,4.39784c.05186.08554.15641.13909.34862.30354-.09117-.246-.13189-.36032-.17557-.47334a14.68773,14.68773,0,0,1-.60158-1.59545c-.16923-.66047-.21475-1.35194-.36314-2.019-.073-.32819-.32847-.62088-.37794-.94822-.16557-1.09365-.29014-2.19449-.40047-3.29546-.05962-.59467-.07075-1.19525-.0775-1.79344-.00227-.19629.17346-.44008.104-.58156a2.83945,2.83945,0,0,1-.0465-1.60094,27.30294,27.30294,0,0,1,.76419-5.07875,10.514,10.514,0,0,1,1.23738-3.34492c.45727-.665.96471-1.2953,1.43917-1.94859.31509-.43373.83719-.73727.89426-1.33433C90.28972,76.008,90.29832,75.51689,90.32678,74.97014Z" style="fill:#8c8d8e;fill-rule:evenodd"/><path d="M107.33518,112.55691c.03594-.02678.072-.05369.1078-.08075-.14049-.3785-.27463-.75968-.42289-1.13508-.44359-1.12183-.93511-2.22689-1.32559-3.36662a15.24179,15.24179,0,0,1-.643-2.58017c-.19179-1.23-.313-2.4742-.39625-3.71693a16.9942,16.9942,0,0,1,.05453-2.27284c.06214-.91792.1233-1.84036.26929-2.74729a16.4013,16.4013,0,0,1,1.94027-5.12131,6.65315,6.65315,0,0,1,2.14178-2.69374.82151.82151,0,0,0,.397-.87946c-.03706-.48686-.05918-.97471-.08821-1.47032-.51167-.07229-.77194.3072-1.08773.56282a10.0702,10.0702,0,0,0-2.35372,3.42243A18.85651,18.85651,0,0,0,103.938,95.428a19.31155,19.31155,0,0,0-.46854,2.88751,30.95832,30.95832,0,0,0,.09836,3.96974,25.95021,25.95021,0,0,0,.57846,4.07683,15.0825,15.0825,0,0,0,2.8348,5.89071A2.47922,2.47922,0,0,0,107.33518,112.55691Z" style="fill:#8c8d8e;fill-rule:evenodd"/><path d="M119.57387,57.60353c-.03256-.05834-.06525-.1164-.09808-.17474-.30621.10639-.61764.20095-.91539.32763-.07539.032-.10738.16642-.15924.25379.10259.03607.23449.13119.30283.09751C119.004,57.96,119.28555,57.77516,119.57387,57.60353Zm-6.26287.52589-.03015.10372c.36793.20179.736.40372,1.07025.58691.10357-.18756.18629-.33721.30438-.55126C114.16847,58.21834,113.73967,58.174,113.311,58.12942Zm2.97178.24886-.10118.1505c.25139.34271.50279.6857.8307,1.133.10456-.50786.17924-.87086.27366-1.329C116.88294,58.35109,116.58279,58.36475,116.28278,58.37828Zm9.819,4.82017c-.05792-1.19694-.0754-2.386-.19292-3.565a2.48031,2.48031,0,0,0-.50857-1.307c-.58973-.68724-1.30374-1.26683-1.95506-1.9025a.64072.64072,0,0,0-.93752-.05439c-.89538.68837-1.78512,1.38421-2.67613,2.07794-.5197.40471-.98218.973-1.78061.539-.11738.59805-.24238,1.1279-.31171,1.66478a.50645.50645,0,0,0,.2273.42613.91922.91922,0,0,0,1.23329-.52871,6.11619,6.11619,0,0,1,2.52663-2.44391,1.75343,1.75343,0,0,1,.97105-.2993,2.54222,2.54222,0,0,1,2.17687,2.02778c.31311,1.1238.45346,2.29566.67076,3.45342C125.61465,63.27567,125.8008,63.24622,126.1018,63.19845Zm-15.69451.33115a3.27794,3.27794,0,0,0,.37978-.029,4.335,4.335,0,0,0,1.66181-1.05348c.11048-.0861.35229-.18122.39992-.13472a.59122.59122,0,0,1,.18474.453,1.00966,1.00966,0,0,1-.32438.56,16.58165,16.58165,0,0,1-1.703,1.17355c-.43444.25266-.72445.49264-.579,1.05518a9.777,9.777,0,0,1,.116,1.03841c.0155.10667.08526.26647.1653.292a1.17159,1.17159,0,0,0,1.015-.614,7.06644,7.06644,0,0,1,1.403-2.76,4.73681,4.73681,0,0,1,2.85764-2.05625.522.522,0,0,0,.37907-.77447c-.2762-.59678-.48589-1.22442-.69867-1.77343a9.44275,9.44275,0,0,0-.99881.67443.556.556,0,0,1-.68077.1395c-1.07137-.53745-2.14051-1.07941-3.21387-1.61306a1.721,1.721,0,0,0-.3637-.08568Zm-11.54593.10752a1.998,1.998,0,0,0,1.20186,1.85417c.64849.29029,1.47413.2514,1.90871.97007.02494.04143.11371.05989.17374.062a8.27836,8.27836,0,0,1,3.04816.88946c.147.06482.268.19644.41809.24463.34285.11062.70825.15783,1.0425.28733.50081.19418.65328.13485.67752-.401.02466-.5476-.03607-1.101.01621-1.64477.03974-.4126.02635-.67809-.4832-.664a1.0286,1.0286,0,0,1-.41627-.14571c-.45839-.21448-.89862-.90961-.72472-1.23724.22546-.42472.37877-.953.86381-1.15594.87057-.36412.7632-1.18073.85409-1.85233a15.72747,15.72747,0,0,0-.02523-2.104c-.00042-.31537-.19319-.5011-.49377-.371-.60016.25971-1.20342.52082-1.77427.83732-.5352.29649-1.015.69232-1.54613.99726-1.31953.75757-2.6402,1.51555-3.99031,2.21562A1.50241,1.50241,0,0,0,98.86136,63.63712Z" style="fill:#939598;fill-rule:evenodd"/><path d="M107.84924,85.8246q-3.46209-2.00171-7.075-4.09064a1.54228,1.54228,0,0,0-.03607.36356q.3141,1.55043.64257,3.09775c.19249.9068.46236,1.80359.57128,2.72a22.252,22.252,0,0,1,.13246,3.1134,24.181,24.181,0,0,1-.56958,5.42948,15.22347,15.22347,0,0,1-.94738,2.80113,13.88594,13.88594,0,0,1-2.70784,4.26947c-.32185.31142-.61341.65441-.94639,1.01276a1.63369,1.63369,0,0,0,.39527.11752c1.33137-.02141,2.66317-.04058,3.99383-.08708.45432-.01578.6554-.39259.7618-.76024.04509-.15628-.11851-.37329-.20461-.61045.04565-.06933.20235-.20264.21842-.351.05242-.48532.04622-.97669.07595-1.465.071-1.16044.11062-2.32469.23815-3.47907a23.118,23.118,0,0,1,.47023-2.48266,12.33132,12.33132,0,0,1,.47108-1.63631c.31566-.84409.66611-1.6762,1.03109-2.50042a15.93988,15.93988,0,0,1,1.141-2.36555C106.21321,87.84914,107.05251,86.864,107.84924,85.8246Z" style="fill:#939598;fill-rule:evenodd"/><path d="M90.40823,78.87914l-.10892-.02973a.99676.99676,0,0,0-.18.1963c-.40372.78814-.8345,1.56515-1.19046,2.37471a14.683,14.683,0,0,0-.89284,2.4098,45.43565,45.43565,0,0,0-.922,4.653,11.69667,11.69667,0,0,0-.01282,3.23205,38.5651,38.5651,0,0,0,1.02192,4.4497,17.82971,17.82971,0,0,0,1.8095,4.56793,5.88473,5.88473,0,0,0,3.17991,2.90582,5.45043,5.45043,0,0,0,1.992.20645,2.03718,2.03718,0,0,0,1.32545-.75574c.3334-.366.83422-.57874,1.19722-1.0136a15.05711,15.05711,0,0,0,1.84247-2.69037,8.28833,8.28833,0,0,0,1.20906-3.702,20.84338,20.84338,0,0,1,.32509-2.23732c.02368-.18122-.08469-.37568-.08638-.56451-.00592-.68485.01931-1.37041.00663-2.05512-.00353-.19263-.18869-.41838-.13218-.56958a3.37293,3.37293,0,0,0-.22758-2.18152c-.12528-.43909-.02706-.46882.22574-.53308-.09018-.26577-.25477-.501-.22194-.7043a2.91905,2.91905,0,0,0-.13908-1.37491c-.04467-.14219-.0954-.2831-.13021-.42768-.21208-.87551-.35722-1.773-.64441-2.62287-.42655-1.26275-.92285-2.50478-1.44678-3.73131a18.46075,18.46075,0,0,0-1.233-2.40783,5.76656,5.76656,0,0,0-1.07167-1.0022c-.08469.54873-.15642.9867-.21912,1.42579-.21109,1.47539-.41063,2.95247-.63074,4.42645-.16022,1.07307-.3778,2.13868-.50377,3.21542a3.60715,3.60715,0,0,0,.16148,1.22371c.09484.39048.3282.75362.38456,1.14551.08638.60086.076,1.21624.102,1.8257a5.6267,5.6267,0,0,1-1.065,3.44554,2.77738,2.77738,0,0,1-1.53767,1.17707,2.21235,2.21235,0,0,1-2.18152-.94372A9.6099,9.6099,0,0,1,89.298,89.9416a7.1908,7.1908,0,0,1,.01438-3.78049,3.68771,3.68771,0,0,1,.52491-.99289c.20066-.36173.56676-.71825.57465-1.08336.02058-.95062-.11583-1.90476-.18867-2.85764a.90944.90944,0,0,1,.002-.14133Q90.31607,79.98252,90.40823,78.87914Z" style="fill:#cbccce;fill-rule:evenodd"/><path d="M114.19793,88.44733c0,.3816-.0024.72487.00042,1.06814q.01543,1.788.03382,3.57616c.011,1.201.01634,2.40206.034,3.60308a1.87711,1.87711,0,0,0,.468,1.49075,3.99809,3.99809,0,0,1,1.19453,2.44193,5.50568,5.50568,0,0,1-1.52048,4.90261,2.29566,2.29566,0,0,1-2.58919.38822,3.87823,3.87823,0,0,1-1.66111-2.21252,6.6915,6.6915,0,0,1,.39555-4.67207,1.62617,1.62617,0,0,0,.1419-.87649c-.28027-1.51457-.27408-3.06365-.61565-4.57385a22.10207,22.10207,0,0,1-.33483-2.82424c-.03437-.37018-.09934-.48954-.48686-.28605a3.149,3.149,0,0,0-1.34194,1.44311,17.21093,17.21093,0,0,0-1.52866,6.3229,28.2673,28.2673,0,0,0-.03565,3.01546,16.81173,16.81173,0,0,0,.14345,2.63738,41.07839,41.07839,0,0,0,1.05532,4.71673,21.7499,21.7499,0,0,0,1.56163,3.73864,6.4321,6.4321,0,0,0,2.57778,2.39628,5.2106,5.2106,0,0,0,3.09225.92271,6.71492,6.71492,0,0,0,.93808-.13415c.48081-.102.95625-.23011,1.37365-.33228a2.21876,2.21876,0,0,1,.39625-.41359,5.482,5.482,0,0,0,2.32159-2.76674,10.22629,10.22629,0,0,0,.94484-2.71065c.08807-.8641.35638-1.71016.43881-2.57426.08089-.84873-.02015-1.71381.04369-2.56537a22.24273,22.24273,0,0,0-.31255-5.47979,24.10892,24.10892,0,0,0-1.20977-4.32429,15.68018,15.68018,0,0,0-2.91794-4.719A4.28457,4.28457,0,0,0,114.19793,88.44733Z" style="fill:#cbccce;fill-rule:evenodd"/><path d="M158.85951,91.98065a3.65249,3.65249,0,0,0-.0455-.55239c-.24788-1.08815-.48857-2.1787-.76913-3.25839a15.40047,15.40047,0,0,0-1.39915-3.32224,1.46248,1.46248,0,0,0-1.48-.96175c-1.48766.09428-2.98222.07737-4.47325.1257-1.48158.04819-2.96205.13641-4.44391.17741-2.26495.06285-4.53088.08794-6.79582.15205-2.33765.06623-4.67473.16121-7.012.24167-1.9118.06581-3.82347.1343-5.73556.19151-1.41352.04241-2.82761.071-4.2417.10033-.60636.0124-1.21357-.00423-1.81951.0193-1.21949.04749-2.43855.10992-3.65719.17418-.4932.02578-.98528.07285-1.5729.11738.14741.1753.22293.27338.30677.36342a20.78633,20.78633,0,0,1,1.96042,2.13868c.83549,1.20032,1.51654,2.50718,2.29566,3.74836a.93324.93324,0,0,0,.63159.3988c.89481.04241,1.79273.00916,2.68952.011,1.77723.0038,3.55474.0155,5.332.01747,1.316.00141,2.63188-.01268,3.94789-.01029,2.14925.00381,4.29864.00789,6.44775.02551,1.97.01606,3.93973.04932,5.90959.0768,2.01777.02832,4.0354.07046,6.05318.08342,1.03742.00662,2.075-.04847,3.11269-.05538C155.66988,91.973,157.23912,91.98065,158.85951,91.98065Z" style="fill:#8c8d8e;fill-rule:evenodd"/><path d="M118.08678,116.05768a8.18327,8.18327,0,0,0-.89368.58593c23.58127-2.42714,36.7562-1.816,37.49545-2.372a5.02583,5.02583,0,0,0,2.01636-3.48161c.4732-1.27754.1932-.79434.62412-2.0871.20094-.60284.34538-1.2247.53336-1.90223-2.44911,0-4.822-.00028-7.19488.00015-2.03355.00042-4.06753-.01889-6.10081.01141-1.09167.0162-1.09153.05482-1.22878-.9392a.33406.33406,0,0,1,.02818-.106,2.09651,2.09651,0,0,1,.53351-.15149c.851-.0131,1.7024-.00521,2.55381.00465,1.14607.01325,2.29186.04622,3.43807.05,1.25767.00422,2.51577-.03664,3.773-.01846,1.28811.01888,2.57552.10089,3.86377.11823.24548.00324.66217-.11048.71163-.26366.25872-.79815.4305-1.6249.61749-2.44517a4.64912,4.64912,0,0,0,.03622-.57931c.11808-1.23963.32748-2.47828.33946-3.71891.01677-1.7327-.11682-3.46667-.17741-5.2005-.0117-.33453-.16713-.44444-.48574-.42951-.41049.019-.82265.01508-1.23386.00874-2.41769-.03678-4.835-.09117-7.25279-.11316-3.45-.03142-6.90051-.03057-10.35056-.06158-2.57932-.02325-5.15836-.08821-7.73769-.11076-2.77153-.02409-5.54334-.02113-8.315-.02846-.93948-.00268-1.879-.00042-2.82071-.00042a.73872.73872,0,0,0-.01776.2194c.352,1.25119.71262,2.5,1.06336,3.75146a18.35245,18.35245,0,0,1,.76108,3.87787,34.27683,34.27683,0,0,1-.37653,8.26908c-.05129.27859.05158.38512.3313.377.46107-.01339.92286-.00113,1.38407-.00986,1.21639-.02241,2.43277-.05073,3.6493-.076q2.25219-.04629,4.5048-.09032c1.30657-.02354,2.61441-.01226,3.91957-.06891a5.85129,5.85129,0,0,1,2.81593.45854,2.26756,2.26756,0,0,1,.4164.33129l-.07848.1264c-.48307,0-.96655-.0062-1.44961.00127-1.91462.02959-3.8291.05721-5.74345.09864-1.01755.022-2.0344.085-3.052.10428-2.16545.041-4.331.08864-6.49637.081-.53294-.002-.70655.21574-.8569.64849C120.66864,114.44842,119.754,115.3631,118.08678,116.05768Z" style="fill:#8c8d8e;fill-rule:evenodd"/><path d="M113.90947,42.67363l-.03706.107c.11752.169.2242.34651.35483.50462.19094.23082.39287.50391.154.75362a.5832.5832,0,0,1-.828-.04214c-.21081-.18629-.34356-.46516-.56324-.63553a1.38194,1.38194,0,0,0-.70656-.29113c-.11611-.008-.32847.24167-.36511.40443-.20743.92-.36539,1.85107-.56211,2.7735a2.08777,2.08777,0,0,1-.28916.74643,2.271,2.271,0,0,0-.56183,1.43777c.019.62736-.22181,1.25852-.252,1.8925-.041.86593-.00606,1.73679.02494,2.60455.04016,1.11774.11231,2.23422.16361,3.35168a.96639.96639,0,0,0,.86324.93554c.95894.041,1.91829.09357,2.87765.09892a14.09062,14.09062,0,0,0,4.07261-.27239c.75305-.21856,1.49709-.46854,2.24718-.697.163-.0496.36723-.02127.49757-.10963.33158-.22518.62173-.511.94809-.7453a1.69143,1.69143,0,0,0,.82534-1.34223,10.77842,10.77842,0,0,0-.94385-4.07373c-.5128-1.53528-1.23189-3.00292-1.8856-4.4893-.44853-1.02051-.92934-2.02722-1.4131-3.03181-.23533-.48827-.496-.51941-.92582-.23152a.887.887,0,0,1-.56592.05735,5.60678,5.60678,0,0,0-.68119-.1822.476.476,0,0,0-.3427.32c-.01762.75348-.29043.91835-.98387.58649C114.67126,42.93193,114.28431,42.81539,113.90947,42.67363Zm6.16677,7.51448a1.54,1.54,0,0,1-.69881,2.16546,4.54306,4.54306,0,0,1-2.281.54069,23.63638,23.63638,0,0,1-2.55522-.16093,7.49524,7.49524,0,0,1-1.43509-.51011.61127.61127,0,0,0-.68908.04354c-.12485.09977-.416.04-.60636-.02381a.62873.62873,0,0,1,.01226-.4832,3.1803,3.1803,0,0,1,.655-.75517c.08976-.07356.35385-.007.49673.0713a14.34462,14.34462,0,0,0,1.26316.74981,3.55552,3.55552,0,0,0,1.39493.32622,19.85108,19.85108,0,0,0,2.9567-.26675c.88255-.15374.9757-.39034,1.00247-1.285C119.59613,50.46247,119.897,50.33368,120.07624,50.18811Zm-4.356-.03537c.26591,0,.5328.014.79772-.003.52718-.03368.79745-.25336.69387-.75052a15.10364,15.10364,0,0,0-.6523-1.92054c-.02663-.07525-.0985-.14317-.10174-.21659-.01-.2225.00367-.44614.008-.6692.20263.11357.48785.177.59325.34975a21.76179,21.76179,0,0,1,1.04179,1.94393,1.47632,1.47632,0,0,1-.31565,1.60052,1.37913,1.37913,0,0,1-1.59644.17263,5.75587,5.75587,0,0,1-.53533-.36723Zm3.276-3.87a7.39718,7.39718,0,0,0-.9998.28916c-.382.16853-.55-.07469-.598-.32834a.65355.65355,0,0,1,.26689-.55154,1.97422,1.97422,0,0,1,1.715-.02818c.15994.06595.24392.31678.36257.48292-.16163.06735-.3203.14331-.48616.1977a.80873.80873,0,0,1-.2411.00409Zm-6.86894,1.39845a3.10806,3.10806,0,0,1,.20771-.56367,1.98985,1.98985,0,0,1,1.72777-.86536c.13444.03608.3334.18671.33439.28662.00169.17812-.112.50533-.19954.5128a4.96369,4.96369,0,0,0-1.744.666C112.39392,47.74674,112.2988,47.70306,112.12731,47.68122Zm6.53018-3.83136c-.58789.05411-1.14677.13105-1.707.14176-.16826.00324-.34-.17812-.52449-.28324A1.63947,1.63947,0,0,1,118.65749,43.84986Zm-6.41942,1.67492c.072-.17065.09216-.34017.18756-.423a2.53562,2.53562,0,0,1,1.48342-.65906c.09357-.00747.268.06905.27563.12443a.45174.45174,0,0,1-.11654.3227.70631.70631,0,0,1-.29536.12471C113.29846,45.174,112.823,45.33074,112.23807,45.52478Z" style="fill:#eccbaa;fill-rule:evenodd"/><path d="M98.49595,66.022c.1157.166.25309.28028.2793.416.09047.46869.14683.94428.20715,1.41818.06651.52364.10794.56916.62228.63948q-.18009-1.1467-.36483-2.321C99.00494,66.30748,98.8822,65.50242,98.49595,66.022Z" style="fill:#cc2127;fill-rule:evenodd"/><path d="M112.59938,70.22085a.7395.7395,0,0,0-.79674.70106,1.08594,1.08594,0,0,0,.93061,1.03643,1.02419,1.02419,0,0,0,.70655-.81111C113.41162,70.6405,113.103,70.15067,112.59938,70.22085Z" style="fill:#cc2127;fill-rule:evenodd"/><path d="M92.4959,79.18507c-.51209-.02043-.84648.19151-.869.59509-.01522.26943-.007.54013-.02029.8097-.02706.55084-.07328,1.10084-.08991,1.6521-.01564.52111-.00324,1.0432-.00324,1.55487h.98247Z" style="fill:#cc2127;fill-rule:evenodd"/><path d="M111.79277,76.13706c.35695-1.2767.71374-2.55241,1.06462-3.807l-1.14-.362c-.26942.99486-.56479,1.9669-.79152,2.95458C110.68123,75.98769,110.74112,75.82479,111.79277,76.13706Z" style="fill:#cc2127;fill-rule:evenodd"/><path d="M105.96393,72.01189c-.75968-.2304-1.56107-.47319-2.36654-.7174-.205,1.749-.10357,1.89588,1.29023,2.41022a3.16377,3.16377,0,0,0,.29747.14106c.28493.071.57437.12443.86212.18488a8.11227,8.11227,0,0,0,.05581-.91426C106.087,72.76213,106.01677,72.4104,105.96393,72.01189Z" style="fill:#cc2127;fill-rule:evenodd"/><path d="M112.88628,66.133c.51773-.18206,1.04123-.34891,1.5512-.55027.46615-.184.92314-.394,1.37379-.61383a3.21107,3.21107,0,0,0,1.134-.64441,6.704,6.704,0,0,0,.68668-1.48089c.12035-.2707.02636-.4064-.24871-.49207a2.34421,2.34421,0,0,0-2.00453.37864A6.85181,6.85181,0,0,0,112.88628,66.133Z" style="fill:#cc2127;fill-rule:evenodd"/><path d="M98.06856,62.18259c.049-.0248.09821-.04946.14725-.07441a1.362,1.362,0,0,0,.08357-.46192q-1.368-7.35306-2.756-14.7064c-.41668.04974-.6592.18065-.551.67217.19968.90623.34666,1.82387.52548,2.73489q.51449,2.61893,1.04066,5.23573.62461,3.10065,1.267,6.1979A1.44988,1.44988,0,0,0,98.06856,62.18259Z" style="fill:#cc2127;fill-rule:evenodd"/><path d="M99.05736,71.37312c-1.27021.41584-2.5214.80829-3.75963,1.23766a1.61515,1.61515,0,0,0-1.161,1.28868c-.07454.44135-.1388.8858-.17685,1.33151-.09892,1.15974-.18122,2.32089-.26929,3.48133-.0768,1.01051-.169,2.02045-.216,3.03251-.01113.23984-.21194.6747.25027.69683.50151.02438.34707-.4646.3778-.729.11061-.952.15162-1.91209.245-2.86651.147-1.50456.32594-3.00616.46883-4.51128a1.19864,1.19864,0,0,1,.76968-1.16946c1.0339-.34384,2.07358-.66992,3.10917-1.00868.19038-.06242.3723-.1505.54225-.22011C99.189,71.78459,99.15023,71.66369,99.05736,71.37312Z" style="fill:#cc2127;fill-rule:evenodd"/><path d="M115.63484,68.964a1.62463,1.62463,0,0,0-1.12281,1.542,2.53331,2.53331,0,0,1-.56832,1.67042,1.10222,1.10222,0,0,0-.183.80477c.18292.90623.43572,1.79823.66174,2.69572.09949.395.43191.30058.66542.25478.21419-.04185.529-.19094.57353-.35412a4.80254,4.80254,0,0,0,.10314-1.23217c.0038-1.22512-.00141-2.45039-.02354-3.67551C115.73053,70.10643,115.67247,69.54361,115.63484,68.964Z" style="fill:#cc2127;fill-rule:evenodd"/><path d="M100.01828,66.53942l-.13755.14881c.12091.19221.197.45868.37061.56338a12.59545,12.59545,0,0,0,2.4277,1.31475c.94118.31678.94456.33918.96894,1.34067.00845.34989.09427.65286.42951.769.58184.20165,1.18524.339,1.77188.52773.30832.09906.48827-.01832.50448-.29846a16.76025,16.76025,0,0,0,.01733-1.95309c-.00746-.12739-.29142-.27395-.47376-.34736-.26112-.10513-.55338-.13035-.81943-.22561-.86973-.31142-1.73369-.639-2.60018-.9602-.10427-.03875-.20926-.07567-.314-.11315Q101.09113,66.92286,100.01828,66.53942Z" style="fill:#cc2127;fill-rule:evenodd"/><path d="M92.64344,78.71582c0-.50673-.02819-1.11929.00606-1.72819.0637-1.13677.14007-2.2741.26562-3.40523a1.75926,1.75926,0,0,1,.42458-.7663c.80717-1.05222,2.07132-1.273,3.20908-1.709.75573-.2893,1.56529-.44755,2.2996-.77786.28085-.1264.62933-.61326.57748-.85719-.0954-.44839-.57677-.19263-.84677-.09948q-1.81125.6246-3.59124,1.33926c-.61946.2483-1.21159.56719-1.80795.87a2.5894,2.5894,0,0,0-1.33348,2.39571c-.06215,1.098-.04186,2.2004-.06778,3.30081-.01156.48179-.05623.96274-.07074,1.44453-.00789.2621.10216.40865.38723.27676C92.24436,78.93058,92.38782,78.84885,92.64344,78.71582Z" style="fill:#cc2127;fill-rule:evenodd"/><path d="M126.16267,39.68481c0,.17516-.004.31819.00056.46107.03636,1.13508.06271,2.27044.11443,3.40467.07891,1.72848.1846,3.45582.26239,5.18416.07693,1.71184.1381,3.42439.19741,5.13708.07145,2.06245.13007,4.12546.20123,6.188q.04227,1.2285.11908,2.45546c.01353.21025-.06032.53576.30141.52829.35624-.00718.2552-.31494.25083-.51871-.01958-.89016-.059-1.78005-.0844-2.67035-.06863-2.39783-.12951-4.79593-.20194-7.19376-.02423-.80082-.07327-1.60094-.11259-2.40135q-.18325-3.74067-.366-7.48122c-.04255-.8982-.06692-1.79724-.10315-2.69572C126.729,39.75865,126.5578,39.62351,126.16267,39.68481Z" style="fill:#cc2127;fill-rule:evenodd"/><path d="M108.58637,67.5939a3.5109,3.5109,0,0,0,.66851-.10386.37938.37938,0,0,0,.19432-.29169c-.00535-.40626-.07525-.81224-.0744-1.21822.00183-1.05856.04876-2.1174.03917-3.176-.009-.99543-.08567-1.99016-.09947-2.98573-.01664-1.19581.00915-2.39219.00379-3.58828-.01071-2.37979-.045-4.75943-.04143-7.13922.00324-2.17926.059-4.35839.06215-6.53765.00211-1.57769-.04312-3.15539-.0706-4.73308-.00268-.15205-.02847-.30325-.05228-.542-.42754.33509-.74249.59382-.73079,1.11971.02564,1.15143.01282,2.3037.01353,3.45554.001,1.49681-.01014,2.99362.00211,4.49029.0179,2.21632.05778,4.43236.07653,6.64869.00986,1.15988-.06751,2.31849-.00523,3.47991.04157.77673.02227,1.55741.01452,2.33611-.024,2.38246-.06158,4.76479-.07934,7.14711C108.50338,66.4994,108.55819,67.04348,108.58637,67.5939Z" style="fill:#cc2127;fill-rule:evenodd"/><path d="M99.47842,73.16036c-1.04771.45177-1.97113.8345-2.87453,1.25978-.1081.05087-.1429.33468-.13853.50871.00155.06877.24815.216.30649.1846.30931-.16614.439.03748.59466.22786a5.65592,5.65592,0,0,1,.60186.72388c.498.88031.93906,1.79316,1.44579,2.668a3.34,3.34,0,0,0,1.29826,1.53824c1.82091.93357,3.59913,1.95056,5.39765,2.92823a6.31,6.31,0,0,0,.64736.26013c0-.33777.01072-.59142-.00268-.84366a4.727,4.727,0,0,1-.06567-1.14466.98889.98889,0,0,0-.37131-1.0184,10.53292,10.53292,0,0,0-1.5412-.95512c-.67484-.36935-1.3759-.69049-2.05258-1.05645-.81744-.44234-1.60461-.94428-2.44052-1.34631a.61048.61048,0,0,1-.39879-.51C99.74334,75.50238,99.625,74.41676,99.47842,73.16036Z" style="fill:#cc2127;fill-rule:evenodd"/><path d="M108.03652,83.88363a.68552.68552,0,0,0,.97725-.70951,14.62257,14.62257,0,0,0-.03156-1.55712c-.126-1.1169.304-2.24733-.09526-3.3545-.01987-.05538.0124-.12767.0124-.19193.00014-.28634.0079-.57325-.00619-.859-.06623-1.35773-.1467-2.71461-.20533-4.07261-.02395-.553.01917-1.10915-.012-1.66126-.05778-1.02333.16416-1.37337,1.13944-1.74637,1.11225-.42557,2.2183-.86734,3.32858-1.29826.80816-.31368,1.60925-.6499,2.43206-.92032a.7549.7549,0,0,1,1.02573.55718,6.3596,6.3596,0,0,1,.16473,1.07913c.1598,1.62829.32665,3.25615.45967,4.88683.1078,1.32291.163,2.65006.2676,3.97326.00945.11879.2187.32058.31832.311a.81277.81277,0,0,0,.46432-.27986c.06623-.07426.03072-.24928.02283-.37765-.09413-1.53246-.19713-3.0645-.28634-4.59738-.05-.861-.0589-1.72467-.12175-2.58468-.06863-.94061-.22208-1.87672-.25872-2.81776a1.50176,1.50176,0,0,0-2.146-1.51216c-.78814.26816-1.57572.54013-2.35273.838-1.7.65174-3.38071,1.35547-5.09594,1.963a.89219.89219,0,0,0-.70529,1.01361c.05214,1.28642.09611,2.573.14162,3.8594.02579.72713.05271,1.4544.07,2.18152.012.5049-.02241,1.01276.02114,1.51414.04016.46446.198.9192.23124,1.38337.09921,1.38239.16487,2.76731.23815,4.15138C108.04808,83.31179,108.03652,83.56967,108.03652,83.88363Z" style="fill:#cc2127;fill-rule:evenodd"/><path d="M155.25475,82.66555c-.26746-.99317-.27845-1.00994-1.15565-.99176-1.10972.023-2.21929.06172-3.32886.09244-1.29882.03579-2.59863.05242-3.89646.11005-1.56967.06962-3.13721.19334-4.707.25717-1.90151.07723-3.80557.09681-5.707.17728-1.97226.08328-3.94254.21968-5.91452.31424-1.796.0861-3.59321.14979-5.39.21757-.477.018-.956-.00282-1.43212.02424-1.874.10724-3.74695.23195-5.62072.33961-1.42225.08173-2.84537.1488-4.26834.22a1.44768,1.44768,0,0,0-1.35321,1.62109c.08722.97345.11978,1.95155.19051,2.92668q.24583,3.38178.51026,6.76227a9.29572,9.29572,0,0,0,.18192.98472l.14106-.0007a1.93326,1.93326,0,0,0,.10315-.48052c-.045-1.08139-.1195-2.16165-.16021-3.24332-.04468-1.17764-.062-2.35612-.093-3.534-.02861-1.0828-.0816-2.16531-.08258-3.24811-.001-.83535.33735-1.11535,1.18144-1.142,1.33912-.04214,2.67754-.11133,4.01652-.16459q3.36276-.1338,6.72549-.2614c1.152-.0434,2.30427-.07892,3.45639-.11767.88016-.02931,1.76018-.06482,2.64062-.08483.8748-.01987,1.7506-.00831,2.625-.03861,1.3845-.04819,2.76815-.12541,4.15238-.18023q1.91164-.07568,3.82458-.1295c1.36985-.04059,2.74-.066,4.10981-.10879q3.21587-.10062,6.4314-.21588C153.37014,82.73869,154.30427,82.70135,155.25475,82.66555Z" style="fill:#cc2127;fill-rule:evenodd"/><path d="M95.66608,42.79919a6.90733,6.90733,0,0,1-.66864.80266c-.30537.28-.69571.46727-1.00037.74784a.92581.92581,0,0,0,.0575,1.1455c.29268.22645.563.10724.77969-.16515.02621-.033.08709-.03622.1264-.06158,2.18617-1.41635,4.36472-2.84425,6.55921-4.24763,2.22252-1.42142,4.45-2.83593,6.69857-4.21564A3.60694,3.60694,0,0,1,110.501,36.075c1.09321.127,2.18306.2955,3.26784.48362a33.21625,33.21625,0,0,1,3.37126.67654c1.11915.31635,2.26973.35947,3.3979.574,1.01586.19347,2.04159.33848,3.06492.49067.9447.14035,1.89039.2814,2.8396.38343a.6798.6798,0,0,0,.77814-.62849c.07257-.45826-.27478-.63863-.62976-.70852-1.10126-.21673-2.20828-.4064-3.31575-.59-1.73524-.28789-3.47315-.56056-5.20952-.843-.86635-.14077-1.73157-.28817-2.59708-.434-.912-.15359-1.82035-.33256-2.73644-.45671-.96908-.13161-1.94323-.25491-2.91878-.29465a2.5799,2.5799,0,0,0-1.31067.29592c-.92892.52351-1.79527,1.1565-2.704,1.71777-.53858.33256-1.12973.58156-1.66042.92511-.49151.31819-.91144.74714-1.40324,1.0649-.75361.48729-1.54979.90834-2.31368,1.38041-1.33491.82492-2.654,1.67549-3.99315,2.49323A2.8302,2.8302,0,0,1,95.66608,42.79919Z" style="fill:#cc2127;fill-rule:evenodd"/><path d="M158.30374,84.45293c.47038-.04354.67428-.21447.67316-.70345-.00268-1.10732.07412-2.2145.10456-3.32209a1.06538,1.06538,0,0,0-.584-1.10732,3.94735,3.94735,0,0,0-1.33109-.44487c-1.16241-.056-2.33117-.03664-3.495.01071-1.2302.05016-2.45673.18178-3.68636.25224-1.90688.10949-3.815.19939-5.72274.29381q-4.05562.20016-8.11168.39428c-1.512.07173-3.02462.13316-4.53692.20193-.788.03565-1.57614.07-2.36344.1171-1.95479.117-3.90859.248-5.86365.35892-.8944.05072-1.7909.06228-2.686.10117-2.1546.09385-4.30921.18728-6.46325.29268a4.44159,4.44159,0,0,0-3.28136,1.74581c-.7315.88115-.50574,1.92886-.40091,2.92372.193,1.83233.4653,3.65607.676,5.48656.17784,1.54472.30128,3.09592.4856,4.63966.02776.23251.25717.44092.3933.66047l.17036-.07849c-.05115-.64976-.08666-1.30136-.15754-1.949-.0713-.64934-.21194-1.2922-.26-1.94238-.05609-.75883-.01719-1.52471-.06947-2.28411-.07173-1.04334-.18939-2.08358-.28916-3.12509-.05778-.60255-.154-1.2037-.16966-1.80724a2.68681,2.68681,0,0,1,.499-1.95986,3.837,3.837,0,0,1,2.91146-1.22555c2.14615-.13246,4.2961-.20475,6.44451-.30015q3.323-.14775,6.64587-.29141,3.29425-.14184,6.58838-.278c2.44038-.10259,4.8802-.21419,7.32115-.30409,2.1398-.07892,4.28087-.127,6.4211-.20081.97557-.03368,1.94943-.11287,2.92485-.14317,1.81514-.05594,3.6307-.11964,5.44612-.12246.84521-.00126,1.00642.20574,1.16524,1.02813C157.89776,82.38245,158.09688,83.39352,158.30374,84.45293Z" style="fill:#cc2127;fill-rule:evenodd"/><path d="M135.43986,63.10291c-3.37423.55281-6.70575,1.09858-10.02447,1.64251-.25463,2.573-1.27486,3.52459-3.2553,3.77613-.07623-.13726-.10864-.2793-.19221-.3227-.08426-.04354-.2194.01071-.37976.02691.13908.11372.22561.18446.31227.2552a5.93774,5.93774,0,0,1-2.99234-1.06828,10.00891,10.00891,0,0,0,.09764,1.32264q.264,2.0871.53351,4.17322c.14233,1.10915.29339,2.217.427,3.32716.1016.844.18657,1.69029.26858,2.53649.02621.27084.13133.39865.42416.38963.67019-.02071,1.34208.00338,2.01171-.02565q2.84425-.12428,5.68723-.27816c2.2414-.11866,4.48182-.25858,6.7238-.36836,1.34419-.06581,2.69107-.07581,4.03526-.14077,1.32743-.064,2.653-.16558,3.97933-.25027,1.01332-.065,2.02679-.12936,3.02165-.19291.09512-.62877.21546-1.19483.25985-1.76695.0792-1.02037.10527-2.04483.16826-3.06661.03663-.59579.123-1.18891.14993-1.7847.05778-1.27909.08934-2.55931.13669-3.83883a1.299,1.299,0,0,0-.65117-1.14931c-.87424-.50941-1.82571-.88636-2.80155-1.34278a1.04579,1.04579,0,0,1-.05355.115c-.05594.09385-.11583.18545-.17431.278a2.86531,2.86531,0,0,1-1.97156,1.42832,4.01637,4.01637,0,0,1-2.55889-.28761,4.80578,4.80578,0,0,1-2.57608-2.1484C135.85345,63.91134,135.63221,63.494,135.43986,63.10291Zm-2.39372,10.18061c0,.37962-.01086.64215.002.90341.03608.72149.04157.74234.73008.69147,1.97423-.14627,3.94692-.31438,5.92086-.46587a9.24393,9.24393,0,0,1,1.01715-.013.46061.46061,0,0,1,.47515.54253c-.02522.2993-.0124.67287-.47347.70655-1.37126.09948-2.74194.20644-4.11334.30325-2.32708.16417-4.65445.33129-6.98265.4801-1.00728.06426-2.0175.07821-3.02575.12964q-1.28494.06531-2.56806.16713c-.51716.04185-.68386-.07159-.73713-.57438-.05143-.48418.07723-.65568.57889-.68865,1.23371-.08117,2.46912-.13838,3.703-.21884,1.22894-.08033,2.45758-.168,3.68369-.28141.12005-.011.22194-.2242.33044-.34511.00776-.00859.00042-.03142-.00056-.04748-.10132-1.48934.20138-1.07111-1.68395-1.02968-1.35871.02988-2.71446.18362-4.07218.27239-.67485.04425-1.35209.05116-2.02609.1033-.58889.04565-.48926-.433-.52815-.72685a.45578.45578,0,0,1,.485-.56592c1.75666-.08074,3.51233-.18784,5.26729-.301.73248-.04721,1.46257-.134,2.27143-.21011-.02452-.44177-.04017-.89087-.08469-1.337-.00621-.06186-.15585-.15853-.23646-.156-.86818.0279-1.73637.06242-2.60342.11611-.57253.03537-1.14255.11612-1.71509.15656q-1.486.10506-2.974.17671a.40756.40756,0,0,1-.30128-.18066.76418.76418,0,0,1,.53422-1.13085c1.04883-.09413,2.10133-.14317,3.15116-.227,1.46721-.11738,2.93246-.25858,4.4-.37131.68344-.05257,1.37013-.06187,2.05526-.0916q2.64555-.11478,5.291-.22983c.62552-.02678,1.25091-.05862,1.87672-.07131a.63423.63423,0,0,1,.58268.71572c-.04918.3-.15232.54618-.58211.56253-1.20188.04538-2.40037.175-3.60181.241-1.20921.06623-2.4201.11569-3.63071.12978-.37934.00437-.64215.18037-.67174.47418a3.4661,3.4661,0,0,0,.17769,1.1193c.011.0458.23407.06425.356.05538,1.69578-.12274,3.39071-.25929,5.08678-.37766.76954-.05369,1.54176-.06806,2.31186-.11358.51406-.03043.464.34736.47728.655.01269.2955.06722.59918-.428.62792-2.06089.11978-4.119.2862-6.179.4205C134.10553,73.31043,133.61514,73.28352,133.04614,73.28352Z" style="fill:#cc2127;fill-rule:evenodd"/><path d="M130.96015,40.50536a1.33042,1.33042,0,0,0-.49433,1.69635,1.63257,1.63257,0,0,1,.18445,1.19088c-.1877.68471.48349,1.26415.55733,1.92364.061.54492.74051.88453,1.32954,1.1858a4.80112,4.80112,0,0,0,2.914.41007c1.90053-.29522,2.23873-1.48272,1.91462-2.46687a.38681.38681,0,0,1,.16868-.49462c.84254-.67372,1.04052-1.42959.3971-2.19166a1.40561,1.40561,0,0,1-.41063-1.4.98624.98624,0,0,0-.24125-.87354,2.78849,2.78849,0,0,0,.64286-2.78661,3.68746,3.68746,0,0,1-.18432-1.82585c.1877-1.04982-.48348-1.93844-.55746-2.94951a2.73616,2.73616,0,0,0-1.3294-1.81809,3.35591,3.35591,0,0,0-2.91414-.62891c-1.90039.45276-2.23872,2.27368-1.91449,3.78246a.77233.77233,0,0,1-.16881.75841,2.83807,2.83807,0,0,0-.397,3.36042,2.96791,2.96791,0,0,1,.41049,2.14657A1.82675,1.82675,0,0,0,130.96015,40.50536Z" style="fill-rule:evenodd"/><path d="M131.91317,39.39889l.10287.00958c.053.00493-.021-.03537-.10668-.07736a1.10807,1.10807,0,0,1,.49912-1.01981,10.50612,10.50612,0,0,1-1.05193-1.857c-.3413-1.04714-.259-1.9352,1.24809-2.09246a.89672.89672,0,0,0,.27506-.13471c-.19826-.3-.38117-.5593-.54633-.82943a2.25229,2.25229,0,0,1-.12118-2.197,1.27943,1.27943,0,0,1,.48672-.50533,2.536,2.536,0,0,1,3.18921,1.172,13.34393,13.34393,0,0,1,.67033,2.51408,2.16348,2.16348,0,0,1-.125,1.18538.60866.60866,0,0,0-.003.64892,2.73294,2.73294,0,0,1,.2569.46319c.36313.951.33157,2.29-1.01741,2.45039-.36061.043-.31073.25717-.16418.52519.22349.40866.39738.84479.6268,1.34462.01254-.00113.06327-.01409.12612-.01945a1.19726,1.19726,0,0,1-.27873.17037,6.83689,6.83689,0,0,1,1.05193,1.21117c.34116.683.259,1.26219-1.24823,1.36463a1.16152,1.16152,0,0,0-.27507.08793c.19827.19573.38132.36483.54633.541a1.04519,1.04519,0,0,1,.12119,1.43283,1.14473,1.14473,0,0,1-.48658.3296c-.86537.35328-2.71517-.00366-3.18921-.76432a6.47951,6.47951,0,0,1-.67048-1.6397.96425.96425,0,0,1,.125-.77307c.10992-.1698.14261-.278.003-.42331a1.76481,1.76481,0,0,1-.25689-.30212,1.01824,1.01824,0,0,1-.16149-.50138l.00127.00268a.45973.45973,0,0,0,.40978.00465,1.24348,1.24348,0,0,0,.29255-1.0084c.10258-.18854-.0334-.38681-.15135-.529A3.42436,3.42436,0,0,1,131.91317,39.39889Z" style="fill:#fff;fill-rule:evenodd"/><path d="M129.76476,96.23124l.15656,4.30568.73656-.00789.04073,1.12324-.73657.00789.04214,1.15988-2.5875.02776-.04214-1.15988-3.07422.03312-.04086-1.12324,2.07879-4.32964Zm-2.43108,4.33359-.10188-2.80409-1.04137,2.81635Z" style="fill-rule:evenodd"/><path d="M136.92188,96.15444l.23927,6.58866-2.58749.02776-.12838-3.53233a3.99251,3.99251,0,0,0-.091-.9192.45989.45989,0,0,0-.32552-.23054,5.09937,5.09937,0,0,0-1.15889-.06693l-.25619.00268-.0279-.76814a5.51874,5.51874,0,0,0,2.8117-1.08561Z" style="fill-rule:evenodd"/><path d="M146.38437,97.8033l-2.58749.0279q-.01669-.45995-.03706-.57987a.28986.28986,0,0,0-.16107-.19968.74608.74608,0,0,0-.37765-.07736.61366.61366,0,0,0-.32383.08074.27387.27387,0,0,0-.14007.20109,3.92873,3.92873,0,0,0-.00127.49264l.03819,1.05a1.14473,1.14473,0,0,1,.56831-.40316,2.911,2.911,0,0,1,.94315-.14247,3.08468,3.08468,0,0,1,1.26416.23068,1.30891,1.30891,0,0,1,.713.5786,2.41207,2.41207,0,0,1,.18094.9223l.019.52491a4.63974,4.63974,0,0,1-.04579,1.03051,1.13263,1.13263,0,0,1-.42247.62948,2.53941,2.53941,0,0,1-.97655.45628,6.01421,6.01421,0,0,1-1.46411.1746,6.66853,6.66853,0,0,1-1.71678-.16473,2.46271,2.46271,0,0,1-1.04715-.516,1.335,1.335,0,0,1-.44895-.71782,11.36588,11.36588,0,0,1-.11415-1.46849l-.03311-.91158a14.26432,14.26432,0,0,1-.00268-1.57347,1.21721,1.21721,0,0,1,.41783-.75559,2.43187,2.43187,0,0,1,1.04713-.54267,6.132,6.132,0,0,1,1.553-.19376,6.02768,6.02768,0,0,1,1.79512.20461,1.99752,1.99752,0,0,1,1.02207.62017A1.71389,1.71389,0,0,1,146.38437,97.8033Zm-2.51281,2.083a.72682.72682,0,0,0-.13908-.479.53479.53479,0,0,0-.40189-.12584.52856.52856,0,0,0-.38934.12824.68406.68406,0,0,0-.10725.48771l.04326,1.19243a.945.945,0,0,0,.13923.56845.51413.51413,0,0,0,.39879.13007.6766.6766,0,0,0,.34214-.10752q.17544-.10569.159-.56141Z" style="fill-rule:evenodd"/><path d="M155.57674,98.185l.07976,2.19758a3.34,3.34,0,0,1-.08836,1.092,1.40519,1.40519,0,0,1-.50842.64469,2.52378,2.52378,0,0,1-.95794.43782,5.69253,5.69253,0,0,1-1.26994.14388,7.34609,7.34609,0,0,1-1.54837-.11978,2.46682,2.46682,0,0,1-.99544-.41471,1.85281,1.85281,0,0,1-.54084-.60284,2.51847,2.51847,0,0,1-.19066-1.01375l-.08356-2.29933a2.88966,2.88966,0,0,1,.19714-1.36195,1.68523,1.68523,0,0,1,.95372-.73487,5.0604,5.0604,0,0,1,1.76736-.29184,5.68749,5.68749,0,0,1,1.5312.1729,2.88136,2.88136,0,0,1,1.02234.45108,1.43291,1.43291,0,0,1,.4739.60974A3.66369,3.66369,0,0,1,155.57674,98.185Zm-2.60765-.52576a1.62038,1.62038,0,0,0-.104-.65638q-.08475-.13126-.37948-.12824a.41851.41851,0,0,0-.376.14458,1.39,1.39,0,0,0-.06919.65005l.11668,3.215a1.57611,1.57611,0,0,0,.11174.69091.46061.46061,0,0,0,.37892.114q.28811-.00316.37287-.14246a1.3413,1.3413,0,0,0,.06707-.62356Z" style="fill-rule:evenodd"/></svg>