<?xml version="1.0" encoding="UTF-8"?>
<svg id="Layer_1" xmlns="http://www.w3.org/2000/svg" version="1.1" viewBox="0 0 1200 1200">
  <!-- Generator: Adobe Illustrator 29.3.1, SVG Export Plug-In . SVG Version: 2.1.0 Build 151)  -->
  <defs>
    <style>
      .st0 {
        fill: #fff;
      }

      .st0, .st1, .st2, .st3, .st4, .st5, .st6, .st7, .st8 {
        fill-rule: evenodd;
      }

      .st1 {
        fill: #8b8c8d;
      }

      .st2 {
        fill: #7f7f7f;
      }

      .st3 {
        fill: #b0b0b0;
      }

      .st5 {
        fill: #ebcaa9;
      }

      .st6 {
        fill: #cc1f1e;
      }

      .st7 {
        fill: #c4c4c4;
      }

      .st8 {
        fill: #909090;
      }
    </style>
  </defs>
  <path d="M720.1,789.2c-2.6,0-87-20-180.1-15.7-93.1,4.3-145.3,16.5-145.3,16.5,0,0-47.9-80.1-119.2-145.3-71.4-65.3-182.7-124.4-182.7-124.4l44.4-7.8s181,60.3,300.2,111.4c140.1,60,282.8,165.3,282.8,165.3Z"/>
  <path class="st6" d="M479.1,628.2l-80.9-37.4s98.8-53.1,225.4-67.9c127-14.8,224.5.9,224.5.9l2.6,19.1s-114.9-5.2-213.2,22.6c-98.3,27.8-158.4,62.6-158.4,62.6ZM622.7,692.6l-88.6-38.2s96.8-56.7,222.7-76c126.4-19.4,224.4-7.3,224.4-7.3l4.3,10.1s-116,7.9-213.3,39.3c-97.2,31.4-149.6,72.1-149.6,72.1ZM753.2,783.1l-87-55.7s84.4-72.2,212.3-101.7c106-24.4,183.7-15.8,183.7-15.8l4.4,8.7s-74.8,4.4-167.7,47.1c-92.9,42.6-145.6,117.4-145.6,117.4h0Z"/>
  <path class="st0" d="M411.6,638.5c-15.2-8.8-37.6-20.1-61-31.2l-21.5.4c11.2,6,22.8,12.5,34.2,19.4,7,4.2,14.5,8.9,22.4,13.9,8.7-.5,19-1,27.6-1.4-.6-.3-1.2-.7-1.7-1Z"/>
  <path class="st0" d="M249.9,561.4l-13.8,1.7s24.6,10.2,57.8,26.5c5.8-.3,11.7-.6,17-.9-33.6-15.4-61.1-27.4-61.1-27.4Z"/>
  <path class="st0" d="M573.4,744.4s-62.1-42.5-113.5-75.8l-29.5,1.8c51.2,34.8,101,71.1,101,71.1l42,2.9Z"/>
  <path class="st4" d="M704.1,659.1h244.1l.2-2.6c17.3,6,43.7,4.2,61.3-.7l4.1,3.2h36.7l6.2-82c1.3-7.2-.1-14.6-4.1-20.7h.9l-35.5-148.4h-297.6v1.7c-7.7-2.1-86.6-7.1-101.9,8.6-4.5-3.6-13.4-7.3-19.6-8-25.6-2.8-83.4-2.2-109.5-2.3v6l-11.1-3.7c-15.4-2.8-93.6-2.3-110.1-2.3v29.5l-7.1-29.5h-88l-2.5,10.7c-5.7-5.2-13-8.3-20.8-8.7l-56.2-1.9h-53.3c0,0,0,148.4,0,148.4h78.8v-42l29.4-1.3-10.1,43.3h264.4l-7.7,102.7h71.4l2.3-30.5,18-.7-10.8,31.2h127.8ZM840.4,542.8h-18v-87.9h18v87.9ZM743.6,542.8h-.5c.2-.2.4-.5.5-.8v.8Z"/>
  <path class="st4" d="M719.6,645.8h244.1l.2-2.6c17.3,6,43.7,4.2,61.3-.7l4.1,3.2h36.7l6.2-82c1.3-7.2-.1-14.6-4.1-20.7h.9l-35.5-148.4h-297.6v1.7c-7.7-2.1-86.6-7.1-101.9,8.6-4.5-3.6-13.4-7.3-19.6-8-25.6-2.8-83.4-2.2-109.5-2.3v6l-11.1-3.7c-15.4-2.8-93.6-2.3-110.1-2.3v29.5l-7.1-29.5h-88l-2.5,10.7c-5.7-5.2-13-8.3-20.8-8.7l-56.2-1.9h-53.3c0,0,0,148.4,0,148.4h78.8v-42l29.4-1.3-10.1,43.3h264.4l-7.7,102.7h71.4l2.3-30.5,18-.7-10.8,31.2h127.8ZM855.9,529.6h-18v-87.9h18v87.9ZM759,529.6h-.5c.2-.2.4-.5.5-.8v.8Z"/>
  <path class="st0" d="M957,630.2c14.2,14.2,56.8,7.6,69.9,3.7l5.2,4.1h26.7l5.6-75.2c2.1-16.8-8.1-22.8-21.6-24.6l-30.8-1.3-31.8,1.3c-6.2.7-11.8,2.1-16.6,5.9l.5-6.6h-50.3l-1.3,20.9-9.2-20.9h-137.4l-4.9,19.9-1.5-19.9h-55.5l22.1,100.6h57.7l17.1-46.4-3.5,46.4h100.9l1.2-21.3,9.3,21.3h47.8l.6-7.8Z"/>
  <path class="st0" d="M614,605.3l-11.3,32.6h55.8l4.2-18.1h3.2l1.5,18.1h55.6l-20.4-100.6h-65.2l-5.4,15.5c-2.8-9.5-10.5-12.8-19.8-14.2-11.1-1.6-65.6-1.4-85.6-1.4l-7.5,100.6h55.7l2.3-30.3,31.6-1.2,5.3-1.2Z"/>
  <path class="st0" d="M926.8,535.2h56.4l3.4-24.9h6.1l3.4,24.9h62.9l-31.7-132.7h-75.5l-1.7,7.2v-7.2h-206.3v4.1c-.8-.3-10.1-2.9-11.9-3.2-18-3-67.6-1.8-82.8,2.1-4.7,1.3-8.9,4.2-11.9,8.1-.9,1.5-1.7,3-2.3,4.6-4.4-8.8-12.5-11.5-21.3-13.5-11.6-2.6-77.7-2.2-100.8-2.2v14c-4.3-7.4-12.5-10-20.4-11.8-11.6-2.6-77.7-2.2-100.8-2.2v88.3l-21.1-88.3h-75.5l-6,25.7c-1.6-15.7-10.1-20.9-23.9-23.7-11.1-2.3-78.3-2-101.3-2v132.7h63.1v-41.7l38.4-1.7c.7-.1,9.3-2.7,9.4-2.7l-10.7,46.1h62.5l3.4-24.9h6.1l3.4,24.9h298.6v-10.3c10.6,12.2,42.4,13.2,58.5,11.1h-1s37-1.8,37-1.8c18-2.6,26-11.8,25.3-29.9v-70.7h9.2v101.5h63.1v-101.5h33.7v101.5h63.1ZM944.4,433.8l-17.6,75.5v-75.5h17.6ZM632.5,467.3v4.3c-.8-.9-1.6-1.7-2.4-2.4l2.2-1.6c0-.1.2-.2.3-.4ZM512.7,465.4v8c-1.1-1.5-2.4-2.9-3.8-4.1,2.2-1.6,2.6-2.1,3.8-3.9Z"/>
  <path class="st6" d="M171.6,410.4v117h47.4v-41.4h11c15.2,0,26.5-.6,33.9-1.9,7.4-1.3,12.1-3.7,14.3-7.2,2.2-3.5,3.2-8.4,3-14.8v-28c.2-6.4-.8-11.4-3.1-14.8-2.3-3.5-7.2-5.8-14.6-7.1-7.4-1.3-18.7-1.9-33.8-1.8h-58ZM219,425.6h3.4c5.6,0,9,.5,10.2,1.5s1.7,3,1.5,5.8v30.6c.2,2.7-.3,4.6-1.5,5.6-1.2,1-4.4,1.5-9.5,1.5h-4.1v-45Z"/>
  <path class="st6" d="M301.2,410.4l-27.3,117h45.7l3.4-24.9h19.8l3.4,24.9h46l-28-117h-63.1ZM332.2,433.6h1.4l7.2,53.3h-16l7.5-53.3Z"/>
  <path class="st6" d="M399.4,410.4v117h47.4v-48.6c.7,0,1.3,0,1.9,0,.6,0,1.2,0,1.9,0,4.1,0,7,.4,8.7,1.3,1.6.7,2.7,2.3,2.6,4.1v43.4h47v-39.8c.2-4.8-1.2-8.6-4.2-11.5-3-2.9-8.8-5.1-17.3-6.5,9.4-1.8,15.4-4.3,18-7.5,2.6-3.2,3.8-7.4,3.5-12.6v-15.3c.2-6.1-.9-10.9-3.4-14.4-2.5-3.5-7.4-5.9-14.9-7.3-7.4-1.4-18.5-2.1-33.2-2.1h-58ZM446.8,425.6h3.1c5.7,0,9.2.5,10.5,1.6,1.2,1.1,1.7,3,1.5,5.8v22.5c0,2.3-.6,3.9-2.1,4.8-1.5.9-4.5,1.3-8.8,1.3-.5,0-1.2,0-1.9,0-.7,0-1.5,0-2.2,0v-35.8Z"/>
  <path class="st6" d="M520.6,410.4v117h47.4v-48.6c.7,0,1.3,0,1.9,0,.6,0,1.2,0,1.9,0,4.1,0,7,.4,8.7,1.3,1.6.7,2.7,2.3,2.6,4.1v43.4h47v-39.8c.2-4.8-1.2-8.6-4.2-11.5-3-2.9-8.8-5.1-17.3-6.5,9.4-1.8,15.4-4.3,18-7.5,2.6-3.2,3.8-7.4,3.5-12.6v-15.3c.2-6.1-.9-10.9-3.4-14.4-2.5-3.5-7.4-5.9-14.9-7.3-7.4-1.4-18.5-2.1-33.2-2.1h-58ZM568,425.6h3.1c5.7,0,9.2.5,10.5,1.6,1.2,1.1,1.7,3,1.5,5.8v22.5c0,2.3-.6,3.9-2.1,4.8-1.5.9-4.5,1.3-8.8,1.3-.5,0-1.2,0-1.9,0-.7,0-1.5,0-2.2,0v-35.8Z"/>
  <path class="st6" d="M640.3,433v71.8c-.2,6.6,1,11.7,3.6,15,2.6,3.4,7.9,5.7,15.8,6.8,8,1.2,19.9,1.7,35.9,1.6,15.8,0,27.6-.5,35.4-1.7,7.8-1.2,13-3.5,15.4-6.9,2.5-3.4,3.6-8.4,3.4-14.9v-71.8c.2-6.6-1-11.6-3.5-15-2.6-3.4-7.8-5.6-15.8-6.8-7.9-1.1-19.8-1.7-35.6-1.6-16.1,0-28.1.5-36,1.6-7.8,1.2-13,3.4-15.4,6.8-2.4,3.4-3.5,8.3-3.2,14.9ZM687.4,430.2c-.1-1.4.4-2.8,1.5-3.8,1.1-.8,3-1.3,5.6-1.3,3,0,5.1.4,6.2,1.3,1.2.9,1.8,2.3,1.6,3.8v77.4c.2,1.4-.4,2.8-1.4,3.7-1,.8-2.9,1.2-5.8,1.2-2.9,0-4.9-.4-6.1-1.2-1.2-.8-1.9-2.3-1.8-3.7v-77.4Z"/>
  <polygon class="st6" points="751.6 410.4 751.6 425.9 774.8 425.9 774.8 527.4 822.1 527.4 822.1 425.9 845.4 425.9 845.4 410.4 751.6 410.4"/>
  <polygon class="st6" points="848.4 410.4 848.4 425.9 871.6 425.9 871.6 527.4 919 527.4 919 425.9 942.2 425.9 942.2 410.4 848.4 410.4"/>
  <path class="st6" d="M958,410.4l-27.3,117h45.7l3.4-24.9h19.8l3.4,24.9h46l-28-117h-63.1ZM989,433.6h1.4l7.2,53.3h-16l7.5-53.3Z"/>
  <path class="st4" d="M534.1,545.3l-6.4,84.8h39.9l2.3-30h9.2c12.8,0,22.4-.4,28.6-1.4,6.3-1,10.4-2.7,12.5-5.2,2-2.5,3.1-6.1,3.3-10.7l1.5-20.3c.5-4.7,0-8.2-1.8-10.7-1.7-2.5-5.7-4.2-11.9-5.2-6.2-.9-15.6-1.4-28.4-1.3h-48.8ZM573.1,556.3h2.9c4.7,0,7.5.3,8.5,1.1,1,.8,1.3,2.2.9,4.2l-1.7,22.2c0,2-.5,3.3-1.6,4.1-1.1.7-3.8,1.1-8,1.1h-3.5l2.4-32.6Z"/>
  <path class="st4" d="M643.1,545.3l-29.3,84.8h38.5l4.2-18.1h16.7l1.5,18.1h38.8l-17.2-84.8h-53.1ZM668,562.1h1.1l3.1,38.7h-13.5l9.2-38.7Z"/>
  <polygon class="st4" points="713.6 545.3 732.2 630.1 778.2 630.1 809.5 545.3 771.9 545.3 757.8 602.8 756.4 602.8 752.1 545.3 713.6 545.3"/>
  <polygon class="st4" points="812.1 545.3 805.8 630.1 845.7 630.1 852 545.3 812.1 545.3"/>
  <polygon class="st4" points="862.4 545.3 856 630.1 890.8 630.1 893.2 586.7 894.9 586.7 913.8 630.1 949.1 630.1 955.5 545.3 921 545.3 918.4 587.6 916.7 587.6 898 545.3 862.4 545.3"/>
  <path class="st4" d="M963.7,561.8l-4.1,54.4c-.6,4.9,1.6,8.6,6.6,11,5,2.4,14.2,3.6,27.6,3.6,6.7.1,13.3-.3,19.9-1.2,5.1-.7,10.1-2.2,14.7-4.4l6.2,4.9h16.7l3.3-44h-46l-.8,11.2h6.1l-1.4,18.5c0,1-.5,2-1.3,2.6-.9.6-2.6.9-5.3.9-2.7,0-4.5-.3-5.4-.9-.9-.5-1.4-1.6-1.2-2.7l4.2-56.1c0-1.1.5-2.1,1.4-2.7.9-.6,2.7-1,5.5-1,2.8,0,4.6.3,5.4.9.8.6,1.2,1.7.9,2.7l-1.1,14.6h39.9l.9-12.5c.5-4.7-.2-8.3-2.1-10.7-1.9-2.5-6.2-4.1-12.7-5-6.6-.9-16.5-1.3-29.8-1.3-13.8,0-24.1.4-30.9,1.3s-11.3,2.6-13.6,5c-2.3,2.5-3.5,6-3.6,10.7Z"/>
  <path class="st0" d="M726.6,718.4l-1,7.1h34.9l3.5-23.9c0-1.1.7-2.1,1.7-2.7l-3.7,26.6h18.1l1.3-9.2c.6,1.3,1.3,2.5,2.1,3.6,7.3,9.1,18.3,6.3,27.5,3.6v-4.2c7.1,10.5,21.6,6.3,31.1,3.7l-.7-11.5h2.9l1.6-7.6c1.4-11.1-3.2-21.9-15.6-21.7-5.1,0-10.1,1.9-13.9,5.4l.9-2.5-7.9-2.4-4.6-.5c-8.4-.5-16.8,4.3-21.1,11.3-1.3-9.1-10.5-13.2-19-10.4v-.2s-15.4,0-15.4,0c2-3.3,2.1-8-.6-11-3.7-3.6-9.6-3.7-13.4-.2h0c-.5.4-1,.9-1.4,1.4l-7.5-2.8-6.6-.7c-10.6-.7-20.8,6.7-22.5,17.2-1.3,8.5,4.6,15.2,12.1,18.2,1.3.5,2.4,1.2,3.4,2.2.2.3-.3,1.2-.6,1.4-1.2.8-5.1.9-7.1.3l-8.3-3.6-5.9,15.5c2.8,1.9,5.9,3.4,9.2,4.3h-.1c9,2.2,19.9.6,26.3-6.8ZM732.9,683h-1.1l-2.2,15.3c-2.2-3.9-5.7-6.9-9.9-8.5-1.4-.6-2.8-1.4-4-2.4.7-3.4,10.3,1,13.4,2.3l3.3-8.2c.1.5.3,1.1.5,1.6ZM809,699.9c-.4,1.3-.7,2.7-.9,4-.3,1.4-.5,2.9-.4,4.4l-4.6,1.4c-1.1.2-3.4.6-4.3-.6-1.8-2.4-.4-6.9,1.6-9.1,2.4-2.6,5.9-1.1,8.6,0h0Z"/>
  <polygon class="st0" points="868.4 691.5 863.4 725.5 881.3 725.5 889.3 671.1 875.5 671.1 859.6 678.7 862.1 694.6 868.4 691.5"/>
  <path class="st0" d="M922.5,711.8c1.9,10.3,9.7,14.6,17.5,14.4,11.7-.3,19.5-8.9,21.5-19.9,1.4-8.1-1.9-16.9-10.3-19.3l9-.8,2.3-15.6c-13.9-1-25.9,2.6-33.8,14.4-1.4-8.8-7.8-14.9-16.8-14.6-11.6.3-19.9,8.8-21.8,19.9-1.5,8.5,2.8,17.3,11.6,18.9-3.6.7-7.2,1-10.8.8l-2.3,15.8c8.9.6,15.1.7,22.8-3.4,4.6-2.5,8.4-6.1,11.2-10.5ZM940.6,710.6c-1.1-.2-.7-5.1-.7-5.1.2-1.6,1.4-3.5,3.2-3.5,0,0,0,0,0,0,1,2.3,0,5.7-1.4,7.9-.3.4-.7.7-1.2.7h0ZM910.6,685.9c.5,1.7.6,3.6.3,5.3l-.3,1.5v.3c-.7.7-1.5,1.2-2.4,1.2-.4-1.1-.1-7.6,2.4-8.3h0Z"/>
  <polygon class="st0" points="970.9 691.5 965.9 725.5 983.8 725.5 991.8 671.1 978 671.1 962.2 678.7 964.6 694.6 970.9 691.5"/>
  <path class="st4" d="M729.4,676.4c-1.2-.6-2.5-1.1-3.9-1.4-1.9-.4-3.8-.7-5.7-.6-5,0-9.1,1.4-12.2,3.8-3,2.3-5,5.7-5.6,9.5-.5,2.7.2,5.5,1.9,7.8,2,2.4,4.5,4.3,7.4,5.5,1.9.8,3.6,1.9,5.1,3.3,1,1.1,1.4,2.7,1.1,4.1-.2,1.7-1.1,3.2-2.5,4.1-1.7,1.1-3.8,1.7-5.8,1.6-1.8,0-3.6-.3-5.3-.7-1.5-.4-2.9-1-4.2-1.8l-2.8,7.4c1.4.8,2.9,1.4,4.5,1.8,2.1.5,4.3.8,6.4.8,5.4,0,9.7-1.4,13-3.9,3.2-2.4,5.3-6,5.8-9.9.5-2.7,0-5.5-1.4-7.8-1.4-2.2-3.8-4.1-7.2-5.8-2-.9-3.9-2-5.6-3.4-1.1-1-1.6-2.5-1.3-3.9.2-1.4,1-2.7,2.1-3.5,1.6-1.1,3.4-1.7,5.4-1.6,1.6,0,3.2.2,4.8.7,1.1.3,2.1.8,3.1,1.3l2.9-7.2Z"/>
  <path class="st4" d="M746.3,678.6c.5-2.1-.8-4.1-2.8-4.6-.4,0-.8-.1-1.2,0-1.3,0-2.6.5-3.6,1.3-1,.9-1.6,2.1-1.8,3.4-.2,1.2,0,2.4.8,3.4.8.9,2,1.4,3.2,1.4,1.3,0,2.6-.4,3.6-1.3,1-.9,1.7-2.1,1.9-3.4ZM744.6,687.6h-8.8l-4.9,33.3h8.8l4.9-33.3Z"/>
  <path class="st4" d="M779.1,700.5c.6-4.6,0-8-1.6-10.2-1.7-2.2-4.4-3.4-7.2-3.3-2.2,0-4.4.6-6.3,1.7-1.6.9-3,2.1-4.1,3.5h-.2l.2-4.5h-7.6c-.2,1.5-.3,3-.5,4.6-.2,1.6-.4,3.4-.7,5.4l-3.4,23.3h8.8l2.9-19.8c.5-2.5,1.4-4.3,2.7-5.3,1.1-1,2.5-1.5,4-1.6,1.9,0,3.1.8,3.6,2.1.6,1.7.7,3.4.4,5.2l-2.8,19.4h8.8l3-20.4Z"/>
  <path class="st4" d="M806.5,713.5c-.8.3-1.7.6-2.5.8-1,.2-2,.3-3,.3-2.3.1-4.5-.9-5.9-2.7-1.4-1.8-1.8-4.3-1.4-7.6.3-2.7,1.5-5.3,3.4-7.4,1.8-1.9,4.3-3,6.9-3,1,0,2,.1,3,.3.7.2,1.4.4,2,.7l2.4-6.7c-.9-.4-1.8-.7-2.8-.9-1.3-.3-2.6-.4-3.9-.4-3.4,0-6.7.8-9.8,2.4-2.8,1.5-5.1,3.6-6.9,6.3-1.8,2.7-2.9,5.8-3.4,9-.7,5.3.1,9.5,2.6,12.4s6.1,4.4,11,4.5c1.6,0,3.3-.2,4.9-.4,1.2-.2,2.3-.5,3.4-1v-6.6Z"/>
  <path class="st4" d="M837,713.5c-1.3.4-2.5.7-3.8,1-1.5.3-3,.4-4.5.4-2.1.1-4.3-.5-6-1.8-1.5-1.3-2.2-3.3-1.9-6.1h19.9c.2-.5.3-1.1.4-1.6.1-.6.2-1.2.3-1.9.7-5.4.1-9.5-1.8-12.3-2-2.8-5-4.2-9.1-4.2-3.1,0-6.1.8-8.6,2.5-2.5,1.6-4.6,3.8-6.1,6.4-1.6,2.7-2.6,5.7-3.1,8.9-.7,5.2,0,9.3,2.4,12.3,2.3,3,6.1,4.5,11.3,4.5,2,0,4-.2,6-.5,1.7-.3,3.4-.8,5.1-1.4l-.4-6.1ZM821.6,700.8c.3-1.2.7-2.4,1.3-3.5.6-1.2,1.4-2.2,2.5-3,1-.8,2.3-1.3,3.6-1.3,1.2,0,2.4.4,3.2,1.2.7.8,1.2,1.8,1.3,2.9.2,1.2.2,2.4,0,3.5h-12Z"/>
  <polygon class="st4" points="877.3 720.9 883.9 675.8 876.5 675.8 864.7 681.4 865.7 687.7 874.1 683.6 874.2 683.6 868.7 720.9 877.3 720.9"/>
  <path class="st4" d="M914.2,701.3c-1.1,3.4-3,6.4-5.5,8.8-2.6,2.4-5.9,3.9-9.5,4.3-1,0-1.8.2-2.5.2-.6,0-1.3,0-1.9,0l-1,6.9c6,.2,11.1-.9,15.4-3.3,4.2-2.3,7.7-5.8,10.1-9.9,2.5-4.4,4.2-9.2,4.9-14.3.5-3.2.5-6.6-.3-9.8-.6-2.6-2-5-4-6.8-2-1.7-4.6-2.5-7.9-2.5-2.9,0-5.8.8-8.3,2.3-2.4,1.5-4.5,3.5-6.1,5.8-1.6,2.4-2.6,5.1-3,7.9-.5,4.3.2,7.6,2.2,10.1,2,2.4,4.7,3.7,8.3,3.7,1.7,0,3.5-.3,5.1-1,1.5-.6,2.8-1.5,3.9-2.6h.2ZM910.7,681.2c2,0,3.7,1.3,4.3,3.2.8,3.2.8,6.6,0,9.8-.1.4-.3.9-.6,1.2-.7,1-1.5,1.8-2.5,2.4-1.1.7-2.4,1-3.6,1.1-1.7,0-3.2-.8-4.1-2.3-.9-1.5-1.1-3.6-.8-6.3.3-2.3,1.2-4.6,2.6-6.4,1.1-1.5,2.8-2.5,4.7-2.6h0Z"/>
  <path class="st4" d="M936.9,695.2c1-3.2,2.8-6,5.2-8.3,2.8-2.6,6.3-4.2,10.1-4.7.8,0,1.5-.2,2.1-.2.6,0,1.3,0,1.8,0l1-6.8c-5.4,0-9.9,1-13.6,2.8-3.5,1.6-6.5,4-9,6.9-2.2,2.7-4,5.7-5.3,8.9-1.1,2.8-1.9,5.7-2.3,8.6-.6,3.3-.4,6.7.4,9.9.6,2.7,2.2,5.1,4.3,6.8,2.4,1.7,5.3,2.6,8.2,2.5,2.9,0,5.7-.8,8.2-2.3,2.4-1.5,4.4-3.5,5.9-5.8,1.5-2.4,2.5-5.1,2.9-8,.6-4.5,0-8.1-2-10.6-1.9-2.5-4.7-3.8-8.3-3.8-1.8,0-3.7.4-5.4,1.1-1.6.7-3,1.7-4.2,2.9h-.2ZM940.7,715.2c-2,0-3.8-1.2-4.6-3.1-.9-2.4-1.2-4.9-.8-7.5.2-1.5.8-2.9,1.7-4.2.8-1,1.7-1.8,2.9-2.4.9-.5,1.9-.7,3-.8,1.8,0,3.5.9,4.4,2.5.9,1.9,1.2,4,.8,6.1-.3,2.3-1.1,4.6-2.5,6.5-1.1,1.6-2.9,2.7-4.8,2.7Z"/>
  <polygon class="st4" points="979.9 720.9 986.5 675.8 979.1 675.8 967.2 681.4 968.2 687.7 976.6 683.6 976.7 683.6 971.3 720.9 979.9 720.9"/>
  <path class="st4" d="M407.2,732.5l151.6-5.4c-4.1-2.1-8.2-4.2-12.4-6.1-2.2-1-1.9-.9-1.3-2.9,1.6-4.7,3.2-9.4,4.4-14.2,2.1-8.3,3.5-16.8,4-25.3.2-4,.4-8,.2-12,0-3.4-.5-6.7-1.3-10-.7-2.3-.9-4.7-.6-7.1.3-2.3.4-4.7.6-7,.1-1.4.3-2.7.4-4.1.4-4.9.9-9.7,1.2-14.6,0-1.8-.6-3.5-1.8-4.7-1.7-1.9-4-2-6.2-2.1-3.2-.1-6.5.1-9.7.2-6.2.1-12.3.2-18.5.3-.3,0-.7,0-1-.1,0-.2,0-.5,0-.7,0-3.1.1-6.1.3-9.2.2-3.7.5-7.5.6-11.2.1-3.8.2-7.7.2-11.5,0-.7-.5-1.3-1.1-1.7-3.3-2-6.7-3.8-10-5.7-.5-.4-.9-1-.9-1.6,0-1.9.2-3.9.2-5.8.2-3.4-.9-6.8-3-9.4-.9-1-2-2-3.4-1.7-1.8.4-3.6,1.1-5.2,2-2.6,1.4-5,3-7.6,4.5-.2-.3-.3-.5-.3-.8-.1-1.6-.3-3.1-.3-4.7,0-3.6-.4-7.1-2.6-10.1-.4-.5-.6-1.1-.7-1.8-.3-2-.5-4.1-.6-6.1-.2-3.6-.3-7.2-.6-10.8,0-1-.6-2.5-1.3-2.8-2.2-1-4.9,0-5.9,2.2-.3.6-.4,1.3-.4,2,.3,5.4.3,10.8.3,16.2,0,1-.3,2-.6,2.9-.3.6-.5,1.3-.7,2-.1,1.4,0,2.7,0,4.1,0,2.3,0,4.7,0,7,0,2.8,0,5.6,0,8.7-3.6.5-7.1,1-10.8,1.5,0-1.6,0-2.8,0-4,0-2.4,0-4.8,0-7.1-.2-5.1-.6-10.1-.8-15.2-.3-6.4-.4-12.9-.6-19.3-.2-4.8-.4-9.6-.6-14.4,0-1.6-.3-3.1-.4-4.7-.2-1.6-.1-3.3,0-4.9.3-1.1.8-2.2,1.5-3.2.8-1.4.5-2.6-1-2.9-3.5-.7-7-1.4-10.6-2-3.8-.6-7.7-1.1-11.5-1.8-4.6-.8-9.2-1.6-13.8-2.4-4.3-.7-8.7-1.5-13-2.2-2.5-.4-5-.9-7.3.4-2.2,1.2-4.3,2.6-6.5,4-5.1,3.2-10.1,6.4-15.1,9.7-7.3,4.7-14.7,9.4-22,14.1-1.3.8-2,2.2-1.9,3.6,0,2.5,1.1,4.9,3.2,6.5.5.3.8.8,1,1.3.3,1.3.5,2.7.7,4.1.8,4.2,1.7,8.4,2.5,12.6.4,2.3.7,4.6,1.2,6.9.3,1.7.9,3.3,1.2,5,.6,3.1,1,6.2,1.6,9.3.5,2.5,1.2,4.9,1.7,7.4.8,4.2,1.5,8.4,2.4,12.5.4,1.8,0,2.8-1.7,3.4-3,1.2-5.9,2.5-9,3.4-3.2.8-5.8,3-7.3,5.9-.3.6-1,1.4-1.5,1.5-1.4.2-2.6.9-3.6,1.9-4.2,3.4-7.9,7.2-10.6,11.9-1.9,3.3-3.5,6.8-4.8,10.4-1.1,3.4-1.9,6.9-2.4,10.5-.5,3.4-.8,6.9-1,10.4-.1,2.2,0,4.5.1,6.7.2,2.3.6,4.5,1.1,6.8.5,2.8,1,5.5,1.7,8.3.5,2,1.1,4,1.9,5.9.6,1.6.9,3.4,2.1,4.7,0,0,0,0,0,.1,1.1,2.1,1.8,4.6,3.4,6.4,1.9,2.1,3.9,4.1,6.1,5.9,3.6,2.7,7.4,5.1,11.1,7.7,2.5,1.7,5,3.5,7.5,5.2,3,2,6.1,4,9.1,6,2.2,1.5,4.2,3.3,6.5,4.9,3.4,2.3,6.9,4.5,10.4,6.8,3.3,2.3,6.6,4.6,9.9,6.9,1.3.9,2.7,1.7,3.9,2.7.1,0,.2.2.4.3ZM442,505.5c1.7.3,3.5.6,5.6,1-2.3,2.3-4.9,4.5-7.6,6.4.7-2.6,1.3-4.9,1.9-7.4h0ZM409.4,509.7v-8.6c6.5.9,13,1.7,19.6,2.6-.7,1.9-2.2,2.1-3.5,2.2-2.1,0-4.2-.1-6.3-.2-2.1,0-4.2.7-5.9,1.9-1.1.7-2.2,1.5-3.2,2.3-.2,0-.3,0-.5-.1h0ZM453.6,559.2c-1.3-1.6-2.6-3.1-4-4.7-.1-.2-.2-.4-.4-.5-1.6-1-2.1-2.3-1.8-4.2,0-.6.2-1.3.3-1.9.4-2.4-.5-4.6-1.3-6.7-.4-1.2-.8-2.5-1.3-3.7-2.2-5.2-4.3-10.4-6.4-15.6-1.2-2.9-1.2-3,1.2-5.2,3.4-3.1,6.9-6.2,10.4-9.2.4-.3.8-.6,1.1-.8.1.4.2.8.3,1.2.2,4.4.4,8.8.6,13.2.1,2.3.3,4.5.4,6.8,0,1.5,0,3,0,4.5.2,4.6.5,9.1.8,13.7.2,3.8.3,7.7.4,11.5,0,.5,0,1,0,1.5-.1,0-.3,0-.4.1h0ZM400.8,506.8c0,5.8,0,11.3,0,16.7,0,2,.1,4,.1,6,0,4.4,0,8.8.2,13.2,0,2.9.2,5.7.2,8.6,0,1.4,0,2.9-.1,4.3-.1.5-.5,1-.9,1.3-3.8,2.4-7.7,4.9-11.5,7.2-3.1,1.9-6.2,3.8-9.3,5.7-.4.2-.9.4-1.3.6-.8-3.6-1.6-7.1-2.2-10.6-1.1-6-2.1-12.1-3.1-18.1-.7-3.7-1.5-7.4-2.2-11.1-.3-1-.4-1.9-.5-2.9,0-.7.4-1.3.9-1.8,3.2-2.3,6.5-4.4,9.8-6.6,3.5-2.3,7-4.7,10.5-7,2.7-1.7,5.4-3.4,8.2-5,.4-.2.9-.3,1.3-.4h0Z"/>
  <path class="st1" d="M427,647.1c.2-.2.3-.4.5-.6-1.9-1.9-3.9-3.9-5.8-5.8-.9,2.6-.5,3.5,1.3,4.4,1.3.7,2.7,1.3,4.1,1.9Z"/>
  <path class="st3" d="M494.5,571.6c0,0,.2,0,.3.1,0,1.4.2,2.9.5,4.3.4,1.5.3,3.2,1.6,4.5,1.1,1,2,.9,2.6-.5.9-1.9.4-4,.6-5.9,0-1.7,0-3.3,0-5,0-1.4-.2-2.8-.5-4.2-.3-.5-.9-.8-1.5-.8-.8.3-1.4.9-1.8,1.7-.7,1.9-1.1,3.9-1.7,5.9Z"/>
  <path class="st3" d="M441.1,578.7c.6,1.7,1.3,3.6,2.1,5.4.3.7,2.3.7,2.5,0,.4-1,.6-2.1.7-3.2,0-.9,0-1.9,0-2.8,0-3.1,0-6.3-.2-9.4,0-.6-.5-1.1-1-1.4-.6,0-1.1,0-1.6.5-1.4,1.2-2.2,2.8-2.3,4.6-.1,2.1-.2,4.2,0,6.3Z"/>
  <path class="st2" d="M412.4,685.8c.8,2.3,1.5,4.5,2.2,6.7,0,.2.3.4.5.4,1,.4,3.7-.3,4.4-1.2,3-3.5,2.7-8.7-.6-11.8-1.3-1.2-3.7-1.1-4.4.4-.8,1.8-1.5,3.6-2.1,5.4Z"/>
  <path class="st2" d="M352.6,646.9c-.2,2.5.5,5,2,6.9,1.3,1.7,3.8,2,5.5.7.3-.2.6-.5.8-.8,1.7-2.4,1.8-5,1.2-7.7-.3-1-.7-2-1.3-2.9-1-2-4.4-2.8-5.8-1.2-1.3,1.5-2.9,3-2.5,5Z"/>
  <path class="st8" d="M476.1,570.1c0,1.9.4,2.3,1.7,1.5,1.6-1,3-2.2,4.5-3.3.7-.5,1.1-1.4,1-2.3-.1-3.1-.1-6.3-.2-9.4,0-2.1-.5-4-2.2-5.4-.3-.3-.5-.6-.6-1-.2-1.5-.4-3.1-.5-4.6,0-1.2.2-2.4.1-3.5,0-1-.6-2-.7-3-.2-2.5-.4-4.9-.6-7.4,0-.3-.5-.7-.8-.7-.2,0-.7.3-.8.5-.1.4-.2.8-.2,1.2.1,5.4.2,10.7.4,16.1,0,1.4,0,2.8-1,4-.5.6-.7,1.3-.7,2.1,0,5.1.3,10.2.4,15.4Z"/>
  <path class="st1" d="M352.2,609.3c-.5.2-.9.4-1.4.7-3.4,2.7-6.3,6-8.7,9.7-2,3.2-3.1,6.7-4.2,10.2-.8,2.8-1.4,5.7-1.5,8.7-.3,4.3-.4,8.6-.5,12.9,0,2.2.1,4.3.5,6.5.6,3.8,1.5,7.5,2.2,11.2.8,4.7,3.1,8.7,5.5,12.6.1.2.4.4,1,.9-.3-.7-.4-1-.5-1.4-.7-1.5-1.2-3-1.7-4.6-.5-1.9-.6-3.9-1-5.8-.2-.9-.9-1.8-1.1-2.7-.5-3.1-.8-6.3-1.2-9.5-.2-1.7-.2-3.4-.2-5.2,0-.6.5-1.3.3-1.7-.8-1.6-.3-3.1-.1-4.6.3-4.9,1-9.8,2.2-14.6.9-3.3,1.6-6.7,3.6-9.6,1.3-1.9,2.8-3.7,4.1-5.6.9-1.2,2.4-2.1,2.6-3.8.1-1.4.2-2.8.2-4.4Z"/>
  <path class="st1" d="M401,717.2c.1,0,.2-.2.3-.2-.4-1.1-.8-2.2-1.2-3.3-1.3-3.2-2.7-6.4-3.8-9.7-.8-2.4-1.4-4.9-1.8-7.4-.6-3.5-.9-7.1-1.1-10.7,0-2.2,0-4.4.2-6.5.2-2.6.4-5.3.8-7.9.8-5.3,3.1-10,5.6-14.7,1.6-3,3.2-5.9,6.2-7.7.9-.5,1.3-1.5,1.1-2.5-.1-1.4-.2-2.8-.3-4.2-1.5-.2-2.2.9-3.1,1.6-3.2,2.6-4.9,6.3-6.8,9.8-2.4,4.5-4.7,9.1-5.7,14.2-.7,2.7-1.1,5.5-1.3,8.3-.1,3.8,0,7.6.3,11.4.2,3.9.8,7.9,1.7,11.7,1.4,6.2,4.2,11.9,8.1,16.9.3.3.7.6,1,.9Z"/>
  <path class="st2" d="M436.2,559.4c0-.2-.2-.3-.3-.5-.9.3-1.8.6-2.6.9-.2,0-.3.5-.5.7.3.1.7.4.9.3.9-.4,1.7-1,2.5-1.4ZM418.2,560.9c0,0,0,.2,0,.3,1.1.6,2.1,1.2,3.1,1.7.3-.5.5-1,.9-1.6-1.4-.1-2.6-.3-3.9-.4h0ZM426.7,561.6c0,.1-.2.3-.3.4.7,1,1.4,2,2.4,3.3.3-1.5.5-2.5.8-3.8-1.2,0-2,0-2.9.1ZM454.9,575.5c-.2-3.4-.2-6.9-.6-10.2-.1-1.4-.6-2.7-1.5-3.8-1.7-2-3.7-3.6-5.6-5.5-.6-.8-1.8-.9-2.6-.2,0,0,0,0-.1,0-2.6,2-5.1,4-7.7,6-1.5,1.2-2.8,2.8-5.1,1.5-.3,1.7-.7,3.2-.9,4.8,0,.5.2,1,.7,1.2,1.6.5,2.7,0,3.5-1.5,1.7-3,4.2-5.4,7.3-7,.8-.6,1.8-.9,2.8-.9,3.4.4,5.4,2.8,6.3,5.8.9,3.2,1.3,6.6,1.9,9.9.2,0,.7-.1,1.6-.3h0ZM409.8,576.4c.4,0,.7,0,1.1,0,2-.4,3.3-1.9,4.8-3,.3-.2,1-.5,1.1-.4.4.3.5.8.5,1.3-.1.6-.5,1.2-.9,1.6-1.6,1.2-3.2,2.3-4.9,3.4-1.2.7-2.1,1.4-1.7,3,.2,1,.3,2,.3,3,0,.3.2.8.5.8.8.2,2.7-.9,2.9-1.8.6-3,2.2-5.5,4-7.9,2.1-2.8,4.6-5.1,8.2-5.9.8-.1,1.4-.9,1.3-1.7,0-.2,0-.4-.2-.5-.8-1.7-1.4-3.5-2-5.1-1,.6-2,1.2-2.9,1.9-.5.6-1.3.7-2,.4-3.1-1.5-6.1-3.1-9.2-4.6-.3-.1-.7-.2-1-.2v15.8ZM376.7,576.7c-.2,2.1,1.4,4.4,3.5,5.3,1.9.8,4.2.7,5.5,2.8,0,.1.3.2.5.2,3.1.1,6,1.3,8.8,2.6.4.2.8.6,1.2.7,1,.3,2,.5,3,.8,1.4.6,1.9.4,1.9-1.2,0-1.6-.1-3.2,0-4.7.1-1.2,0-1.9-1.4-1.9-.4,0-.8-.2-1.2-.4-1.3-.6-2.6-2.6-2.1-3.6.6-1.2,1.1-2.7,2.5-3.3,2.5-1,2.2-3.4,2.5-5.3.3-2,0-4,0-6,0-.9-.6-1.4-1.4-1.1-1.7.7-3.5,1.5-5.1,2.4-1.5.9-2.9,2-4.4,2.9-3.8,2.2-7.6,4.4-11.5,6.4-1.5.8-1.8,2-2.2,3.5Z"/>
  <path class="st2" d="M402.5,640.5c-6.6-3.8-13.4-7.7-20.3-11.7,0,.3-.1.7-.1,1,.6,3,1.2,5.9,1.8,8.9.6,2.6,1.3,5.2,1.6,7.8.3,3,.5,6,.4,8.9-.1,5.2-.3,10.5-1.6,15.6-.6,2.8-1.6,5.5-2.7,8-2.1,4.4-4.2,8.8-7.8,12.3-.9.9-1.8,1.9-2.7,2.9.4.2.7.3,1.1.3,3.8,0,7.6-.1,11.5-.3,1.3,0,1.9-1.1,2.2-2.2.1-.4-.3-1.1-.6-1.8.1-.2.6-.6.6-1,.2-1.4.1-2.8.2-4.2.2-3.3.3-6.7.7-10,.3-2.4.8-4.8,1.4-7.1.3-1.6.8-3.2,1.4-4.7.9-2.4,1.9-4.8,3-7.2.9-2.4,2-4.6,3.3-6.8,2-3.1,4.4-5.9,6.7-8.9Z"/>
  <path class="st7" d="M352.4,620.5h-.3c-.2,0-.4.3-.5.5-1.2,2.3-2.4,4.5-3.4,6.8-1.1,2.2-1.9,4.5-2.6,6.9-1.1,4.4-2,8.9-2.6,13.4-.4,3.1-.5,6.2,0,9.3.7,4.3,1.7,8.6,2.9,12.8,1.1,4.6,2.9,9,5.2,13.1,2.2,3.7,4.9,7,9.1,8.3,1.9.5,3.8.8,5.7.6,1.5-.2,2.9-1,3.8-2.2,1-1.1,2.4-1.7,3.4-2.9,2-2.4,3.8-5,5.3-7.7,1.8-3.4,3.4-6.7,3.5-10.6,0-2.1.7-4.3.9-6.4,0-.5-.2-1.1-.2-1.6,0-2,0-3.9,0-5.9,0-.6-.5-1.2-.4-1.6.8-2.2,0-4.3-.7-6.3-.4-1.3,0-1.3.6-1.5-.3-.8-.7-1.4-.6-2,.2-1.3,0-2.7-.4-3.9-.1-.4-.3-.8-.4-1.2-.6-2.5-1-5.1-1.9-7.5-1.2-3.6-2.7-7.2-4.2-10.7-1-2.4-2.2-4.7-3.5-6.9-.7-1.1-1.9-1.8-3.1-2.9-.2,1.6-.4,2.8-.6,4.1-.6,4.2-1.2,8.5-1.8,12.7-.5,3.1-1.1,6.1-1.4,9.2,0,1.2.1,2.4.5,3.5.3,1.1.9,2.2,1.1,3.3.2,1.7.2,3.5.3,5.2,0,3.5-1,7-3.1,9.9-1,1.6-2.6,2.8-4.4,3.4-2.3.6-5-.9-6.3-2.7-1.4-2-2.4-4.2-3.2-6.5-1.3-3.6-.6-7.3,0-10.9.2-1,1-1.9,1.5-2.9.6-1,1.6-2.1,1.7-3.1,0-2.7-.3-5.5-.5-8.2,0-.1,0-.3,0-.4.2-2.1.3-4.2.5-6.3Z"/>
  <path class="st7" d="M420.7,648c0,1.1,0,2.1,0,3.1,0,3.4,0,6.8,0,10.3,0,3.4,0,6.9,0,10.3,0,1.5,0,3,1.3,4.3,1.9,1.9,3.1,4.3,3.4,7,.5,5.2-.2,10.3-4.4,14.1-1.9,1.8-5.3,2.5-7.4,1.1-2.3-1.5-4-3.7-4.8-6.4-1.4-4.6-.7-9.1,1.1-13.4.4-.8.5-1.7.4-2.5-.8-4.3-.8-8.8-1.8-13.1-.5-2.7-.8-5.4-1-8.1,0-1.1-.3-1.4-1.4-.8-1.7.9-3,2.4-3.9,4.1-2.9,5.7-3.8,11.9-4.4,18.2-.2,2.9-.2,5.8-.1,8.7,0,2.5,0,5.1.4,7.6.7,4.6,1.8,9.1,3,13.5,1.2,3.7,2.7,7.3,4.5,10.7,1.6,3.1,4.4,5.1,7.4,6.9,2.8,1.7,5.6,2.9,8.9,2.7.9,0,1.8-.2,2.7-.4,1.4-.3,2.7-.7,3.9-1,.3-.4.7-.8,1.1-1.2,3.1-1.8,5.4-4.6,6.7-7.9,1-2.5,2.4-4.9,2.7-7.8.3-2.5,1-4.9,1.3-7.4.2-2.4,0-4.9.1-7.4.4-5.3,0-10.5-.9-15.7-.8-4.2-1.9-8.4-3.5-12.4-2-5-4.8-9.6-8.4-13.6-1.9-2.2-4.5-2.8-7.5-3.4Z"/>
  <path class="st1" d="M549,658.1c0-.5,0-1.1-.1-1.6-.7-3.1-1.4-6.3-2.2-9.4-1-3.3-2.3-6.5-4-9.5-.9-1.7-2-2.9-4.3-2.8-4.3.3-8.6.2-12.8.4-4.3.1-8.5.4-12.8.5-6.5.2-13,.3-19.5.4-6.7.2-13.4.5-20.1.7-5.5.2-11,.4-16.5.5-4.1.1-8.1.2-12.2.3-1.7,0-3.5,0-5.2,0-3.5.1-7,.3-10.5.5-1.4,0-2.8.2-4.5.3.4.5.6.8.9,1,1.9,2,4.1,3.9,5.6,6.1,2.4,3.4,4.4,7.2,6.6,10.8.4.6,1.1,1,1.8,1.1,2.6.1,5.1,0,7.7,0,5.1,0,10.2,0,15.3,0,3.8,0,7.6,0,11.3,0,6.2,0,12.3,0,18.5,0,5.7,0,11.3.1,17,.2,5.8,0,11.6.2,17.4.2,3,0,6-.1,8.9-.2,4.5,0,9,0,13.7,0Z"/>
  <path class="st1" d="M431.9,727.3c-.9.5-1.7,1.1-2.6,1.7,67.7-7,105.6-5.2,107.7-6.8,5.5-4.1,5.3-8.7,5.8-10,1.4-3.7.6-2.3,1.8-6,.6-1.7,1-3.5,1.5-5.5-7,0-13.8,0-20.7,0-5.8,0-11.7,0-17.5,0-3.1,0-3.1.2-3.5-2.7,0-.1,0-.2,0-.3.5-.2,1-.4,1.5-.4,2.4,0,4.9,0,7.3,0,3.3,0,6.6.1,9.9.1,3.6,0,7.2-.1,10.8,0,3.7,0,7.4.3,11.1.3.7,0,1.9-.3,2-.8.7-2.3,1.2-4.7,1.8-7,0-.6.1-1.1.1-1.7.3-3.6.9-7.1,1-10.7,0-5-.3-10-.5-14.9,0-1-.5-1.3-1.4-1.2-1.2,0-2.4,0-3.5,0-6.9-.1-13.9-.3-20.8-.3-9.9,0-19.8,0-29.7-.2-7.4,0-14.8-.3-22.2-.3-8,0-15.9,0-23.9,0-2.7,0-5.4,0-8.1,0,0,.2,0,.4,0,.6,1,3.6,2,7.2,3.1,10.8,1.1,3.6,1.9,7.4,2.2,11.1.6,7.9.2,15.9-1.1,23.7-.1.8.1,1.1,1,1.1,1.3,0,2.7,0,4,0,3.5,0,7-.1,10.5-.2,4.3,0,8.6-.2,12.9-.3,3.8,0,7.5,0,11.3-.2,2.8-.2,5.5.2,8.1,1.3.4.3.8.6,1.2,1,0,.1-.1.2-.2.4-1.4,0-2.8,0-4.2,0-5.5,0-11,.2-16.5.3-2.9,0-5.8.2-8.8.3-6.2.1-12.4.3-18.7.2-1.5,0-2,.6-2.5,1.9-2.8,10.1-5.4,12.7-10.2,14.7Z"/>
  <path class="st5" d="M419.9,516.5c0,.1,0,.2-.1.3.3.5.6,1,1,1.4.5.7,1.1,1.4.4,2.2-.7.6-1.7.6-2.4-.1,0,0,0,0,0,0-.6-.5-1-1.3-1.6-1.8-.6-.5-1.3-.8-2-.8-.3,0-.9.7-1,1.2-.6,2.6-1,5.3-1.6,8-.1.8-.4,1.5-.8,2.1-.9,1.3-1.7,2.4-1.6,4.1,0,1.8-.6,3.6-.7,5.4-.1,2.5,0,5,0,7.5.1,3.2.3,6.4.5,9.6,0,1.4,1.1,2.5,2.5,2.7,2.8.1,5.5.3,8.3.3,3.9,0,7.9.3,11.7-.8,2.2-.6,4.3-1.3,6.5-2,.5-.1,1.1,0,1.4-.3,1-.6,1.8-1.5,2.7-2.1,1.4-.8,2.3-2.3,2.4-3.9.3-4.2-1.4-7.9-2.7-11.7-1.5-4.4-3.5-8.6-5.4-12.9-1.3-2.9-2.7-5.8-4.1-8.7-.7-1.4-1.4-1.5-2.7-.7-.5.2-1.1.3-1.6.2-.6-.2-1.3-.4-2-.5-.5.1-.8.5-1,.9,0,2.2-.8,2.6-2.8,1.7-1-.5-2.1-.8-3.2-1.2ZM437.6,538.1c1.2,2.1.5,4.8-1.6,6-.1,0-.2.1-.4.2-2,1.1-4.3,1.6-6.6,1.6-2.5,0-4.9-.2-7.3-.5-1.4-.3-2.8-.8-4.1-1.5-.6-.4-1.4-.3-2,.1-.4.3-1.2.1-1.7,0-.2-.4-.2-.9,0-1.4.5-.8,1.1-1.5,1.9-2.2.3-.2,1,0,1.4.2,1.2.8,2.4,1.5,3.6,2.2,1.3.6,2.6.9,4,.9,2.8,0,5.7-.3,8.5-.8,2.5-.4,2.8-1.1,2.9-3.7,0-.4.9-.8,1.4-1.2ZM425.1,538c.8,0,1.5,0,2.3,0,1.5,0,2.3-.7,2-2.2-.5-1.9-1.1-3.7-1.9-5.5,0-.2-.3-.4-.3-.6,0-.6,0-1.3,0-1.9.6.3,1.4.5,1.7,1,1.1,1.8,2.1,3.7,3,5.6.6,1.6.3,3.4-.9,4.6-1.3,1.1-3.1,1.3-4.6.5-.5-.3-1-.7-1.5-1.1,0-.1.1-.3.2-.4ZM434.5,526.9c-1,.2-1.9.5-2.9.8-1.1.5-1.6-.2-1.7-.9,0-.6.3-1.2.8-1.6,1.5-.8,3.4-.8,4.9,0,.5.2.7.9,1,1.4-.5.2-.9.4-1.4.6-.2,0-.5,0-.7,0,0,0,0-.1,0-.2h0ZM414.8,530.9c.1-.6.3-1.1.6-1.6.9-1.5,3.6-2.9,5-2.5.4.1,1,.5,1,.8,0,.5-.3,1.5-.6,1.5-1.9.2-3.4,1.1-5,1.9-.2,0-.4,0-.9-.1ZM433.5,519.9c-1.7.2-3.3.4-4.9.4-.5,0-1-.5-1.5-.8,1.6-1.6,5.3-1.3,6.4.4ZM415.1,524.7c.2-.5.3-1,.5-1.2,1.2-1.1,2.7-1.7,4.3-1.9.3,0,.8.2.8.4,0,.3-.1.7-.3.9-.3.2-.5.3-.8.4-1.4.5-2.7.9-4.4,1.5Z"/>
  <path class="st6" d="M375.6,583.6c.3.5.7.8.8,1.2.3,1.3.4,2.7.6,4.1.2,1.5.3,1.6,1.8,1.8-.3-2.2-.7-4.4-1-6.7-.7.4-1-1.9-2.1-.4Z"/>
  <path class="st6" d="M416.1,595.6c-1.2,0-2.2.8-2.3,2,0,0,0,0,0,0,0,1.4,1.4,3,2.7,3,1.1-.3,1.8-1.2,2-2.3,0-1.5-1-2.9-2.4-2.7Z"/>
  <path class="st6" d="M358.4,621.4c-1.5,0-2.4.6-2.5,1.7,0,.8,0,1.6,0,2.3,0,1.6-.2,3.2-.3,4.7,0,1.5,0,3,0,4.5h2.8v-13.2Z"/>
  <path class="st6" d="M413.8,612.6c1-3.7,2.1-7.3,3.1-10.9-1.1-.4-2.1-.7-3.3-1-.8,2.9-1.6,5.6-2.3,8.5-.7,3.1-.5,2.6,2.5,3.5Z"/>
  <path class="st6" d="M397.1,600.8c-2.2-.7-4.5-1.4-6.8-2.1-.6,5-.3,5.4,3.7,6.9.3.1.6.3.9.4.8.2,1.6.4,2.5.5.1-.9.2-1.7.2-2.6,0-1-.2-2-.4-3.2Z"/>
  <path class="st6" d="M417,583.9c1.5-.5,3-1,4.5-1.6,1.3-.5,2.7-1.1,3.9-1.8,1.1-.6,2.5-.9,3.3-1.9.9-1.2,1.3-2.8,2-4.3.3-.8,0-1.2-.7-1.4-2.1-.7-4,0-5.8,1.1-3.6,2.3-5.5,5.9-7.2,9.8Z"/>
  <path class="st6" d="M374.4,572.6c.1,0,.3-.1.4-.2.2-.4.2-.9.2-1.3-2.6-14.1-5.3-28.2-7.9-42.2-1.2.1-1.9.5-1.6,1.9.6,2.6,1,5.2,1.5,7.9,1,5,2,10,3,15,1.2,5.9,2.4,11.9,3.6,17.8.2.4.4.8.7,1.2Z"/>
  <path class="st6" d="M377.2,598.9c-3.6,1.2-7.2,2.3-10.8,3.6-1.7.5-3,1.9-3.3,3.7-.2,1.3-.4,2.5-.5,3.8-.3,3.3-.5,6.7-.8,10-.2,2.9-.5,5.8-.6,8.7,0,.7-.6,1.9.7,2,1.4,0,1-1.3,1.1-2.1.3-2.7.4-5.5.7-8.2.4-4.3.9-8.6,1.3-13,.2-1.7.8-2.9,2.2-3.4,3-1,6-1.9,8.9-2.9.5-.2,1.1-.4,1.6-.6-.1-.4-.3-.8-.5-1.6Z"/>
  <path class="st6" d="M424.9,592c-2.1.9-3.2,2.5-3.2,4.4,0,1.7-.5,3.4-1.6,4.8-.5.7-.7,1.5-.5,2.3.5,2.6,1.3,5.2,1.9,7.7.3,1.1,1.2.9,1.9.7.6-.1,1.5-.5,1.6-1,.3-1.2.4-2.4.3-3.5,0-3.5,0-7,0-10.6,0-1.6-.2-3.2-.3-4.9Z"/>
  <path class="st6" d="M380,585.1c-.1.1-.3.3-.4.4.3.6.6,1.3,1.1,1.6,2.3,1.4,4.4,2.9,7,3.8,2.7.9,2.7,1,2.8,3.9,0,1,.3,1.9,1.2,2.2,1.7.6,3.4,1,5.1,1.5.9.3,1.4,0,1.4-.9.1-1.9.1-3.7,0-5.6,0-.4-.8-.8-1.4-1-.7-.3-1.6-.4-2.4-.6-2.5-.9-5-1.8-7.5-2.8-.3-.1-.6-.2-.9-.3-2.1-.7-4.1-1.5-6.2-2.2Z"/>
  <path class="st6" d="M358.8,620c0-1.5,0-3.2,0-5,.2-3.3.4-6.5.8-9.8.2-.8.6-1.6,1.2-2.2,2.3-3,5.9-3.7,9.2-4.9,2.2-.8,4.5-1.3,6.6-2.2.8-.4,1.8-1.8,1.7-2.5-.3-1.3-1.7-.6-2.4-.3-3.5,1.2-6.9,2.5-10.3,3.8-1.8.7-3.5,1.6-5.2,2.5-2.8,1.4-3.7,4-3.8,6.9-.2,3.2-.1,6.3-.2,9.5,0,1.4-.2,2.8-.2,4.1,0,.8.3,1.2,1.1.8.4-.2.8-.4,1.6-.8Z"/>
  <path class="st6" d="M455.1,507.9c0,.5,0,.9,0,1.3.1,3.3.2,6.5.3,9.8.2,5,.5,9.9.8,14.9.2,4.9.4,9.8.6,14.8.2,5.9.4,11.8.6,17.8,0,2.4.2,4.7.3,7.1,0,.6-.2,1.5.9,1.5,1,0,.7-.9.7-1.5,0-2.6-.2-5.1-.2-7.7-.2-6.9-.4-13.8-.6-20.7,0-2.3-.2-4.6-.3-6.9-.4-7.2-.7-14.3-1.1-21.5-.1-2.6-.2-5.2-.3-7.7,0-.9-.5-1.3-1.7-1.1Z"/>
  <path class="st6" d="M404.6,588.1c.6,0,1.3-.1,1.9-.3.3-.2.5-.5.6-.8,0-1.2-.2-2.3-.2-3.5,0-3,.1-6.1.1-9.1,0-2.9-.2-5.7-.3-8.6,0-3.4,0-6.9,0-10.3,0-6.8-.1-13.7-.1-20.5,0-6.3.2-12.5.2-18.8,0-4.5-.1-9.1-.2-13.6,0-.4,0-.9-.2-1.6-1.2,1-2.1,1.7-2.1,3.2,0,3.3,0,6.6,0,9.9,0,4.3,0,8.6,0,12.9,0,6.4.2,12.7.2,19.1,0,3.3-.2,6.7,0,10,.1,2.2,0,4.5,0,6.7,0,6.8-.2,13.7-.2,20.5,0,1.6.1,3.1.2,4.7Z"/>
  <path class="st6" d="M378.5,604.1c-3,1.3-5.7,2.4-8.3,3.6-.3.1-.4,1-.4,1.5,0,.2.7.6.9.5.9-.5,1.3.1,1.7.7.6.6,1.2,1.3,1.7,2.1,1.4,2.5,2.7,5.2,4.2,7.7,1,1.7,1.8,3.4,3.7,4.4,5.2,2.7,10.3,5.6,15.5,8.4.6.3,1.2.5,1.9.7,0-1,0-1.7,0-2.4-.2-1.1-.3-2.2-.2-3.3.3-1.1-.2-2.2-1.1-2.9-1.4-1-2.9-2-4.4-2.7-1.9-1.1-4-2-5.9-3-2.3-1.3-4.6-2.7-7-3.9-.6-.2-1.1-.8-1.1-1.5-.4-3.1-.7-6.2-1.2-9.8Z"/>
  <path class="st6" d="M403,634.9c1.3.7,2.8-.3,2.8-2,0-1.5,0-3,0-4.5-.4-3.2.9-6.5-.3-9.6,0-.2,0-.4,0-.6,0-.8,0-1.6,0-2.5-.2-3.9-.4-7.8-.6-11.7,0-1.6,0-3.2,0-4.8-.2-2.9.5-3.9,3.3-5,3.2-1.2,6.4-2.5,9.6-3.7,2.3-.9,4.6-1.9,7-2.6,1.1-.5,2.4,0,2.8,1.2,0,.1,0,.3.1.4.2,1,.4,2.1.5,3.1.5,4.7.9,9.4,1.3,14,.3,3.8.5,7.6.8,11.4,0,.3.6.9.9.9.5-.1,1-.4,1.3-.8.2-.2,0-.7,0-1.1-.3-4.4-.6-8.8-.8-13.2-.1-2.5-.2-5-.3-7.4-.2-2.7-.6-5.4-.7-8.1-.1-3.7-2.7-5.5-6.2-4.3-2.3.8-4.5,1.6-6.8,2.4-4.9,1.9-9.7,3.9-14.6,5.6-1.3.3-2.2,1.6-2,2.9.1,3.7.3,7.4.4,11.1,0,2.1.2,4.2.2,6.3,0,1.4,0,2.9,0,4.3.1,1.3.6,2.6.7,4,.3,4,.5,7.9.7,11.9,0,.7,0,1.5,0,2.4Z"/>
  <path class="st6" d="M538.7,631.4c-.8-2.9-.8-2.9-3.3-2.8-3.2,0-6.4.2-9.6.3-3.7.1-7.5.2-11.2.3-4.5.2-9,.6-13.5.7-5.5.2-10.9.3-16.4.5-5.7.2-11.3.6-17,.9-5.2.2-10.3.4-15.5.6-1.4,0-2.7,0-4.1,0-5.4.3-10.8.7-16.1,1-4.1.2-8.2.4-12.3.6-2.3.1-4,2.1-3.9,4.4,0,0,0,.2,0,.3.3,2.8.3,5.6.5,8.4.5,6.5,1,12.9,1.5,19.4.1,1,.3,1.9.5,2.8.1,0,.3,0,.4,0,.2-.4.3-.9.3-1.4-.1-3.1-.3-6.2-.5-9.3-.1-3.4-.2-6.8-.3-10.1,0-3.1-.2-6.2-.2-9.3,0-2.4,1-3.2,3.4-3.3,3.8-.1,7.7-.3,11.5-.5,6.4-.3,12.9-.5,19.3-.8,3.3-.1,6.6-.2,9.9-.3,2.5,0,5.1-.2,7.6-.2,2.5,0,5,0,7.5-.1,4-.1,7.9-.4,11.9-.5,3.7-.1,7.3-.3,11-.4,3.9-.1,7.9-.2,11.8-.3,6.2-.2,12.3-.4,18.5-.6,2.7,0,5.4-.2,8.1-.3Z"/>
  <path class="st6" d="M367.5,516.9c-.6.8-1.2,1.6-1.9,2.3-.9.8-2,1.3-2.9,2.1-.7,1-.6,2.4.2,3.3.8.7,1.6.3,2.2-.5,0,0,.3-.1.4-.2,6.3-4.1,12.5-8.2,18.8-12.2,6.4-4.1,12.8-8.1,19.2-12.1,2-1.2,4.1-2.4,6.6-2.1,3.1.4,6.3.8,9.4,1.4,3.3.5,6.5,1.1,9.7,1.9,3.2.9,6.5,1,9.8,1.6,2.9.6,5.9,1,8.8,1.4,2.7.4,5.4.8,8.2,1.1,1.1.2,2.1-.6,2.2-1.6,0,0,0-.1,0-.2.2-1.3-.8-1.8-1.8-2-3.2-.6-6.3-1.2-9.5-1.7-5-.8-10-1.6-15-2.4-2.5-.4-5-.8-7.5-1.2-2.6-.4-5.2-1-7.9-1.3-2.8-.4-5.6-.7-8.4-.8-1.3,0-2.6.2-3.8.8-2.7,1.5-5.2,3.3-7.8,4.9-1.5,1-3.2,1.7-4.8,2.7-1.4.9-2.6,2.1-4,3.1-2.2,1.4-4.5,2.6-6.6,4-3.8,2.4-7.6,4.8-11.5,7.2-.7.3-1.4.5-2.2.6Z"/>
  <path class="st6" d="M547.4,636.5c1.4-.1,1.9-.6,1.9-2,0-3.2.2-6.4.3-9.5.2-1.3-.5-2.6-1.7-3.2-1.2-.7-2.5-1.1-3.8-1.3-3.3-.2-6.7-.1-10,0-3.5.1-7.1.5-10.6.7-5.5.3-11,.6-16.4.8-7.8.4-15.5.8-23.3,1.1-4.3.2-8.7.4-13,.6-2.3.1-4.5.2-6.8.3-5.6.3-11.2.7-16.8,1-2.6.1-5.1.2-7.7.3-6.2.3-12.4.5-18.6.8-3.7.2-7.2,2-9.4,5-2.1,2.5-1.5,5.5-1.2,8.4.6,5.3,1.3,10.5,1.9,15.8.5,4.4.9,8.9,1.4,13.3,0,.7.7,1.3,1.1,1.9.2,0,.3-.2.5-.2-.1-1.9-.2-3.7-.5-5.6-.2-1.9-.6-3.7-.7-5.6-.2-2.2,0-4.4-.2-6.6-.2-3-.5-6-.8-9-.2-1.7-.4-3.5-.5-5.2,0-2,0-3.9,1.4-5.6,2.2-2.6,5.2-3.3,8.4-3.5,6.2-.4,12.3-.6,18.5-.9,6.4-.3,12.7-.6,19.1-.8,6.3-.3,12.6-.5,18.9-.8,7-.3,14-.6,21-.9,6.1-.2,12.3-.4,18.4-.6,2.8,0,5.6-.3,8.4-.4,5.2-.2,10.4-.3,15.6-.4,2.4,0,2.9.6,3.3,3,.6,2.9,1.1,5.8,1.7,8.9Z"/>
  <path class="st6" d="M481.7,575.2c-9.7,1.6-19.3,3.2-28.8,4.7-.7,7.4-3.7,10.1-9.3,10.8-.2-.4-.3-.8-.6-.9-.2-.1-.6,0-1.1,0,.4.3.6.5.9.7-3-.6-6.1-.9-8.6-3.1,0,1.3.1,2.5.3,3.8.5,4,1,8,1.5,12,.4,3.2.8,6.4,1.2,9.6.3,2.4.5,4.9.8,7.3,0,.8.4,1.1,1.2,1.1,1.9,0,3.9,0,5.8,0,5.4-.2,10.9-.5,16.3-.8,6.4-.3,12.9-.7,19.3-1.1,3.9-.2,7.7-.2,11.6-.4,3.8-.2,7.6-.5,11.4-.7,2.9-.2,5.8-.4,8.7-.6.3-1.8.6-3.4.7-5.1.2-2.9.3-5.9.5-8.8.1-1.7.4-3.4.4-5.1.2-3.7.3-7.4.4-11,0-1.4-.7-2.6-1.9-3.3-2.5-1.5-5.2-2.5-8-3.9,0,.1,0,.2-.2.3-.2.3-.3.5-.5.8-1.2,2.1-3.3,3.6-5.7,4.1-2.5.5-5.1.2-7.3-.8-2.9-1.5-5.9-2.9-7.4-6.2-.6-1.2-1.2-2.4-1.7-3.6ZM474.9,604.4c0,1.1,0,1.8,0,2.6.1,2.1.1,2.1,2.1,2,5.7-.4,11.3-.9,17-1.3,1,0,1.9,0,2.9,0,.7,0,1.3.5,1.4,1.3,0,.1,0,.2,0,.3,0,.9,0,1.9-1.4,2-3.9.3-7.9.6-11.8.9-6.7.5-13.4,1-20.1,1.4-2.9.2-5.8.2-8.7.4-2.5.1-4.9.3-7.4.5-1.5.1-2-.2-2.1-1.6-.1-1.4.2-1.9,1.7-2,3.5-.2,7.1-.4,10.6-.6,3.5-.2,7.1-.5,10.6-.8.3,0,.6-.6.9-1,0,0,0,0,0-.1-.3-4.3.6-3.1-4.8-3-3.9,0-7.8.5-11.7.8-1.9.1-3.9.1-5.8.3-1.7.1-1.4-1.2-1.5-2.1-.2-.7.2-1.4.9-1.6.1,0,.3,0,.4,0,5-.2,10.1-.5,15.1-.9,2.1-.1,4.2-.4,6.5-.6,0-1.3-.1-2.6-.2-3.8,0-.2-.4-.5-.7-.4-2.5,0-5,.2-7.5.3-1.6.1-3.3.3-4.9.4-2.8.2-5.7.4-8.5.5-.4,0-.7-.2-.9-.5-.6-1.1-.2-2.4.8-3,.2-.1.5-.2.7-.3,3-.3,6-.4,9.1-.7,4.2-.3,8.4-.7,12.6-1.1,2-.2,3.9-.2,5.9-.3,5.1-.2,10.1-.4,15.2-.7,1.8,0,3.6-.2,5.4-.2,1,0,1.8.9,1.7,1.9,0,0,0,0,0,.1-.1.9-.4,1.6-1.7,1.6-3.5.1-6.9.5-10.3.7-3.5.2-7,.3-10.4.4-1.1,0-1.8.5-1.9,1.4,0,1.1.2,2.2.5,3.2,0,.1.7.2,1,.2,4.9-.4,9.7-.7,14.6-1.1,2.2-.2,4.4-.2,6.6-.3,1.5,0,1.3,1,1.4,1.9,0,.8.2,1.7-1.2,1.8-5.9.3-11.8.8-17.7,1.2-1.4,0-2.8,0-4.4,0Z"/>
  <path class="st4" d="M468.9,510.3c-1.7,1.4-2.3,3.1-1.4,4.9.6,1,.8,2.3.5,3.4-.5,2,1.4,3.6,1.6,5.5.2,1.6,2.1,2.5,3.8,3.4,2.6,1.3,5.5,1.7,8.4,1.2,5.5-.8,6.4-4.3,5.5-7.1-.2-.5,0-1.1.5-1.4,2.4-1.9,3-4.1,1.1-6.3-1.1-1.3-1.6-2.5-1.2-4,.2-.9,0-1.8-.7-2.5,2-2.3,2.8-5,1.8-8-.6-1.7-.8-3.5-.5-5.2.5-3-1.4-5.6-1.6-8.5-.2-2.4-2.1-3.9-3.8-5.2-2.4-1.9-5.5-2.5-8.4-1.8-5.5,1.3-6.4,6.5-5.5,10.9.2.8,0,1.6-.5,2.2-2.4,3-3,6.3-1.1,9.7,1.2,1.8,1.6,4,1.2,6.2-.2.9,0,1.9.3,2.8Z"/>
  <path class="st0" d="M471.6,507.1h.3c.2,0,0,0-.3-.2,0-1.2.5-2.3,1.4-2.9-1.1-1.8-2.4-3.5-3-5.3-1-3-.7-5.6,3.6-6,.3,0,.6-.2.8-.4-.6-.9-1.1-1.6-1.6-2.4-1.2-1.9-1.3-4.3-.3-6.3.3-.6.8-1.1,1.4-1.5,2.5-1.6,7.8,0,9.2,3.4.9,2.3,1.5,4.8,1.9,7.2.2,1.1,0,2.3-.4,3.4-.4.6-.4,1.3,0,1.9.3.4.5.9.7,1.3,1,2.7,1,6.6-2.9,7-1,.1-.9.7-.5,1.5.6,1.2,1.1,2.4,1.8,3.9,0,0,.2,0,.4,0-.2.2-.5.4-.8.5,1.1,1.2,2.4,2.3,3,3.5,1,2,.7,3.6-3.6,3.9-.3,0-.5.1-.8.3.6.6,1.1,1,1.6,1.6,1.2,1.1,1.3,2.9.3,4.1-.4.4-.9.8-1.4.9-2.5,1-7.8,0-9.2-2.2-.9-1.5-1.5-3.1-1.9-4.7-.2-.8,0-1.6.4-2.2.3-.5.4-.8,0-1.2-.3-.3-.5-.6-.7-.9-.3-.4-.4-.9-.5-1.4h0c.4.2.8.2,1.2,0,.7-.8,1-1.9.8-2.9.3-.5,0-1.1-.4-1.5-.3-.7-.4-1.5-.5-2.3Z"/>
  <path class="st4" d="M465.4,670.3l.4,12.4h2.1s.1,3.2.1,3.2h-2.1s.1,3.4.1,3.4h-7.4c0,0-.1-3.3-.1-3.3h-8.8c0,0-.1-3.1-.1-3.1l6-12.4h9.8ZM458.5,682.8l-.3-8.1-3,8.1h3.3Z"/>
  <path class="st4" d="M486,670.1l.7,18.9h-7.4c0,0-.4-10.1-.4-10.1,0-.9,0-1.8-.3-2.6-.2-.4-.5-.6-.9-.7-1.1-.2-2.2-.3-3.3-.2h-.7s0-2.2,0-2.2c3.6-.5,6.3-1.6,8.1-3.1h4.4Z"/>
  <path class="st4" d="M513.2,674.9h-7.4c0-.8,0-1.4-.1-1.6,0-.3-.2-.5-.5-.6-.3-.2-.7-.2-1.1-.2-.3,0-.6,0-.9.2-.2.1-.4.3-.4.6,0,.5,0,.9,0,1.4v3c.5-.5,1.1-1,1.7-1.2.9-.3,1.8-.4,2.7-.4,1.2,0,2.5.2,3.6.7.9.3,1.6.9,2,1.7.3.8.5,1.7.5,2.6v1.5c.1,1,0,2,0,3-.2.7-.6,1.4-1.2,1.8-.8.6-1.8,1.1-2.8,1.3-1.4.3-2.8.5-4.2.5-1.7,0-3.3-.1-4.9-.5-1.1-.2-2.1-.8-3-1.5-.6-.5-1.1-1.3-1.3-2.1-.2-1.4-.3-2.8-.3-4.2v-2.6c-.2-1.5-.2-3-.1-4.5.1-.8.5-1.6,1.2-2.2.9-.8,1.9-1.3,3-1.6,1.5-.4,3-.6,4.5-.6,1.7,0,3.5.1,5.2.6,1.1.3,2.2.9,2.9,1.8.6.8,1,1.9,1,2.9ZM506,680.8c0-.5-.1-1-.4-1.4-.3-.3-.7-.4-1.2-.4-.4,0-.8.1-1.1.4-.3.4-.4.9-.3,1.4v3.4c0,.6.2,1.1.5,1.6.3.3.7.4,1.1.4.3,0,.7-.1,1-.3.3-.2.5-.7.5-1.6v-3.5Z"/>
  <path class="st4" d="M539.6,676l.2,6.3c0,1.1,0,2.1-.3,3.1-.3.7-.8,1.4-1.5,1.9-.8.6-1.8,1-2.8,1.3-1.2.3-2.4.4-3.6.4-1.5,0-3,0-4.4-.3-1-.2-2-.6-2.9-1.2-.6-.5-1.2-1-1.6-1.7-.4-.9-.6-1.9-.5-2.9l-.2-6.6c-.1-1.3,0-2.7.6-3.9.6-1,1.6-1.8,2.7-2.1,1.6-.6,3.3-.9,5.1-.8,1.5,0,3,.1,4.4.5,1.1.2,2.1.7,2.9,1.3.6.4,1.1,1.1,1.4,1.8.3,1,.5,2.1.5,3.1ZM532.1,674.4c0-.6,0-1.3-.3-1.9-.2-.3-.5-.4-1.1-.4-.4,0-.8.1-1.1.4-.2.6-.3,1.2-.2,1.9l.3,9.2c0,.7,0,1.4.3,2,.3.3.7.4,1.1.3.6,0,.9-.1,1.1-.4.2-.6.3-1.2.2-1.8l-.3-9.4Z"/>
</svg>