<svg xmlns="http://www.w3.org/2000/svg" viewBox="0 0 1139.49238 756.10938"><path d="M729.58568,459.61164c-3.0354,0-101.1908-23.275-209.465-18.2144-108.274,5.058-168.988,19.2245-168.988,19.2245s-55.6535-93.095-138.6299-168.98813C129.5265,215.743,0,146.93311,0,146.93311l51.6081-9.1085s210.548,70.1399,349.10729,129.5239C563.63289,337.171,729.58568,459.61164,729.58568,459.61164Z"/><path d="M449.28319,272.40911l-94.1076-43.5122s114.9216-61.7921,262.08559-78.9284c147.7358-17.2019,261.07042,1.0126,261.07042,1.0126l3.0353,22.2624s-133.56922-6.0732-247.91652,26.3078C519.10569,231.93221,449.28319,272.40911,449.28319,272.40911ZM616.24848,347.287l-103.06489-44.3812s112.59659-65.9357,259.03519-88.4173c147.01282-22.5697,260.93692-8.4939,260.93692-8.4939l5.058,11.771s-134.9144,9.1614-248.00722,45.6835C677.11618,299.97371,616.24848,347.287,616.24848,347.287Zm151.7863,105.23883-101.1909-64.7619s98.153-83.989,246.841-118.26673c123.2971-28.4263,213.5759-18.3405,213.5759-18.3405l5.0605,10.1186s-87.0067,5.1588-195.0188,54.7265C829.29288,365.572,768.03478,452.52584,768.03478,452.52584Z" style="fill:#cc1f1e;fill-rule:evenodd"/><path d="M370.84839,284.40171c-17.6603-10.2471-43.7741-23.3355-70.956-36.3257l-25.0256.4384c13.0733,7.0253,26.4992,14.5695,39.7665,22.5042,8.1084,4.8489,16.8895,10.3125,26.0811,16.1791,10.0757-.5416,22.0659-1.1411,32.129-1.6323C372.16839,285.17251,371.49829,284.77951,370.84839,284.40171Z" style="fill:#fff;fill-rule:evenodd"/><path d="M182.7935,194.72491l-16.0608,2.0076s28.6277,11.8088,67.25319,30.789c6.7331-.3451,13.6249-.6851,19.8139-.9899C214.77389,208.637,182.7935,194.72491,182.7935,194.72491Z" style="fill:#fff;fill-rule:evenodd"/><path d="M558.90489,407.54014s-72.1726-49.43673-131.9874-88.16293l-34.2928,2.1436c59.5175,40.4164,117.4254,82.67413,117.4254,82.67413Z" style="fill:#fff;fill-rule:evenodd"/><path d="M710.95368,308.34921H994.8449l.2242-2.987c20.1103,7.0259,50.8472,4.8859,71.2849-.7847l4.7941,3.7725h42.6465l7.1563-95.3597a33.37494,33.37494,0,0,0-4.7638-24.1258h1.0913l-41.2658-172.6212H729.88568v2.0159c-9.0116-2.387-100.6736-8.2794-118.4934,9.955-5.2826-4.2272-15.6076-8.5438-22.79679-9.3403-29.8046-3.3021-97.0208-2.6014-127.3382-2.6432v7.0112l-12.8562-4.3417c-17.9352-3.3112-108.8858-2.6431-128.0056-2.6695v34.3346l-8.2048-34.322H209.88089l-2.9045,12.4542a38.41326,38.41326,0,0,0-24.13709-10.1342l-65.3738-2.2594-61.9842-.071v172.6316h91.6586v-48.8926l34.2318-1.4858-11.7491,50.3784H477.09949l-8.9668,119.4847h83.0581l2.6634-35.4895,20.9756-.7672-12.5403,36.2567ZM869.4835,173.12991H848.5283V70.87311h20.9552Zm-112.61382,0H756.24q.3204-.43215.6297-.8723Z" style="fill-rule:evenodd"/><path d="M728.94168,292.92431H1012.8329l.2242-2.987c20.1103,7.0259,50.8472,4.8859,71.2849-.7847l4.7941,3.7725h42.6465l7.1563-95.3598a33.37513,33.37513,0,0,0-4.7638-24.1258h1.0913L1094.0006.81841H747.87368v2.0159c-9.0117-2.3871-100.6736-8.2795-118.4934,9.955-5.2826-4.2272-15.6076-8.5438-22.7968-9.3403C576.77889.14681,509.56269.84761,479.24529.80581V7.817L466.389,3.47531C448.45389.16411,357.50329.83221,338.38349.80581v34.3345L330.17869.81841H227.86889l-2.9046,12.4541a38.41323,38.41323,0,0,0-24.137-10.1341L135.4534.879,73.4692.80791v172.6316h91.6586V124.547l34.23189-1.4858-11.74909,50.3783H495.08749l-8.9668,119.4848h83.0581l2.6633-35.4896,20.9757-.7672-12.5403,36.2568ZM887.4715,157.705H866.5163V55.44821h20.9552Zm-112.61382,0h-.6297q.32025-.43215.6297-.8723Z" style="fill-rule:evenodd"/><path d="M1005.0329,274.76061c16.5335,16.4706,66.0044,8.8143,81.2471,4.2897l6.0202,4.7374h31.005l6.5616-87.4354c2.4363-19.5166-9.3686-26.5629-25.1769-28.6145l-35.8471-1.5109-36.9917,1.506c-7.1627.8535-13.7348,2.4021-19.2992,6.8338l.5797-7.7243H954.6319l-1.493,24.2977-10.7342-24.2977H782.623l-5.6673,23.1356-1.7324-23.1356h-64.5986l25.6664,116.9444h67.1582l19.9362-53.9435-4.0482,53.9435H936.6926l1.3678-24.7625,10.7648,24.7625h55.5303Z" style="fill:#fff;fill-rule:evenodd"/><path d="M606.23528,245.82841l-13.12879,37.9584h64.83579l4.9181-21.0252h3.7236l1.7625,21.0252h64.6723l-23.6883-116.9444h-75.7761l-6.2536,18.0808c-3.2628-11.0642-12.184-14.9213-22.9863-16.4782-12.935-1.8642-76.27-1.6026-99.56879-1.6026l-8.7761,116.9444h64.7318l2.6405-35.1847,36.72309-1.3432Z" style="fill:#fff;fill-rule:evenodd"/><path d="M969.9927,164.30211h65.5944l3.9668-28.995h7.0624l3.9668,28.995h73.1041L1086.79,9.95591H998.9424l-1.9657,8.4287V9.95591H757.01108v4.7513c-.9158-.3984-11.7571-3.3258-13.8602-3.6713-20.9018-3.4346-78.5752-2.1312-96.2578,2.4322a26.61367,26.61367,0,0,0-13.8606,9.3828,38.17375,38.17375,0,0,0-2.7039,5.3923c-5.099-10.2391-14.5083-13.3995-24.7538-15.6895-13.496-3.0165-90.38789-2.5978-117.19209-2.5978v16.2735c-5.0069-8.6317-14.506-11.6275-23.6697-13.6757-13.496-3.0165-90.3879-2.5978-117.1921-2.5978v102.708l-24.5528-102.708h-87.8476l-6.9756,29.91c-1.917-18.2913-11.7047-24.2575-27.7724-27.6014C187.5039,9.58641,109.2742,9.95591,82.6067,9.95591v154.3462h73.3837v-48.5045l44.66939-1.9389c.7755-.1228,10.8669-3.1028,10.961-3.1398l-12.4966,53.5832h72.641l3.9668-28.995h7.0624l3.9668,28.995H633.98828v-11.9987c12.2872,14.1798,49.3003,15.3167,68.0556,12.9509l-1.2105.0507,43.0544-2.1052c20.9391-3.0104,30.2262-13.7423,29.375-34.7216V46.31071h10.7323v117.9914H857.3788V46.31071h39.2301v117.9914h73.3838Zm20.4711-117.9914-20.4711,87.777v-87.777ZM627.65718,85.33351v5.0566a25.76447,25.76447,0,0,0-2.8371-2.7703l2.5112-1.8676Q627.496,85.54431,627.65718,85.33351Zm-139.27449-2.2791v9.3363a25.76722,25.76722,0,0,0-4.4244-4.7709C486.53,85.70721,487.03639,85.18391,488.38269,83.05441Z" style="fill:#fff;fill-rule:evenodd"/><path d="M91.7441,19.09331v136.0714H146.853v-48.1016h12.7344q26.5719.1086,39.39479-2.2203,12.82275-2.3289,16.656-8.3991t3.4367-17.1854V46.73071q.37815-11.19135-3.6276-17.2165-4.0059-6.02535-16.9355-8.2813-12.92953-2.256-39.32239-2.1396Zm55.1089,17.7448h3.9795q9.72495-.09435,11.839,1.7606t1.6913,6.7906v35.5456q.3606,4.6947-1.741,6.4972-2.1018,1.8024-10.9934,1.7186H146.853Z" style="fill:#cc1f1e;fill-rule:evenodd"/><path d="M242.37209,19.09331l-31.7342,136.0714h53.1548l3.9668-28.9951h23.0074l3.9667,28.9951H348.286l-32.5284-136.0714Zm36.0977,26.9687h1.5867l8.3303,62.0276h-18.6439Z" style="fill:#cc1f1e;fill-rule:evenodd"/><path d="M356.65839,19.09331v136.0714h55.1088V98.68291q1.16895-.0105,2.1887-.0838,1.01985-.0732,2.1888-.0837,7.0884-.021,10.1477,1.467a4.81323,4.81323,0,0,1,2.9847,4.7365v50.4458h54.712v-46.2541q.3345-8.36625-4.9061-13.428-5.2407-5.06175-20.071-7.5151,16.3914-3.1755,20.963-8.7727,4.5717-5.5971,4.0141-14.6885V46.73161q.3342-10.63845-3.98-16.6964-4.31415-6.0579-17.2878-8.5419-12.97365-2.48385-38.6176-2.4Zm55.1088,17.7448h3.5816q10.01085-.0786,12.1872,1.8236t1.7411,6.7284v26.159q.174,3.9615-2.4873,5.5334-2.6613,1.572-10.2472,1.509-.9327-.01035-2.2385-.0836-1.30575-.07335-2.5369-.0837Z" style="fill:#cc1f1e;fill-rule:evenodd"/><path d="M497.52009,19.09331v136.0714H552.629V98.68291q1.16895-.0105,2.1887-.0838,1.01985-.0732,2.1888-.0837,7.0884-.021,10.1477,1.467a4.813,4.813,0,0,1,2.9846,4.7365v50.4458h54.71209v-46.2541q.3345-8.36625-4.9061-13.428-5.2407-5.06175-20.071-7.5151,16.3914-3.1755,20.963-8.7727,4.5717-5.5971,4.0141-14.6885V46.73161q.3342-10.63845-3.98-16.6964-4.3143-6.0579-17.2879-8.5419-12.9735-2.48385-38.61749-2.4Zm55.1089,17.7448h3.5816q10.01085-.0786,12.1872,1.8236t1.741,6.7284v26.159q.17415,3.9615-2.4872,5.5334-2.6613,1.572-10.2472,1.509-.9327-.01035-2.2385-.0836-1.30575-.07335-2.5369-.0837Z" style="fill:#cc1f1e;fill-rule:evenodd"/><path d="M636.79458,45.38691v83.4834q-.3747,11.57895,4.1422,17.4998,4.51695,5.9208,18.4228,7.9334t41.6979,1.8668q27.5799.13185,41.2093-1.9784t17.9369-8.045q4.3074-5.9349,3.9217-17.2766V45.38691q.3711-11.57535-4.1274-17.4557-4.4985-5.88045-18.3194-7.8526-13.82085-1.9722-41.417-1.8233-28.15035-.13965-41.8426,1.8977-13.6923,2.0373-17.8641,7.927Q636.38323,33.96961,636.79458,45.38691Zm54.7121-3.1851a5.07662,5.07662,0,0,1,1.7907-4.3791q1.8654-1.4823,6.5662-1.4874,5.2728.0051,7.2626,1.4874a4.88889,4.88889,0,0,1,1.8903,4.3791V132.223a4.9174,4.9174,0,0,1-1.6416,4.2957q-1.75335,1.40925-6.7154,1.404-5.01165.02085-7.1133-1.3411a4.68364,4.68364,0,0,1-2.0395-4.3586Z" style="fill:#cc1f1e;fill-rule:evenodd"/><polygon points="766.148 19.093 766.148 37.173 793.132 37.173 793.132 155.165 848.241 155.165 848.241 37.173 875.225 37.173 875.225 19.093 766.148 19.093" style="fill:#cc1f1e;fill-rule:evenodd"/><polygon points="878.762 19.093 878.762 37.173 905.746 37.173 905.746 155.165 960.855 155.165 960.855 37.173 987.839 37.173 987.839 19.093 878.762 19.093" style="fill:#cc1f1e;fill-rule:evenodd"/><path d="M1006.194,19.09331l-31.7342,136.0714h53.1548l3.9668-28.9951h23.0074l3.9667,28.9951h53.5524l-32.5284-136.0714Zm36.0977,26.9687h1.5868l8.3302,62.0276h-18.6439Z" style="fill:#cc1f1e;fill-rule:evenodd"/><path d="M513.22309,175.97991l-7.4047,98.6695H552.224l2.6176-34.8799h10.7232q22.36965.07875,33.29409-1.61,10.92435-1.6887,14.4826-6.0904t3.8291-12.4618l1.7701-23.5867q.92745-8.11515-2.1178-12.4842-3.04545-4.3692-13.8102-6.005-10.7649-1.6359-32.99589-1.5515Zm45.4399,12.8673h3.3511q8.1942-.0684,9.8735,1.2766,1.67925,1.34505,1.0546,4.9241l-1.9343,25.7752q.0483,3.4044-1.8196,4.7113-1.868,1.307-9.3508,1.2462h-4.0212Z" style="fill-rule:evenodd"/><path d="M640.06258,175.97991l-34.1272,98.6695h44.7602l4.9181-21.0252h19.3738l1.7625,21.0252h45.0949l-19.9866-98.6695Zm28.9292,19.5558h1.3362l3.6392,44.9781h-15.6994Z" style="fill-rule:evenodd"/><polygon points="721.985 175.98 743.641 274.649 797.085 274.649 833.55 175.98 789.792 175.98 773.419 242.818 771.749 242.818 766.744 175.98 721.985 175.98" style="fill-rule:evenodd"/><polygon points="836.591 175.98 829.186 274.649 875.592 274.649 882.996 175.98 836.591 175.98" style="fill-rule:evenodd"/><polygon points="895.059 175.98 887.654 274.649 928.046 274.649 930.838 224.099 932.841 224.099 954.817 274.649 995.878 274.649 1003.283 175.98 963.225 175.98 960.201 225.193 958.193 225.193 936.452 175.98 895.059 175.98" style="fill-rule:evenodd"/><path d="M1012.9026,195.17l-4.7434,63.2069q-1.049,8.5554,7.6792,12.7824,8.72805,4.22715,32.1088,4.2193a153.411,153.411,0,0,0,23.1416-1.3505,61.74437,61.74437,0,0,0,17.1251-5.0834l7.2504,5.7055h19.3635l3.8386-51.151h-53.4418l-.9748,12.9889h7.0363l-1.6153,21.524a3.54534,3.54534,0,0,1-1.5288,3.0706q-1.51365,1.05645-6.1528,1.064-4.68075.00375-6.3316-1.0184a2.95326,2.95326,0,0,1-1.3996-3.1162l4.8985-65.2738a3.62283,3.62283,0,0,1,1.5752-3.131q1.57-1.10955,6.4506-1.1247,4.87905.00375,6.2852,1.0791a3.1305,3.1305,0,0,1,1.1018,3.1766l-1.2774,17.0218h46.4056l1.0949-14.5901q.93165-8.1678-2.4527-12.4751-3.38445-4.30725-14.8251-5.8611-11.4408-1.55385-34.6783-1.4616-24.03285-.09225-35.9025,1.4616t-15.8172,5.8611Q1013.16905,187.00216,1012.9026,195.17Z" style="fill-rule:evenodd"/><path d="M737.17388,377.30351l-1.2112,8.2921h40.631l4.0608-27.8298a3.912,3.912,0,0,1,1.9478-3.103l-4.3184,30.9328h21.1035l1.5673-10.7301a23.40364,23.40364,0,0,0,2.4763,4.2159c8.4722,10.59453,21.3193,7.293,31.98,4.2188l.0087-4.8375c8.22512,12.20593,25.16012,7.2912,36.11922,4.2556l-.7998-13.384h3.3449l1.8786-8.7831c1.6183-12.9423-3.7163-25.5154-18.1451-25.2021a23.9437,23.9437,0,0,0-16.157,6.27l1.0307-2.8735-9.14222-2.7775-5.346-.5463c-9.7868-.5728-19.5097,4.9962-24.5743,13.1624-1.5326-10.6086-12.2166-15.3652-22.0419-12.1149l.0154-.2861h-17.881c2.3152-3.8443,2.4016-9.3157-.7438-12.7911a11.4167,11.4167,0,0,0-15.573-.277l.116-.105a11.7869,11.7869,0,0,0-1.649,1.7841l-8.7351-3.2537-7.6949-.8522c-12.3245-.8505-24.2318,7.7421-26.1173,20.0262-1.5257,9.9405,5.3192,17.7266,14.0587,21.2026a12.62347,12.62347,0,0,1,3.9695,2.5406c.2837.3808-.3003,1.3466-.6577,1.5972-1.357.9513-5.9572,1.0659-8.2001.3158l-9.6321-4.1835-6.8617,18.0597a36.76014,36.76014,0,0,0,10.6761,4.9996l-.1387-.0323C717.058,387.81484,729.71938,385.95051,737.17388,377.30351Zm7.2676-41.1203h-1.2613l-2.5917,17.7431a22.25581,22.25581,0,0,0-11.485-9.8331,19.94175,19.94175,0,0,1-4.6892-2.8012c.854-3.996,11.9374,1.1129,15.5468,2.6292l3.8409-9.5491A10.23,10.23,0,0,0,744.44148,336.18321Zm88.5101,19.6142a33.72968,33.72968,0,0,0-1.0305,4.6594,23.49135,23.49135,0,0,0-.5111,5.075l-5.3231,1.6624c-1.3272.2682-3.9805.702-5.006-.6768-2.0368-2.7386-.4403-8.0539,1.9008-10.6078C825.74018,352.90041,829.88078,354.66071,832.95158,355.79741Z" style="fill:#fff;fill-rule:evenodd"/><polygon points="901.99 346.045 896.213 385.596 917.039 385.596 926.276 322.354 910.263 322.354 891.823 331.113 894.704 349.586 901.99 346.045" style="fill:#fff;fill-rule:evenodd"/><path d="M964.957,369.66821c2.2648,11.999,11.2323,16.93793,20.3024,16.6918,13.5819-.3685,22.6932-10.3106,24.9663-23.1061,1.6686-9.3928-2.2255-19.6508-11.9449-22.398l10.4303-.9803,2.6549-18.1758c-16.1713-1.1775-30.0959,3.069-39.2572,16.7726-1.6517-10.1949-9.057-17.2742-19.5699-17.0214-13.4553.3236-23.1342,10.2811-25.3797,23.0872-1.7254,9.8405,3.2489,20.0717,13.5443,22.0304a50.60941,50.60941,0,0,1-12.5896.9011l-2.6895,18.4124c10.3178.70793,17.5873.77413,26.5114-4.0039A35.155,35.155,0,0,0,964.957,369.66821Zm21.0517-1.4506c-1.3136-.1893-.8049-5.8959-.7926-5.9765.2793-1.8234,1.5763-4.0201,3.697-4.0997a.12894.12894,0,0,1,.0979.0392c1.1823,2.7064-.0509,6.6333-1.6358,9.1747A1.85415,1.85415,0,0,1,986.0087,368.21761Zm-34.8567-28.7093a13.76574,13.76574,0,0,1,.3028,6.1991l-.3495,1.7741-.1442.3231a3.38688,3.38688,0,0,1-2.6145,1.3743C947.8339,347.93681,948.1927,340.32331,951.152,339.50831Z" style="fill:#fff;fill-rule:evenodd"/><polygon points="1021.24 346.045 1015.463 385.596 1036.289 385.596 1045.526 322.354 1029.513 322.354 1011.073 331.113 1013.954 349.586 1021.24 346.045" style="fill:#fff;fill-rule:evenodd"/><path d="M740.401,328.47291a19.062,19.062,0,0,0-4.5197-1.6835,27.83839,27.83839,0,0,0-6.5872-.7463q-8.74485.14715-14.1854,4.4614a16.99481,16.99481,0,0,0-6.4903,11.0284,11.766,11.766,0,0,0,2.1896,9.0188,21.76811,21.76811,0,0,0,8.6145,6.4122,17.42488,17.42488,0,0,1,5.8932,3.8751,5.643,5.643,0,0,1,1.3224,4.8135,7.04543,7.04543,0,0,1-2.9124,4.8222,11.43168,11.43168,0,0,1-6.7556,1.8507,23.26134,23.26134,0,0,1-6.2125-.8689,17.81629,17.81629,0,0,1-4.8811-2.12l-3.2722,8.6121a17.50293,17.50293,0,0,0,5.2194,2.0653,31.47291,31.47291,0,0,0,7.4717.9199q9.4017-.13425,15.0614-4.5657a17.53829,17.53829,0,0,0,6.7489-11.5497,12.843,12.843,0,0,0-1.6499-9.0883q-2.4429-3.85335-8.408-6.6902a25.29714,25.29714,0,0,1-6.4629-3.962,4.90406,4.90406,0,0,1-1.4685-4.5876,6.28962,6.28962,0,0,1,2.4904-4.075,10.09937,10.09937,0,0,1,6.2314-1.8333,19.65462,19.65462,0,0,1,5.5842.782,17.3498,17.3498,0,0,1,3.5987,1.5119Z" style="fill-rule:evenodd"/><path d="M759.97858,330.97271a4.46924,4.46924,0,0,0-4.7538-5.4856,6.29838,6.29838,0,0,0-4.1663,1.545,6.42627,6.42627,0,0,0-2.1206,3.9406,4.88,4.88,0,0,0,.9472,3.9146,4.70439,4.70439,0,0,0,3.7371,1.571,6.44723,6.44723,0,0,0,4.1935-1.4929A6.35284,6.35284,0,0,0,759.97858,330.97271Zm-1.891,10.5673h-10.2762l-5.6526,38.6989H752.435Z" style="fill-rule:evenodd"/><path d="M798.223,356.50451q1.0575-8.0706-1.888-11.9145a9.86745,9.86745,0,0,0-8.3856-3.8144,14.87271,14.87271,0,0,0-7.3435,1.9525,15.65564,15.65564,0,0,0-4.7333,4.0871h-.2083l.2845-5.2752h-8.8879q-.2625,2.54055-.5968,5.3942-.33435,2.85375-.8231,6.2294l-3.9547,27.0753h10.2762l3.3652-23.0383q.7881-4.35435,3.1677-6.2141a7.29219,7.29219,0,0,1,4.6109-1.811q3.2319.08685,4.2381,2.467a11.03,11.03,0,0,1,.4345,6.0112l-3.2989,22.5852h10.2762Z" style="fill-rule:evenodd"/><path d="M830.07538,371.56051a14.90239,14.90239,0,0,1-2.9217.9124,17.52506,17.52506,0,0,1-3.5155.3389,8.27217,8.27217,0,0,1-6.8993-3.137q-2.3856-3.1-1.6391-8.8201a15.59516,15.59516,0,0,1,3.9357-8.5681,10.90155,10.90155,0,0,1,8.0365-3.4585,14.76865,14.76865,0,0,1,3.5391.391,10.61545,10.61545,0,0,1,2.324.8602l2.8136-7.8444a16.53814,16.53814,0,0,0-3.2605-.9905,22.95826,22.95826,0,0,0-4.5875-.4688,23.80063,23.80063,0,0,0-11.3399,2.7339,22.19665,22.19665,0,0,0-7.9897,7.2886,25.42245,25.42245,0,0,0-3.9475,10.4737q-1.25265,9.30315,2.9858,14.4449t12.8272,5.2171a30.98674,30.98674,0,0,0,5.6529-.5206,18.59529,18.59529,0,0,0,3.972-1.1454Z" style="fill-rule:evenodd"/><path d="M865.5099,371.62891a33.061,33.061,0,0,1-4.4456,1.139,29.38153,29.38153,0,0,1-5.2356.4609,10.42842,10.42842,0,0,1-6.9529-2.1476q-2.6616-2.18895-2.2654-7.1037h23.1414a17.134,17.134,0,0,0,.4932-1.8913q.2163-1.04985.3827-2.2038,1.2858-9.41025-2.1418-14.2806-3.4275-4.87035-10.5492-4.8957a18.55922,18.55922,0,0,0-10.0516,2.8965,22.09539,22.09539,0,0,0-7.10782,7.4972,28.38288,28.38288,0,0,0-3.5816,10.3096q-1.2795,9.1134,2.8119,14.2726,4.09143,5.1591,13.09632,5.2518a40.62728,40.62728,0,0,0,6.9402-.59,28.93418,28.93418,0,0,0,5.8891-1.6313Zm-17.8552-14.8005a15.4277,15.4277,0,0,1,1.5076-4.0267,10.9646,10.9646,0,0,1,2.8634-3.4703,6.86547,6.86547,0,0,1,4.241-1.4762,5.02852,5.02852,0,0,1,3.7753,1.4298,6.31046,6.31046,0,0,1,1.5679,3.4239,12.94352,12.94352,0,0,1-.048,4.1195Z" style="fill-rule:evenodd"/><polygon points="912.408 380.239 920.08 327.711 911.471 327.711 897.732 334.237 898.88 341.601 908.604 336.875 908.743 336.875 902.41 380.239 912.408 380.239" style="fill-rule:evenodd"/><path d="M955.2865,357.45021a24.53421,24.53421,0,0,1-6.4279,10.2684,18.81848,18.81848,0,0,1-11.0225,4.9542q-1.7856.16275-2.881.2343a14.57717,14.57717,0,0,1-2.2181-.026l-1.1762,8.0527q10.4889.3747,17.8703-3.7907a31.08274,31.08274,0,0,0,11.7087-11.5303,45.05026,45.05026,0,0,0,5.6538-16.5887,29.79363,29.79363,0,0,0-.2938-11.3717,14.44551,14.44551,0,0,0-4.662-7.8909q-3.44025-2.89335-9.1679-2.954a18.94855,18.94855,0,0,0-9.6835,2.6517,21.55806,21.55806,0,0,0-7.0442,6.798,22.9746,22.9746,0,0,0-3.5057,9.2092q-.94335,7.4529,2.5024,11.6918,3.446,4.2387,9.6772,4.3176a15.54328,15.54328,0,0,0,5.9075-1.1105,14.345,14.345,0,0,0,4.5646-2.9845Zm-4.0288-23.3546a5.098,5.098,0,0,1,4.9658,3.671,22.99091,22.99091,0,0,1,.0204,11.3447,4.833,4.833,0,0,1-.646,1.4475,9.82458,9.82458,0,0,1-2.9479,2.7469,8.21263,8.21263,0,0,1-4.2387,1.2295,5.20456,5.20456,0,0,1-4.7224-2.6596q-1.54725-2.61825-.9131-7.3161a15.70436,15.70436,0,0,1,3.005-7.4817A7.08592,7.08592,0,0,1,951.2577,334.09561Z" style="fill-rule:evenodd"/><path d="M981.6887,350.29051a23.44392,23.44392,0,0,1,6.0682-9.6504,20.80472,20.80472,0,0,1,11.7092-5.4324q1.32075-.1587,2.4497-.2521t2.1143-.0956l1.1559-7.9135q-9.3417.10665-15.7857,3.2605a30.70566,30.70566,0,0,0-10.4682,8.0743,37.7223,37.7223,0,0,0-6.1065,10.3276,44.6316,44.6316,0,0,0-2.7007,10.0202,28.52614,28.52614,0,0,0,.414,11.5169,14.582,14.582,0,0,0,5.0008,7.9147,15.2544,15.2544,0,0,0,9.5897,2.9426,18.38734,18.38734,0,0,0,9.5418-2.6362,20.93857,20.93857,0,0,0,6.8576-6.7894,23.79963,23.79963,0,0,0,3.4211-9.264q1.0218-7.9302-2.3481-12.2729t-9.5953-4.4007a15.5742,15.5742,0,0,0-6.2369,1.2841,15.33561,15.33561,0,0,0-4.8723,3.3663Zm4.456,23.2857a5.62057,5.62057,0,0,1-5.3291-3.5629,16.3386,16.3386,0,0,1-.88-8.6729,10.42931,10.42931,0,0,1,1.9745-4.8433,9.73279,9.73279,0,0,1,3.3454-2.8041,7.811,7.811,0,0,1,3.4387-.9038,5.48549,5.48549,0,0,1,5.0889,2.946,11.47318,11.47318,0,0,1,.8889,7.0652,16.97025,16.97025,0,0,1-2.8925,7.6039A7.03453,7.03453,0,0,1,986.1447,373.57621Z" style="fill-rule:evenodd"/><polygon points="1031.658 380.239 1039.33 327.711 1030.721 327.711 1016.982 334.237 1018.13 341.601 1027.854 336.875 1027.993 336.875 1021.659 380.239 1031.658 380.239" style="fill-rule:evenodd"/><path d="M365.71189,393.75244l176.2799-6.3162c-4.7782-2.39163-9.5259-4.84643-14.3697-7.09563-2.5437-1.1815-2.2491-1.0956-1.4647-3.3994,1.8576-5.4541,3.6931-10.9042,5.1474-16.4898a152.85929,152.85929,0,0,0,4.6146-29.4691c.2764-4.6236.4693-9.2744.2891-13.8971a53.74859,53.74859,0,0,0-1.5078-11.6088,20.96787,20.96787,0,0,1-.7462-8.202c.3397-2.7057.448-5.4407.6885-8.1601.1413-1.5957.3737-3.1839.5108-4.7802.4881-5.6653.9976-11.3301,1.4034-17.0019a7.48671,7.48671,0,0,0-2.1252-5.5218c-1.9458-2.2351-4.6713-2.2938-7.2189-2.3936-3.7514-.1472-7.519.1659-11.2805.234-7.1654.13-14.3308.2275-21.4969.3293a9.33613,9.33613,0,0,1-1.1428-.1277,6.00288,6.00288,0,0,1-.1089-.857c.0982-3.552.1653-7.1054.3234-10.6546.1942-4.3578.5306-8.7098.6865-13.0683q.23925-6.6816.1964-13.3711a2.81933,2.81933,0,0,0-1.2287-2.0089c-3.8538-2.2792-7.8088-4.3867-11.6672-6.6582a2.59185,2.59185,0,0,1-1.0822-1.8676c-.0441-2.2491.1779-4.5017.2301-6.7547a15.5795,15.5795,0,0,0-3.5038-10.911c-1.0128-1.185-2.3677-2.3807-3.9679-2.0193a24.93516,24.93516,0,0,0-6.0763,2.3084c-2.9758,1.575-5.8025,3.4312-8.8113,5.2395a4.40522,4.40522,0,0,1-.4068-.9821c-.1368-1.8177-.3598-3.6389-.3374-5.456.0522-4.2081-.4191-8.236-3.0406-11.7534a4.5543,4.5543,0,0,1-.811-2.0698c-.2998-2.3668-.5374-4.7455-.691-7.1265-.2703-4.1819-.3702-8.377-.7452-12.5482-.1031-1.1483-.6489-2.8665-1.4747-3.2321a5.15722,5.15722,0,0,0-7.264,4.9393c.3076,6.29.3047,12.5971.3404,18.8971a13.17968,13.17968,0,0,1-.694,3.4162,15.12053,15.12053,0,0,0-.8557,2.3097c-.1423,1.5789-.0561,3.1781-.0557,4.7686,0,2.7074.0081,5.4144.0097,8.1218.0019,3.2808.0003,6.5616.0003,10.0933-4.213.5682-8.2843,1.1172-12.5977,1.699,0-1.8235.0075-3.2402-.0016-4.657-.0175-2.767.0356-5.5376-.083-8.3005-.2531-5.8896-.6547-11.7728-.8897-17.6631-.2982-7.4782-.4726-14.9612-.7355-22.441q-.29505-8.396-.691-16.7877c-.0862-1.8096-.4068-3.6078-.492-5.4174a28.06966,28.06966,0,0,1,.048-5.7023,12.57518,12.57518,0,0,1,1.7457-3.7287c.9001-1.6391.5397-2.9995-1.1542-3.3469q-6.11385-1.25445-12.2726-2.2806c-4.4402-.7454-8.9063-1.3351-13.3478-2.0721-5.3645-.8901-10.7126-1.8777-16.0723-2.7962-5.0437-.8648-10.0867-1.7367-15.1427-2.5246-2.8497-.4441-5.7792-1.1046-8.5012.4379-2.5589,1.4498-5.0437,3.0335-7.529,4.6084q-8.8224,5.58915-17.6139,11.2266-12.81435,8.187-25.6129,16.3978a4.73364,4.73364,0,0,0-2.2611,4.2152,9.27287,9.27287,0,0,0,3.6879,7.5083,3.21529,3.21529,0,0,1,1.1237,1.5678c.3818,1.5513.5352,3.1567.8489,4.7267.9733,4.87,2.0063,9.728,2.9609,14.6012.5182,2.6458.868,5.3253,1.4008,7.9679.3974,1.9691,1.0684,3.8843,1.4375,5.8572.6752,3.6062,1.15,7.2504,1.8352,10.8546.5478,2.8812,1.3484,5.714,1.9227,8.5912.9672,4.8483,1.7882,9.7257,2.7846,14.5678.4382,2.1298.0791,3.2227-1.9341,4.0113-3.4756,1.361-6.919,2.8533-10.4873,3.9177a13.0427,13.0427,0,0,0-8.4347,6.877c-.3559.7053-1.1079,1.6125-1.7619,1.687a7.9075,7.9075,0,0,0-4.1955,2.1581c-4.8434,3.9743-9.2366,8.3941-12.307,13.8747a75.64387,75.64387,0,0,0-5.6005,12.0701,71.86519,71.86519,0,0,0-2.7382,12.1834c-.6385,3.9929-.9419,8.0493-1.1921,12.0902a52.09016,52.09016,0,0,0,.1231,7.7906c.234,2.6475.7488,5.2745,1.2275,7.8947.5867,3.2092,1.1684,6.4254,1.9331,9.5947a66.95662,66.95662,0,0,0,2.1541,6.8462c.6794,1.8945,1.0401,3.9504,2.476,5.512.0304.0337.0087.1102.0324.1556,1.3017,2.4896,2.0721,5.3159,3.9734,7.4179a54.58293,54.58293,0,0,0,7.1379,6.8552c4.1403,3.1657,8.562,5.9626,12.856,8.928,2.9223,2.0177,5.8073,4.0901,8.7497,6.078,3.4996,2.3635,7.087,4.5986,10.5525,7.0104,2.5713,1.7892,4.9407,3.8691,7.5207,5.6443,3.9637,2.7269,8.0645,5.2538,12.0447,7.9576,3.8753,2.6319,7.6643,5.38993,11.5071,8.07043,1.5123,1.0546,3.1155,1.9836,4.5919,3.0853Q365.499,393.58809,365.71189,393.75244Zm40.4257-264.00493c1.9674.3604,4.0344.739,6.568,1.2035a70.95331,70.95331,0,0,1-8.786,7.4493C404.68909,135.39961,405.38429,132.68631,406.13759,129.74751Zm-37.8888,4.8862v-10.0469c7.602.9989,15.0919,1.983,22.7493,2.9897-.8048,2.2034-2.5508,2.4834-4.1216,2.5551-2.4526.1121-4.9208-.1692-7.3841-.2318a11.96188,11.96188,0,0,0-6.8689,2.2102c-1.2926.8379-2.5139,1.7856-3.7673,2.6838Q368.55244,134.71356,368.24879,134.63371Zm51.4236,57.5449q-2.2992-2.7168-4.5974-5.4343c-.1737-.2061-.2768-.5105-.4907-.6375-1.8774-1.1147-2.4167-2.6572-2.1412-4.8424.0891-.7092.2337-1.4796.3449-2.2028.4265-2.7754-.6262-5.3107-1.5208-7.7456-.5154-1.4018-.8751-2.8756-1.4637-4.268-2.5383-6.0063-4.9627-12.061-7.4338-18.0962-1.3808-3.3721-1.3973-3.4833,1.4089-6.0128,3.9975-3.6023,8.0425-7.1521,12.0759-10.7145a15.71084,15.71084,0,0,1,1.3348-.9322,7.899,7.899,0,0,1,.3477,1.3759c.2367,5.1026.4292,10.2073.6791,15.309.1287,2.6248.3818,5.2433.5173,7.8678.0894,1.7337.0204,3.4756.1095,5.2096.2729,5.3066.6295,10.6089.8732,15.9168.2039,4.4482.2969,8.9014.4334,13.3522.0175.5669.0026,1.1342.0026,1.7014Q419.91239,192.10226,419.67239,192.17861Zm-61.4503-60.9473c0,6.7587-.0143,13.1112.0077,19.464.0081,2.3087.1226,4.6168.155,6.9255.0716,5.106.1001,10.2129.1889,15.3185.0584,3.3417.2188,6.6821.2781,10.0241a40.8433,40.8433,0,0,1-.1523,4.9864,2.41346,2.41346,0,0,1-1.0771,1.4757q-6.65925,4.26525-13.3872,8.4246-5.3646,3.3357-10.7707,6.6047a11.22667,11.22667,0,0,1-1.5516.6748c-.9014-4.2136-1.8646-8.2438-2.6124-12.3138-1.2839-6.9913-2.3946-14.0141-3.6529-21.0106-.7743-4.3076-1.6906-8.59-2.5353-12.8856a15.83046,15.83046,0,0,1-.5581-3.3988,2.99073,2.99073,0,0,1,1.0394-2.098c3.7369-2.6436,7.557-5.1694,11.3583-7.7216,4.0629-2.7278,8.1057-5.4871,12.2124-8.1472,3.1229-2.0232,6.3288-3.9193,9.5094-5.8523A8.92337,8.92337,0,0,1,358.22209,131.23131Z" style="fill-rule:evenodd"/><path d="M388.71559,294.39591q.28155-.32085.5621-.6414-3.3873-3.3849-6.7746-6.7697c-1.0359,2.9868-.6119,4.0775,1.4943,5.175C385.53989,292.96331,387.14069,293.65461,388.71559,294.39591Z" style="fill:#8b8c8d;fill-rule:evenodd"/><path d="M467.25409,206.53111q.16575.0681.3319.1358a27.06012,27.06012,0,0,0,.54,4.9436c.5114,1.7557.3192,3.7676,1.8617,5.2235,1.2845,1.2126,2.2786,1.0836,3.0491-.5461,1.0556-2.2335.4849-4.6094.6725-6.9123a42.66221,42.66221,0,0,0-.0719-5.783,28.11744,28.11744,0,0,0-.5857-4.9315,2.02969,2.02969,0,0,0-1.784-.8852,4.10618,4.10618,0,0,0-2.0935,1.9503C468.36389,201.93211,467.87219,204.25481,467.25409,206.53111Z" style="fill:#b0b0b0;fill-rule:evenodd"/><path d="M405.14769,214.84041c.7449,1.9577,1.4917,4.1669,2.4394,6.2863.3646.8152,2.6196.8016,2.9038.0276a15.40722,15.40722,0,0,0,.8301-3.6795,26.25484,26.25484,0,0,0-.1096-3.282c-.0849-3.6341-.1017-7.2714-.2819-10.9006a2.33358,2.33358,0,0,0-1.1834-1.6796,2.29146,2.29146,0,0,0-1.8404.5409,7.92256,7.92256,0,0,0-2.6925,5.3866A62.13158,62.13158,0,0,0,405.14769,214.84041Z" style="fill:#b0b0b0;fill-rule:evenodd"/><path d="M371.71309,339.44851c.8968,2.7113,1.734,5.2715,2.604,7.8204a1.015,1.015,0,0,0,.5588.5196c1.1863.4476,4.3325-.4019,5.1736-1.3636a9.9759,9.9759,0,0,0-.6936-13.7263c-1.4634-1.3782-4.2522-1.245-5.1503.4845A63.31584,63.31584,0,0,0,371.71309,339.44851Z" style="fill:#7f7f7f;fill-rule:evenodd"/><path d="M302.14149,294.18591a11.55465,11.55465,0,0,0,2.3088,8.0629,4.55168,4.55168,0,0,0,7.2973-.1242c1.9577-2.7339,2.1437-5.8267,1.4326-8.9762a14.411,14.411,0,0,0-1.4647-3.3862c-1.2135-2.3097-5.0768-3.2681-6.698-1.4394C303.49379,290.04131,301.62419,291.81331,302.14149,294.18591Z" style="fill:#7f7f7f;fill-rule:evenodd"/><path d="M445.84119,204.87061c-.0088,2.2602.4096,2.6818,1.9259,1.7292,1.8138-1.1389,3.4762-2.5194,5.2025-3.7977a2.86247,2.86247,0,0,0,1.1594-2.6403c-.1186-3.6529-.1429-7.3093-.1753-10.9645-.0218-2.4416-.5618-4.645-2.5221-6.3204a2.07776,2.07776,0,0,1-.6764-1.1892c-.2369-1.7859-.458-3.5813-.528-5.3795-.0535-1.3714.2619-2.7619.1666-4.1264-.0826-1.1857-.6414-2.334-.7614-3.5219-.2885-2.8514-.4152-5.7189-.6868-8.5721-.0314-.3281-.5247-.7627-.8816-.8574-.2483-.0661-.7708.2953-.915.5906a3.14018,3.14018,0,0,0-.2032,1.4005c.1306,6.2245.2888,12.4487.4168,18.6735.0337,1.6565.0476,3.2778-1.1727,4.6962a3.91711,3.91711,0,0,0-.8268,2.427C445.46189,192.97011,445.66839,198.92011,445.84119,204.87061Z" style="fill:#909090;fill-rule:evenodd"/><path d="M301.69229,250.401a9.50588,9.50588,0,0,0-1.5843.8582,48.81568,48.81568,0,0,0-10.114,11.2293c-2.383,3.7174-3.6328,7.8244-4.9387,11.8921a45.1278,45.1278,0,0,0-1.7836,10.0679c-.4058,4.9718-.5044,9.9746-.5543,14.9665a43.58137,43.58137,0,0,0,.5779,7.5138c.7248,4.3773,1.7607,8.7024,2.5357,13.0722.962,5.4255,3.6263,10.0783,6.414,14.689.1728.2855.5222.4642,1.164,1.0135-.3041-.8216-.4405-1.2031-.5864-1.581a49.07034,49.07034,0,0,1-2.0092-5.3286c-.565-2.206-.7173-4.5154-1.2129-6.7434-.2437-1.0962-1.0968-2.0738-1.2621-3.1674-.553-3.6528-.9692-7.3294-1.3377-11.0069-.1993-1.9862-.2363-3.9922-.259-5.9901-.0074-.6554.5796-1.4699.3475-1.9425-.8887-1.8063-.2943-3.554-.1552-5.3471a91.16516,91.16516,0,0,1,2.5524-16.9627c1.044-3.8454,1.821-7.8101,4.1329-11.1722,1.5273-2.2212,3.2218-4.3264,4.8068-6.5084,1.0524-1.4485,2.7959-2.4627,2.9868-4.4567C301.56849,253.86781,301.59729,252.22711,301.69229,250.401Z" style="fill:#8b8c8d;fill-rule:evenodd"/><path d="M358.50049,375.94161q.1803-.1347.3604-.27c-.4696-1.2641-.9173-2.537-1.4128-3.791-1.4816-3.7472-3.123-7.438-4.4272-11.2448a50.89518,50.89518,0,0,1-2.148-8.6175c-.6402-4.1086-1.0453-8.2642-1.3231-12.4149a56.75689,56.75689,0,0,1,.1818-7.591c.2078-3.0659.412-6.147.8998-9.1759.9873-6.1266,3.5667-11.6824,6.4802-17.1053,1.8491-3.4416,3.7553-6.8471,7.1538-8.9974a2.744,2.744,0,0,0,1.3259-2.9375c-.1238-1.6258-.1977-3.2552-.2946-4.9108-1.7094-.2415-2.5784,1.0261-3.6331,1.8799-3.7407,3.0276-5.7337,7.345-7.8616,11.4312-2.7418,5.2651-5.4664,10.6196-6.6481,16.5342a64.5,64.5,0,0,0-1.5649,9.6443,103.40721,103.40721,0,0,0,.3287,13.2589,86.63308,86.63308,0,0,0,1.9318,13.6165,50.37726,50.37726,0,0,0,9.4683,19.6752A8.30369,8.30369,0,0,0,358.50049,375.94161Z" style="fill:#8b8c8d;fill-rule:evenodd"/><path d="M399.378,192.39641q-.16335-.2922-.3274-.5837c-1.0229.3555-2.063.6715-3.0574,1.0945-.2522.107-.3588.5559-.5322.8476.3429.1203.7831.4382,1.0116.3258C397.47439,193.58721,398.415,192.96951,399.378,192.39641Zm-20.9183,1.7564c-.0337.1154-.0668.2311-.1005.3465,1.2291.6742,2.4585,1.3484,3.5748,1.9603.3458-.6262.622-1.126,1.0164-1.841C381.32369,194.45011,379.89169,194.30161,378.45969,194.15281Zm9.926.8314q-.1692.2514-.3378.5027c.8395,1.1448,1.679,2.29,2.7745,3.7839.3491-1.6962.5987-2.9087.9137-4.4386C390.39009,194.89351,389.38789,194.93881,388.38569,194.98421Zm32.7955,16.0996c-.1935-3.9981-.2516-7.9696-.6444-11.9074a8.28366,8.28366,0,0,0-1.6984-4.3656c-1.9697-2.2954-4.3546-4.2311-6.5301-6.3541a2.13991,2.13991,0,0,0-3.1314-.1819c-2.9903,2.2991-5.9619,4.6234-8.9383,6.9405-1.7357,1.3519-3.2805,3.2497-5.9471,1.8002-.3918,1.9973-.8096,3.767-1.0411,5.5604a1.69274,1.69274,0,0,0,.7591,1.4235c1.8994.6129,3.1855.025,4.1193-1.7662a20.42725,20.42725,0,0,1,8.4389-8.1624,5.859,5.859,0,0,1,3.2432-.9999c3.9673.4859,6.2776,3.2072,7.2708,6.7729,1.0459,3.7534,1.5149,7.6675,2.2403,11.5346C419.55409,211.34151,420.17609,211.24291,421.18119,211.08381Zm-52.4196,1.1056a10.96434,10.96434,0,0,0,1.2683-.0966c2.2744-.5027,3.8117-2.1629,5.5506-3.5187.3689-.2878,1.1766-.6052,1.3357-.4502a1.97418,1.97418,0,0,1,.6168,1.5133,3.37047,3.37047,0,0,1-1.0832,1.8705,55.39635,55.39635,0,0,1-5.688,3.9197c-1.4511.8436-2.4196,1.6455-1.9338,3.5242a32.72141,32.72141,0,0,1,.387,3.4684c.0522.3562.2849.89.5524.9753.9107.2897,3.1965-1.0965,3.39-2.0507.7121-3.5122,2.614-6.4054,4.6861-9.2184,2.4407-3.3139,5.2966-5.9759,9.5445-6.8679a1.74379,1.74379,0,0,0,1.2661-2.5868c-.9228-1.9934-1.6229-4.0898-2.3337-5.9231a31.5866,31.5866,0,0,0-3.3359,2.2524,1.85625,1.85625,0,0,1-2.2738.4657c-3.5783-1.795-7.1492-3.6049-10.7343-5.3872a5.7301,5.7301,0,0,0-1.2148-.2862Zm-38.5636.3594c-.2499,2.4423,1.6174,5.1202,4.0143,6.1927,2.1661.9698,4.9234.8398,6.3748,3.2403.0837.1381.3802.2.5805.2068,3.6464.127,6.9204,1.5315,10.1808,2.9709.491.2168.8955.656,1.3963.8174,1.1454.3692,2.3658.5267,3.4821.9594,1.6728.6486,2.182.4503,2.263-1.3392.0826-1.8291-.1203-3.6776.0541-5.4936.1326-1.3785.0879-2.265-1.6141-2.218a3.4325,3.4325,0,0,1-1.3902-.4868c-1.5311-.716-3.0014-3.038-2.4205-4.1323.7529-1.4187,1.265-3.1832,2.885-3.8606,2.9077-1.2165,2.5492-3.944,2.8529-6.1869.3112-2.2958-.081-4.681-.0842-7.0273-.0017-1.0534-.6454-1.6738-1.6492-1.2395-2.0047.8674-4.0195,1.7396-5.9263,2.7966-1.7875.9905-3.39,2.3123-5.1642,3.331-4.4071,2.5301-8.8182,5.0618-13.3277,7.4001C330.95969,209.38471,330.55969,210.81151,330.198,212.54881Z" style="fill:#7f7f7f;fill-rule:evenodd"/><path d="M360.21739,286.65521q-11.56305-6.68565-23.6303-13.6628a5.14145,5.14145,0,0,0-.1206,1.2145q1.04925,5.1783,2.1464,10.3463c.6431,3.0287,1.5441,6.0242,1.9078,9.0846a74.25248,74.25248,0,0,1,.4427,10.3988c-.1367,6.0877-.3964,12.1861-1.9026,18.1348a50.83614,50.83614,0,0,1-3.1641,9.3555c-2.4315,5.1555-4.8777,10.2274-9.044,14.2601-1.0751,1.0405-2.0488,2.1859-3.1612,3.3826a5.45924,5.45924,0,0,0,1.3202.3928c4.447-.0716,8.8949-.1358,13.3396-.291,1.5173-.0529,2.1888-1.3111,2.5441-2.5392.151-.5222-.3958-1.2469-.6833-2.0391.1527-.2314.6761-.6764.7296-1.172.1751-1.621.1543-3.2623.2538-4.893.237-3.8759.3695-7.7647.7951-11.6205a77.29115,77.29115,0,0,1,1.5707-8.292,41.23425,41.23425,0,0,1,1.5733-5.4654c1.0544-2.8189,2.2251-5.5983,3.4441-8.3514a53.23108,53.23108,0,0,1,3.8111-7.9008C354.753,293.41741,357.55659,290.12691,360.21739,286.65521Z" style="fill:#7f7f7f;fill-rule:evenodd"/><path d="M301.96449,263.45731l-.3639-.0995a3.34262,3.34262,0,0,0-.601.6557c-1.3487,2.6325-2.7871,5.2275-3.976,7.9316a49.03018,49.03018,0,0,0-2.9823,8.049,151.78894,151.78894,0,0,0-3.0795,15.5411,39.06176,39.06176,0,0,0-.0427,10.7949,128.76311,128.76311,0,0,0,3.4133,14.8621,59.54631,59.54631,0,0,0,6.0433,15.2571c2.604,4.3336,5.6566,8.1404,10.6212,9.7053a18.20265,18.20265,0,0,0,6.6533.6897,6.80577,6.80577,0,0,0,4.4269-2.5243c1.1137-1.2222,2.7865-1.933,3.9987-3.3854a50.2786,50.2786,0,0,0,6.1541-8.986c2.0433-3.9184,3.9495-7.7771,4.038-12.3647.0483-2.4961.7617-4.9747,1.0861-7.4727.0788-.6051-.283-1.2547-.2885-1.8851-.0197-2.2877.0642-4.5773.0221-6.8643-.0117-.6434-.6304-1.3973-.4415-1.9026.963-2.5716-.115-5.0272-.7601-7.286-.4187-1.4666-.0907-1.5658.754-1.7807-.3015-.8878-.8512-1.6731-.7416-2.3522a9.75343,9.75343,0,0,0-.4642-4.5925c-.1494-.4748-.3186-.9454-.4353-1.4284-.7079-2.9239-1.1931-5.9217-2.1522-8.7601-1.4248-4.2178-3.0824-8.3663-4.832-12.4629a61.65475,61.65475,0,0,0-4.1186-8.0421c-.7672-1.2495-2.1973-2.0916-3.5793-3.3473-.2827,1.8326-.5222,3.2954-.7319,4.7621-.705,4.9279-1.3714,9.8614-2.1065,14.7846-.5354,3.5841-1.2618,7.143-1.6825,10.7392a12.04235,12.04235,0,0,0,.5393,4.0875c.3167,1.3039,1.0959,2.5168,1.2842,3.8256.2888,2.0073.2538,4.0623.341,6.0981a18.79117,18.79117,0,0,1-3.5576,11.5083,9.27621,9.27621,0,0,1-5.1354,3.9313c-2.6607.7413-5.8168-1.0479-7.2866-3.1521a32.10871,32.10871,0,0,1-3.7249-7.5855c-1.4799-4.1504-.7241-8.4379.048-12.6269.2162-1.1736,1.1438-2.2176,1.7532-3.3164.6703-1.2083,1.8932-2.3988,1.9194-3.6182.0687-3.1754-.3866-6.3619-.6301-9.5445a3.07787,3.07787,0,0,1,.0065-.4722Q301.65634,267.14256,301.96449,263.45731Z" style="fill:#c4c4c4;fill-rule:evenodd"/><path d="M381.42249,295.41531c0,1.2744-.0084,2.4209.0013,3.5673q.0516,5.97225.1128,11.9446c.0366,4.0113.0545,8.023.1135,12.0341.0265,1.7982.0437,3.4875,1.5632,4.9791a13.35318,13.35318,0,0,1,3.9896,8.1563c.5669,6.0491-.2223,11.9265-5.0783,16.3747-2.2676,2.0767-6.1555,2.8747-8.648,1.2965a12.95157,12.95157,0,0,1-5.548-7.3897c-1.5905-5.3402-.857-10.535,1.3208-15.6049a5.42548,5.42548,0,0,0,.4742-2.9272c-.9364-5.0586-.9156-10.2326-2.0562-15.2769a73.70725,73.70725,0,0,1-1.1183-9.4327c-.115-1.2365-.3322-1.6352-1.6261-.9555a10.51582,10.51582,0,0,0-4.4823,4.8201c-3.3466,6.6309-4.446,13.8446-5.1059,21.1183a94.4121,94.4121,0,0,0-.1187,10.0718,56.06634,56.06634,0,0,0,.4791,8.809,137.1923,137.1923,0,0,0,3.5245,15.7537,72.63035,72.63035,0,0,0,5.2161,12.4872c1.8638,3.5719,5.1283,5.912,8.6097,8.0036,3.2403,1.9467,6.5065,3.34213,10.3279,3.0818a22.42278,22.42278,0,0,0,3.1333-.4479c1.6061-.341,3.1939-.7689,4.5883-1.1102a7.40626,7.40626,0,0,1,1.3231-1.3811,18.31058,18.31058,0,0,0,7.7543-9.2411c1.1701-2.9573,2.8196-5.7499,3.156-9.0537.294-2.886,1.1899-5.7117,1.4654-8.5977.2703-2.8348-.0674-5.7244.1462-8.5685a74.32589,74.32589,0,0,0-1.044-18.3024,80.51964,80.51964,0,0,0-4.0409-14.4432,52.36975,52.36975,0,0,0-9.7457-15.7615C387.95389,296.90041,384.86859,296.11511,381.42249,295.41531Z" style="fill:#c4c4c4;fill-rule:evenodd"/><path d="M530.59239,307.21631a12.17038,12.17038,0,0,0-.1517-1.8449c-.8281-3.6344-1.632-7.2766-2.5693-10.8828a51.41265,51.41265,0,0,0-4.6732-11.0967c-1.0217-1.9217-2.2965-3.3796-4.9429-3.2121-4.9692.3148-9.9607.2584-14.9408.4201-4.9488.1608-9.8933.4554-14.8426.5925-7.5651.2097-15.1334.2933-22.6981.5076-7.8081.2213-15.6137.5383-23.4205.8074-6.3853.2197-12.7702.4486-19.1564.6395-4.7215.1416-9.4443.2372-14.1675.3351-2.0254.0415-4.0534-.0143-6.0773.0645-4.0729.1588-8.1446.3672-12.2152.5815-1.6469.0865-3.2905.2434-5.2531.3922.4923.5857.7442.913,1.0242,1.2138,2.2034,2.3674,4.7193,4.516,6.548,7.1434,2.7904,4.0091,5.0654,8.374,7.6678,12.5196a3.11543,3.11543,0,0,0,2.1094,1.3318c2.9884.1417,5.9878.0308,8.9827.0366,5.9364.0127,11.873.0519,17.8093.0584,4.3952.0048,8.7903-.0422,13.1857-.0344,7.1784.0127,14.3577.0266,21.5358.0853,6.5797.0538,13.1588.1649,19.7381.2567,6.7392.0943,13.4781.235,20.2176.2784,3.4649.022,6.9304-.1617,10.3963-.1848C519.93909,307.191,525.18019,307.21631,530.59239,307.21631Z" style="fill:#8b8c8d;fill-rule:evenodd"/><path d="M394.411,387.634a27.39507,27.39507,0,0,0-2.985,1.9568c78.762-8.10663,122.7663-6.06543,125.2353-7.92233,6.3503-4.7758,6.173-10.1126,6.7348-11.6288,1.5807-4.2671.6451-2.6531,2.0845-6.971.671-2.0135,1.1536-4.0902,1.7814-6.3532-8.1802,0-16.1054-.0013-24.0308.0003-6.7924.0016-13.5857-.0628-20.3767.038-3.6464.0544-3.6458.1834-4.1044-3.1369a1.11081,1.11081,0,0,1,.0943-.354,7.003,7.003,0,0,1,1.7817-.5059c2.8423-.0435,5.6864-.0172,8.5297.0155,3.8279.0444,7.6551.1543,11.4833.1673,4.2007.0139,8.4026-.1225,12.602-.0616,4.3024.0629,8.6025.3368,12.905.3948.82.011,2.2115-.3692,2.3771-.8807.8638-2.6659,1.4378-5.4271,2.0624-8.1669a15.55534,15.55534,0,0,0,.1206-1.9347c.3947-4.1407,1.0942-8.2775,1.1341-12.4211.0557-5.7875-.3903-11.579-.5925-17.3698-.0392-1.1175-.5585-1.4845-1.6223-1.4349-1.3713.0639-2.7479.0503-4.1215.0292-8.0749-.1228-16.1488-.3043-24.2241-.3779-11.5235-.1047-23.0478-.1021-34.5713-.2058-8.6149-.0775-17.2288-.2943-25.8437-.3695-9.257-.0807-18.5149-.071-27.7722-.0953-3.1382-.0088-6.2761-.0016-9.4214-.0016a2.46687,2.46687,0,0,0-.0593.7331c1.1756,4.179,2.3804,8.3498,3.5515,12.53a61.29547,61.29547,0,0,1,2.5424,12.952,114.4687,114.4687,0,0,1-1.2579,27.6186c-.1712.9305.1721,1.2864,1.1068,1.2592,1.54-.0447,3.0821-.0039,4.6227-.0328,4.0629-.0751,8.1255-.1698,12.1884-.2537q7.52265-.15465,15.0461-.3018c4.364-.0784,8.7325-.0411,13.0914-.2301a19.54458,19.54458,0,0,1,9.4054,1.5315,7.58709,7.58709,0,0,1,1.3908,1.1065c-.0875.1407-.1744.2817-.2619.4223-1.6138,0-3.2286-.021-4.8421.0039-6.3946.0992-12.7889.1913-19.1829.3297-3.3988.0732-6.795.2836-10.1937.3481-7.2325.1371-14.4657.2962-21.6978.2706-1.7803-.0063-2.3599.7207-2.8624,2.166C403.03449,382.25911,399.97959,385.314,394.411,387.634Z" style="fill:#8b8c8d;fill-rule:evenodd"/><path d="M380.45889,142.53061q-.0618.179-.1238.3569c.3925.5643.749,1.1577,1.1853,1.6854.6376.7711,1.3121,1.6832.5144,2.5172a1.94816,1.94816,0,0,1-2.7658-.1404c-.704-.6223-1.1474-1.5538-1.8812-2.1227a4.61354,4.61354,0,0,0-2.3599-.9727c-.388-.0265-1.0969.8074-1.2194,1.3507-.6929,3.073-1.2203,6.1826-1.8776,9.2637a6.97528,6.97528,0,0,1-.9656,2.4932c-1.019,1.4676-1.9376,2.7904-1.8767,4.8019.0636,2.0958-.7409,4.2036-.8414,6.3214-.1371,2.8921-.0204,5.8008.0833,8.6988.1342,3.7336.375,7.4626.5462,11.1949a3.22774,3.22774,0,0,0,2.8834,3.1246c3.203.1371,6.4072.3128,9.6115.3303,4.552.0252,9.1416.3857,13.6025-.9095,2.5152-.7303,5-1.5649,7.5054-2.3282.5446-.1656,1.2269-.0707,1.6618-.3659,1.1079-.752,2.0767-1.7069,3.1667-2.4893a5.64918,5.64918,0,0,0,2.7567-4.483c.2943-4.868-1.6854-9.2158-3.1524-13.6067-1.7127-5.1276-4.1145-10.0297-6.2978-14.9943-1.4984-3.4081-3.1041-6.7706-4.7199-10.1259-.7859-1.631-1.6569-1.7348-3.0921-.7734a2.96418,2.96418,0,0,1-1.8903.1916,18.73943,18.73943,0,0,0-2.275-.6087,1.58918,1.58918,0,0,0-1.1448,1.0689c-.0587,2.5168-.9701,3.0672-3.286,1.959C383.00329,143.39311,381.711,143.00381,380.45889,142.53061Zm20.5968,25.0985a5.14339,5.14339,0,0,1-2.334,7.2325,15.17633,15.17633,0,0,1-7.6183,1.806,78.95617,78.95617,0,0,1-8.5345-.5377,25.0251,25.0251,0,0,1-4.7931-1.7039,2.04247,2.04247,0,0,0-2.3016.1455c-.4171.3332-1.3895.1339-2.0255-.0794a2.10073,2.10073,0,0,1,.0412-1.6138,10.62963,10.62963,0,0,1,2.1875-2.5226c.2998-.2454,1.1818-.0231,1.6592.2382a47.83361,47.83361,0,0,0,4.2188,2.5045,11.87618,11.87618,0,0,0,4.6593,1.0894,66.26412,66.26412,0,0,0,9.8751-.8907c2.9479-.5134,3.259-1.3036,3.3485-4.2921C399.45219,168.54541,400.457,168.11531,401.05569,167.62911Zm-14.5487-.1183c.8881,0,1.7795.0467,2.6643-.0097,1.7607-.1125,2.6634-.8466,2.3175-2.5071a50.46852,50.46852,0,0,0-2.1787-6.4144c-.0892-.2515-.329-.4781-.3397-.7235-.0334-.7432.012-1.4899.0269-2.2354.6768.3795,1.6294.5912,1.9813,1.1684a72.6059,72.6059,0,0,1,3.4795,6.4929,4.93132,4.93132,0,0,1-1.0544,5.3458,4.60686,4.60686,0,0,1-5.3318.5766,19.22074,19.22074,0,0,1-1.7882-1.2268C386.35789,167.822,386.43279,167.66611,386.507,167.51081Zm10.9415-12.9257a24.63146,24.63146,0,0,0-3.3391.9659c-1.2761.5626-1.8368-.2496-1.9973-1.0969a2.18254,2.18254,0,0,1,.8914-1.842,6.59344,6.59344,0,0,1,5.7276-.0943c.5344.2204.8148,1.0583,1.2112,1.6132-.54.2246-1.0699.4784-1.6239.6602a2.69935,2.69935,0,0,1-.8054.0136C397.49159,154.73131,397.46989,154.65831,397.44849,154.58511Zm-22.9421,4.6709a10.36976,10.36976,0,0,1,.6939-1.8828c1.0965-1.784,4.1465-3.3271,5.7704-2.8905.4492.1209,1.114.6239,1.1172.9574.0055.5948-.3743,1.6881-.6664,1.7127-2.1813.1864-3.952,1.3114-5.8251,2.2245C375.397,159.47481,375.07909,159.32861,374.50639,159.256Zm21.8109-12.797c-1.9635.1808-3.8302.4379-5.7017.4735-.5617.0107-1.1354-.5951-1.7515-.9458C390.69929,144.10131,395.01949,144.451,396.31729,146.459Zm-21.4408,5.5944c.2405-.5702.3076-1.1361.6262-1.4132a8.47036,8.47036,0,0,1,4.9546-2.2011c.3124-.0247.8955.2307.9208.4155a1.50977,1.50977,0,0,1-.3893,1.078,2.35853,2.35853,0,0,1-.9866.4165C378.41789,150.88171,376.83,151.40511,374.87649,152.05341Z" style="fill:#ebcaa9;fill-rule:evenodd"/><path d="M328.97769,220.51411c.386.5546.8453.9364.9328,1.3896.3018,1.5652.4901,3.1537.6917,4.7367.2223,1.749.3607,1.9007,2.0786,2.1357q-.60195-3.8298-1.2187-7.7524C330.67739,221.46771,330.26769,218.77881,328.97769,220.51411Z" style="fill:#cc1f1e;fill-rule:evenodd"/><path d="M376.08289,234.53871a2.46984,2.46984,0,0,0-2.661,2.3414c-.0257,1.6534,1.6374,3.5054,3.1083,3.4617a3.42091,3.42091,0,0,0,2.3599-2.7091C378.79579,235.93991,377.76539,234.304,376.08289,234.53871Z" style="fill:#cc1f1e;fill-rule:evenodd"/><path d="M308.93709,264.479c-1.7104-.0684-2.827.6398-2.9025,1.9875-.0509.9001-.0234,1.8044-.0675,2.7045-.0907,1.84-.245,3.6771-.3004,5.5179-.0522,1.7408-.011,3.4846-.011,5.1937h3.2814Z" style="fill:#cc1f1e;fill-rule:evenodd"/><path d="M373.38879,254.29851c1.1924-4.2638,2.3842-8.5247,3.556-12.7153-1.328-.4217-2.4854-.7893-3.8075-1.209-.9001,3.3229-1.8864,6.5693-2.6439,9.8683C369.67659,253.79971,369.87629,253.25581,373.38879,254.29851Z" style="fill:#cc1f1e;fill-rule:evenodd"/><path d="M353.92059,240.52041c-2.5372-.7692-5.2138-1.5805-7.9044-2.396-.6845,5.8417-.3458,6.3321,4.3096,8.0503a10.48565,10.48565,0,0,0,.9934.471c.952.2372,1.9185.4158,2.8795.6174a27.10847,27.10847,0,0,0,.1864-3.0536C354.33159,243.02651,354.09689,241.85151,353.92059,240.52041Z" style="fill:#cc1f1e;fill-rule:evenodd"/><path d="M377.04129,220.88491c1.7292-.6077,3.4779-1.1652,5.1812-1.8377,1.5567-.6149,3.083-1.316,4.5883-2.0501,1.3172-.6424,2.9475-1.0962,3.7877-2.1525,1.0994-1.3821,1.5506-3.2776,2.2931-4.9461.4023-.9044.0882-1.3572-.8307-1.6434-2.4708-.7688-4.6661,0-6.6951,1.2645C381.16229,212.13941,378.97729,216.34791,377.04129,220.88491Z" style="fill:#cc1f1e;fill-rule:evenodd"/><path d="M327.55019,207.69051q.24555-.1239.4917-.2483a4.54855,4.54855,0,0,0,.2791-1.5431q-4.5696-24.55875-9.2051-49.1194c-1.3918.1663-2.2021.6036-1.8404,2.2452.6671,3.0267,1.1578,6.0916,1.7551,9.1342q1.71825,8.7474,3.4759,17.4874,2.08635,10.35675,4.2318,20.7012A4.82592,4.82592,0,0,0,327.55019,207.69051Z" style="fill:#cc1f1e;fill-rule:evenodd"/><path d="M330.85239,238.38731c-4.2425,1.3886-8.4211,2.6996-12.5572,4.1336a5.39558,5.39558,0,0,0-3.8778,4.3043c-.2486,1.4741-.4635,2.9586-.5906,4.4473-.3303,3.8733-.6051,7.7514-.8994,11.6276-.2564,3.3752-.5643,6.7483-.7212,10.1283-.0373.8012-.7079,2.2536.8356,2.3278,1.6751.0811,1.1594-1.5519,1.2621-2.4348.3692-3.18.5063-6.3865.8181-9.5743.4911-5.0252,1.0888-10.0407,1.5662-15.0675.1896-1.9937.9403-3.3641,2.5706-3.906,3.4532-1.1484,6.9259-2.2378,10.3849-3.3693.6357-.2084,1.2434-.5024,1.8109-.7351C331.29219,239.76161,331.16289,239.35771,330.85239,238.38731Z" style="fill:#cc1f1e;fill-rule:evenodd"/><path d="M386.22149,230.34061c-2.4468,1.0158-3.7757,2.8588-3.7501,5.1503a8.46261,8.46261,0,0,1-1.8981,5.5795,3.67959,3.67959,0,0,0-.6113,2.688c.6107,3.0266,1.455,6.006,2.2099,9.0035.3322,1.3195,1.4427,1.0038,2.2225.8511.7154-.1397,1.7668-.6378,1.9156-1.183a16.02247,16.02247,0,0,0,.3448-4.1151c.0127-4.0921-.0048-8.1845-.079-12.2762C386.54139,234.15651,386.34729,232.27661,386.22149,230.34061Z" style="fill:#cc1f1e;fill-rule:evenodd"/><path d="M334.06219,222.24241q-.23.24885-.4596.4972c.4039.6418.658,1.5321,1.2381,1.8815,2.631,1.585,5.1394,3.392,8.1083,4.3913,3.1437,1.0579,3.1547,1.1331,3.2361,4.4777.0285,1.1688.3153,2.1807,1.4349,2.5687,1.9431.6732,3.9588,1.1325,5.9181,1.7623,1.0295.3309,1.6307-.061,1.6848-.9967a56.01638,56.01638,0,0,0,.0581-6.5233c-.0253-.4256-.9734-.915-1.5824-1.1601-.8722-.351-1.8482-.4356-2.7369-.7536-2.9051-1.0401-5.7908-2.1346-8.6846-3.2072-.3484-.1293-.6991-.2525-1.0489-.3776Q337.64559,223.523,334.06219,222.24241Z" style="fill:#cc1f1e;fill-rule:evenodd"/><path d="M309.42979,262.91181c0-1.6926-.0937-3.7384.0204-5.7723.2129-3.7968.468-7.5955.8871-11.3732a5.88266,5.88266,0,0,1,1.4181-2.5599c2.6963-3.5142,6.9184-4.2519,10.7187-5.7078,2.524-.9666,5.2278-1.4949,7.6805-2.5982.938-.422,2.1022-2.0482,1.9288-2.863-.3186-1.4978-1.9262-.6434-2.828-.3325q-6.0501,2.0862-11.9951,4.4735c-2.0689.8291-4.0464,1.8942-6.0385,2.9055-3.2665,1.6588-4.2651,4.6813-4.4537,8.0019-.2078,3.6675-.1397,7.3495-.2266,11.0248-.0383,1.6092-.1877,3.2156-.2363,4.8249-.0262.8751.3413,1.3645,1.2933.9241C308.09729,263.62911,308.57629,263.35591,309.42979,262.91181Z" style="fill:#cc1f1e;fill-rule:evenodd"/><path d="M421.38469,132.54761c0,.585-.0133,1.0631.002,1.5402.1212,3.791.2093,7.5832.3821,11.3716.2635,5.7733.6165,11.5424.8761,17.3153.257,5.7176.4616,11.4374.6596,17.1575.2386,6.889.4343,13.7795.6719,20.6684q.14145,4.103.398,8.2013c.0451.7021-.2016,1.7892,1.0068,1.7646,1.1898-.0243.8524-1.0521.8375-1.7325-.0655-2.9735-.1971-5.9457-.282-8.9192-.2288-8.0088-.4324-16.0185-.6745-24.027-.0807-2.675-.2447-5.3474-.376-8.0207q-.612-12.49365-1.2222-24.9874c-.1423-3.0001-.2234-6.0028-.3443-9.0038C423.276,132.79461,422.70419,132.34281,421.38469,132.54761Z" style="fill:#cc1f1e;fill-rule:evenodd"/><path d="M362.67939,225.76431a11.741,11.741,0,0,0,2.2332-.3468,1.26741,1.26741,0,0,0,.6489-.9743c-.0181-1.3568-.2512-2.7126-.2486-4.0687.0062-3.5359.1631-7.0724.131-10.6076-.0302-3.3249-.2862-6.6475-.3323-9.9727-.0554-3.9938.0305-7.99.0124-11.9848-.0357-7.9485-.1501-15.8966-.1381-23.8451.0107-7.2786.1974-14.5571.2074-21.8356.0072-5.2696-.1439-10.5392-.2356-15.8088-.0088-.5076-.0953-1.0129-.1747-1.8099-1.4278,1.1189-2.4799,1.9833-2.4407,3.7397.0856,3.8458.0425,7.6944.0451,11.5417.0032,4.9993-.0341,9.9986.0068,14.9976.0599,7.4023.1932,14.804.256,22.2067.0328,3.8736-.2259,7.7436-.0178,11.6227.1391,2.5943.0746,5.2019.0486,7.8027-.08,7.9575-.2058,15.9144-.2651,23.8714C362.40229,222.10881,362.58569,223.92621,362.67939,225.76431Z" style="fill:#cc1f1e;fill-rule:evenodd"/><path d="M332.25879,244.35641c-3.4993,1.5088-6.5836,2.7871-9.6009,4.2078-.3611.1698-.4774,1.1179-.4628,1.699.0055.2298.8291.7215,1.0239.6168,1.0333-.5549,1.466.1248,1.9862.761a18.89933,18.89933,0,0,1,2.0102,2.4177c1.6634,2.9401,3.1366,5.9892,4.8288,8.9111,1.1254,1.9425,2.0537,3.9673,4.3365,5.1374,6.0818,3.1184,12.0211,6.5152,18.028,9.7804a21.06827,21.06827,0,0,0,2.162.869c0-1.1283.0359-1.9752-.0085-2.8179a15.8003,15.8003,0,0,1-.2197-3.8231,3.30227,3.30227,0,0,0-1.2401-3.4016,35.21766,35.21766,0,0,0-5.1474-3.1901c-2.254-1.2336-4.5955-2.3061-6.8559-3.5287-2.7301-1.477-5.3591-3.1537-8.1511-4.4963a2.03957,2.03957,0,0,1-1.3321-1.7035C333.14359,252.17881,332.74849,248.55281,332.25879,244.35641Z" style="fill:#cc1f1e;fill-rule:evenodd"/><path d="M360.84289,280.17241c1.4654.8009,3.2753-.2947,3.2643-2.37a48.907,48.907,0,0,0-.1054-5.2006c-.421-3.7303,1.0149-7.506-.3182-11.2043-.0665-.1847.0414-.4262.0414-.6411.0004-.9562.0263-1.9146-.0207-2.8688-.2214-4.5348-.4898-9.0671-.6859-13.6025-.0797-1.8469.0642-3.7048-.0398-5.549-.1929-3.4179.5484-4.5867,3.8055-5.8326,3.7151-1.4213,7.4095-2.8971,11.1178-4.3362,2.6993-1.0479,5.3749-2.171,8.1229-3.074a2.52109,2.52109,0,0,1,3.4259,1.8612,21.24011,21.24011,0,0,1,.5501,3.6039c.5341,5.4388,1.0913,10.876,1.5354,16.3222.3601,4.4188.5448,8.8515.8939,13.2709.0314.3965.7306,1.0706,1.0634,1.0385a2.71469,2.71469,0,0,0,1.5506-.9347c.2211-.2477.1028-.8324.0762-1.2612-.3141-5.1186-.6586-10.2355-.9562-15.3554-.1672-2.8756-.197-5.7603-.4067-8.6327-.2292-3.1417-.7419-6.2682-.8641-9.4116-.1666-4.2697-3.0902-6.438-7.168-5.0505-2.6322.8959-5.2625,1.8041-7.8581,2.7992-5.6777,2.1765-11.2915,4.5273-17.0201,6.556a2.98012,2.98012,0,0,0-2.356,3.3858c.1744,4.2963.3212,8.5935.4732,12.8904.0859,2.4284.176,4.8574.234,7.2863.0399,1.6861-.0748,3.3823.0704,5.0573.1341,1.551.6612,3.0701.7723,4.6204.3316,4.6172.5507,9.2427.7954,13.8657C360.88179,278.26231,360.84289,279.12381,360.84289,280.17241Z" style="fill:#cc1f1e;fill-rule:evenodd"/><path d="M518.55249,276.104c-.8933-3.3174-.9299-3.3732-3.8597-3.3126-3.7067.0769-7.4124.2062-11.1184.3086-4.3384.1196-8.6797.1753-13.0145.3679-5.2427.2324-10.478.6456-15.7213.8586-6.3512.258-12.7106.3235-19.0614.5922-6.5875.2784-13.1679.7338-19.7544,1.0498-5.9989.2875-12.0013.5001-18.0028.7267-1.5934.0603-3.193-.0097-4.7834.081-6.2592.3582-12.5148.7747-18.7733,1.1341-4.7503.2729-9.5036.4972-14.2562.7345a4.83554,4.83554,0,0,0-4.5196,5.4145c.291,3.2513.3999,6.5184.6362,9.7752q.82065,11.29515,1.7043,22.5863a30.9385,30.9385,0,0,0,.6074,3.2888q.2358-.0009.4713-.0025a6.4578,6.4578,0,0,0,.3445-1.6045c-.1504-3.6123-.399-7.2201-.5354-10.8331-.1488-3.933-.2068-7.8691-.3106-11.8037-.0956-3.6162-.2722-7.2321-.2755-10.8487-.0032-2.7898,1.1267-3.7252,3.9459-3.814,4.4729-.141,8.9432-.3721,13.4152-.55q11.2314-.44685,22.4634-.8729c3.8473-.1452,7.696-.2638,11.5443-.3928,2.9395-.0982,5.8789-.2165,8.8194-.2836,2.922-.0665,5.8472-.0276,8.7679-.129,4.6239-.1611,9.2453-.4188,13.8689-.6019q6.385-.2529,12.774-.4327c4.5751-.1352,9.1517-.2201,13.7267-.3634q10.74135-.33585,21.4813-.7208C512.25769,276.34841,515.378,276.22331,518.55249,276.104Z" style="fill:#cc1f1e;fill-rule:evenodd"/><path d="M319.52559,142.94971a23.00977,23.00977,0,0,1-2.2332,2.6808c-1.0201.9355-2.3237,1.561-3.3411,2.4981a3.09255,3.09255,0,0,0,.1919,3.8259c.9775.7565,1.8805.3582,2.604-.5517.0878-.1101.2911-.1208.4226-.2058,7.3016-4.7302,14.5782-9.4997,21.9076-14.1868,7.4234-4.7475,14.863-9.4723,22.3733-14.0803,2.2928-1.407,4.7733-2.7693,7.6237-2.439,3.6516.4239,7.2915.9869,10.9148,1.615a110.88083,110.88083,0,0,1,11.2598,2.2599c3.7381,1.0566,7.5812,1.2005,11.3492,1.9171,3.3932.646,6.8189,1.1303,10.2371,1.6385,3.1553.469,6.3136.9399,9.4842,1.2809a2.27038,2.27038,0,0,0,2.5988-2.0993c.2425-1.5306-.9179-2.1331-2.1032-2.3665-3.6785-.7237-7.3758-1.3574-11.0747-1.9706-5.796-.9614-11.6004-1.8722-17.3999-2.8154-2.8935-.4703-5.7834-.9626-8.6742-1.4494-3.0461-.5131-6.0803-1.1108-9.1397-1.5257-3.2367-.4395-6.4905-.8515-9.749-.984a8.61885,8.61885,0,0,0-4.3776.9882c-3.1025,1.7486-5.9963,3.8629-9.0314,5.7376-1.7989,1.1108-3.7734,1.9425-5.5457,3.0899-1.6417,1.0628-3.0445,2.4951-4.6869,3.5566-2.5174,1.6274-5.1762,3.0338-7.7277,4.6107-4.4587,2.7551-8.8645,5.596-13.3374,8.3274A9.45522,9.45522,0,0,1,319.52559,142.94971Z" style="fill:#cc1f1e;fill-rule:evenodd"/><path d="M528.73609,282.07371c1.5711-.1455,2.2524-.7163,2.2485-2.3496-.0091-3.6982.2473-7.3965.3494-11.0957a3.55889,3.55889,0,0,0-1.9506-3.6986,13.178,13.178,0,0,0-4.4457-1.4855c-3.8827-.187-7.7861-.1228-11.6733.0357-4.1089.1673-8.2055.6071-12.3125.8424-6.3693.3656-12.7423.6661-19.1142.9811q-13.54605.669-27.0932,1.3169c-5.0502.2396-10.1023.4451-15.1531.6745-2.6319.1193-5.2644.2341-7.894.3913-6.5289.3905-13.0548.8281-19.5846,1.1986-2.9874.1698-5.9817.2081-8.9714.338-7.1962.3135-14.3927.6256-21.5873.9776a14.83486,14.83486,0,0,0-10.9599,5.831c-2.4433,2.9433-1.689,6.4426-1.339,9.7655.645,6.1198,1.5542,12.211,2.2579,18.325.5938,5.1594,1.0061,10.3402,1.6219,15.4967.0927.7762.8589,1.4725,1.3134,2.2056q.28485-.1308.5691-.2619c-.1708-2.1703-.2894-4.3465-.5264-6.5097-.2379-2.1687-.7075-4.316-.868-6.4876-.1873-2.5347-.0577-5.0927-.232-7.6289-.2396-3.485-.6327-6.9593-.9659-10.4378-.1929-2.0125-.5144-4.0207-.5666-6.0365-.0596-2.3035-.0078-4.564,1.6666-6.5456,2.5888-3.0637,6.0702-3.8685,9.7241-4.0937,7.1683-.4421,14.3493-.6839,21.525-1.0025q11.09865-.49305,22.1973-.9734,11.0025-.47355,22.0051-.9283c8.1508-.3426,16.2999-.7153,24.4526-1.0158,7.1472-.2635,14.2984-.4243,21.4466-.6706,3.2584-.1128,6.5113-.3773,9.7691-.4781,6.0624-.187,12.1264-.3996,18.1901-.409,2.8228-.0042,3.3612.6868,3.8918,3.4337C527.38029,275.15821,528.04509,278.53551,528.73609,282.07371Z" style="fill:#cc1f1e;fill-rule:evenodd"/><path d="M452.37059,210.76451c-11.2698,1.8465-22.3972,3.6694-33.482,5.4858-.8505,8.5938-4.2577,11.7725-10.8727,12.6123-.2544-.4583-.3627-.9328-.6418-1.0774-.2816-.1458-.7331.0357-1.2683.0898.4642.3799.7533.6158,1.0428.8521-3.5249-.7361-7.1324-1.0213-9.9944-3.5679a33.43872,33.43872,0,0,0,.3261,4.4178q.88185,6.97035,1.7817,13.9386c.4755,3.7044.9801,7.4049,1.4264,11.1126.3394,2.8189.623,5.6456.8972,8.4719.0875.9046.4386,1.3315,1.4164,1.3011,2.2384-.0691,4.4827.0116,6.7194-.0856q9.49965-.41475,18.995-.929c7.4866-.396,14.9697-.8634,22.4579-1.23,4.4894-.2201,8.9879-.2535,13.4777-.4703,4.4334-.2136,8.8609-.553,13.291-.8362,3.3845-.2169,6.7697-.4321,10.0923-.6441.3179-2.1003.7195-3.9909.868-5.9016.2644-3.4082.3516-6.8296.562-10.2426.1225-1.9899.411-3.9709.5008-5.961.1931-4.272.2982-8.5478.4563-12.8214a4.33756,4.33756,0,0,0-2.1748-3.8389c-2.9201-1.7013-6.0978-2.9605-9.3572-4.4849a3.45505,3.45505,0,0,1-.1786.3838c-.187.3137-.3873.6194-.5824.9286a9.56971,9.56971,0,0,1-6.5852,4.7708,13.413,13.413,0,0,1-8.5465-.9607c-3.3771-1.6988-6.9071-3.3732-8.6042-7.1755C453.752,213.46481,453.013,212.07071,452.37059,210.76451Zm-7.9951,34.0032c0,1.268-.0363,2.1447.0068,3.0176.1202,2.4095.1384,2.4795,2.4383,2.3094,6.594-.4885,13.1828-1.0502,19.7758-1.5558a30.84333,30.84333,0,0,1,3.3971-.0435,1.53837,1.53837,0,0,1,1.587,1.8119c-.084.9999-.0415,2.2478-1.5814,2.3599-4.5799.3326-9.1578.6898-13.7383,1.0129-7.7729.5484-15.546,1.1066-23.3224,1.6035-3.3641.2149-6.7385.2615-10.1062.433q-4.2915.2187-8.5769.5585c-1.7276.1397-2.2841-.2392-2.4621-1.9185-.1721-1.6171.2577-2.1901,1.9331-2.3003,4.1209-.271,8.247-.4619,12.3682-.7309,4.1047-.2681,8.2082-.5611,12.3035-.9397.4012-.0369.7416-.7487,1.1039-1.1529.026-.0285.0013-.1047-.0022-.1585-.3384-4.9743.6728-3.5773-5.6242-3.4389-4.5381.0998-9.0664.6132-13.6012.9098-2.254.1475-4.5161.1705-6.7671.3449-1.9671.1526-1.6342-1.4466-1.7639-2.4277a1.52186,1.52186,0,0,1,1.62-1.89c5.8673-.27,11.731-.6275,17.5925-1.0054,2.4468-.1579,4.8852-.4476,7.5867-.7018-.0817-1.4757-.1342-2.9757-.2826-4.4657-.0208-.2065-.5206-.5293-.7899-.5209-2.8996.093-5.7995.2084-8.6953.3876-1.9126.1184-3.8162.388-5.7285.5232q-4.9635.35055-9.9335.5899a1.36165,1.36165,0,0,1-1.0064-.6032,2.5524,2.5524,0,0,1,1.7847-3.777c3.5028-.3147,7.0185-.4784,10.5246-.7585,4.9004-.3918,9.7947-.8634,14.6961-1.2401,2.2825-.1756,4.576-.2068,6.8646-.3059q8.8359-.3831,17.6719-.7676c2.089-.0897,4.1779-.1957,6.2682-.2382a2.11869,2.11869,0,0,1,1.9461,2.3907c-.1641,1.0016-.5089,1.8242-1.9445,1.8787-4.0142.1513-8.0172.5847-12.0298.8048-4.0389.221-8.083.3863-12.1268.4333-1.2667.0149-2.1447.6026-2.2436,1.584a11.57984,11.57984,0,0,0,.5935,3.7385c.0369.1529.7818.2145,1.1889.185,5.664-.4103,11.3252-.866,16.9902-1.2615,2.5703-.1792,5.1494-.2275,7.7216-.3795,1.7169-.1015,1.5497,1.1603,1.5941,2.1878.0424.987.2243,2.0012-1.4294,2.0971-6.8834.4-13.7575.9559-20.638,1.4044C447.91389,244.85781,446.27609,244.76771,444.37549,244.76771Z" style="fill:#cc1f1e;fill-rule:evenodd"/><path d="M437.40839,135.28861c-1.9429,1.6772-2.6895,3.5587-1.6512,5.6656a5.45189,5.45189,0,0,1,.6159,3.9776c-.6269,2.2869,1.6151,4.2224,1.8617,6.4249.2039,1.8199,2.4731,2.9542,4.4405,3.9607a16.03983,16.03983,0,0,0,9.7331,1.3698c6.3477-.9864,7.4773-4.9527,6.3947-8.2395a1.29185,1.29185,0,0,1,.5636-1.652c2.8141-2.2505,3.4753-4.7748,1.326-7.3204-1.2932-1.532-1.9058-2.9289-1.3713-4.676a3.29548,3.29548,0,0,0-.806-2.9177c2.3063-2.7256,3.2702-5.8143,2.1475-9.307a12.31493,12.31493,0,0,1-.6158-6.0987c.6268-3.5063-1.6151-6.474-1.8618-9.851-.2039-2.7904-2.4731-4.5297-4.4405-6.0728a11.208,11.208,0,0,0-9.7331-2.1004c-6.3476,1.5124-7.4772,7.594-6.3946,12.6334a2.579,2.579,0,0,1-.5637,2.533c-2.814,3.4507-3.4752,7.321-1.326,11.2241a9.91161,9.91161,0,0,1,1.3714,7.1696A6.10256,6.10256,0,0,0,437.40839,135.28861Z" style="fill-rule:evenodd"/><path d="M440.59149,131.59291l.3436.0319c.1767.0163-.0701-.1181-.3565-.2584a3.70164,3.70164,0,0,1,1.667-3.4064c-1.2537-2.1506-2.8079-4.038-3.5135-6.2022-1.1397-3.4976-.8651-6.4636,4.1688-6.9887a3.00192,3.00192,0,0,0,.9189-.4502c-.6622-1.0019-1.2735-1.8679-1.8248-2.7703a7.52131,7.52131,0,0,1-.4048-7.3378,4.27245,4.27245,0,0,1,1.6255-1.6878c2.8902-1.8089,9.0686.0185,10.652,3.9142a44.6009,44.6009,0,0,1,2.239,8.3971,7.22392,7.22392,0,0,1-.4175,3.9591,2.03391,2.03391,0,0,0-.0097,2.1677,9.16158,9.16158,0,0,1,.858,1.5471c1.2129,3.1764,1.1075,7.6484-3.3981,8.1841-1.2048.1436-1.0379.859-.5485,1.7542.7465,1.3649,1.327,2.8215,2.0936,4.4911.0416-.0036.211-.047.4211-.0648a3.99888,3.99888,0,0,1-.931.5691c1.2537,1.4026,2.8079,2.6336,3.5135,4.045,1.1396,2.2812.8651,4.2156-4.1689,4.5581a3.84768,3.84768,0,0,0-.9189.2936c.6622.6535,1.2735,1.2183,1.8248,1.8068a3.49136,3.49136,0,0,1,.4049,4.7858,3.82463,3.82463,0,0,1-1.6255,1.1007c-2.8902,1.1798-9.0687-.0121-10.652-2.5528a21.62457,21.62457,0,0,1-2.2391-5.4766,3.21916,3.21916,0,0,1,.4175-2.5822c.3669-.5671.4761-.9286.0097-1.4138a5.89491,5.89491,0,0,1-.8579-1.0089,3.40356,3.40356,0,0,1-.5397-1.6747l.0042.0089a1.53654,1.53654,0,0,0,1.3691.0156,4.15246,4.15246,0,0,0,.9767-3.368c.3429-.6299-.1112-1.2921-.5054-1.7669A11.41792,11.41792,0,0,1,440.59149,131.59291Z" style="fill:#fff;fill-rule:evenodd"/><path d="M433.41589,321.41361l.5225,14.381,2.4601-.0264.1363,3.7515-2.4601.0265.1407,3.8739-8.6423.0928-.1408-3.8739-10.2681.1104-.1364-3.7516,6.9434-14.4612Zm-8.1199,14.4739-.3403-9.3653-3.4782,9.4063Z" style="fill-rule:evenodd"/><path d="M457.32029,321.15681l.7996,22.0064-8.6424.0929-.4287-11.7984a13.35758,13.35758,0,0,0-.3041-3.0699,1.53656,1.53656,0,0,0-1.0873-.7702,17.06436,17.06436,0,0,0-3.8709-.2235l-.8557.0092-.0932-2.5656q6.2367-.9246,9.3914-3.6262Z" style="fill-rule:evenodd"/><path d="M488.92549,326.66431l-8.6423.0929q-.0558-1.536-.1239-1.9364a.96925.96925,0,0,0-.5378-.6673,2.49533,2.49533,0,0,0-1.2613-.2584,2.04823,2.04823,0,0,0-1.0817.2699.91333.91333,0,0,0-.4678.6714,13.14415,13.14415,0,0,0-.0044,1.6454l.1274,3.5069a3.82439,3.82439,0,0,1,1.8985-1.3462,9.71177,9.71177,0,0,1,3.15-.4758,10.29854,10.29854,0,0,1,4.2225.7705,4.37089,4.37089,0,0,1,2.3814,1.9325,8.05794,8.05794,0,0,1,.6042,3.0802l.0637,1.7535a15.50133,15.50133,0,0,1-.1532,3.4419,3.78565,3.78565,0,0,1-1.4109,2.1024,8.48666,8.48666,0,0,1-3.2617,1.5241,20.07933,20.07933,0,0,1-4.8902.5828,22.25254,22.25254,0,0,1-5.7339-.5503,8.21752,8.21752,0,0,1-3.4974-1.7233,4.45714,4.45714,0,0,1-1.4995-2.3975,37.907,37.907,0,0,1-.3815-4.9048l-.1106-3.0447a47.71018,47.71018,0,0,1-.0091-5.2555,4.06862,4.06862,0,0,1,1.3956-2.5238,8.1236,8.1236,0,0,1,3.4974-1.8121,20.46136,20.46136,0,0,1,5.1874-.6473,20.11974,20.11974,0,0,1,5.9956.6835,6.6691,6.6691,0,0,1,3.4137,2.071A5.72655,5.72655,0,0,1,488.92549,326.66431Zm-8.3929,6.9571a2.42622,2.42622,0,0,0-.4648-1.5995,1.78493,1.78493,0,0,0-1.3421-.4207,1.76569,1.76569,0,0,0-1.3005.4287,2.2841,2.2841,0,0,0-.3581,1.6288l.1447,3.9826a3.15426,3.15426,0,0,0,.4649,1.8987,1.71623,1.71623,0,0,0,1.3319.4344,2.259,2.259,0,0,0,1.1425-.359q.5865-.3531.5311-1.8754Z" style="fill-rule:evenodd"/><path d="M519.628,327.939l.2666,7.34a11.15673,11.15673,0,0,1-.2954,3.6474,4.6951,4.6951,0,0,1-1.698,2.1531,8.42917,8.42917,0,0,1-3.1998,1.4622,19.00551,19.00551,0,0,1-4.2412.4807,24.53939,24.53939,0,0,1-5.172-.4,8.23573,8.23573,0,0,1-3.3246-1.3852,6.18544,6.18544,0,0,1-1.8066-2.0135,8.41508,8.41508,0,0,1-.6366-3.3859l-.279-7.6798a9.64579,9.64579,0,0,1,.6586-4.5488,5.62789,5.62789,0,0,1,3.1851-2.4546,16.89214,16.89214,0,0,1,5.9032-.9745,18.99076,18.99076,0,0,1,5.1142.5773,9.62682,9.62682,0,0,1,3.4146,1.5067,4.78918,4.78918,0,0,1,1.5827,2.0363A12.22839,12.22839,0,0,1,519.628,327.939Zm-8.7096-1.7558a5.42037,5.42037,0,0,0-.3471-2.1923q-.2835-.4389-1.2675-.4283a1.39741,1.39741,0,0,0-1.2558.4826,4.64523,4.64523,0,0,0-.2314,2.1714l.3901,10.7381a5.271,5.271,0,0,0,.3728,2.3077,1.54015,1.54015,0,0,0,1.2657.3807q.9627-.01035,1.2454-.4757a4.47761,4.47761,0,0,0,.2239-2.0829Z" style="fill-rule:evenodd"/><path d="M965.7877,629.61933c13.7798,20.1681,45.833,16.7443,58.1763,12.9258a40.2815,40.2815,0,0,0,25.9253-24.373c2.5857-6.9807,4.7123-24.8152,6.1818-34.0431,1.5934-10.006,1.9105-23.1868-4.4215-32.1584a12.93957,12.93957,0,0,0,4.5339-8.1618l2.3404-16.8576a12.93924,12.93924,0,0,0-11.037-14.59569l-61.9835-.123a12.93558,12.93558,0,0,0-12.297,8.89179c-17.7757-16.70709-54.9642-14.12119-71.0907,5.0985-12.203-17.81519-40.1888-18.71579-58.4881-12.83159a40.46136,40.46136,0,0,0-19.22572,12.889c-13.2524-18.97479-43.6886-19.25629-62.1283-10.41439-21.6679,10.38989-22.9435,29.36679-25.9268,49.47789h-25.9427q1.1538-2.90055,2.0292-5.9003c6.4671-21.5755-3.8778-42.06549-24.7517-47.18209-19.3651-4.7468-39.2609-2.1321-52.8528,12.92429-15.2428-20.54309-58.23969-19.868-75.98549-.1347-8.9851-11.80589-22.3144-14.592-36.0828-14.839-19.2142-.3448-38.0692,9.28219-44.6085,29.06749a79.68463,79.68463,0,0,0-3.4289,16.2784l-.5134,3.6977a12.93932,12.93932,0,0,0,11.0371,14.5957l10.1257.0536-26.0838,33.6354a12.93976,12.93976,0,0,0-2.623,6.1788l-2.1048,15.0351a12.93926,12.93926,0,0,0,11.0205,14.6082l63.526.125a12.93551,12.93551,0,0,0,11.931-7.9147c15.2154,13.711,47.25609,12.4508,63.60039,1.5489a12.93921,12.93921,0,0,0,9.3512,6.2408l63.526.125a12.93559,12.93559,0,0,0,12.8228-11.16l2.4941-17.964a12.93946,12.93946,0,0,0-.3087-5.0935l28.5182.0876q.0555,3.09915.4167,6.1816a33.29885,33.29885,0,0,0,6.6868,15.7225c8.7234,11.4966,23.0733,14.3611,36.5715,14.2442,15.2187-.1317,28.0267-4.5955,37.7675-15.8487,8.6943,13.0603,23.1758,16.0715,37.34962,15.924,15.5097-.1614,29.3355-4.2779,40.1467-16.2005,8.6851,13.0943,23.3757,16.3051,38.0236,16.1254,13.8984-.1705,24.8318-3.4901,34.3809-12.3934A40.73071,40.73071,0,0,0,965.7877,629.61933Zm-327.51552-55.6451h5.4688l-6.766,8.7396Zm-96.976,25.6704H538.554l8.1952-10.2178q.3414.9573.7589,1.8849A12.93935,12.93935,0,0,0,541.29619,599.64463Z" style="fill-rule:evenodd"/><path d="M400.81179,642.18473a12.94059,12.94059,0,0,0,5.4164,1.3003l17.9832-.3177a47.07259,47.07259,0,0,0,13.2404-2.3914c6.6502-2.1661,12.7122-6.394,16.0436-12.6226a38.83334,38.83334,0,0,0,3.9896-12.3022l9.0244-63.0531,1.2029-13.0224c.7924-9.4749-2.9582-18.2669-11.3-22.59989-9.724-5.051-23.8663-5.0955-35.3907-4.9429a12.93875,12.93875,0,0,0-5.582,1.3033,12.93885,12.93885,0,0,0-5.6599-1.3036h-37.1542a12.9392,12.9392,0,0,0-11.6157,7.23839l-9.7863,19.9394c-3.3843-20.5045-23.6596-29.27289-42.1141-29.19849-14.2339.0573-29.5014,4.7784-38.9369,16.06259-8.2971-13.29739-24.726-16.35039-39.2023-16.12619-9.4114.1457-20.0184,1.1374-28.4803,5.9019a12.8839,12.8839,0,0,0-8.56839-3.7982l-18.3335.3063a47.55773,47.55773,0,0,0-13.0225,2.3248c-6.4536,2.0524-12.5185,6.07969-15.9345,12.05269a37.35638,37.35638,0,0,0-4.3293,12.9249l-9.0285,63.0601-1.1879,12.9291a23.16922,23.16922,0,0,0,15.6919,24.7411c8.4625,2.9875,21.2503,3.0221,30.982,2.8961a12.93909,12.93909,0,0,0,10.4431-5.4046c8.5616,6.0795,19.01579,7.3818,29.20819,7.4885,14.9118.1562,30.2228-4.0366,39.9109-16.0245,8.5361,13.0327,23.2687,16.0848,37.766,15.9593,13.796-.1194,24.8895-3.5042,34.4045-12.3991a41.36147,41.36147,0,0,0,6.8831-8.1692h17.4337l-.5319,3.8312a12.93917,12.93917,0,0,0,11.037,14.5957l29.8223.123A12.9277,12.9277,0,0,0,400.81179,642.18473ZM189.5216,569.24443a12.9382,12.9382,0,0,0,4.221,1.3525l8.29989.0651-.6861,5.0956a62.28181,62.28181,0,0,0-12.76509.2719Z" style="fill-rule:evenodd"/><path d="M975.6333,620.09983c13.7798,20.1681,45.833,16.7443,58.1763,12.9258a40.2815,40.2815,0,0,0,25.9253-24.373c2.5858-6.9806,4.7123-24.8152,6.1818-34.0431,1.5934-10.006,1.9105-23.1868-4.4215-32.1584a12.93957,12.93957,0,0,0,4.5339-8.1618l2.3404-16.85759a12.93917,12.93917,0,0,0-11.037-14.5957l-61.9835-.1229a12.93549,12.93549,0,0,0-12.297,8.8917c-17.7757-16.7071-54.9642-14.1212-71.0907,5.0986-12.203-17.8153-40.1888-18.7159-58.4881-12.8317a40.461,40.461,0,0,0-19.22572,12.8891c-13.2524-18.9749-43.6886-19.2564-62.1283-10.4144-21.6679,10.3898-22.9435,29.36669-25.9268,49.47779h-25.9427q1.1538-2.9004,2.0292-5.9003c6.4671-21.5755-3.8778-42.06539-24.7516-47.18209-19.3652-4.7468-39.261-2.1321-52.8529,12.9243-15.2428-20.5431-58.23969-19.8679-75.98549-.1347-8.9851-11.8059-22.3144-14.592-36.0828-14.839-19.2142-.3448-38.0691,9.2822-44.6085,29.06749a79.69131,79.69131,0,0,0-3.4289,16.2784l-.5133,3.6977a12.93933,12.93933,0,0,0,11.037,14.5958l10.1257.0535-26.0838,33.6355a12.939,12.939,0,0,0-2.623,6.1787l-2.1048,15.0351a12.93926,12.93926,0,0,0,11.0205,14.6082l63.526.125a12.93551,12.93551,0,0,0,11.931-7.9147c15.2154,13.711,47.25609,12.4508,63.60039,1.549a12.93956,12.93956,0,0,0,9.3512,6.2407l63.526.125a12.93559,12.93559,0,0,0,12.8228-11.16l2.4941-17.964a12.93884,12.93884,0,0,0-.3087-5.0934l28.5182.0875q.0555,3.09915.4168,6.1816a33.29686,33.29686,0,0,0,6.6868,15.7225c8.7233,11.4966,23.0733,14.3611,36.5715,14.2443,15.2186-.1318,28.0266-4.5955,37.7674-15.8488,8.6943,13.0603,23.17582,16.0715,37.34962,15.924,15.5097-.1614,29.3356-4.2779,40.1467-16.2005,8.6851,13.0944,23.3757,16.3051,38.0236,16.1254,13.8985-.1705,24.8318-3.4901,34.3809-12.3934A40.73071,40.73071,0,0,0,975.6333,620.09983Zm-327.51552-55.6451h5.4688l-6.7659,8.7396Zm-96.976,25.6704h-2.7422l8.1952-10.2178q.3414.9573.7589,1.8849A12.93935,12.93935,0,0,0,551.14179,590.12513Z" style="fill-rule:evenodd"/><path d="M410.65739,632.66523a12.93756,12.93756,0,0,0,5.4164,1.3003l17.9832-.3177a47.076,47.076,0,0,0,13.2404-2.3913c6.6502-2.1661,12.7122-6.3941,16.0436-12.6227a38.83334,38.83334,0,0,0,3.9896-12.3022l9.0245-63.0531,1.2028-13.0224c.7924-9.4749-2.9581-18.26689-11.3-22.59989-9.724-5.0509-23.8663-5.0954-35.3907-4.9429a12.938,12.938,0,0,0-5.5819,1.3033,12.9395,12.9395,0,0,0-5.66-1.3035h-37.1542a12.9391,12.9391,0,0,0-11.6157,7.2383l-9.7863,19.93939c-3.3843-20.50449-23.6596-29.27279-42.1141-29.19849-14.2339.0573-29.5014,4.7785-38.9369,16.0627-8.297-13.2975-24.726-16.3504-39.2023-16.1263-9.4114.1457-20.0184,1.1374-28.4803,5.9019a12.88335,12.88335,0,0,0-8.5684-3.7981l-18.33349.3062a47.5584,47.5584,0,0,0-13.0225,2.3248c-6.4535,2.0524-12.5185,6.0797-15.9345,12.0527a37.357,37.357,0,0,0-4.3293,12.92489l-9.0285,63.0602-1.1879,12.929a23.16922,23.16922,0,0,0,15.6919,24.7411c8.4625,2.9875,21.2503,3.0221,30.982,2.8962a12.93928,12.93928,0,0,0,10.44309-5.4047c8.5616,6.0795,19.0158,7.3818,29.2082,7.4885,14.9119.1562,30.2229-4.0366,39.9109-16.0245,8.5361,13.0327,23.2687,16.0848,37.7661,15.9594,13.7959-.1195,24.8894-3.5042,34.4044-12.3991a41.36206,41.36206,0,0,0,6.8831-8.1693h17.4337l-.5319,3.8312a12.9394,12.9394,0,0,0,11.037,14.5958l29.8223.1229A12.9277,12.9277,0,0,0,410.65739,632.66523Zm-211.2902-72.9403a12.939,12.939,0,0,0,4.221,1.3525l8.2999.0651-.6861,5.0956a62.28189,62.28189,0,0,0-12.7651.2719Z" style="fill-rule:evenodd"/><path d="M976.9697,605.27843a39.74045,39.74045,0,0,0,1.2438,5.513q.04155.1374.089.2728a23.28071,23.28071,0,0,0,5.217,8.4603c7.4585,7.6917,19.3787,10.0458,29.7935,9.9931a58.76088,58.76088,0,0,0,18.5849-2.6727,33.8118,33.8118,0,0,0,21.7793-20.464,53.61736,53.61736,0,0,0,2.3523-9.1126c1.4868-8.3347,2.3305-15.5582,3.4979-23.6782.9241-6.4272,1.286-12.8492.0623-19.2321a20.82774,20.82774,0,0,0-4.0467-9.0579,21.98864,21.98864,0,0,0-8.653-6.3205h6.3228a6.46949,6.46949,0,0,0,6.4081-5.58l2.3405-16.85759a6.46988,6.46988,0,0,0-6.4082-7.3593H995.3425a6.46974,6.46974,0,0,0-6.3874,5.4409l-2.5065,15.56219c-1.8142-9.2269-8.1601-15.74959-16.8906-19.47a45.09564,45.09564,0,0,0-18.677-3.5525,49.67723,49.67723,0,0,0-22.695,5.0171,33.14771,33.14771,0,0,0-15.1554,14.44889,49.91517,49.91517,0,0,0-2.0486,4.7026,26.75405,26.75405,0,0,0-16.6972-20.77409c-6.7058-2.687-13.2771-3.3644-20.4462-3.3931a55.54583,55.54583,0,0,0-18.3858,2.8668c-10.1837,3.3736-18.71172,10.92429-22.08342,21.25149-1.4674-9.71-7.9832-16.69009-17.0814-20.56719a45.09518,45.09518,0,0,0-18.6769-3.5525,49.67723,49.67723,0,0,0-22.695,5.0171,33.14771,33.14771,0,0,0-15.1554,14.44889c-5.1116,10.1197-6.4945,24.8921-8.0267,35.9288a6.46869,6.46869,0,0,0-1.8302-.2643h-36.8764a6.46973,6.46973,0,0,0-4.142,1.4997c6.2025-9.6472,10.8402-22.7216,7.9617-34.2612a28.44124,28.44124,0,0,0-20.8778-20.51039,55.49915,55.49915,0,0,0-15.0726-1.8578c-11.8049-.015-22.5478,3.2853-30.7233,12.08859a34.67089,34.67089,0,0,0-6.332,9.3196,26.7089,26.7089,0,0,0-16.0949-18.01449c-6.7057-2.687-13.2771-3.3644-20.4462-3.3931-15.73069-.0629-32.36319,5.6986-39.25679,20.98929a28.441,28.441,0,0,0-20.4828-19.13209,55.49915,55.49915,0,0,0-15.0726-1.8578c-11.8049-.015-22.5479,3.2853-30.7234,12.08859a34.458,34.458,0,0,0-7.6461,12.6023,89.56318,89.56318,0,0,0-3.1299,14.9882l-.5252,3.7825a6.4693,6.4693,0,0,0,6.4082,7.3593h21.4967c-9.1492,12.2636-23.4498,30.408-34.1314,44.0131a6.46921,6.46921,0,0,0-1.3185,3.0983l-2.1048,15.0351a6.46911,6.46911,0,0,0,6.4072,7.3666h61.7385a6.46966,6.46966,0,0,0,6.4082-5.5799l2.0632-14.8605c3.5544,17.8955,19.952,22.4728,35.6645,22.5235,14.64379.0473,28.30319-4.4697,37.06089-16.1209l-.9339,6.6712a6.46921,6.46921,0,0,0,6.4072,7.3666h61.7386a6.46949,6.46949,0,0,0,6.4081-5.5799l2.4941-17.9641a6.46921,6.46921,0,0,0-6.4082-7.3593h-16.8059c6.7768-7.9983,18.2634-21.7529,23.8092-29.8028a6.46492,6.46492,0,0,0-.2462,1.0818l-2.5212,18.1593a6.46989,6.46989,0,0,0,6.4082,7.3594h36.8765q.10875,0,.2174-.0037-.06465.733-.1201,1.4669a43.28387,43.28387,0,0,0,.2504,10.4104,30.55236,30.55236,0,0,0,5.4673,12.6349,25.3208,25.3208,0,0,0,12.9394,9.1337,58.89812,58.89812,0,0,0,18.3706,2.4813,52.29457,52.29457,0,0,0,16.0528-2.3773,35.91511,35.91511,0,0,0,13.9888-8.2782,34.277,34.277,0,0,0,9.126-13.5121c2.7826,19.1512,19.49982,24.1797,35.95832,24.2328,13.0498.0422,25.7503-3.5736,34.7958-13.4172a33.41509,33.41509,0,0,0,6.6377-10.5174c2.0657,10.4405,8.6214,18.3141,18.3399,21.3881a58.89812,58.89812,0,0,0,18.3706,2.4813,52.29412,52.29412,0,0,0,16.0528-2.3773,35.91621,35.91621,0,0,0,13.9889-8.2782A34.25181,34.25181,0,0,0,976.9697,605.27843Zm5.7233-31.5063a6.47,6.47,0,0,0,2.3235,1.2137,6.624,6.624,0,0,0-2.5554.457Zm31.8836,1.461a6.47024,6.47024,0,0,0,3.7721-1.2202l-.4751,3.4219A6.47,6.47,0,0,0,1014.5766,575.23313Zm-185.59142,1.694a18.50971,18.50971,0,0,0,2.299,4.7011,22.96877,22.96877,0,0,0,4.5168,4.9431h-5.5144a6.4696,6.4696,0,0,0-2.7234.6012Zm-186.3629-19.5133a6.4701,6.4701,0,0,0,2.6581.5712h21.4967c-10.7913,14.4645-18.8495,24.5486-29.9889,38.7368q1.9491-10.57665,3.2949-21.2511C640.54238,572.003,642.30568,559.64623,642.62228,557.41383Zm-85.83769,41.9851a6.46974,6.46974,0,0,0-5.3311-2.8041h-16.8059c8.8342-10.4264,8.3909-10.0396,14.8904-17.9712a173.63682,173.63682,0,0,0,10.9373-14.8278q.61785-.96075,1.1992-1.9443c-.9541,10.234-.5175,18.1092,7.5882,24.7198h-5.5144a6.46975,6.46975,0,0,0-6.4024,5.5388A54.18,54.18,0,0,0,556.78459,599.39893Z" style="fill:#fff;fill-rule:evenodd"/><path d="M410.65539,624.16243a6.46956,6.46956,0,0,0,5.5392,3.3346q8.8761.1824,17.7466-.3178a47.20513,47.20513,0,0,0,11.4153-2.0944,25.17027,25.17027,0,0,0,6.0968-2.9224,18.30191,18.30191,0,0,0,6.2144-6.6382,37.89536,37.89536,0,0,0,3.283-10.2667q.918-4.53735,1.5351-9.1279l7.4648-53.7675a105.49333,105.49333,0,0,0,1.1647-12.697,25.895,25.895,0,0,0-.651-7.1559c-2.2795-9.39379-13.0076-12.29-21.1765-12.93009-6.6114-.5182-11.7558-.3964-18.3426-.3964a6.46962,6.46962,0,0,0-5.6599,3.3357,6.4699,6.4699,0,0,0-5.66-3.3357h-37.1542a6.46976,6.46976,0,0,0-5.8079,3.6192l-24.2717,49.45329,1.4132-10.1815.9222-7.8653a61.31058,61.31058,0,0,0,.2451-10.752,25.22135,25.22135,0,0,0-10.4997-18.92,37.028,37.028,0,0,0-6.8143-3.8206,45.09518,45.09518,0,0,0-18.6769-3.5525,49.67723,49.67723,0,0,0-22.695,5.0171,33.14771,33.14771,0,0,0-15.1554,14.44889,49.87676,49.87676,0,0,0-2.8424,6.9814c-.5129-9.3077-4.5351-18.32379-13.6323-22.44739-7.2472-3.285-15.7743-4.1047-23.7392-4.0638-10.4708.0538-23.32,1.4644-31.3443,9.3988a6.46913,6.46913,0,0,0-6.2907-7.3144q-8.868-.19755-17.73019.3234a48.67628,48.67628,0,0,0-11.2453,2.042,25.46388,25.46388,0,0,0-6.1843,2.8942,18.48624,18.48624,0,0,0-6.071,6.25639c-1.6839,2.8587-2.9143,7.4456-3.5224,10.7065q-.9225,4.54545-1.5407,9.1449l-7.4647,53.7667a104.19488,104.19488,0,0,0-1.1579,12.6925c-.2239,5.707,1.017,10.7001,5.1957,14.3094a20.109,20.109,0,0,0,6.2684,3.6697,37.53127,37.53127,0,0,0,10.3505,2.1201c6.8713.5077,11.5231.3884,18.3486.3884a6.46959,6.46959,0,0,0,6.4082-5.5799l.7866-5.6653c4.55729,7.0159,12.65909,11.0651,20.75879,12.382a67.24168,67.24168,0,0,0,11.8424.9462c8.2637-.0181,15.0636-1.0186,22.2929-4.1461,9.0882-3.9317,15.1549-11.1213,18.4118-20.6792a30.20507,30.20507,0,0,0,5.5385,13.1452,25.32121,25.32121,0,0,0,12.9394,9.1337,58.89812,58.89812,0,0,0,18.3706,2.4813,52.29457,52.29457,0,0,0,16.0528-2.3773,35.91511,35.91511,0,0,0,13.9888-8.2782,34.89229,34.89229,0,0,0,7.8078-10.395,6.46992,6.46992,0,0,0,2.4524.4828h25.9047l-1.5536,11.1905a6.46921,6.46921,0,0,0,6.4082,7.3593h28.0566A6.4697,6.4697,0,0,0,410.65539,624.16243Zm13.0804-91.0703a6.46986,6.46986,0,0,0,5.213,2.7627q1.6848.04725,3.3703.0447l-.5268,4.6381-7.4752,53.8426a54.88055,54.88055,0,0,1-1.1195,6.302q-.4332.02955-.8667.0531l2.1285-15.331a6.46989,6.46989,0,0,0-6.4082-7.3594h-.5565Zm-149.6024,22.0512-1.6947,12.2064a16.67765,16.67765,0,0,0-3.3688-5.9634A21.11539,21.11539,0,0,0,274.13339,555.14333Zm-73.5486-19.2926q-.22785,1.2921-.3862,2.595l-1.2392,8.9256a6.46989,6.46989,0,0,0,6.4082,7.3594h13.9118l-2.2167,15.8117a6.47013,6.47013,0,0,0,.0656,2.1654h-16.053a6.46963,6.46963,0,0,0-6.39469,5.4876q-1.38945,9.0477-2.2213,18.168-.15135,2.361-.1905,4.7273a29.38506,29.38506,0,0,0-5.0597-.3195l.5402-4.6166,7.4762-53.8492.5902-3.7828.5631-2.5408Q198.47925,535.85223,200.58479,535.85073Z" style="fill:#fff;fill-rule:evenodd"/><path d="M203.15839,515.65244l-1.9066,13.73329a38.12037,38.12037,0,0,0-7.52889.4557,4.54656,4.54656,0,0,0-2.7937,2.1153q-1.02915,1.65975-2.1044,9.4051l-7.4912,53.9572q-1.00305,7.22475-.6265,9.0146a3.00338,3.00338,0,0,0,1.9966,2.3757q1.62015.58575,7.7315.5858l-1.9067,13.7334h-8.8198q-12.2226,0-17.6584-2.1154-5.4357-2.1153-6.7067-6.2158-1.2711-4.1004.5814-17.4433l7.473-53.8271q1.8435-13.27785,4.2274-17.4434,2.38395-4.1655,8.5762-6.2484,6.19215-2.08274,18.137-2.08269Z" style="fill:#cc1f1e;fill-rule:evenodd"/><path d="M257.09959,561.311q6.1089,2.0187,8.5966,6.6099,2.4876,4.5912.1369,21.523-1.7448,12.5679-5.7634,19.5033a25.5876,25.5876,0,0,1-12.0206,10.5497q-8.0022,3.6144-19.7387,3.6144-13.3338,0-20.3555-4.1982-7.02165-4.19805-8.5726-10.2837-1.551-6.08565.5364-21.1208l1.1566-8.3312H229.132l-2.3766,17.118q-.94875,6.83415-.3383,8.6891.61065,1.8549,3.5968,1.855a4.924,4.924,0,0,0,4.6311-2.3432q1.36695-2.34315,2.7405-12.2363l1.0121-7.2898q.8403-6.0531-.2295-8.8519a5.83237,5.83237,0,0,0-3.7951-3.6774q-2.72535-.8787-10.9021-1.0088l2.1236-15.2955q10.00035,0,12.461-.716a6.37544,6.37544,0,0,0,3.8366-3.1242,22.06863,22.06863,0,0,0,2.09-7.5501l.8132-5.8578q.76815-5.53245-.2032-7.2898a3.68585,3.68585,0,0,0-3.5409-1.7573,4.87775,4.87775,0,0,0-4.2508,1.8549q-1.33395,1.85505-2.1743,7.9081l-1.2019,8.6566h-28.0566l1.247-8.982q2.0964-15.1002,10.1943-20.4048t24.1402-5.30459q20.07015,0,26.2029,7.34969,6.1326,7.34985,4.3176,20.4232-1.228,8.84565-4.344,12.7809T257.09959,561.311Z" style="fill:#cc1f1e;fill-rule:evenodd"/><path d="M347.37909,551.32013l-4.8797,35.1471q-1.66275,11.976-3.8107,17.4434a28.42253,28.42253,0,0,1-7.1828,10.2186,29.95332,29.95332,0,0,1-11.5048,6.8342,45.82173,45.82173,0,0,1-14.1092,2.0828q-10.0698,0-16.434-2.1804a19.10166,19.10166,0,0,1-9.6811-6.8016,24.24593,24.24593,0,0,1-4.2743-9.7306q-.95745-5.1093.5878-16.2392l5.1056-36.7743q2.0151-14.51445,5.6919-21.7391,3.67665-7.2246,12.2338-11.5855a43.20759,43.20759,0,0,1,19.8771-4.36079,39.69066,39.69066,0,0,1,16.1082,3.0265q6.8718,3.02654,9.8776,7.38739a20.47185,20.47185,0,0,1,3.5315,9.8282Q349.04174,539.344,347.37909,551.32013Zm-26.8278-8.8518q1.1658-8.39625.5913-10.5116-.57435-2.1153-3.769-2.1153a4.73587,4.73587,0,0,0-4.4438,2.2455q-1.3188,2.2455-2.4483,10.3814l-7.1387,51.4188q-1.27425,9.1773-.5987,11.0648.67545,1.8876,3.8006,1.8876a4.66414,4.66414,0,0,0,4.4046-2.213q1.2795-2.21295,2.3549-9.9583Z" style="fill:#cc1f1e;fill-rule:evenodd"/><path d="M419.62529,515.65244l-9.5605,68.86219h7.9864l-2.494,17.964h-7.9864l-2.5754,18.5499h-28.0566l2.5753-18.5499h-33.3346l2.494-17.964,33.7976-68.86219Zm-37.6171,68.86219,6.226-44.8451-18.6224,44.8451Z" style="fill:#cc1f1e;fill-rule:evenodd"/><path d="M430.94519,515.65244h8.8198q11.945,0,17.5588,2.08269,5.61375,2.0829,6.8411,6.2484,1.2273,4.16565-.6161,17.4434l-7.4731,53.8271q-1.8525,13.3428-4.2274,17.4433-2.375,4.10055-8.4327,6.2158-6.05775,2.11545-18.2805,2.1154h-8.8198l1.9067-13.7334q6.18075,0,7.9288-.5858a4.53656,4.53656,0,0,0,2.6563-2.3757q.90825-1.7898,1.9113-9.0146l7.4912-53.9572q1.07535-7.7454.4724-9.4051a3.19141,3.19141,0,0,0-2.2412-2.1153,35.97375,35.97375,0,0,0-7.4023-.4557Z" style="fill:#cc1f1e;fill-rule:evenodd"/><path d="M551.45349,603.06443l-2.4941,17.9641h-61.7385l2.1047-15.0352q33.26925-42.0462,39.8301-52.0371t7.338-15.5884q.5964-4.29585-.6746-6.4111-1.2711-2.1153-4.47-2.1153a6.198,6.198,0,0,0-5.089,2.3431q-1.89,2.34315-2.8569,9.3075l-1.3916,10.0234h-25.1399l.5332-3.8402a83.103,83.103,0,0,1,2.9105-13.9612,28.20674,28.20674,0,0,1,6.188-10.0559,28.899,28.899,0,0,1,10.9701-7.485,40.884,40.884,0,0,1,15.0058-2.5384q16.73685,0,24.2337,7.77789,7.49685,7.7778,5.8432,19.6888-1.2561,9.0471-7.4838,19.1357-6.22785,10.0884-34.3862,42.8273Z" style="fill:#cc1f1e;fill-rule:evenodd"/><path d="M563.74829,593.041h28.0566q-1.021,7.3548-1.0793,9.2749a4.16711,4.16711,0,0,0,1.2542,3.2218,5.29118,5.29118,0,0,0,3.88189,1.3018,5.7976,5.7976,0,0,0,3.7135-1.2367,5.51774,5.51774,0,0,0,2.0053-3.1893q.44475-1.95255,1.267-7.8755l2.3314-16.7925a16.79413,16.79413,0,0,1-7.1313,6.346,24.639,24.639,0,0,1-10.64129,2.1153,21.59348,21.59348,0,0,1-13.0694-3.9052q-5.36085-3.90525-6.1991-9.3725-.8382-5.46735.454-14.7748l1.1657-8.3963a110.93316,110.93316,0,0,1,3.2237-16.467,24.69717,24.69717,0,0,1,6.2137-9.9909,30.28751,30.28751,0,0,1,11.7538-7.127,49.07436,49.07436,0,0,1,16.32519-2.5384q11.25045,0,18.0664,2.9289a20.42193,20.42193,0,0,1,10.0107,8.42879,21.11345,21.11345,0,0,1,2.9796,11.5529q-.2154,6.0531-2.6281,23.4314l-2.0332,14.6446q-2.6115,18.8103-4.0481,25.1562a26.94525,26.94525,0,0,1-6.4938,12.0086,31.21224,31.21224,0,0,1-12.7422,8.4939,49.68085,49.68085,0,0,1-17.26869,2.8313q-11.8755,0-18.9135-3.5798a18.3415,18.3415,0,0,1-9.4331-10.0885Q562.37469,602.93423,563.74829,593.041Zm32.62-32.869q-.92175,6.63885.7018,8.201a5.05,5.05,0,0,0,3.568,1.5621,5.55689,5.55689,0,0,0,4.5466-1.9852q1.62975-1.9851,2.4341-7.7779l2.6476-19.0706q.9669-6.9642-.0197-9.1122-.98655-2.14785-3.9728-2.1478a6.7831,6.7831,0,0,0-3.9805,1.6597q-2.175,1.65975-3.1871,8.9495Z" style="fill:#cc1f1e;fill-rule:evenodd"/><path d="M699.86208,603.06443l-2.494,17.9641h-61.7386l2.1048-15.0352q33.2691-42.0462,39.83-52.0371,6.56085-9.9909,7.338-15.5884.5964-4.29585-.6746-6.4111-1.2711-2.1153-4.47-2.1153a6.19763,6.19763,0,0,0-5.0889,2.3431q-1.89,2.34315-2.857,9.3075l-1.3916,10.0234h-25.1398l.5331-3.8402a83.09151,83.09151,0,0,1,2.9106-13.9612,28.20531,28.20531,0,0,1,6.188-10.0559,28.89741,28.89741,0,0,1,10.9701-7.485,40.88367,40.88367,0,0,1,15.0058-2.5384q16.7367,0,24.2336,7.77789,7.49685,7.7778,5.8432,19.6888-1.25595,9.0471-7.4838,19.1357-6.2277,10.0884-34.3862,42.8273Z" style="fill:#cc1f1e;fill-rule:evenodd"/><polygon points="749.904 568.764 747.383 586.923 710.506 586.923 713.027 568.764 749.904 568.764" style="fill:#cc1f1e;fill-rule:evenodd"/><path d="M826.009,551.32013l-4.8796,35.1471q-1.66275,11.976-3.8107,17.4434a28.42253,28.42253,0,0,1-7.1828,10.2186,29.95332,29.95332,0,0,1-11.5048,6.8342,45.82173,45.82173,0,0,1-14.1092,2.0828q-10.0698,0-16.434-2.1804a19.10166,19.10166,0,0,1-9.6811-6.8016,24.24593,24.24593,0,0,1-4.2743-9.7306q-.95745-5.1093.5878-16.2392l5.1056-36.7743q2.0151-14.51445,5.6918-21.7391,3.6768-7.2246,12.2339-11.5855a43.20759,43.20759,0,0,1,19.8771-4.36079,39.69066,39.69066,0,0,1,16.1082,3.0265q6.8718,3.02654,9.8776,7.38739a20.47288,20.47288,0,0,1,3.5315,9.8282Q827.67173,539.344,826.009,551.32013Zm-26.8277-8.8518q1.1658-8.39625.5913-10.5116-.57435-2.1153-3.769-2.1153a4.73587,4.73587,0,0,0-4.4438,2.2455q-1.3188,2.2455-2.4483,10.3814l-7.1387,51.4188q-1.27425,9.1773-.5987,11.0648.67545,1.8876,3.8006,1.8876a4.66414,4.66414,0,0,0,4.4046-2.213q1.2795-2.21295,2.3549-9.9583Z" style="fill:#cc1f1e;fill-rule:evenodd"/><path d="M830.28658,593.041H858.3432q-1.02105,7.3548-1.0793,9.2749a4.16739,4.16739,0,0,0,1.2541,3.2218,5.29146,5.29146,0,0,0,3.882,1.3018,5.7976,5.7976,0,0,0,3.7135-1.2367,5.51824,5.51824,0,0,0,2.0053-3.1893q.44475-1.95255,1.267-7.8755l2.3314-16.7925a16.79413,16.79413,0,0,1-7.1313,6.346,24.639,24.639,0,0,1-10.6413,2.1153,21.59358,21.59358,0,0,1-13.06942-3.9052q-5.36085-3.90525-6.1991-9.3725-.8382-5.46735.454-14.7748l1.1657-8.3963a110.93316,110.93316,0,0,1,3.2237-16.467,24.69722,24.69722,0,0,1,6.21372-9.9909,30.28751,30.28751,0,0,1,11.7538-7.127,49.07446,49.07446,0,0,1,16.3252-2.5384q11.25045,0,18.0663,2.9289a20.42174,20.42174,0,0,1,10.0108,8.42879,21.11345,21.11345,0,0,1,2.9796,11.5529q-.2154,6.0531-2.6281,23.4314l-2.0332,14.6446q-2.6115,18.8103-4.0481,25.1562a26.94722,26.94722,0,0,1-6.4938,12.0086,31.21224,31.21224,0,0,1-12.7422,8.4939,49.68127,49.68127,0,0,1-17.2687,2.8313q-11.8755,0-18.91352-3.5798a18.342,18.342,0,0,1-9.4332-10.0885Q828.913,602.93423,830.28658,593.041Zm32.62-32.869q-.92175,6.63885.7018,8.201a5.05,5.05,0,0,0,3.568,1.5621,5.55689,5.55689,0,0,0,4.5466-1.9852q1.62975-1.9851,2.434-7.7779l2.6477-19.0706q.9669-6.9642-.0197-9.1122-.98655-2.14785-3.9728-2.1478a6.7836,6.7836,0,0,0-3.9806,1.6597q-2.17485,1.65975-3.187,8.9495Z" style="fill:#cc1f1e;fill-rule:evenodd"/><path d="M979.279,551.32013l-4.8797,35.1471q-1.6626,11.976-3.8107,17.4434a28.4213,28.4213,0,0,1-7.1828,10.2186,29.95258,29.95258,0,0,1-11.5048,6.8342,45.82108,45.82108,0,0,1-14.1091,2.0828q-10.06995,0-16.4341-2.1804a19.10209,19.10209,0,0,1-9.6811-6.8016,24.24731,24.24731,0,0,1-4.2743-9.7306q-.9573-5.1093.5879-16.2392l5.1055-36.7743q2.0151-14.51445,5.6919-21.7391t12.2339-11.5855a43.20688,43.20688,0,0,1,19.877-4.36079,39.69,39.69,0,0,1,16.1082,3.0265q6.8718,3.02654,9.8776,7.38739a20.473,20.473,0,0,1,3.5316,9.8282Q980.9416,539.344,979.279,551.32013Zm-26.8277-8.8518q1.16565-8.39625.5913-10.5116-.5745-2.1153-3.769-2.1153a4.73614,4.73614,0,0,0-4.4439,2.2455q-1.31865,2.2455-2.4483,10.3814l-7.1387,51.4188q-1.2741,9.1773-.5987,11.0648.6756,1.8876,3.8006,1.8876a4.6642,4.6642,0,0,0,4.4047-2.213q1.2795-2.21295,2.3548-9.9583Z" style="fill:#cc1f1e;fill-rule:evenodd"/><path d="M1055.5532,515.65244l-2.3404,16.85749h-34.7931l-2.485,17.899a24.86523,24.86523,0,0,1,17.8093-7.2247q11.5977,0,16.6905,6.0857,5.0928,6.08565,2.6891,23.3988l-2.0874,15.0351q-1.55415,11.1951-3.4275,16.4346a26.66965,26.66965,0,0,1-6.2425,9.6979,28.33393,28.33393,0,0,1-11.4006,6.8342,52.28875,52.28875,0,0,1-16.6846,2.3757q-10.83375,0-18.6055-3.5473-7.7718-3.5472-10.2682-10.5766t-.4542-21.7391l.7952-5.7277h28.0567l-.9127,6.5738a94.91208,94.91208,0,0,0-1.2512,14.5144q.16755,4.29585,4.6816,4.2958a5.28439,5.28439,0,0,0,3.5399-1.2367,4.88133,4.88133,0,0,0,1.7594-2.6686q.303-1.4319,1.969-12.4316l2.9007-20.893q.8223-5.9229-.199-8.0708-1.02135-2.14785-4.077-2.1479a5.53536,5.53536,0,0,0-3.4176,1.1065,6.16449,6.16449,0,0,0-2.0313,2.3757,28.53245,28.53245,0,0,0-1.1997,5.8904H986.7882l8.5543-53.11109Z" style="fill:#cc1f1e;fill-rule:evenodd"/><polygon points="341.569 694.106 338.925 746.164 353.705 746.164 354.671 715.389 355.626 715.389 360.39 746.164 369.105 746.164 376.995 715.389 377.95 715.389 375.791 746.164 390.57 746.164 393.214 694.106 373.898 694.106 366.543 719.045 365.707 719.045 360.885 694.106 341.569 694.106" style="fill-rule:evenodd"/><path d="M399.08769,711.66773l-1.3517,26.6171q-.444,4.92315,2.9438,6.5906,3.3879,1.6674,12.8603,1.5453,9.88965.1281,13.5394-1.5213,3.64965-1.6494,3.6892-6.6146l1.3518-26.6171q.43515-4.9692-3.0753-6.6467-3.5103-1.67745-13.0843-1.5532-9.8673-.1122-13.3637,1.6013Q399.10084,706.78258,399.08769,711.66773Zm14.189-.1282a2.27036,2.27036,0,0,1,.5145-1.5874,2.76028,2.76028,0,0,1,1.9869-.5291,2.06738,2.06738,0,0,1,1.7213.5772,2.23925,2.23925,0,0,1,.3258,1.5393l-1.3615,26.8094a2.72983,2.72983,0,0,1-.394,1.5714q-.4005.59325-1.8713.6093a2.45776,2.45776,0,0,1-1.8418-.5612,2.08479,2.08479,0,0,1-.4414-1.6195Z" style="fill-rule:evenodd"/><path d="M470.63809,713.39853q.4323-4.70025-1.3872-7.2965-1.81965-2.59635-8.2382-2.6342a17.8893,17.8893,0,0,0-7.9895,2.0493l.091-1.7929h-14.1824l-2.1553,42.44h14.1824l1.7448-34.3566a2.12573,2.12573,0,0,1,.4944-1.4854,2.60357,2.60357,0,0,1,1.8815-.5145,2.365,2.365,0,0,1,1.7839.521,1.99084,1.99084,0,0,1,.3861,1.5309l-.4624,9.1051h13.4666Z" style="fill-rule:evenodd"/><path d="M493.91039,705.51713a15.1785,15.1785,0,0,0-3.8392-1.529,16.70673,16.70673,0,0,0-4.0615-.5203q-6.92955.0438-9.0735,2.6583a11.21285,11.21285,0,0,0-2.1571,7.2735l-1.1693,23.0253q-.4542,4.61685,1.4046,7.2493,1.85895,2.6325,8.698,2.6824a18.71426,18.71426,0,0,0,4.217-.4884,15.97317,15.97317,0,0,0,4.0078-1.4969l-.2019,3.9771a1.69769,1.69769,0,0,1-.5178,1.3574,3.39942,3.39942,0,0,1-2.0873.4418q-.1797.0039-.5402.0321-.3606.02805-.8994.0321h-14.1851l-.2991,5.8911h17.8957q7.77945.1023,11.2162-1.4173,3.43665-1.51965,3.5766-5.8874l2.289-45.074h-14.1824Zm-.3254,6.4073-1.3191,25.9757a2.16068,2.16068,0,0,1-.5129,1.5553,2.85224,2.85224,0,0,1-1.9853.4971,2.16376,2.16376,0,0,1-1.7241-.5211,2.12889,2.12889,0,0,1-.3263-1.5313l1.3192-25.9757a2.21694,2.21694,0,0,1,.4955-1.5073,2.53237,2.53237,0,0,1,1.883-.5453,2.36526,2.36526,0,0,1,1.784.5212A1.99168,1.99168,0,0,1,493.585,711.92443Z" style="fill-rule:evenodd"/><path d="M547.34049,711.66773q.43515-4.9692-3.0752-6.6467-3.51045-1.67745-13.0844-1.5532-9.8673-.1122-13.3636,1.6013-3.4965,1.71345-3.5096,6.5986l-.3224,6.3496h14.1824l.329-6.4778a2.27711,2.27711,0,0,1,.5445-1.5874,2.53,2.53,0,0,1,1.8373-.5291,2.33558,2.33558,0,0,1,1.8284.5291,2.17216,2.17216,0,0,1,.3383,1.5874l-.4006,7.8889-12.1266,3.7199a14.4896,14.4896,0,0,0-5.5467,2.7339,5.09787,5.09787,0,0,0-1.5756,3.744l-.368,7.2475q-.4323,4.5507,1.3411,7.0329,1.77345,2.4822,8.1851,2.5141a21.52482,21.52482,0,0,0,4.695-.5123,17.0745,17.0745,0,0,0,4.1257-1.4728l-.0878,1.7286h14.3018Zm-15.0607,14.9441-.5961,11.7371a2.63139,2.63139,0,0,1-.4401,1.5954,2.23966,2.23966,0,0,1-1.8252.5853,2.49869,2.49869,0,0,1-1.843-.5372,2.0865,2.0865,0,0,1-.4402-1.6435l.4495-8.851q.07335-1.443,2.2621-2.1165Z" style="fill-rule:evenodd"/><path d="M586.93179,713.39933q.4542-4.6167-1.4046-7.2492-1.859-2.6325-8.6981-2.6823a17.45237,17.45237,0,0,0-4.1736.5203,18.32787,18.32787,0,0,0-4.0544,1.529l.0911-1.7929h-14.1825l-2.1553,42.44h14.1825l1.7448-34.3566a2.125,2.125,0,0,1,.4944-1.4854,2.60328,2.60328,0,0,1,1.8814-.5145,2.36487,2.36487,0,0,1,1.784.5211,1.99118,1.99118,0,0,1,.386,1.5312l-1.7421,34.3042h14.1825Z" style="fill-rule:evenodd"/><path d="M595.87048,694.10613l-.4884,9.6181h-3.69849l-.2992,5.8911h3.69849l-1.41719,27.9057a11.465,11.465,0,0,0,.47439,5.0008q.73395,1.9083,3.6857,2.7816a35.76194,35.76194,0,0,0,9.345.8608h5.8458l.2959-5.827h-1.7896a6.5159,6.5159,0,0,1-3.0038-.464,1.45949,1.45949,0,0,1-.7132-1.5201l1.4594-28.7378h5.6074l.2992-5.8911h-5.6074l.4885-9.6181Z" style="fill-rule:evenodd"/><path d="M618.55168,711.66773l-1.3518,26.6171q-.444,4.92315,2.9439,6.5906,3.38775,1.6674,12.8603,1.5453,9.88965.1281,13.5393-1.5213,3.6498-1.6494,3.6893-6.6146l1.3517-26.6171q.43515-4.9692-3.0752-6.6467-3.51045-1.67745-13.0844-1.5532-9.8673-.1122-13.3636,1.6013Q618.56483,706.78258,618.55168,711.66773Zm14.1889-.1282a2.26991,2.26991,0,0,1,.5146-1.5874,2.76028,2.76028,0,0,1,1.9869-.5291,2.06752,2.06752,0,0,1,1.7213.5772,2.23925,2.23925,0,0,1,.3258,1.5393l-1.3615,26.8094a2.7306,2.7306,0,0,1-.394,1.5714q-.4005.59325-1.8713.6093a2.4576,2.4576,0,0,1-1.8418-.5612,2.0848,2.0848,0,0,1-.4415-1.6195Z" style="fill-rule:evenodd"/><polygon points="655.532 703.724 662.084 746.164 676.039 746.164 680.893 721.032 681.728 721.032 684.149 746.164 698.104 746.164 708.847 703.724 695.012 703.724 691.115 728.792 690.16 728.792 688.452 703.724 676.047 703.724 671.673 728.792 670.838 728.792 669.607 703.724 655.532 703.724" style="fill-rule:evenodd"/><path d="M746.00688,713.39933q.4542-4.6167-1.4047-7.2492t-8.698-2.6823a17.45318,17.45318,0,0,0-4.1737.5203,18.32522,18.32522,0,0,0-4.0543,1.529l.091-1.7929h-14.1825l-2.1553,42.44h14.1825l1.7448-34.3566a2.12543,2.12543,0,0,1,.4944-1.4854,2.60345,2.60345,0,0,1,1.8814-.5145,2.36472,2.36472,0,0,1,1.784.5211,1.99159,1.99159,0,0,1,.3861,1.5312l-1.7422,34.3042h14.1825Z" style="fill-rule:evenodd"/><path d="M752.767,737.00293l-.4652,9.1613h5.846l-.0587,1.1542a2.88286,2.88286,0,0,1-1.3986,2.5808,10.2504,10.2504,0,0,1-4.6264.9458l-.215,4.232q7.42935-.02205,10.7108-2.0278a7.14312,7.14312,0,0,0,3.4178-6.3079l.4946-9.7384Z" style="fill-rule:evenodd"/><polygon points="793.979 694.106 801.593 746.164 818.888 746.164 825.093 715.582 825.928 715.582 829.146 746.164 846.203 746.164 858.031 694.106 842.406 694.106 837.867 724.753 837.032 724.753 833.46 694.106 819.027 694.106 813.058 724.753 812.223 724.753 810.081 694.106 793.979 694.106" style="fill-rule:evenodd"/><polygon points="857.877 694.106 865.609 746.164 884.691 746.164 897.71 694.106 882.087 694.106 876.241 729.37 875.645 729.37 873.858 694.106 857.877 694.106" style="fill-rule:evenodd"/></svg>