<?xml version="1.0" encoding="utf-8"?>
<!-- Generator: Adobe Illustrator 25.2.3, SVG Export Plug-In . SVG Version: 6.00 Build 0)  -->
<svg version="1.1" id="Layer_1" xmlns="http://www.w3.org/2000/svg" xmlns:xlink="http://www.w3.org/1999/xlink" x="0px" y="0px"
	 viewBox="0 0 341.2 137.9" style="enable-background:new 0 0 341.2 137.9;" xml:space="preserve">
<style type="text/css">
	.st0{fill-rule:evenodd;clip-rule:evenodd;fill:#CC1F1E;}
	.st1{fill-rule:evenodd;clip-rule:evenodd;fill:#FFFFFF;}
	.st2{fill-rule:evenodd;clip-rule:evenodd;}
	.st3{fill-rule:evenodd;clip-rule:evenodd;fill:#8B8C8D;}
	.st4{fill-rule:evenodd;clip-rule:evenodd;fill:#B0B0B0;}
	.st5{fill-rule:evenodd;clip-rule:evenodd;fill:#7F7F7F;}
	.st6{fill-rule:evenodd;clip-rule:evenodd;fill:#909090;}
	.st7{fill-rule:evenodd;clip-rule:evenodd;fill:#C4C4C4;}
	.st8{fill-rule:evenodd;clip-rule:evenodd;fill:#EBCAA9;}
</style>
<g>
	<g>
		<path d="M213.8,135.7c-0.9,0-29.3-6.7-60.7-5.3c-31.4,1.5-49,5.6-49,5.6S88,109,63.9,87C39.8,65,2.3,45,2.3,45l15-2.6
			c0,0,61.1,20.3,101.2,37.6C165.7,100.2,213.8,135.7,213.8,135.7z"/>
		<path class="st0" d="M132.6,81.4l-27.3-12.6c0,0,33.3-17.9,76-22.9c42.8-5,75.7,0.3,75.7,0.3l0.9,6.5c0,0-38.7-1.8-71.9,7.6
			C152.8,69.7,132.6,81.4,132.6,81.4z M181,103.1l-29.9-12.9c0,0,32.6-19.1,75.1-25.6c42.6-6.5,75.7-2.5,75.7-2.5l1.5,3.4
			c0,0-39.1,2.7-71.9,13.2C198.6,89.4,181,103.1,181,103.1z M225,133.7l-29.3-18.8c0,0,28.5-24.4,71.6-34.3
			c35.8-8.2,61.9-5.3,61.9-5.3l1.5,2.9c0,0-25.2,1.5-56.5,15.9C242.7,108.4,225,133.7,225,133.7z"/>
		<path class="st1" d="M109.8,84.9c-5.1-3-12.7-6.8-20.6-10.5L82,74.5c3.8,2,7.7,4.2,11.5,6.5c2.4,1.4,4.9,3,7.6,4.7
			c2.9-0.2,6.4-0.3,9.3-0.5C110.2,85.1,110,85,109.8,84.9z"/>
		<path class="st1" d="M55.3,58.9l-4.7,0.6c0,0,8.3,3.4,19.5,8.9c2-0.1,4-0.2,5.7-0.3C64.6,62.9,55.3,58.9,55.3,58.9z"/>
		<path class="st1" d="M164.3,120.6c0,0-20.9-14.3-38.3-25.6l-9.9,0.6c17.3,11.7,34,24,34,24L164.3,120.6z"/>
	</g>
	<path class="st2" d="M208.4,91.8h4.4h77.9l0.1-0.9c5.8,2,14.7,1.4,20.7-0.2l1.4,1.1h12.4l2.1-27.7c0.4-2.4,0-4.9-1.4-7h0.3
		l-12-50.1H213.9v0.6c-2.6-0.7-29.2-2.4-34.4,2.9C178,9.4,175,8.1,173,7.9c-8.6-1-28.1-0.8-36.9-0.8v2l-3.7-1.3
		c-5.2-1-31.6-0.8-37.1-0.8v10l-2.4-10H63.1l-0.8,3.6c-1.9-1.8-4.4-2.8-7-2.9l-19-0.7l-18,0v50.1H45V43l9.9-0.4l-3.4,14.6h89.2
		L138,91.8h24.1l0.8-10.3l6.1-0.2l-3.6,10.5H208.4z M254.4,52.6h-6.1V23h6.1V52.6z M221.7,52.6h-0.2c0.1-0.1,0.1-0.2,0.2-0.3V52.6z"
		/>
	<path class="st2" d="M213.7,87.4h4.4H296l0.1-0.9c5.8,2,14.7,1.4,20.7-0.2l1.4,1.1h12.4l2.1-27.7c0.4-2.4,0-4.9-1.4-7h0.3l-12-50.1
		H219.1v0.6c-2.6-0.7-29.2-2.4-34.4,2.9c-1.5-1.2-4.5-2.5-6.6-2.7c-8.6-1-28.1-0.8-36.9-0.8v2l-3.7-1.3c-5.2-1-31.6-0.8-37.1-0.8v10
		L98,2.7H68.4l-0.8,3.6c-1.9-1.8-4.4-2.8-7-2.9l-19-0.7l-18,0v50.1h26.6V38.6l9.9-0.4l-3.4,14.6h89.2l-2.6,34.6h24.1l0.8-10.3
		l6.1-0.2l-3.6,10.5H213.7z M259.6,48.2h-6.1V18.5h6.1V48.2z M227,48.2h-0.2c0.1-0.1,0.1-0.2,0.2-0.3V48.2z"/>
	<g>
		<path class="st1" d="M293.7,82.1c4.8,4.8,19.1,2.6,23.6,1.2l1.7,1.4h9l1.9-25.4c0.7-5.7-2.7-7.7-7.3-8.3l-10.4-0.4l-10.7,0.4
			c-2.1,0.2-4,0.7-5.6,2l0.2-2.2h-17l-0.4,7l-3.1-7h-14.4h-1.8h-11.6h-5.4h-13.2l-1.6,6.7l-0.5-6.7h-18.7l7.4,33.9h19.5l5.8-15.6
			l-1.2,15.6h17h1.8h15.3l0.4-7.2l3.1,7.2h16.1L293.7,82.1z"/>
		<path class="st1" d="M178.1,73.7l-3.8,11h18.8l1.4-6.1h1.1l0.5,6.1h18.8L208,50.8h-22l-1.8,5.2c-0.9-3.2-3.5-4.3-6.7-4.8
			c-3.8-0.5-22.1-0.5-28.9-0.5l-2.5,33.9h18.8l0.8-10.2l10.6-0.4L178.1,73.7z"/>
		<path class="st1" d="M283.5,50.1h19l1.2-8.4h2l1.2,8.4h21.2L317.4,5.3h-25.5l-0.6,2.4V5.3h-32.7h-4.3h-32.7v1.4
			c-0.3-0.1-3.4-1-4-1.1c-6.1-1-22.8-0.6-27.9,0.7c-1.5,0.4-3.2,1.5-4,2.7c-0.3,0.5-0.6,1-0.8,1.6c-1.5-3-4.2-3.9-7.2-4.5
			c-3.9-0.9-26.2-0.8-34-0.8V10c-1.5-2.5-4.2-3.4-6.9-4c-3.9-0.9-26.2-0.8-34-0.8v29.8L95.9,5.3H70.5l-2,8.7c-0.6-5.3-3.4-7-8.1-8
			C56.7,5.2,34,5.3,26.2,5.3v44.8h21.3V36l13-0.6c0.2,0,3.2-0.9,3.2-0.9L60,50.1h21.1l1.2-8.4h2l1.2,8.4h17.6h3.6h17.7h19.6h1.4
			h19.9h20.9v-3.5c3.6,4.1,14.3,4.4,19.7,3.8l-0.4,0l12.5-0.6c6.1-0.9,8.8-4,8.5-10.1V15.9h3.1v34.2h21.3V15.9h3.6h4.3h3.6v34.2
			h19.2H283.5z M289.5,15.9l-5.9,25.5V15.9H289.5z M184.3,27.2v1.5c-0.3-0.3-0.5-0.6-0.8-0.8l0.7-0.5
			C184.2,27.3,184.3,27.2,184.3,27.2z M143.9,26.5v2.7c-0.4-0.5-0.8-1-1.3-1.4C143.4,27.3,143.5,27.1,143.9,26.5z"/>
	</g>
	<g>
		<path class="st0" d="M28.9,8v39.5h16V33.5h3.7c5.1,0,8.9-0.2,11.4-0.6c2.5-0.5,4.1-1.3,4.8-2.4s1.1-2.8,1-5V16
			c0.1-2.2-0.3-3.8-1.1-5c-0.8-1.2-2.4-2-4.9-2.4S53.5,8,48.4,8H28.9z M44.9,13.1H46c1.9,0,3,0.2,3.4,0.5c0.4,0.4,0.6,1,0.5,2v10.3
			c0.1,0.9-0.1,1.5-0.5,1.9c-0.4,0.3-1.5,0.5-3.2,0.5h-1.4V13.1z"/>
		<path class="st0" d="M72.6,8l-9.2,39.5h15.4l1.2-8.4h6.7l1.2,8.4h15.5L93.8,8H72.6z M83,15.8h0.5l2.4,18h-5.4L83,15.8z"/>
		<path class="st0" d="M105.7,8v39.5h16V31.1c0.2,0,0.4,0,0.6,0c0.2,0,0.4,0,0.6,0c1.4,0,2.4,0.1,2.9,0.4c0.6,0.3,0.9,0.7,0.9,1.4
			v14.6h15.9V34c0.1-1.6-0.4-2.9-1.4-3.9c-1-1-3-1.7-5.8-2.2c3.2-0.6,5.2-1.5,6.1-2.5c0.9-1.1,1.3-2.5,1.2-4.3V16
			c0.1-2.1-0.3-3.7-1.2-4.8c-0.8-1.2-2.5-2-5-2.5c-2.5-0.5-6.2-0.7-11.2-0.7H105.7z M121.7,13.1h1c1.9,0,3.1,0.2,3.5,0.5
			c0.4,0.4,0.6,1,0.5,2v7.6c0,0.8-0.2,1.3-0.7,1.6c-0.5,0.3-1.5,0.4-3,0.4c-0.2,0-0.4,0-0.6,0c-0.3,0-0.5,0-0.7,0V13.1z"/>
		<path class="st0" d="M146.5,8v39.5h16V31.1c0.2,0,0.4,0,0.6,0c0.2,0,0.4,0,0.6,0c1.4,0,2.4,0.1,2.9,0.4c0.6,0.3,0.9,0.7,0.9,1.4
			v14.6h15.9V34c0.1-1.6-0.4-2.9-1.4-3.9c-1-1-3-1.7-5.8-2.2c3.2-0.6,5.2-1.5,6.1-2.5c0.9-1.1,1.3-2.5,1.2-4.3V16
			c0.1-2.1-0.3-3.7-1.2-4.8c-0.8-1.2-2.5-2-5-2.5c-2.5-0.5-6.2-0.7-11.2-0.7H146.5z M162.5,13.1h1c1.9,0,3.1,0.2,3.5,0.5
			c0.4,0.4,0.6,1,0.5,2v7.6c0,0.8-0.2,1.3-0.7,1.6c-0.5,0.3-1.5,0.4-3,0.4c-0.2,0-0.4,0-0.6,0c-0.3,0-0.5,0-0.7,0V13.1z"/>
		<path class="st0" d="M186.9,15.6v24.2c-0.1,2.2,0.3,3.9,1.2,5.1s2.7,1.9,5.3,2.3c2.7,0.4,6.7,0.6,12.1,0.5c5.3,0,9.3-0.2,11.9-0.6
			c2.6-0.4,4.4-1.2,5.2-2.3c0.8-1.1,1.2-2.8,1.1-5V15.6c0.1-2.2-0.3-3.9-1.2-5.1c-0.9-1.1-2.6-1.9-5.3-2.3c-2.7-0.4-6.7-0.6-12-0.5
			c-5.4,0-9.5,0.2-12.1,0.6c-2.6,0.4-4.4,1.2-5.2,2.3C187.2,11.7,186.9,13.4,186.9,15.6z M202.8,14.7c0-0.6,0.2-1,0.5-1.3
			c0.4-0.3,1-0.4,1.9-0.4c1,0,1.7,0.1,2.1,0.4c0.4,0.3,0.6,0.7,0.5,1.3v26.1c0,0.6-0.1,1-0.5,1.2c-0.3,0.3-1,0.4-1.9,0.4
			c-1,0-1.7-0.1-2.1-0.4c-0.4-0.3-0.6-0.7-0.6-1.3V14.7z"/>
		<polygon class="st0" points="224.4,8 224.4,13.2 232.3,13.2 232.3,47.4 248.2,47.4 248.2,13.2 256.1,13.2 256.1,8 		"/>
		<polygon class="st0" points="257.1,8 257.1,13.2 264.9,13.2 264.9,47.4 280.9,47.4 280.9,13.2 288.7,13.2 288.7,8 		"/>
		<path class="st0" d="M294,8l-9.2,39.5h15.4l1.2-8.4h6.7l1.2,8.4h15.5L315.3,8H294z M304.5,15.8h0.5l2.4,18H302L304.5,15.8z"/>
	</g>
	<g>
		<path class="st2" d="M151.1,53.5L149,82.1h13.5l0.8-10.1h3.1c4.3,0,7.5-0.1,9.7-0.5c2.1-0.3,3.5-0.9,4.2-1.8
			c0.7-0.9,1.1-2.1,1.1-3.6l0.5-6.8c0.2-1.6,0-2.8-0.6-3.6c-0.6-0.8-1.9-1.4-4-1.7c-2.1-0.3-5.3-0.5-9.6-0.4H151.1z M164.3,57.2h1
			c1.6,0,2.5,0.1,2.9,0.4c0.3,0.3,0.4,0.7,0.3,1.4l-0.6,7.5c0,0.7-0.2,1.1-0.5,1.4c-0.4,0.3-1.3,0.4-2.7,0.4h-1.2L164.3,57.2z"/>
		<path class="st2" d="M187.9,53.5L178,82.1h13l1.4-6.1h5.6l0.5,6.1h13.1l-5.8-28.6H187.9z M196.3,59.1h0.4l1.1,13h-4.6L196.3,59.1z
			"/>
		<polygon class="st2" points="211.6,53.5 217.9,82.1 233.4,82.1 244,53.5 231.3,53.5 226.5,72.8 226.1,72.8 224.6,53.5 		"/>
		<polygon class="st2" points="244.9,53.5 242.7,82.1 256.2,82.1 258.3,53.5 		"/>
		<polygon class="st2" points="261.8,53.5 259.7,82.1 271.4,82.1 272.2,67.4 272.8,67.4 279.1,82.1 291.1,82.1 293.2,53.5 
			281.6,53.5 280.7,67.7 280.1,67.7 273.8,53.5 		"/>
		<path class="st2" d="M296,59l-1.4,18.3c-0.2,1.7,0.5,2.9,2.2,3.7c1.7,0.8,4.8,1.2,9.3,1.2c2.7,0,4.9-0.1,6.7-0.4s3.5-0.8,5-1.5
			l2.1,1.7h5.6l1.1-14.8h-15.5l-0.3,3.8h2l-0.5,6.2c0,0.4-0.2,0.7-0.4,0.9c-0.3,0.2-0.9,0.3-1.8,0.3c-0.9,0-1.5-0.1-1.8-0.3
			c-0.3-0.2-0.5-0.5-0.4-0.9l1.4-18.9c0-0.4,0.2-0.7,0.5-0.9s0.9-0.3,1.9-0.3c0.9,0,1.6,0.1,1.8,0.3c0.3,0.2,0.4,0.5,0.3,0.9
			l-0.4,4.9H327l0.3-4.2c0.2-1.6-0.1-2.8-0.7-3.6s-2.1-1.4-4.3-1.7c-2.2-0.3-5.6-0.4-10.1-0.4c-4.6,0-8.1,0.1-10.4,0.4
			s-3.8,0.9-4.6,1.7C296.4,56.2,296,57.4,296,59z"/>
	</g>
	<g>
		<g>
			<path class="st1" d="M216,111.8l-0.4,2.4h5.7h0.4h5.7l1.2-8.1c0-0.3,0.2-0.8,0.6-0.9l-1.3,9h6.1l0.5-3.1c0.2,0.4,0.5,0.9,0.7,1.2
				c2.5,3.1,6.2,2.1,9.3,1.2l0-1.4c2.4,3.5,7.3,2.1,10.5,1.2l-0.2-3.9h1l0.5-2.5c0.5-3.8-1.1-7.4-5.3-7.3c-1.8,0-3.3,0.6-4.7,1.8
				l0.3-0.8l-2.7-0.8l-1.6-0.2c-2.8-0.2-5.7,1.4-7.1,3.8c-0.4-3.1-3.5-4.5-6.4-3.5l0-0.1h-5h-0.2c0.7-1.1,0.7-2.7-0.2-3.7
				c-1.3-1.2-3.2-1.2-4.5-0.1l0,0c-0.2,0.2-0.3,0.3-0.5,0.5l-2.5-0.9l-2.2-0.2c-3.6-0.2-7,2.2-7.6,5.8c-0.4,2.9,1.5,5.1,4.1,6.1
				c0.4,0.2,0.8,0.4,1.2,0.7c0.1,0.1-0.1,0.4-0.2,0.5c-0.4,0.3-1.7,0.3-2.4,0.1l-2.8-1.2l-2,5.2c0.9,0.6,2,1.1,3.1,1.4l0,0
				C210.2,114.9,213.9,114.3,216,111.8z M218.1,99.9h-0.4l-0.8,5.1c-0.7-1.3-2-2.3-3.3-2.9c-0.5-0.2-0.9-0.5-1.4-0.8
				c0.2-1.2,3.5,0.3,4.5,0.8l1.1-2.8C218,99.6,218.1,99.7,218.1,99.9z M243.8,105.6c-0.1,0.4-0.2,0.9-0.3,1.4
				c-0.1,0.5-0.2,1-0.1,1.5l-1.5,0.5c-0.4,0.1-1.2,0.2-1.5-0.2c-0.6-0.8-0.1-2.3,0.6-3.1C241.7,104.8,242.9,105.3,243.8,105.6z"/>
			<polygon class="st1" points="263.8,102.8 262.2,114.2 268.2,114.2 270.9,95.9 266.2,95.9 260.9,98.4 261.7,103.8 			"/>
			<path class="st1" d="M282.1,109.6c0.7,3.5,3.3,4.9,5.9,4.8c3.9-0.1,6.6-3,7.2-6.7c0.5-2.7-0.6-5.7-3.5-6.5l3-0.3l0.8-5.3
				c-4.7-0.3-8.7,0.9-11.4,4.9c-0.5-3-2.6-5-5.7-4.9c-3.9,0.1-6.7,3-7.4,6.7c-0.5,2.9,0.9,5.8,3.9,6.4c-1.9,0.3-2.2,0.3-3.7,0.3
				l-0.8,5.3c3,0.2,5.1,0.2,7.7-1.2C279.9,112.3,281.2,111.1,282.1,109.6z M288.2,109.2c-0.4-0.1-0.2-1.7-0.2-1.7
				c0.1-0.5,0.5-1.2,1.1-1.2c0,0,0,0,0,0c0.3,0.8,0,1.9-0.5,2.7C288.5,109.1,288.4,109.2,288.2,109.2z M278.1,100.9
				c0.2,0.6,0.2,1.2,0.1,1.8l-0.1,0.5l0,0.1c-0.1,0.2-0.5,0.4-0.8,0.4C277.1,103.3,277.2,101.1,278.1,100.9z"/>
			<polygon class="st1" points="298.4,102.8 296.7,114.2 302.8,114.2 305.4,95.9 300.8,95.9 295.5,98.4 296.3,103.8 			"/>
		</g>
		<g>
			<path class="st2" d="M217,97.7c-0.3-0.2-0.8-0.4-1.3-0.5s-1.2-0.2-1.9-0.2c-1.7,0-3.1,0.5-4.1,1.3c-1.1,0.8-1.7,1.9-1.9,3.2
				c-0.1,1,0.1,1.9,0.6,2.6c0.6,0.7,1.4,1.4,2.5,1.9c0.8,0.4,1.4,0.7,1.7,1.1c0.3,0.4,0.5,0.9,0.4,1.4c-0.1,0.6-0.4,1-0.8,1.4
				c-0.5,0.3-1.1,0.5-2,0.5c-0.6,0-1.2-0.1-1.8-0.3c-0.6-0.2-1-0.4-1.4-0.6L206,112c0.3,0.2,0.9,0.4,1.5,0.6
				c0.7,0.2,1.4,0.3,2.2,0.3c1.8,0,3.3-0.5,4.4-1.3c1.1-0.9,1.7-2,2-3.3c0.2-1,0-1.9-0.5-2.6c-0.5-0.7-1.3-1.4-2.4-1.9
				c-0.9-0.4-1.5-0.8-1.9-1.1c-0.4-0.4-0.5-0.8-0.4-1.3c0.1-0.5,0.3-0.8,0.7-1.2c0.4-0.3,1-0.5,1.8-0.5c0.6,0,1.2,0.1,1.6,0.2
				c0.4,0.1,0.8,0.3,1,0.4L217,97.7z"/>
			<path class="st2" d="M222.7,98.4c0.1-0.5,0-0.9-0.3-1.1c-0.2-0.3-0.6-0.4-1.1-0.4c-0.5,0-0.9,0.2-1.2,0.4
				c-0.3,0.3-0.5,0.7-0.6,1.1c-0.1,0.5,0,0.8,0.3,1.1c0.2,0.3,0.6,0.4,1.1,0.5c0.5,0,0.9-0.2,1.2-0.4
				C222.4,99.3,222.6,98.9,222.7,98.4z M222.1,101.5h-3l-1.6,11.2h3L222.1,101.5z"/>
			<path class="st2" d="M233.7,105.8c0.2-1.6,0-2.7-0.5-3.5c-0.6-0.7-1.4-1.1-2.4-1.1c-0.8,0-1.5,0.2-2.1,0.6
				c-0.6,0.4-1.1,0.8-1.4,1.2h-0.1l0.1-1.5h-2.6c-0.1,0.5-0.1,1-0.2,1.6c-0.1,0.6-0.1,1.2-0.2,1.8l-1.1,7.9h3l1-6.7
				c0.2-0.8,0.5-1.4,0.9-1.8c0.5-0.4,0.9-0.5,1.3-0.5c0.6,0,1,0.3,1.2,0.7c0.2,0.5,0.2,1,0.1,1.7l-1,6.5h3L233.7,105.8z"/>
			<path class="st2" d="M243,110.2c-0.3,0.1-0.5,0.2-0.8,0.3c-0.3,0.1-0.6,0.1-1,0.1c-0.9,0-1.5-0.3-2-0.9c-0.5-0.6-0.6-1.5-0.5-2.6
				c0.2-1,0.5-1.8,1.1-2.5c0.6-0.6,1.4-1,2.3-1c0.4,0,0.8,0,1,0.1c0.3,0.1,0.5,0.2,0.7,0.2l0.8-2.3c-0.2-0.1-0.5-0.2-0.9-0.3
				c-0.4-0.1-0.8-0.1-1.3-0.1c-1.2,0-2.3,0.3-3.3,0.8c-1,0.5-1.7,1.2-2.3,2.1c-0.6,0.9-1,1.9-1.1,3c-0.2,1.8,0,3.2,0.9,4.2
				c0.8,1,2.1,1.5,3.7,1.5c0.6,0,1.1-0.1,1.6-0.2c0.5-0.1,0.9-0.2,1.2-0.3L243,110.2z"/>
			<path class="st2" d="M253.3,110.2c-0.4,0.1-0.8,0.2-1.3,0.3c-0.5,0.1-1,0.1-1.5,0.1c-0.8,0-1.5-0.2-2-0.6
				c-0.5-0.4-0.7-1.1-0.7-2.1h6.7c0.1-0.2,0.1-0.3,0.1-0.5c0-0.2,0.1-0.4,0.1-0.6c0.2-1.8,0-3.2-0.6-4.1c-0.7-0.9-1.7-1.4-3.1-1.4
				c-1.1,0-2.1,0.3-2.9,0.8c-0.8,0.5-1.5,1.3-2.1,2.2c-0.5,0.9-0.9,1.9-1,3c-0.2,1.8,0,3.1,0.8,4.1c0.8,1,2.1,1.5,3.8,1.5
				c0.7,0,1.4-0.1,2-0.2c0.6-0.1,1.2-0.3,1.7-0.5L253.3,110.2z M248.1,105.9c0.1-0.4,0.2-0.8,0.4-1.2c0.2-0.4,0.5-0.7,0.8-1
				c0.3-0.3,0.8-0.4,1.2-0.4c0.5,0,0.9,0.1,1.1,0.4c0.2,0.3,0.4,0.6,0.5,1c0.1,0.4,0.1,0.8,0,1.2H248.1z"/>
			<polygon class="st2" points="266.9,112.7 269.1,97.5 266.6,97.5 262.6,99.4 262.9,101.5 265.7,100.1 265.8,100.1 264,112.7 			
				"/>
			<path class="st2" d="M279.3,106.1c-0.4,1.2-1,2.2-1.9,3c-0.8,0.8-1.9,1.3-3.2,1.4c-0.3,0-0.6,0.1-0.8,0.1c-0.2,0-0.4,0-0.6,0
				l-0.3,2.3c2,0.1,3.8-0.3,5.2-1.1c1.4-0.8,2.6-1.9,3.4-3.3c0.8-1.4,1.4-3,1.6-4.8c0.2-1.2,0.2-2.3-0.1-3.3s-0.7-1.7-1.4-2.3
				c-0.7-0.6-1.6-0.8-2.7-0.9c-1,0-2,0.3-2.8,0.8c-0.8,0.5-1.5,1.2-2,2c-0.5,0.8-0.9,1.7-1,2.7c-0.2,1.4,0.1,2.6,0.7,3.4
				c0.7,0.8,1.6,1.2,2.8,1.3c0.6,0,1.2-0.1,1.7-0.3C278.4,106.7,278.9,106.4,279.3,106.1L279.3,106.1z M278.1,99.3
				c0.7,0,1.2,0.4,1.4,1.1c0.2,0.7,0.3,1.6,0.1,2.6c0,0.3-0.1,0.5-0.1,0.7c0,0.2-0.1,0.3-0.2,0.4c-0.2,0.3-0.5,0.6-0.9,0.8
				c-0.4,0.2-0.8,0.3-1.2,0.4c-0.6,0-1.1-0.3-1.4-0.8c-0.3-0.5-0.4-1.2-0.3-2.1c0.1-0.9,0.4-1.6,0.9-2.2
				C277,99.6,277.5,99.3,278.1,99.3z"/>
			<path class="st2" d="M286.9,104c0.3-1,0.9-2,1.8-2.8c0.8-0.8,2-1.4,3.4-1.6c0.3,0,0.5-0.1,0.7-0.1c0.2,0,0.4,0,0.6,0l0.3-2.3
				c-1.8,0-3.3,0.3-4.6,0.9c-1.2,0.6-2.3,1.4-3,2.3s-1.4,1.9-1.8,3s-0.7,2-0.8,2.9c-0.2,1.3-0.1,2.4,0.1,3.3c0.3,1,0.7,1.7,1.5,2.3
				c0.7,0.6,1.6,0.8,2.8,0.9c1,0,2-0.3,2.8-0.8c0.8-0.5,1.5-1.2,2-2c0.5-0.8,0.8-1.7,1-2.7c0.2-1.5,0-2.7-0.7-3.6
				c-0.7-0.8-1.6-1.3-2.8-1.3c-0.7,0-1.3,0.1-1.8,0.4C287.9,103.3,287.4,103.6,286.9,104L286.9,104z M288.2,110.8
				c-0.7,0-1.2-0.4-1.5-1c-0.3-0.7-0.4-1.5-0.3-2.5c0.1-0.6,0.3-1,0.6-1.4s0.6-0.6,1-0.8c0.4-0.2,0.7-0.3,1-0.3
				c0.7,0,1.2,0.3,1.5,0.9c0.3,0.5,0.4,1.2,0.3,2c-0.1,0.9-0.4,1.6-0.8,2.2C289.4,110.4,288.9,110.7,288.2,110.8z"/>
			<polygon class="st2" points="301.4,112.7 303.7,97.5 301.2,97.5 297.2,99.4 297.5,101.5 300.3,100.1 300.4,100.1 298.5,112.7 			
				"/>
		</g>
	</g>
	<path class="st2" d="M108.3,116.6l51.1-1.8c-1.4-0.7-2.8-1.4-4.2-2.1c-0.7-0.3-0.7-0.3-0.4-1c0.5-1.6,1.1-3.2,1.5-4.8
		c0.7-2.8,1.2-5.7,1.3-8.5c0.1-1.3,0.1-2.7,0.1-4c0-1.1-0.1-2.3-0.4-3.4c-0.2-0.8-0.3-1.6-0.2-2.4c0.1-0.8,0.1-1.6,0.2-2.4
		c0-0.5,0.1-0.9,0.1-1.4c0.1-1.6,0.3-3.3,0.4-4.9c0-0.6-0.2-1.1-0.6-1.6c-0.6-0.6-1.4-0.7-2.1-0.7c-1.1,0-2.2,0-3.3,0.1
		c-2.1,0-4.2,0.1-6.2,0.1c-0.1,0-0.2,0-0.3,0c0-0.1,0-0.2,0-0.2c0-1,0-2.1,0.1-3.1c0.1-1.3,0.2-2.5,0.2-3.8c0-1.3,0.1-2.6,0.1-3.9
		c0-0.2-0.2-0.5-0.4-0.6c-1.1-0.7-2.3-1.3-3.4-1.9c-0.2-0.1-0.3-0.4-0.3-0.5c0-0.7,0.1-1.3,0.1-2c0-1.2-0.2-2.3-1-3.2
		c-0.3-0.3-0.7-0.7-1.2-0.6c-0.6,0.1-1.2,0.4-1.8,0.7c-0.9,0.5-1.7,1-2.6,1.5c-0.1-0.1-0.1-0.2-0.1-0.3c0-0.5-0.1-1.1-0.1-1.6
		c0-1.2-0.1-2.4-0.9-3.4c-0.1-0.2-0.2-0.4-0.2-0.6c-0.1-0.7-0.2-1.4-0.2-2.1c-0.1-1.2-0.1-2.4-0.2-3.6c0-0.3-0.2-0.8-0.4-0.9
		c-0.9-0.4-2.2,0.2-2.1,1.4c0.1,1.8,0.1,3.7,0.1,5.5c0,0.3-0.1,0.7-0.2,1c-0.1,0.2-0.2,0.4-0.2,0.7c0,0.5,0,0.9,0,1.4
		c0,0.8,0,1.6,0,2.4c0,1,0,1.9,0,2.9c-1.2,0.2-2.4,0.3-3.7,0.5c0-0.5,0-0.9,0-1.4c0-0.8,0-1.6,0-2.4c-0.1-1.7-0.2-3.4-0.3-5.1
		c-0.1-2.2-0.1-4.3-0.2-6.5c-0.1-1.6-0.1-3.2-0.2-4.9c0-0.5-0.1-1-0.1-1.6c0-0.6-0.1-1.1,0-1.7c0.1-0.4,0.3-0.7,0.5-1.1
		c0.3-0.5,0.2-0.9-0.3-1c-1.2-0.2-2.4-0.5-3.6-0.7c-1.3-0.2-2.6-0.4-3.9-0.6c-1.6-0.3-3.1-0.5-4.7-0.8c-1.5-0.3-2.9-0.5-4.4-0.7
		c-0.8-0.1-1.7-0.3-2.5,0.1c-0.7,0.4-1.5,0.9-2.2,1.3c-1.7,1.1-3.4,2.2-5.1,3.3c-2.5,1.6-5,3.2-7.4,4.8c-0.4,0.3-0.7,0.7-0.7,1.2
		c0,0.9,0.4,1.6,1.1,2.2c0.1,0.1,0.3,0.3,0.3,0.5c0.1,0.4,0.2,0.9,0.2,1.4c0.3,1.4,0.6,2.8,0.9,4.2c0.2,0.8,0.3,1.5,0.4,2.3
		c0.1,0.6,0.3,1.1,0.4,1.7c0.2,1,0.3,2.1,0.5,3.1c0.2,0.8,0.4,1.7,0.6,2.5c0.3,1.4,0.5,2.8,0.8,4.2c0.1,0.6,0,0.9-0.6,1.2
		c-1,0.4-2,0.8-3,1.1c-1.1,0.3-1.9,1-2.4,2c-0.1,0.2-0.3,0.5-0.5,0.5c-0.5,0.1-0.9,0.3-1.2,0.6c-1.4,1.2-2.7,2.4-3.6,4
		c-0.6,1.1-1.2,2.3-1.6,3.5c-0.4,1.1-0.6,2.3-0.8,3.5c-0.2,1.2-0.3,2.3-0.3,3.5c0,0.8,0,1.5,0,2.3c0.1,0.8,0.2,1.5,0.4,2.3
		c0.2,0.9,0.3,1.9,0.6,2.8c0.2,0.7,0.4,1.3,0.6,2c0.2,0.5,0.3,1.1,0.7,1.6c0,0,0,0,0,0c0.4,0.7,0.6,1.5,1.2,2.2
		c0.6,0.7,1.3,1.4,2.1,2c1.2,0.9,2.5,1.7,3.7,2.6c0.8,0.6,1.7,1.2,2.5,1.8c1,0.7,2.1,1.3,3.1,2c0.7,0.5,1.4,1.1,2.2,1.6
		c1.1,0.8,2.3,1.5,3.5,2.3c1.1,0.8,2.2,1.6,3.3,2.3c0.4,0.3,0.9,0.6,1.3,0.9C108.2,116.5,108.3,116.6,108.3,116.6z M120.1,40.1
		c0.6,0.1,1.2,0.2,1.9,0.3c-0.9,0.8-1.6,1.5-2.5,2.2C119.6,41.7,119.8,40.9,120.1,40.1z M109.1,41.5v-2.9c2.2,0.3,4.4,0.6,6.6,0.9
		c-0.2,0.6-0.7,0.7-1.2,0.7c-0.7,0-1.4,0-2.1-0.1c-0.7,0-1.4,0.2-2,0.6c-0.4,0.2-0.7,0.5-1.1,0.8C109.2,41.5,109.1,41.5,109.1,41.5z
		 M124,58.2c-0.4-0.5-0.9-1-1.3-1.6c-0.1-0.1-0.1-0.1-0.1-0.2c-0.5-0.3-0.7-0.8-0.6-1.4c0-0.2,0.1-0.4,0.1-0.6
		c0.1-0.8-0.2-1.5-0.4-2.2c-0.1-0.4-0.3-0.8-0.4-1.2c-0.7-1.7-1.4-3.5-2.2-5.2c-0.4-1-0.4-1,0.4-1.7c1.2-1,2.3-2.1,3.5-3.1
		c0.1-0.1,0.2-0.2,0.4-0.3c0,0.2,0.1,0.3,0.1,0.4c0.1,1.5,0.1,3,0.2,4.4c0,0.8,0.1,1.5,0.2,2.3c0,0.5,0,1,0,1.5
		c0.1,1.5,0.2,3.1,0.3,4.6c0.1,1.3,0.1,2.6,0.1,3.9c0,0.2,0,0.3,0,0.5C124.1,58.1,124,58.1,124,58.2z M106.2,40.5c0,2,0,3.8,0,5.6
		c0,0.7,0,1.3,0,2c0,1.5,0,3,0.1,4.4c0,1,0.1,1.9,0.1,2.9c0,0.5,0,1,0,1.4c0,0.2-0.2,0.3-0.3,0.4c-1.3,0.8-2.6,1.6-3.9,2.4
		c-1,0.6-2.1,1.3-3.1,1.9c-0.2,0.1-0.3,0.1-0.4,0.2c-0.3-1.2-0.5-2.4-0.8-3.6c-0.4-2-0.7-4.1-1.1-6.1c-0.2-1.2-0.5-2.5-0.7-3.7
		c-0.1-0.3-0.2-0.7-0.2-1c0-0.2,0.1-0.5,0.3-0.6c1.1-0.8,2.2-1.5,3.3-2.2c1.2-0.8,2.4-1.6,3.5-2.4c0.9-0.6,1.8-1.1,2.8-1.7
		C105.8,40.6,105.9,40.6,106.2,40.5z"/>
	<path class="st3" d="M115,87.8c0.1-0.1,0.1-0.1,0.2-0.2c-0.7-0.7-1.3-1.3-2-2c-0.3,0.9-0.2,1.2,0.4,1.5
		C114.1,87.4,114.5,87.6,115,87.8z"/>
	<path class="st4" d="M137.8,62.3C137.8,62.3,137.8,62.3,137.8,62.3c0.1,0.5,0.1,1,0.3,1.5c0.1,0.5,0.1,1.1,0.5,1.5
		c0.4,0.4,0.7,0.3,0.9-0.2c0.3-0.6,0.1-1.3,0.2-2c0-0.6,0-1.1,0-1.7c0-0.5-0.1-1-0.2-1.4c0-0.1-0.4-0.3-0.5-0.3
		c-0.2,0.1-0.5,0.3-0.6,0.6C138.1,61,138,61.7,137.8,62.3z"/>
	<path class="st4" d="M119.8,64.7c0.2,0.6,0.4,1.2,0.7,1.8c0.1,0.2,0.8,0.2,0.8,0c0.1-0.3,0.2-0.7,0.2-1.1c0-0.3,0-0.6,0-1
		c0-1.1,0-2.1-0.1-3.2c0-0.2-0.2-0.4-0.3-0.5c-0.1-0.1-0.4,0-0.5,0.2c-0.5,0.4-0.7,1-0.8,1.6C119.7,63.3,119.8,64,119.8,64.7z"/>
	<path class="st5" d="M110.1,100.9c0.3,0.8,0.5,1.5,0.8,2.3c0,0.1,0.1,0.1,0.2,0.2c0.3,0.1,1.3-0.1,1.5-0.4c1-1.1,0.9-2.9-0.2-4
		c-0.4-0.4-1.2-0.4-1.5,0.1C110.5,99.6,110.3,100.2,110.1,100.9z"/>
	<path class="st5" d="M89.9,87.7c-0.1,0.9,0.2,1.8,0.7,2.3c0.6,0.7,1.6,0.7,2.1,0c0.6-0.8,0.6-1.7,0.4-2.6c-0.1-0.3-0.3-0.7-0.4-1
		c-0.4-0.7-1.5-0.9-1.9-0.4C90.3,86.5,89.7,87.1,89.9,87.7z"/>
	<path class="st6" d="M131.6,61.8c0,0.7,0.1,0.8,0.6,0.5c0.5-0.3,1-0.7,1.5-1.1c0.3-0.2,0.3-0.4,0.3-0.8c0-1.1,0-2.1-0.1-3.2
		c0-0.7-0.2-1.3-0.7-1.8c-0.1-0.1-0.2-0.2-0.2-0.3c-0.1-0.5-0.1-1-0.2-1.6c0-0.4,0.1-0.8,0-1.2c0-0.3-0.2-0.7-0.2-1
		c-0.1-0.8-0.1-1.7-0.2-2.5c0-0.1-0.2-0.2-0.3-0.2c-0.1,0-0.2,0.1-0.3,0.2c-0.1,0.1-0.1,0.3-0.1,0.4c0,1.8,0.1,3.6,0.1,5.4
		c0,0.5,0,1-0.3,1.4c-0.2,0.2-0.2,0.5-0.2,0.7C131.5,58.4,131.5,60.1,131.6,61.8z"/>
	<path class="st3" d="M89.8,75c-0.2,0.1-0.3,0.1-0.5,0.2c-1.1,0.9-2.1,2-2.9,3.3c-0.7,1.1-1.1,2.3-1.4,3.4c-0.3,0.9-0.4,1.9-0.5,2.9
		c-0.1,1.4-0.1,2.9-0.2,4.3c0,0.7,0,1.5,0.2,2.2c0.2,1.3,0.5,2.5,0.7,3.8c0.3,1.6,1.1,2.9,1.9,4.3c0.1,0.1,0.2,0.1,0.3,0.3
		c-0.1-0.2-0.1-0.3-0.2-0.5c-0.2-0.5-0.4-1-0.6-1.5c-0.2-0.6-0.2-1.3-0.4-2c-0.1-0.3-0.3-0.6-0.4-0.9c-0.2-1.1-0.3-2.1-0.4-3.2
		c-0.1-0.6-0.1-1.2-0.1-1.7c0-0.2,0.2-0.4,0.1-0.6c-0.3-0.5-0.1-1,0-1.6c0.1-1.7,0.3-3.3,0.7-4.9c0.3-1.1,0.5-2.3,1.2-3.2
		c0.4-0.6,0.9-1.3,1.4-1.9c0.3-0.4,0.8-0.7,0.9-1.3C89.7,76,89.7,75.6,89.8,75z"/>
	<path class="st3" d="M106.2,111.4c0,0,0.1-0.1,0.1-0.1c-0.1-0.4-0.3-0.7-0.4-1.1c-0.4-1.1-0.9-2.2-1.3-3.3
		c-0.3-0.8-0.5-1.7-0.6-2.5c-0.2-1.2-0.3-2.4-0.4-3.6c0-0.7,0-1.5,0.1-2.2c0.1-0.9,0.1-1.8,0.3-2.7c0.3-1.8,1-3.4,1.9-5
		c0.5-1,1.1-2,2.1-2.6c0.4-0.2,0.4-0.5,0.4-0.9c0-0.5-0.1-0.9-0.1-1.4c-0.5-0.1-0.7,0.3-1.1,0.5c-1.1,0.9-1.7,2.1-2.3,3.3
		c-0.8,1.5-1.6,3.1-1.9,4.8c-0.2,0.9-0.4,1.9-0.5,2.8c-0.1,1.3,0,2.6,0.1,3.8c0.1,1.3,0.2,2.7,0.6,3.9c0.5,2.1,1.4,4,2.7,5.7
		C106,111.3,106.1,111.3,106.2,111.4z"/>
	<path class="st5" d="M118.1,58.2c0-0.1-0.1-0.1-0.1-0.2c-0.3,0.1-0.6,0.2-0.9,0.3c-0.1,0-0.1,0.2-0.2,0.2c0.1,0,0.2,0.1,0.3,0.1
		C117.5,58.6,117.8,58.4,118.1,58.2z M112,58.7c0,0,0,0.1,0,0.1c0.4,0.2,0.7,0.4,1,0.6c0.1-0.2,0.2-0.3,0.3-0.5
		C112.9,58.8,112.4,58.8,112,58.7z M114.9,59c0,0-0.1,0.1-0.1,0.1c0.2,0.3,0.5,0.7,0.8,1.1c0.1-0.5,0.2-0.8,0.3-1.3
		C115.5,58.9,115.2,59,114.9,59z M124.4,63.6c-0.1-1.2-0.1-2.3-0.2-3.5c0-0.4-0.2-0.9-0.5-1.3c-0.6-0.7-1.3-1.2-1.9-1.8
		c-0.3-0.3-0.6-0.3-0.9-0.1c-0.9,0.7-1.7,1.3-2.6,2c-0.5,0.4-1,0.9-1.7,0.5c-0.1,0.6-0.2,1.1-0.3,1.6c0,0.1,0.1,0.4,0.2,0.4
		c0.6,0.2,0.9,0,1.2-0.5c0.6-1.1,1.4-1.8,2.4-2.4c0.3-0.2,0.6-0.3,0.9-0.3c1.2,0.1,1.8,0.9,2.1,2c0.3,1.1,0.4,2.2,0.6,3.3
		C123.9,63.7,124.1,63.7,124.4,63.6z M109.2,64c0.2,0,0.3,0,0.4,0c0.7-0.1,1.1-0.6,1.6-1c0.1-0.1,0.3-0.2,0.4-0.1
		c0.1,0.1,0.2,0.3,0.2,0.4c0,0.2-0.2,0.4-0.3,0.5c-0.5,0.4-1.1,0.8-1.6,1.1c-0.4,0.2-0.7,0.5-0.6,1c0.1,0.3,0.1,0.7,0.1,1
		c0,0.1,0.1,0.3,0.2,0.3c0.3,0.1,0.9-0.3,1-0.6c0.2-1,0.8-1.9,1.4-2.7c0.7-1,1.5-1.7,2.8-2c0.2-0.1,0.6-0.3,0.4-0.8
		c-0.3-0.6-0.5-1.2-0.7-1.7c-0.3,0.2-0.7,0.4-1,0.7c-0.2,0.2-0.4,0.3-0.7,0.1c-1-0.5-2.1-1-3.1-1.6c-0.1,0-0.2-0.1-0.4-0.1V64z
		 M98,64.1c-0.1,0.7,0.5,1.5,1.2,1.8c0.6,0.3,1.4,0.2,1.8,0.9c0,0,0.1,0.1,0.2,0.1c1.1,0,2,0.4,3,0.9c0.1,0.1,0.3,0.2,0.4,0.2
		c0.3,0.1,0.7,0.2,1,0.3c0.5,0.2,0.6,0.1,0.7-0.4c0-0.5,0-1.1,0-1.6c0-0.4,0-0.7-0.5-0.6c-0.1,0-0.3-0.1-0.4-0.1
		c-0.4-0.2-0.9-0.9-0.7-1.2c0.2-0.4,0.4-0.9,0.8-1.1c0.8-0.4,0.7-1.1,0.8-1.8c0.1-0.7,0-1.4,0-2c0-0.3-0.2-0.5-0.5-0.4
		c-0.6,0.3-1.2,0.5-1.7,0.8c-0.5,0.3-1,0.7-1.5,1c-1.3,0.7-2.6,1.5-3.9,2.1C98.3,63.2,98.1,63.6,98,64.1z"/>
	<path class="st5" d="M106.7,85.6c-2.2-1.3-4.5-2.6-6.9-4c0,0.2-0.1,0.3,0,0.4c0.2,1,0.4,2,0.6,3c0.2,0.9,0.4,1.7,0.6,2.6
		c0.1,1,0.2,2,0.1,3c0,1.8-0.1,3.5-0.6,5.3c-0.2,0.9-0.5,1.8-0.9,2.7c-0.7,1.5-1.4,3-2.6,4.1c-0.3,0.3-0.6,0.6-0.9,1
		c0.2,0.1,0.3,0.1,0.4,0.1c1.3,0,2.6,0,3.9-0.1c0.4,0,0.6-0.4,0.7-0.7c0-0.2-0.1-0.4-0.2-0.6c0-0.1,0.2-0.2,0.2-0.3
		c0.1-0.5,0-0.9,0.1-1.4c0.1-1.1,0.1-2.3,0.2-3.4c0.1-0.8,0.3-1.6,0.5-2.4c0.1-0.5,0.3-1.1,0.5-1.6c0.3-0.8,0.6-1.6,1-2.4
		c0.3-0.8,0.6-1.6,1.1-2.3C105.2,87.5,106,86.6,106.7,85.6z"/>
	<path class="st7" d="M89.8,78.8l-0.1,0c-0.1,0.1-0.1,0.1-0.2,0.2c-0.4,0.8-0.8,1.5-1.2,2.3c-0.3,0.8-0.7,1.5-0.9,2.3
		c-0.4,1.5-0.7,3-0.9,4.5c-0.1,1-0.2,2.1,0,3.1c0.2,1.5,0.6,2.9,1,4.3c0.4,1.5,0.9,3,1.8,4.4c0.8,1.3,1.6,2.4,3.1,2.8
		c0.6,0.2,1.3,0.2,1.9,0.2c0.5,0,0.9-0.3,1.3-0.7c0.3-0.4,0.8-0.6,1.2-1c0.7-0.8,1.3-1.7,1.8-2.6c0.6-1.1,1.1-2.3,1.2-3.6
		c0-0.7,0.2-1.4,0.3-2.2c0-0.2-0.1-0.4-0.1-0.5c0-0.7,0-1.3,0-2c0-0.2-0.2-0.4-0.1-0.6c0.3-0.7,0-1.5-0.2-2.1
		c-0.1-0.4,0-0.5,0.2-0.5c-0.1-0.3-0.2-0.5-0.2-0.7c0.1-0.5,0-0.9-0.1-1.3c0-0.1-0.1-0.3-0.1-0.4c-0.2-0.8-0.3-1.7-0.6-2.5
		c-0.4-1.2-0.9-2.4-1.4-3.6c-0.3-0.8-0.7-1.6-1.2-2.3c-0.2-0.4-0.6-0.6-1-1c-0.1,0.5-0.2,1-0.2,1.4c-0.2,1.4-0.4,2.9-0.6,4.3
		c-0.2,1-0.4,2.1-0.5,3.1c0,0.4,0.1,0.8,0.2,1.2c0.1,0.4,0.3,0.7,0.4,1.1c0.1,0.6,0.1,1.2,0.1,1.8c0.1,1.2-0.4,2.3-1,3.3
		c-0.4,0.5-0.8,1-1.5,1.1c-0.8,0.2-1.7-0.3-2.1-0.9c-0.5-0.7-0.8-1.4-1.1-2.2c-0.4-1.2-0.2-2.4,0-3.7c0.1-0.3,0.3-0.6,0.5-1
		c0.2-0.4,0.5-0.7,0.6-1c0-0.9-0.1-1.8-0.2-2.8c0,0,0-0.1,0-0.1C89.7,80.3,89.8,79.5,89.8,78.8z"/>
	<path class="st7" d="M112.9,88.1c0,0.4,0,0.7,0,1c0,1.2,0,2.3,0,3.5c0,1.2,0,2.3,0,3.5c0,0.5,0,1,0.5,1.4c0.6,0.6,1.1,1.5,1.2,2.4
		c0.2,1.8-0.1,3.5-1.5,4.7c-0.7,0.6-1.8,0.8-2.5,0.4c-0.8-0.5-1.3-1.2-1.6-2.1c-0.5-1.5-0.2-3.1,0.4-4.5c0.1-0.3,0.2-0.6,0.1-0.8
		c-0.3-1.5-0.3-3-0.6-4.4c-0.2-0.9-0.2-1.8-0.3-2.7c0-0.4-0.1-0.5-0.5-0.3c-0.6,0.3-1,0.8-1.3,1.4c-1,1.9-1.3,4-1.5,6.1
		c-0.1,1-0.1,1.9,0,2.9c0,0.9,0,1.7,0.1,2.6c0.3,1.5,0.6,3.1,1,4.6c0.4,1.2,0.9,2.5,1.5,3.6c0.5,1,1.5,1.7,2.5,2.3
		c0.9,0.6,1.9,1,3,0.9c0.3,0,0.6-0.1,0.9-0.1c0.5-0.1,0.9-0.2,1.3-0.3c0.1-0.1,0.2-0.3,0.4-0.4c1.1-0.6,1.8-1.6,2.2-2.7
		c0.3-0.9,0.8-1.7,0.9-2.6c0.1-0.8,0.3-1.7,0.4-2.5c0.1-0.8,0-1.7,0-2.5c0.1-1.8,0-3.5-0.3-5.3c-0.2-1.4-0.7-2.8-1.2-4.2
		c-0.6-1.7-1.6-3.2-2.8-4.6C114.8,88.5,113.9,88.3,112.9,88.1z"/>
	<path class="st3" d="M156.1,91.5c0-0.2,0-0.4,0-0.5c-0.2-1.1-0.5-2.1-0.7-3.2c-0.3-1.1-0.8-2.2-1.4-3.2c-0.3-0.6-0.7-1-1.4-0.9
		c-1.4,0.1-2.9,0.1-4.3,0.1c-1.4,0-2.9,0.1-4.3,0.2c-2.2,0.1-4.4,0.1-6.6,0.1c-2.3,0.1-4.5,0.2-6.8,0.2c-1.9,0.1-3.7,0.1-5.6,0.2
		c-1.4,0-2.7,0.1-4.1,0.1c-0.6,0-1.2,0-1.8,0c-1.2,0-2.4,0.1-3.5,0.2c-0.5,0-1,0.1-1.5,0.1c0.1,0.2,0.2,0.3,0.3,0.4
		c0.6,0.7,1.4,1.3,1.9,2.1c0.8,1.2,1.5,2.4,2.2,3.6c0.1,0.2,0.4,0.4,0.6,0.4c0.9,0,1.7,0,2.6,0c1.7,0,3.4,0,5.2,0c1.3,0,2.5,0,3.8,0
		c2.1,0,4.2,0,6.2,0c1.9,0,3.8,0,5.7,0.1c2,0,3.9,0.1,5.9,0.1c1,0,2,0,3-0.1C153,91.5,154.6,91.5,156.1,91.5z"/>
	<path class="st3" d="M116.6,114.8c-0.3,0.2-0.6,0.3-0.9,0.6c22.8-2.4,35.6-1.8,36.3-2.3c1.8-1.4,1.8-2.9,2-3.4
		c0.5-1.2,0.2-0.8,0.6-2c0.2-0.6,0.3-1.2,0.5-1.8c-2.4,0-4.7,0-7,0c-2,0-3.9,0-5.9,0c-1.1,0-1.1,0.1-1.2-0.9c0,0,0-0.1,0-0.1
		c0.2,0,0.3-0.1,0.5-0.1c0.8,0,1.6,0,2.5,0c1.1,0,2.2,0,3.3,0c1.2,0,2.4,0,3.7,0c1.2,0,2.5,0.1,3.7,0.1c0.2,0,0.6-0.1,0.7-0.3
		c0.3-0.8,0.4-1.6,0.6-2.4c0-0.2,0-0.4,0-0.6c0.1-1.2,0.3-2.4,0.3-3.6c0-1.7-0.1-3.4-0.2-5c0-0.3-0.2-0.4-0.5-0.4
		c-0.4,0-0.8,0-1.2,0c-2.3,0-4.7-0.1-7-0.1c-3.3,0-6.7,0-10-0.1c-2.5,0-5-0.1-7.5-0.1c-2.7,0-5.4,0-8.1,0c-0.9,0-1.8,0-2.7,0
		c0,0.1,0,0.2,0,0.2c0.3,1.2,0.7,2.4,1,3.6c0.3,1.2,0.7,2.5,0.7,3.8c0.2,2.7,0.1,5.4-0.4,8c0,0.3,0,0.4,0.3,0.4c0.4,0,0.9,0,1.3,0
		c1.2,0,2.4,0,3.5-0.1c1.5,0,2.9-0.1,4.4-0.1c1.3,0,2.5,0,3.8-0.1c0.9,0,1.9,0,2.7,0.4c0.2,0.1,0.3,0.2,0.4,0.3c0,0-0.1,0.1-0.1,0.1
		c-0.5,0-0.9,0-1.4,0c-1.9,0-3.7,0.1-5.6,0.1c-1,0-2,0.1-3,0.1c-2.1,0-4.2,0.1-6.3,0.1c-0.5,0-0.7,0.2-0.8,0.6
		C119.2,113.3,118.3,114.2,116.6,114.8z"/>
	<path class="st8" d="M112.6,43.8c0,0,0,0.1,0,0.1c0.1,0.2,0.2,0.3,0.3,0.5c0.2,0.2,0.4,0.5,0.1,0.7c-0.2,0.2-0.6,0.2-0.8,0
		c-0.2-0.2-0.3-0.5-0.5-0.6c-0.2-0.1-0.4-0.3-0.7-0.3c-0.1,0-0.3,0.2-0.4,0.4c-0.2,0.9-0.4,1.8-0.5,2.7c-0.1,0.3-0.1,0.5-0.3,0.7
		c-0.3,0.4-0.6,0.8-0.5,1.4c0,0.6-0.2,1.2-0.2,1.8c0,0.8,0,1.7,0,2.5c0,1.1,0.1,2.2,0.2,3.2c0,0.5,0.4,0.9,0.8,0.9
		c0.9,0,1.9,0.1,2.8,0.1c1.3,0,2.7,0.1,3.9-0.3c0.7-0.2,1.4-0.5,2.2-0.7c0.2,0,0.4,0,0.5-0.1c0.3-0.2,0.6-0.5,0.9-0.7
		c0.5-0.3,0.8-0.7,0.8-1.3c0.1-1.4-0.5-2.7-0.9-3.9c-0.5-1.5-1.2-2.9-1.8-4.3c-0.4-1-0.9-2-1.4-2.9c-0.2-0.5-0.5-0.5-0.9-0.2
		c-0.1,0.1-0.4,0.1-0.5,0.1c-0.2,0-0.4-0.2-0.7-0.2c-0.1,0-0.3,0.2-0.3,0.3c0,0.7-0.3,0.9-1,0.6C113.3,44,113,43.9,112.6,43.8z
		 M118.6,51c0.4,0.8,0.1,1.7-0.7,2.1c-0.7,0.4-1.4,0.5-2.2,0.5c-0.8,0-1.7,0-2.5-0.2c-0.5-0.1-0.9-0.3-1.4-0.5
		c-0.2-0.1-0.4-0.2-0.7,0c-0.1,0.1-0.4,0-0.6,0c0,0-0.1-0.3,0-0.5c0.2-0.3,0.4-0.5,0.6-0.7c0.1-0.1,0.3,0,0.5,0.1
		c0.4,0.2,0.8,0.5,1.2,0.7c0.4,0.2,0.9,0.3,1.4,0.3c1,0,1.9-0.1,2.9-0.3c0.9-0.1,0.9-0.4,1-1.2C118.1,51.3,118.4,51.2,118.6,51z
		 M114.4,51c0.3,0,0.5,0,0.8,0c0.5,0,0.8-0.2,0.7-0.7c-0.1-0.6-0.4-1.2-0.6-1.9c0-0.1-0.1-0.1-0.1-0.2c0-0.2,0-0.4,0-0.6
		c0.2,0.1,0.5,0.2,0.6,0.3c0.4,0.6,0.7,1.2,1,1.9c0.2,0.5,0.1,1.2-0.3,1.6c-0.4,0.4-1,0.4-1.5,0.2c-0.2-0.1-0.3-0.2-0.5-0.4
		C114.3,51.1,114.3,51.1,114.4,51z M117.5,47.3c-0.3,0.1-0.7,0.1-1,0.3c-0.4,0.2-0.5-0.1-0.6-0.3c0-0.2,0.1-0.5,0.3-0.5
		c0.5-0.3,1.1-0.3,1.7,0c0.2,0.1,0.2,0.3,0.4,0.5c-0.2,0.1-0.3,0.1-0.5,0.2C117.7,47.3,117.6,47.3,117.5,47.3
		C117.5,47.3,117.5,47.3,117.5,47.3z M110.9,48.6c0.1-0.2,0.1-0.4,0.2-0.5c0.3-0.5,1.2-1,1.7-0.8c0.1,0,0.3,0.2,0.3,0.3
		c0,0.2-0.1,0.5-0.2,0.5c-0.6,0.1-1.1,0.4-1.7,0.6C111.1,48.7,111,48.6,110.9,48.6z M117.2,44.9c-0.6,0.1-1.1,0.1-1.7,0.1
		c-0.2,0-0.3-0.2-0.5-0.3C115.6,44.2,116.8,44.3,117.2,44.9z M111,46.5c0.1-0.2,0.1-0.3,0.2-0.4c0.4-0.4,0.9-0.6,1.4-0.6
		c0.1,0,0.3,0.1,0.3,0.1c0,0.1,0,0.2-0.1,0.3c-0.1,0.1-0.2,0.1-0.3,0.1C112,46.2,111.6,46.3,111,46.5z"/>
	<path class="st0" d="M97.7,66.4c0.1,0.2,0.2,0.3,0.3,0.4c0.1,0.5,0.1,0.9,0.2,1.4c0.1,0.5,0.1,0.6,0.6,0.6
		c-0.1-0.7-0.2-1.5-0.4-2.2C98.2,66.7,98.1,65.9,97.7,66.4z"/>
	<path class="st0" d="M111.3,70.4c-0.4,0-0.8,0.3-0.8,0.7c0,0.5,0.5,1,0.9,1c0.3,0,0.7-0.5,0.7-0.8
		C112.1,70.9,111.8,70.4,111.3,70.4z"/>
	<path class="st0" d="M91.9,79.1c-0.5,0-0.8,0.2-0.8,0.6c0,0.3,0,0.5,0,0.8c0,0.5-0.1,1.1-0.1,1.6c0,0.5,0,1,0,1.5h1V79.1z"/>
	<path class="st0" d="M110.6,76.2c0.3-1.2,0.7-2.5,1-3.7c-0.4-0.1-0.7-0.2-1.1-0.4c-0.3,1-0.5,1.9-0.8,2.9
		C109.5,76,109.5,75.9,110.6,76.2z"/>
	<path class="st0" d="M104.9,72.2c-0.7-0.2-1.5-0.5-2.3-0.7c-0.2,1.7-0.1,1.8,1.2,2.3c0.1,0,0.2,0.1,0.3,0.1
		c0.3,0.1,0.6,0.1,0.8,0.2c0-0.3,0.1-0.6,0.1-0.9C105,72.9,105,72.6,104.9,72.2z"/>
	<path class="st0" d="M111.6,66.5c0.5-0.2,1-0.3,1.5-0.5c0.5-0.2,0.9-0.4,1.3-0.6c0.4-0.2,0.9-0.3,1.1-0.6c0.3-0.4,0.4-1,0.7-1.4
		c0.1-0.3,0-0.4-0.2-0.5c-0.7-0.2-1.4,0-1.9,0.4C112.8,63.9,112.2,65.2,111.6,66.5z"/>
	<path class="st0" d="M97.3,62.7c0,0,0.1,0,0.1-0.1c0-0.1,0.1-0.3,0.1-0.4c-0.9-4.7-1.8-9.5-2.7-14.2c-0.4,0-0.6,0.2-0.5,0.7
		c0.2,0.9,0.3,1.8,0.5,2.6c0.3,1.7,0.7,3.4,1,5.1c0.4,2,0.8,4,1.2,6C97.1,62.4,97.2,62.5,97.3,62.7z"/>
	<path class="st0" d="M98.2,71.6c-1.2,0.4-2.4,0.8-3.6,1.2c-0.6,0.2-1,0.6-1.1,1.2c-0.1,0.4-0.1,0.9-0.2,1.3
		c-0.1,1.1-0.2,2.2-0.3,3.4c-0.1,1-0.2,2-0.2,2.9c0,0.2-0.2,0.7,0.2,0.7c0.5,0,0.3-0.4,0.4-0.7c0.1-0.9,0.1-1.9,0.2-2.8
		c0.1-1.5,0.3-2.9,0.5-4.4c0.1-0.6,0.3-1,0.7-1.1c1-0.3,2-0.6,3-1c0.2-0.1,0.4-0.1,0.5-0.2C98.3,72,98.3,71.8,98.2,71.6z"/>
	<path class="st0" d="M114.3,69.2c-0.7,0.3-1.1,0.8-1.1,1.5c0,0.6-0.2,1.1-0.6,1.6c-0.2,0.2-0.2,0.5-0.2,0.8
		c0.2,0.9,0.4,1.7,0.6,2.6c0.1,0.4,0.4,0.3,0.6,0.2c0.2,0,0.5-0.2,0.6-0.3c0.1-0.4,0.1-0.8,0.1-1.2c0-1.2,0-2.4,0-3.6
		C114.4,70.3,114.3,69.8,114.3,69.2z"/>
	<path class="st0" d="M99.2,66.9c0,0-0.1,0.1-0.1,0.1c0.1,0.2,0.2,0.4,0.4,0.5c0.8,0.5,1.5,1,2.4,1.3c0.9,0.3,0.9,0.3,0.9,1.3
		c0,0.3,0.1,0.6,0.4,0.7c0.6,0.2,1.1,0.3,1.7,0.5c0.3,0.1,0.5,0,0.5-0.3c0-0.6,0.1-1.3,0-1.9c0-0.1-0.3-0.3-0.5-0.3
		c-0.3-0.1-0.5-0.1-0.8-0.2c-0.8-0.3-1.7-0.6-2.5-0.9c-0.1,0-0.2-0.1-0.3-0.1C100.5,67.4,99.8,67.1,99.2,66.9z"/>
	<path class="st0" d="M92,78.7c0-0.5,0-1.1,0-1.7c0.1-1.1,0.1-2.2,0.3-3.3c0-0.3,0.2-0.5,0.4-0.7c0.8-1,2-1.2,3.1-1.7
		c0.7-0.3,1.5-0.4,2.2-0.8c0.3-0.1,0.6-0.6,0.6-0.8c-0.1-0.4-0.6-0.2-0.8-0.1c-1.2,0.4-2.3,0.8-3.5,1.3c-0.6,0.2-1.2,0.5-1.8,0.8
		c-0.9,0.5-1.2,1.4-1.3,2.3c-0.1,1.1,0,2.1-0.1,3.2c0,0.5-0.1,0.9-0.1,1.4c0,0.3,0.1,0.4,0.4,0.3C91.6,78.9,91.8,78.8,92,78.7z"/>
	<path class="st0" d="M124.5,40.9c0,0.2,0,0.3,0,0.4c0,1.1,0.1,2.2,0.1,3.3c0.1,1.7,0.2,3.3,0.3,5c0.1,1.7,0.1,3.3,0.2,5
		c0.1,2,0.1,4,0.2,6c0,0.8,0.1,1.6,0.1,2.4c0,0.2-0.1,0.5,0.3,0.5c0.3,0,0.2-0.3,0.2-0.5c0-0.9-0.1-1.7-0.1-2.6
		c-0.1-2.3-0.1-4.6-0.2-7c0-0.8-0.1-1.6-0.1-2.3c-0.1-2.4-0.2-4.8-0.4-7.2c0-0.9-0.1-1.7-0.1-2.6C125,40.9,124.9,40.8,124.5,40.9z"
		/>
	<path class="st0" d="M107.4,67.9c0.3,0,0.5,0,0.6-0.1c0.1,0,0.2-0.2,0.2-0.3c0-0.4-0.1-0.8-0.1-1.2c0-1,0-2.1,0-3.1
		c0-1-0.1-1.9-0.1-2.9c0-1.2,0-2.3,0-3.5c0-2.3,0-4.6,0-6.9c0-2.1,0.1-4.2,0.1-6.3c0-1.5,0-3.1-0.1-4.6c0-0.1,0-0.3-0.1-0.5
		c-0.4,0.3-0.7,0.6-0.7,1.1c0,1.1,0,2.2,0,3.3c0,1.4,0,2.9,0,4.3c0,2.1,0.1,4.3,0.1,6.4c0,1.1-0.1,2.2,0,3.4c0,0.8,0,1.5,0,2.3
		c0,2.3-0.1,4.6-0.1,6.9C107.4,66.8,107.4,67.4,107.4,67.9z"/>
	<path class="st0" d="M98.6,73.3c-1,0.4-1.9,0.8-2.8,1.2c-0.1,0-0.1,0.3-0.1,0.5c0,0.1,0.2,0.2,0.3,0.2c0.3-0.2,0.4,0,0.6,0.2
		c0.2,0.2,0.4,0.4,0.6,0.7c0.5,0.9,0.9,1.7,1.4,2.6c0.3,0.6,0.6,1.2,1.3,1.5c1.8,0.9,3.5,1.9,5.2,2.8c0.2,0.1,0.4,0.2,0.6,0.3
		c0-0.3,0-0.6,0-0.8c0-0.4-0.1-0.8-0.1-1.1c0.1-0.4-0.1-0.8-0.4-1c-0.5-0.4-1-0.6-1.5-0.9c-0.7-0.4-1.3-0.7-2-1
		c-0.8-0.4-1.6-0.9-2.4-1.3C99.1,77,99,76.8,99,76.6C98.9,75.6,98.8,74.5,98.6,73.3z"/>
	<path class="st0" d="M106.9,83.7c0.4,0.2,0.9-0.1,0.9-0.7c0-0.5,0-1,0-1.5c-0.1-1.1,0.3-2.2-0.1-3.2c0-0.1,0-0.1,0-0.2
		c0-0.3,0-0.6,0-0.8c-0.1-1.3-0.1-2.6-0.2-3.9c0-0.5,0-1.1,0-1.6c-0.1-1,0.2-1.3,1.1-1.7c1.1-0.4,2.1-0.8,3.2-1.3
		c0.8-0.3,1.6-0.6,2.4-0.9c0.5-0.2,0.9,0.1,1,0.5c0.1,0.3,0.1,0.7,0.2,1c0.2,1.6,0.3,3.2,0.4,4.7c0.1,1.3,0.2,2.6,0.3,3.8
		c0,0.1,0.2,0.3,0.3,0.3c0.2,0,0.3-0.1,0.4-0.3c0.1-0.1,0-0.2,0-0.4c-0.1-1.5-0.2-3-0.3-4.5c0-0.8-0.1-1.7-0.1-2.5
		c-0.1-0.9-0.2-1.8-0.3-2.7c0-1.2-0.9-1.9-2.1-1.5c-0.8,0.3-1.5,0.5-2.3,0.8c-1.6,0.6-3.3,1.3-4.9,1.9c-0.5,0.2-0.7,0.5-0.7,1
		c0.1,1.2,0.1,2.5,0.1,3.7c0,0.7,0.1,1.4,0.1,2.1c0,0.5,0,1,0,1.5c0,0.4,0.2,0.9,0.2,1.3c0.1,1.3,0.2,2.7,0.2,4
		C106.9,83.1,106.9,83.4,106.9,83.7z"/>
	<path class="st0" d="M152.6,82.5c-0.3-1-0.3-1-1.1-1c-1.1,0-2.1,0.1-3.2,0.1c-1.3,0-2.5,0.1-3.8,0.1c-1.5,0.1-3,0.2-4.6,0.2
		c-1.8,0.1-3.7,0.1-5.5,0.2c-1.9,0.1-3.8,0.2-5.7,0.3c-1.7,0.1-3.5,0.1-5.2,0.2c-0.5,0-0.9,0-1.4,0c-1.8,0.1-3.6,0.2-5.4,0.3
		c-1.4,0.1-2.8,0.1-4.1,0.2c-0.8,0-1.4,0.7-1.3,1.6c0.1,0.9,0.1,1.9,0.2,2.8c0.2,2.2,0.3,4.4,0.5,6.5c0,0.3,0.1,0.6,0.2,1
		c0,0,0.1,0,0.1,0c0-0.2,0.1-0.3,0.1-0.5c0-1-0.1-2.1-0.2-3.1c0-1.1-0.1-2.3-0.1-3.4c0-1-0.1-2.1-0.1-3.1c0-0.8,0.3-1.1,1.1-1.1
		c1.3,0,2.6-0.1,3.9-0.2c2.2-0.1,4.3-0.2,6.5-0.3c1.1,0,2.2-0.1,3.3-0.1c0.9,0,1.7-0.1,2.6-0.1c0.8,0,1.7,0,2.5,0
		c1.3,0,2.7-0.1,4-0.2c1.2,0,2.5-0.1,3.7-0.1c1.3,0,2.7-0.1,4-0.1c2.1-0.1,4.2-0.1,6.2-0.2C150.8,82.6,151.7,82.5,152.6,82.5z"/>
	<path class="st0" d="M94.9,43.9c-0.2,0.2-0.4,0.5-0.6,0.8c-0.3,0.3-0.7,0.5-1,0.7c-0.2,0.2-0.2,0.9,0.1,1.1
		c0.3,0.2,0.5,0.1,0.8-0.2c0,0,0.1,0,0.1-0.1c2.1-1.4,4.2-2.8,6.4-4.1c2.2-1.4,4.3-2.7,6.5-4.1c0.7-0.4,1.4-0.8,2.2-0.7
		c1.1,0.1,2.1,0.3,3.2,0.5c1.1,0.2,2.2,0.4,3.3,0.7c1.1,0.3,2.2,0.3,3.3,0.6c1,0.2,2,0.3,3,0.5c0.9,0.1,1.8,0.3,2.8,0.4
		c0.4,0,0.7-0.2,0.8-0.6c0.1-0.4-0.3-0.6-0.6-0.7c-1.1-0.2-2.1-0.4-3.2-0.6c-1.7-0.3-3.4-0.5-5-0.8c-0.8-0.1-1.7-0.3-2.5-0.4
		c-0.9-0.1-1.8-0.3-2.7-0.4c-0.9-0.1-1.9-0.2-2.8-0.3c-0.4,0-0.9,0.1-1.3,0.3c-0.9,0.5-1.7,1.1-2.6,1.7c-0.5,0.3-1.1,0.6-1.6,0.9
		c-0.5,0.3-0.9,0.7-1.4,1c-0.7,0.5-1.5,0.9-2.2,1.3c-1.3,0.8-2.6,1.6-3.9,2.4C95.5,43.8,95.2,43.8,94.9,43.9z"/>
	<path class="st0" d="M155.6,84.2c0.5,0,0.7-0.2,0.7-0.7c0-1.1,0.1-2.1,0.1-3.2c0-0.5-0.1-0.9-0.6-1.1c-0.4-0.2-0.9-0.4-1.3-0.4
		c-1.1-0.1-2.3,0-3.4,0c-1.2,0-2.4,0.2-3.6,0.2c-1.8,0.1-3.7,0.2-5.5,0.3c-2.6,0.1-5.2,0.3-7.9,0.4c-1.5,0.1-2.9,0.1-4.4,0.2
		c-0.8,0-1.5,0.1-2.3,0.1c-1.9,0.1-3.8,0.2-5.7,0.3c-0.9,0-1.7,0.1-2.6,0.1c-2.1,0.1-4.2,0.2-6.3,0.3c-1.3,0.1-2.4,0.7-3.2,1.7
		c-0.7,0.9-0.5,1.9-0.4,2.8c0.2,1.8,0.5,3.5,0.7,5.3c0.2,1.5,0.3,3,0.5,4.5c0,0.2,0.2,0.4,0.4,0.6c0.1,0,0.1-0.1,0.2-0.1
		c0-0.6-0.1-1.3-0.2-1.9c-0.1-0.6-0.2-1.3-0.3-1.9c-0.1-0.7,0-1.5-0.1-2.2c-0.1-1-0.2-2-0.3-3c-0.1-0.6-0.1-1.2-0.2-1.8
		c0-0.7,0-1.3,0.5-1.9c0.8-0.9,1.8-1.1,2.8-1.2c2.1-0.1,4.2-0.2,6.2-0.3c2.1-0.1,4.3-0.2,6.4-0.3c2.1-0.1,4.3-0.2,6.4-0.3
		c2.4-0.1,4.7-0.2,7.1-0.3c2.1-0.1,4.1-0.1,6.2-0.2c0.9,0,1.9-0.1,2.8-0.1c1.8-0.1,3.5-0.1,5.3-0.1c0.8,0,1,0.2,1.1,1
		C155.2,82.2,155.4,83.2,155.6,84.2z"/>
	<path class="st0" d="M133.5,63.6c-3.3,0.5-6.5,1.1-9.7,1.6c-0.2,2.5-1.2,3.4-3.2,3.7c-0.1-0.1-0.1-0.3-0.2-0.3c-0.1,0-0.2,0-0.4,0
		c0.1,0.1,0.2,0.2,0.3,0.2c-1-0.2-2.1-0.3-2.9-1c0,0.5,0,0.9,0.1,1.3c0.2,1.3,0.3,2.7,0.5,4c0.1,1.1,0.3,2.1,0.4,3.2
		c0.1,0.8,0.2,1.6,0.3,2.5c0,0.3,0.1,0.4,0.4,0.4c0.6,0,1.3,0,1.9,0c1.8-0.1,3.7-0.2,5.5-0.3c2.2-0.1,4.3-0.3,6.5-0.4
		c1.3-0.1,2.6-0.1,3.9-0.1c1.3-0.1,2.6-0.2,3.9-0.2c1-0.1,2-0.1,2.9-0.2c0.1-0.6,0.2-1.2,0.3-1.7c0.1-1,0.1-2,0.2-3
		c0-0.6,0.1-1.2,0.1-1.7c0.1-1.2,0.1-2.5,0.1-3.7c0-0.5-0.3-0.9-0.6-1.1c-0.8-0.5-1.8-0.9-2.7-1.3c0,0,0,0.1-0.1,0.1
		c-0.1,0.1-0.1,0.2-0.2,0.3c-0.5,0.7-1,1.2-1.9,1.4c-0.9,0.2-1.7,0.1-2.5-0.3c-1-0.5-2-1-2.5-2.1C133.9,64.3,133.6,63.9,133.5,63.6z
		 M131.1,73.4c0,0.4,0,0.6,0,0.9c0,0.7,0,0.7,0.7,0.7c1.9-0.1,3.8-0.3,5.7-0.5c0.3,0,0.7,0,1,0c0.3,0,0.5,0.2,0.5,0.5
		c0,0.3,0,0.7-0.5,0.7c-1.3,0.1-2.7,0.2-4,0.3c-2.3,0.2-4.5,0.3-6.8,0.5c-1,0.1-2,0.1-2.9,0.1c-0.8,0-1.7,0.1-2.5,0.2
		c-0.5,0-0.7-0.1-0.7-0.6c0-0.5,0.1-0.6,0.6-0.7c1.2-0.1,2.4-0.1,3.6-0.2c1.2-0.1,2.4-0.2,3.6-0.3c0.1,0,0.2-0.2,0.3-0.3
		c0,0,0,0,0,0c-0.1-1.4,0.2-1-1.6-1c-1.3,0-2.6,0.2-3.9,0.3c-0.7,0-1.3,0-2,0.1c-0.6,0-0.5-0.4-0.5-0.7c0-0.3,0.1-0.5,0.5-0.5
		c1.7-0.1,3.4-0.2,5.1-0.3c0.7,0,1.4-0.1,2.2-0.2c0-0.4,0-0.9-0.1-1.3c0-0.1-0.2-0.2-0.2-0.2c-0.8,0-1.7,0.1-2.5,0.1
		c-0.6,0-1.1,0.1-1.7,0.2c-1,0.1-1.9,0.1-2.9,0.2c-0.1,0-0.2-0.1-0.3-0.2c-0.3-0.4,0-1.1,0.5-1.1c1-0.1,2-0.1,3.1-0.2
		c1.4-0.1,2.8-0.3,4.3-0.4c0.7-0.1,1.3-0.1,2-0.1c1.7-0.1,3.4-0.1,5.1-0.2c0.6,0,1.2-0.1,1.8-0.1c0.3,0,0.6,0.3,0.6,0.7
		c0,0.3-0.1,0.5-0.6,0.5c-1.2,0-2.3,0.2-3.5,0.2c-1.2,0.1-2.3,0.1-3.5,0.1c-0.4,0-0.6,0.2-0.7,0.5c0,0.4,0.1,0.7,0.2,1.1
		c0,0,0.2,0.1,0.3,0.1c1.6-0.1,3.3-0.3,4.9-0.4c0.7-0.1,1.5-0.1,2.2-0.1c0.5,0,0.4,0.3,0.5,0.6c0,0.3,0.1,0.6-0.4,0.6
		c-2,0.1-4,0.3-6,0.4C132.2,73.4,131.7,73.4,131.1,73.4z"/>
	<path class="st2" d="M129.1,41.7c-0.6,0.5-0.8,1-0.5,1.6c0.2,0.4,0.3,0.8,0.2,1.2c-0.2,0.7,0.5,1.2,0.5,1.9
		c0.1,0.5,0.7,0.9,1.3,1.1c0.8,0.4,1.8,0.6,2.8,0.4c1.8-0.3,2.2-1.4,1.9-2.4c-0.1-0.2,0-0.3,0.2-0.5c0.8-0.7,1-1.4,0.4-2.1
		c-0.4-0.4-0.6-0.8-0.4-1.4c0.1-0.3,0-0.6-0.2-0.8c0.7-0.8,0.9-1.7,0.6-2.7c-0.2-0.6-0.3-1.2-0.2-1.8c0.2-1-0.5-1.9-0.5-2.9
		c-0.1-0.8-0.7-1.3-1.3-1.8C133,31,132,30.7,131,31c-1.8,0.4-2.2,2.2-1.9,3.7c0.1,0.3,0,0.5-0.2,0.7c-0.8,1-1,2.1-0.4,3.3
		c0.4,0.7,0.6,1.3,0.4,2.1C129,41.1,129,41.4,129.1,41.7z"/>
	<path class="st1" d="M130,40.6C130.1,40.6,130.1,40.6,130,40.6C130.2,40.6,130.1,40.6,130,40.6c0-0.4,0.1-0.8,0.5-1.1
		c-0.4-0.6-0.8-1.2-1-1.8c-0.3-1-0.3-1.9,1.2-2c0.1,0,0.2-0.1,0.3-0.1c-0.2-0.3-0.4-0.5-0.5-0.8c-0.4-0.7-0.4-1.4-0.1-2.1
		c0.1-0.2,0.3-0.4,0.5-0.5c0.8-0.5,2.6,0,3.1,1.1c0.3,0.8,0.5,1.6,0.6,2.4c0.1,0.4,0,0.8-0.1,1.1c-0.1,0.3-0.1,0.4,0,0.6
		c0.1,0.1,0.2,0.3,0.2,0.4c0.4,0.9,0.3,2.2-1,2.4c-0.3,0-0.3,0.2-0.2,0.5c0.2,0.4,0.4,0.8,0.6,1.3c0,0,0.1,0,0.1,0
		c-0.1,0.1-0.2,0.1-0.3,0.2c0.4,0.4,0.8,0.8,1,1.2c0.3,0.7,0.3,1.2-1.2,1.3c-0.1,0-0.2,0.1-0.3,0.1c0.2,0.2,0.4,0.4,0.5,0.5
		c0.4,0.4,0.4,0.9,0.1,1.4c-0.1,0.1-0.3,0.2-0.5,0.3c-0.8,0.3-2.6,0-3.1-0.7c-0.3-0.5-0.5-1.1-0.6-1.6c-0.1-0.2,0-0.5,0.1-0.7
		c0.1-0.2,0.1-0.3,0-0.4c-0.1-0.1-0.2-0.2-0.2-0.3c-0.1-0.2-0.2-0.3-0.2-0.5c0,0,0,0,0,0c0,0.1,0.3,0.1,0.4,0c0.2-0.3,0.3-0.6,0.3-1
		c0.1-0.2,0-0.4-0.1-0.5C130.1,41.1,130.1,40.8,130,40.6z"/>
	<g>
		<path class="st2" d="M128,95.6l0.2,4.2l0.7,0l0,1.1l-0.7,0l0,1.1l-2.5,0l0-1.1l-3,0l0-1.1l2-4.2L128,95.6z M125.6,99.8l-0.1-2.7
			l-1,2.7L125.6,99.8z"/>
		<path class="st2" d="M134.9,95.6l0.2,6.4l-2.5,0l-0.1-3.4c0-0.5,0-0.8-0.1-0.9c0-0.1-0.1-0.2-0.3-0.2s-0.5-0.1-1.1-0.1l-0.2,0
			l0-0.7c1.2-0.2,2.1-0.5,2.7-1.1L134.9,95.6z"/>
		<path class="st2" d="M144.1,97.2l-2.5,0c0-0.3,0-0.5,0-0.6c0-0.1-0.1-0.1-0.2-0.2c-0.1-0.1-0.2-0.1-0.4-0.1c-0.1,0-0.2,0-0.3,0.1
			c-0.1,0.1-0.1,0.1-0.1,0.2c0,0.1,0,0.2,0,0.5l0,1c0.1-0.2,0.3-0.3,0.6-0.4c0.2-0.1,0.5-0.1,0.9-0.1c0.5,0,0.9,0.1,1.2,0.2
			c0.4,0.2,0.6,0.3,0.7,0.6c0.1,0.2,0.2,0.5,0.2,0.9l0,0.5c0,0.4,0,0.8,0,1c0,0.2-0.2,0.4-0.4,0.6c-0.2,0.2-0.5,0.3-0.9,0.4
			c-0.4,0.1-0.9,0.2-1.4,0.2c-0.7,0-1.2,0-1.7-0.2c-0.4-0.1-0.8-0.3-1-0.5c-0.2-0.2-0.4-0.5-0.4-0.7c0-0.2-0.1-0.7-0.1-1.4l0-0.9
			c0-0.8,0-1.3,0-1.5c0-0.3,0.2-0.5,0.4-0.7c0.2-0.2,0.6-0.4,1-0.5c0.4-0.1,0.9-0.2,1.5-0.2c0.7,0,1.3,0.1,1.7,0.2s0.8,0.3,1,0.6
			C143.9,96.4,144,96.8,144.1,97.2z M141.6,99.2c0-0.2-0.1-0.4-0.1-0.5c-0.1-0.1-0.2-0.1-0.4-0.1c-0.2,0-0.3,0-0.4,0.1
			c-0.1,0.1-0.1,0.2-0.1,0.5l0,1.2c0,0.3,0.1,0.5,0.1,0.6c0.1,0.1,0.2,0.1,0.4,0.1c0.1,0,0.2,0,0.3-0.1c0.1-0.1,0.2-0.2,0.2-0.5
			L141.6,99.2z"/>
		<path class="st2" d="M153,97.5l0.1,2.1c0,0.5,0,0.8-0.1,1.1c-0.1,0.2-0.2,0.4-0.5,0.6c-0.3,0.2-0.6,0.3-0.9,0.4
			c-0.4,0.1-0.8,0.1-1.2,0.1c-0.6,0-1.1,0-1.5-0.1c-0.4-0.1-0.7-0.2-1-0.4c-0.2-0.2-0.4-0.4-0.5-0.6c-0.1-0.2-0.2-0.5-0.2-1
			l-0.1-2.2c0-0.6,0-1,0.2-1.3c0.1-0.3,0.5-0.5,0.9-0.7c0.5-0.2,1-0.3,1.7-0.3c0.5,0,1,0,1.5,0.2c0.4,0.1,0.8,0.3,1,0.4
			c0.2,0.2,0.4,0.4,0.5,0.6C152.9,96.7,152.9,97,153,97.5z M150.4,97c0-0.3,0-0.6-0.1-0.6c-0.1-0.1-0.2-0.1-0.4-0.1
			c-0.2,0-0.3,0-0.4,0.1c-0.1,0.1-0.1,0.3-0.1,0.6l0.1,3.1c0,0.4,0,0.6,0.1,0.7c0.1,0.1,0.2,0.1,0.4,0.1c0.2,0,0.3,0,0.4-0.1
			c0.1-0.1,0.1-0.3,0.1-0.6L150.4,97z"/>
	</g>
</g>
</svg>
