<svg xmlns="http://www.w3.org/2000/svg" viewBox="0 0 201.37165 225.77549"><path d="M66.74737,225.77549l134.62428-4.82371c-3.64906-1.82669-7.27511-3.70118-10.97412-5.419-1.94279-.9022-1.71778-.83678-1.11856-2.59625,1.41869-4.16521,2.82015-8.32755,3.93083-12.593a116.71742,116.71742,0,0,0,3.52433-22.50538c.211-3.53115.35836-7.0828.22069-10.61324a41.05841,41.05841,0,0,0-1.15129-8.86563,16.01434,16.01434,0,0,1-.57007-6.264c.25951-2.06608.34219-4.15479.52586-6.23165.10783-1.21887.2854-2.43162.39-3.65085.37275-4.32624.762-8.65248,1.07186-12.98412a5.71693,5.71693,0,0,0-1.62288-4.217c-1.48629-1.707-3.56746-1.75192-5.51312-1.82812-2.86511-.11215-5.74244.12688-8.61474.17864-5.4725.09957-10.94465.174-16.41715.25161a7.06163,7.06163,0,0,1-.87272-.09741,4.5862,4.5862,0,0,1-.0834-.65454c.07513-2.71271.12617-5.4265.24694-8.13705.14845-3.32771.40545-6.65147.52443-9.9799q.18277-5.10318.14988-10.21174a2.15379,2.15379,0,0,0-.93814-1.5341c-2.94311-1.74042-5.96386-3.35-8.9102-5.08467a1.98,1.98,0,0,1-.82672-1.42626c-.03343-1.71777.13587-3.43806.17577-5.15871a11.89771,11.89771,0,0,0-2.67569-8.33258c-.77352-.90508-1.80833-1.81842-3.03043-1.54237a19.04757,19.04757,0,0,0-4.64039,1.76306c-2.27278,1.2027-4.43123,2.62034-6.72914,4.00131a3.3524,3.3524,0,0,1-.31056-.74979c-.10459-1.38817-.27494-2.77921-.25772-4.167.0399-3.21377-.32026-6.28952-2.32235-8.976a3.48074,3.48074,0,0,1-.61932-1.58046c-.229-1.80764-.41012-3.62425-.52766-5.44267-.20632-3.19364-.2825-6.39735-.569-9.58308-.07872-.877-.49567-2.189-1.12611-2.46829a3.93859,3.93859,0,0,0-5.54765,3.772c.2351,4.804.23256,9.62047.25988,14.432a10.07464,10.07464,0,0,1-.52982,2.60882,11.56245,11.56245,0,0,0-.65347,1.76379c-.10891,1.20592-.04313,2.42731-.04277,3.64186,0,2.06751.00647,4.135.00755,6.20253.00143,2.50567.00038,5.011.00038,7.70823-3.21775.43385-6.32692.85332-9.62084,1.29759,0-1.39248.00577-2.4744-.00142-3.55668-.01332-2.11316.0273-4.22884-.06328-6.33876-.19338-4.49805-.5-8.99108-.67971-13.48949-.2275-5.71117-.36088-11.42558-.56145-17.13819q-.22536-6.41172-.52766-12.82057c-.06575-1.38206-.31091-2.75513-.376-4.13718a21.45919,21.45919,0,0,1,.03666-4.355,9.61051,9.61051,0,0,1,1.33317-2.8475c.68761-1.25193.41228-2.29072-.88135-2.556q-4.66915-.95809-9.37245-1.74185c-3.391-.569-6.80172-1.01938-10.19377-1.58227-4.09692-.6797-8.18123-1.43417-12.27422-2.13544-3.85214-.66065-7.7032-1.32634-11.56468-1.92805-2.17606-.33931-4.41357-.84361-6.49224.33429-1.95426,1.10744-3.85178,2.317-5.75,3.51965q-6.73742,4.268-13.45142,8.57377Q34.97793,29.73121,25.2038,36.00168A3.61447,3.61447,0,0,0,23.477,39.22084,7.08038,7.08038,0,0,0,26.29327,44.955a2.45906,2.45906,0,0,1,.85834,1.1973c.29151,1.18472.40869,2.41078.6481,3.60988.7433,3.71914,1.53228,7.4293,2.26123,11.151.39574,2.02042.66281,4.06673,1.06969,6.085.30373,1.50391.81594,2.96648,1.0981,4.4729.51544,2.754.87812,5.5372,1.40146,8.2898.41839,2.20051,1.0298,4.36363,1.46832,6.5609.73866,3.70261,1.36552,7.4275,2.12646,11.12544.33464,1.62648.06041,2.4611-1.477,3.06352-2.65447,1.03951-5.28415,2.17894-8.00908,2.992a9.96029,9.96029,0,0,0-6.44154,5.2518c-.27175.53881-.84614,1.23145-1.34577,1.28824a6.03986,6.03986,0,0,0-3.20406,1.6484,37.98126,37.98126,0,0,0-9.39869,10.596,57.77344,57.77344,0,0,0-4.277,9.21789,54.8868,54.8868,0,0,0-2.09123,9.30451c-.48774,3.04915-.71924,6.14717-.91046,9.233a39.76151,39.76151,0,0,0,.09417,5.94984c.17864,2.02186.57187,4.02827.93742,6.02928.44789,2.45068.89214,4.90674,1.47623,7.32722a51.10859,51.10859,0,0,0,1.64517,5.22845c.51867,1.44675.79436,3.01679,1.89066,4.20942.02336.02588.00683.08411.0248.119.99422,1.90144,1.58265,4.05953,3.03441,5.66516a41.73155,41.73155,0,0,0,5.4513,5.23527c3.162,2.41761,6.539,4.55341,9.81817,6.81825,2.23175,1.54093,4.43513,3.12355,6.682,4.64147,2.67278,1.80512,5.41245,3.51211,8.059,5.35389,1.96363,1.3666,3.77306,2.955,5.74354,4.31079,3.02684,2.08224,6.15866,4.01209,9.19846,6.07708,2.95964,2.01,5.85315,4.11633,8.788,6.16335,1.15487.80551,2.37913,1.51469,3.5067,2.35614Q66.58472,225.65005,66.74737,225.77549ZM97.62019,24.15556c1.50247.27533,3.08114.56468,5.016.91909a54.18006,54.18006,0,0,1-6.71006,5.68925C96.51383,28.47209,97.04472,26.39991,97.62019,24.15556ZM68.68476,27.88728V20.21464c5.80535.76273,11.5255,1.51432,17.37362,2.28317-.61464,1.68255-1.94817,1.89642-3.148,1.951-1.87305.08591-3.758-.129-5.63892-.17684a9.13444,9.13444,0,0,0-5.246,1.68793c-.987.63981-1.91981,1.36373-2.877,2.04954Q68.9166,27.948,68.68476,27.88728Zm39.2719,43.9468q-1.756-2.07469-3.511-4.15011c-.13263-.15744-.21135-.39-.3749-.48669a3.31534,3.31534,0,0,1-1.6351-3.69829c.06794-.54168.17865-1.13009.26347-1.68219.32566-2.11963-.47841-4.05594-1.16135-5.91534-.39359-1.07042-.66857-2.19619-1.11787-3.25942-1.93847-4.58719-3.79-9.211-5.67738-13.82018-1.05424-2.575-1.06683-2.66023,1.07617-4.59187,3.05274-2.75116,6.14214-5.46208,9.2222-8.18269a12.01342,12.01342,0,0,1,1.01937-.7117,6.02039,6.02039,0,0,1,.26563,1.05065c.18082,3.89671.32781,7.79522.5187,11.69157.0981,2.00425.29148,4.00418.395,6.00843.0683,1.32418.01546,2.65448.08375,3.97866.20812,4.05271.48058,8.10182.66677,12.15561.15566,3.39708.22681,6.79776.331,10.197.0133.43277.0018.86626.0018,1.29938Q108.14016,71.77567,107.95666,71.83408ZM61.02721,25.28888c0,5.16158-.01078,10.013.00611,14.86472.00611,1.76306.09346,3.52576.11826,5.28882.05466,3.89959.07656,7.79953.14413,11.69876.04458,2.552.16714,5.103.21246,7.65539A31.21447,31.21447,0,0,1,61.392,68.6045a1.84326,1.84326,0,0,1-.82276,1.12721q-5.08538,3.25708-10.2236,6.43365-4.0971,2.54754-8.22581,5.044a8.57992,8.57992,0,0,1-1.18474.51544c-.68833-3.21808-1.42411-6.296-1.99526-9.40407-.98056-5.33915-1.82848-10.70238-2.78963-16.04585-.59128-3.28961-1.29109-6.56017-1.93631-9.84044a12.07966,12.07966,0,0,1-.42592-2.59589,2.283,2.283,0,0,1,.79363-1.602c2.854-2.019,5.77119-3.94811,8.67441-5.897,3.1027-2.08333,6.1903-4.19038,9.32643-6.22194,2.3849-1.54524,4.83342-2.99343,7.26217-4.46966A6.85,6.85,0,0,1,61.02721,25.28888Z" style="fill-rule:evenodd"/><path d="M84.31509,149.897q.21516-.24479.42917-.48956-2.5869-2.58528-5.1738-5.17021c-.79111,2.281-.46728,3.1142,1.14123,3.95206C81.88994,148.80317,83.1124,149.33083,84.31509,149.897Z" style="fill:#8c8d8e;fill-rule:evenodd"/><path d="M144.29482,82.7949c.08408.03487.16894.06938.25338.10388a20.67829,20.67829,0,0,0,.41228,3.77558c.39071,1.34072.24373,2.877,1.422,3.98908.98092.92593,1.74006.82744,2.32847-.41731.80622-1.70555.37022-3.52.51364-5.27876a32.59532,32.59532,0,0,0-.055-4.41646,21.4874,21.4874,0,0,0-.44714-3.76623,1.55023,1.55023,0,0,0-1.36265-.67576,3.13394,3.13394,0,0,0-1.59879,1.48917C145.14236,79.2828,144.76674,81.05664,144.29482,82.7949Z" style="fill:#b0b0b1;fill-rule:evenodd"/><path d="M96.86428,89.14085c.56864,1.49492,1.13907,3.18214,1.863,4.8007.27821.62256,2.00065.61213,2.2174.02121a11.75918,11.75918,0,0,0,.63408-2.81011,20.02479,20.02479,0,0,0-.08378-2.50639c-.0647-2.77525-.07764-5.553-.2153-8.32468a1.78219,1.78219,0,0,0-.90364-1.28284,1.75015,1.75015,0,0,0-1.40542.41335,6.04854,6.04854,0,0,0-2.05636,4.11346A47.4445,47.4445,0,0,0,96.86428,89.14085Z" style="fill:#b0b0b1;fill-rule:evenodd"/><path d="M71.33025,184.3038c.6851,2.07039,1.32421,4.02575,1.98879,5.97213a.774.774,0,0,0,.42666.39682,5.2307,5.2307,0,0,0,3.951-1.0413,7.61845,7.61845,0,0,0-.52946-10.48276c-1.11787-1.05245-3.24754-.95073-3.93337.37022A48.308,48.308,0,0,0,71.33025,184.3038Z" style="fill:#939598;fill-rule:evenodd"/><path d="M18.19864,149.73664a8.82422,8.82422,0,0,0,1.76342,6.1576,3.476,3.476,0,0,0,5.57278-.0949,8.1727,8.1727,0,0,0,1.09414-6.85491,11.00512,11.00512,0,0,0-1.11858-2.58619c-.92664-1.76378-3.8773-2.4956-5.11519-1.09917C19.23131,146.57139,17.80363,147.92469,18.19864,149.73664Z" style="fill:#939598;fill-rule:evenodd"/><path d="M127.94163,81.52679c-.00683,1.7264.31271,2.0481,1.47083,1.32059,1.38532-.86949,2.65484-1.92373,3.9733-2.9a2.18716,2.18716,0,0,0,.88528-2.01646c-.09058-2.78963-.10927-5.58214-.13371-8.37356a5.95506,5.95506,0,0,0-1.92625-4.82695,1.58652,1.58652,0,0,1-.51652-.90831c-.18116-1.36372-.34974-2.735-.40329-4.10806-.041-1.04741.19985-2.1092.12724-3.15158-.06326-.90544-.48992-1.78248-.58158-2.68935-.22034-2.17786-.317-4.36758-.5244-6.54651-.02411-.25053-.4008-.58266-.67326-.65491-.18978-.05068-.58876.22537-.69875.4511a2.39606,2.39606,0,0,0-.15528,1.06934c.09992,4.75362.22069,9.50724.31846,14.26086a4.86259,4.86259,0,0,1-.89573,3.58651,2.99331,2.99331,0,0,0-.63154,1.85364C127.65192,72.43866,127.80971,76.98273,127.94163,81.52679Z" style="fill:#909090;fill-rule:evenodd"/><path d="M17.85573,116.29848a7.28045,7.28045,0,0,0-1.20988.65526,37.28045,37.28045,0,0,0-7.724,8.57593,37.53662,37.53662,0,0,0-3.77164,9.08165,34.46751,34.46751,0,0,0-1.36229,7.68883c-.30984,3.79714-.38532,7.61765-.42342,11.42989a33.27955,33.27955,0,0,0,.44139,5.73849c.55354,3.34281,1.34468,6.64608,1.93668,9.98314.7347,4.14328,2.76914,7.69672,4.89811,11.21782.1323.21818.399.35477.88926.77423-.23256-.62758-.33642-.91909-.44784-1.20736a37.46678,37.46678,0,0,1-1.53448-4.0696c-.43167-1.68471-.54779-3.44849-.92628-5.15009-.18619-.83714-.83786-1.5837-.964-2.41868-.42234-2.78963-.74009-5.59759-1.02151-8.40591-.15206-1.51684-.18046-3.04878-.19769-4.57461-.00577-.50071.44245-1.12254.26525-1.48342-.67861-1.37954-.22466-2.71451-.11862-4.08362A69.64446,69.64446,0,0,1,8.534,137.09579c.79724-2.93664,1.3907-5.96422,3.15626-8.53208,1.16639-1.6962,2.46074-3.304,3.671-4.97036.80371-1.10636,2.13545-1.8806,2.281-3.40355C17.76119,118.94577,17.78312,117.69311,17.85573,116.29848Z" style="fill:#8c8d8e;fill-rule:evenodd"/><path d="M61.24,212.17313c.09166-.0683.18368-.13695.275-.206-.35836-.96546-.70053-1.93775-1.07868-2.89531-1.1315-2.86151-2.38526-5.68026-3.38127-8.58742a38.87868,38.87868,0,0,1-1.64013-6.58138c-.4892-3.13757-.79832-6.31108-1.01075-9.481a43.34628,43.34628,0,0,1,.1391-5.79744c.15851-2.3414.31451-4.69431.68689-7.00768a41.83549,41.83549,0,0,1,4.94916-13.06319c1.41225-2.62824,2.868-5.22916,5.46315-6.87109a2.09547,2.09547,0,0,0,1.01255-2.24328c-.09453-1.24187-.151-2.48626-.225-3.75042-1.30513-.18439-1.969.78359-2.77453,1.43561-2.85648,2.31229-4.37872,5.60945-6.00376,8.72977-2.09375,4.02107-4.17455,8.11044-5.07711,12.62719a49.25794,49.25794,0,0,0-1.19515,7.36532,78.969,78.969,0,0,0,.25089,10.12584,66.19576,66.19576,0,0,0,1.47551,10.399,38.472,38.472,0,0,0,7.23089,15.02575A6.32145,6.32145,0,0,0,61.24,212.17313Z" style="fill:#8c8d8e;fill-rule:evenodd"/><path d="M92.45789,72.0005c-.083-.1488-.16643-.29689-.25018-.4457-.78106.27137-1.57543.51256-2.33493.8357-.1923.08159-.27389.4245-.40617.64735.26167.092.59811.33464.77244.24874C91.0043,72.90989,91.72247,72.4383,92.45789,72.0005Zm-15.975,1.34144c-.02588.08806-.051.17649-.07692.26455.9385.51472,1.87739,1.0298,2.73,1.49708.26419-.47842.47518-.86015.7764-1.40614C78.67006,73.56875,77.57627,73.45552,76.48285,73.34194Zm7.58029.63478c-.08626.128-.17219.25628-.2581.38388.64125.87416,1.28251,1.749,2.11891,2.88991.26671-1.29543.45721-2.22135.698-3.38989C85.594,73.90734,84.82837,73.94221,84.06314,73.97672Zm25.04591,12.29506c-.14775-3.0531-.19232-6.08607-.4921-9.09352a6.32659,6.32659,0,0,0-1.29722-3.33382c-1.50427-1.753-3.32553-3.23138-4.9869-4.85282a1.63429,1.63429,0,0,0-2.39136-.13875c-2.2839,1.75588-4.55341,3.5308-6.82616,5.30033-1.32563,1.03232-2.50531,2.48195-4.54191,1.37487-.29942,1.52547-.61824,2.877-.79509,4.24644a1.29189,1.29189,0,0,0,.57978,1.087,2.34473,2.34473,0,0,0,3.14584-1.34863,15.6007,15.6007,0,0,1,6.44479-6.2338,4.47272,4.47272,0,0,1,2.47691-.76346c3.02974.37095,4.79388,2.44924,5.55268,5.17237.79866,2.86655,1.15667,5.85567,1.711,8.80884C107.86644,86.46876,108.34126,86.39364,109.10905,86.27178Zm-40.03286.84469a8.36308,8.36308,0,0,0,.96872-.074c1.7368-.38389,2.9111-1.65164,4.23888-2.68719.2818-.21962.8986-.46224,1.02009-.34363a1.50808,1.50808,0,0,1,.47123,1.15561,2.57537,2.57537,0,0,1-.82741,1.42842,42.29512,42.29512,0,0,1-4.34388,2.99343c-1.10816.64448-1.84789,1.25661-1.477,2.6915a24.94087,24.94087,0,0,1,.29582,2.64873c.03954.2721.21747.67971.42163.74476A2.98843,2.98843,0,0,0,72.43338,94.108a18.02474,18.02474,0,0,1,3.5786-7.04c1.86407-2.53083,4.04516-4.56384,7.28915-5.245a1.33156,1.33156,0,0,0,.9669-1.97549c-.70451-1.52224-1.23938-3.12319-1.78214-4.52358a24.08749,24.08749,0,0,0-2.54772,1.72029A1.41814,1.41814,0,0,1,78.2017,77.4c-2.73281-1.37091-5.45992-2.75332-8.19779-4.11453a4.38921,4.38921,0,0,0-.92772-.21854Zm-29.45084.27426A5.09639,5.09639,0,0,0,42.691,92.12026c1.65416.74045,3.76015.64125,4.86864,2.4744.06362.10568.29007.15276.4432.15816a21.11552,21.11552,0,0,1,7.77508,2.26879c.3749.16535.68368.50106,1.06647.624.87452.28217,1.80655.40258,2.65915.73291,1.27745.49531,1.66637.344,1.72819-1.023.06291-1.39679-.092-2.80832.04134-4.1954.10136-1.05245.06722-1.72964-1.23253-1.69369a2.62341,2.62341,0,0,1-1.06179-.37166c-1.16924-.54708-2.29216-2.3202-1.84859-3.1559.57511-1.08336.96616-2.43091,2.20338-2.94851,2.22061-.92879,1.94672-3.01176,2.17856-4.72486a40.11718,40.11718,0,0,0-.06434-5.36683c-.00108-.80443-.4928-1.27817-1.25949-.94641-1.53086.66245-3.06963,1.3285-4.52573,2.13581-1.36516.75626-2.58906,1.76594-3.94379,2.54377-3.36582,1.93236-6.73451,3.86579-10.17832,5.6515C40.20726,84.9742,39.90173,86.064,39.62535,87.39073Z" style="fill:#939598;fill-rule:evenodd"/><path d="M62.55124,143.98557q-8.83094-5.10588-18.04649-10.43424a3.93378,3.93378,0,0,0-.092.92736q.80119,3.95476,1.63906,7.90161c.491,2.313,1.17935,4.6005,1.45717,6.938a56.757,56.757,0,0,1,.33788,7.94151A61.67885,61.67885,0,0,1,46.394,171.10905a38.83,38.83,0,0,1-2.41652,7.145c-1.85688,3.937-3.7249,7.81067-6.907,10.89037-.821.79436-1.56465,1.66924-2.414,2.58331a4.16934,4.16934,0,0,0,1.00823.29977c3.396-.05464,6.79312-.10352,10.18731-.22214,1.15884-.04025,1.67176-1.0014,1.94314-1.93918.115-.39862-.30229-.95217-.52191-1.55711.11646-.17684.51616-.51687.55713-.89537.13372-1.23791.1179-2.49129.19374-3.73675.18118-2.96.28216-5.92972.60746-8.87426A58.9707,58.9707,0,0,1,49.831,168.47a31.453,31.453,0,0,1,1.20161-4.17384c.80515-2.15306,1.69908-4.27556,2.63-6.37794a40.65926,40.65926,0,0,1,2.91042-6.034C58.37812,149.14967,60.519,146.63681,62.55124,143.98557Z" style="fill:#939598;fill-rule:evenodd"/><path d="M18.06349,126.2694l-.27783-.07585a2.543,2.543,0,0,0-.459.50071c-1.0298,2.01036-2.12862,3.99232-3.03657,6.05731a37.45265,37.45265,0,0,0-2.27742,6.14682,115.89475,115.89475,0,0,0-2.35183,11.86877,29.83542,29.83542,0,0,0-.03271,8.24416,98.37259,98.37259,0,0,0,2.60668,11.35009,45.47885,45.47885,0,0,0,4.61559,11.65167c1.98845,3.30974,4.31977,6.21691,8.11116,7.412a13.90306,13.90306,0,0,0,5.0811.52658,5.19619,5.19619,0,0,0,3.38088-1.92768c.85044-.93347,2.1279-1.47623,3.05382-2.58547a38.40711,38.40711,0,0,0,4.6997-6.86246c1.5607-2.99272,3.01644-5.93942,3.084-9.4429a53.16639,53.16639,0,0,1,.82923-5.70686c.06038-.46224-.216-.95827-.22034-1.43992-.0151-1.74689.04924-3.49558.01689-5.2421-.009-.49136-.48129-1.06719-.33713-1.45287.7354-1.964-.08773-3.8392-.58052-5.56452-.31954-1.12-.069-1.19586.57582-1.35977-.23-.6779-.64987-1.27781-.56612-1.79649a7.44584,7.44584,0,0,0-.35477-3.50707c-.11394-.36268-.24334-.72212-.33212-1.09091-.541-2.23321-.91118-4.52249-1.64373-6.69029-1.088-3.221-2.354-6.38908-3.69039-9.51766a47.09,47.09,0,0,0-3.14511-6.14178,14.70775,14.70775,0,0,0-2.73356-2.55635c-.216,1.39966-.399,2.51681-.55893,3.63683-.53844,3.76336-1.04741,7.531-1.60886,11.29079-.40869,2.73715-.96367,5.45525-1.285,8.20174a9.20143,9.20143,0,0,0,.4119,3.1214c.24191.996.83714,1.92229.98092,2.9219.22034,1.53266.19374,3.10234.26024,4.65693a14.35217,14.35217,0,0,1-2.71667,8.78871,7.08435,7.08435,0,0,1-3.92222,3.00242c-2.03193.56612-4.442-.80012-5.56452-2.40718a24.51216,24.51216,0,0,1-2.84463-5.79313c-1.13044-3.16956-.55318-6.44407.03667-9.6431a9.40646,9.40646,0,0,1,1.33892-2.53263c.51184-.92269,1.44567-1.83208,1.4658-2.76339.05248-2.4248-.29546-4.85858-.48127-7.28912a2.3216,2.3216,0,0,1,.005-.36052Q17.82841,129.08383,18.06349,126.2694Z" style="fill:#cbccce;fill-rule:evenodd"/><path d="M78.74518,150.6755c0,.97337-.00611,1.849.00108,2.72457q.03936,4.56078.08626,9.12192c.028,3.06352.0417,6.127.08663,9.19056.02013,1.37307.03343,2.66311,1.19373,3.80254a10.1982,10.1982,0,0,1,3.047,6.22877c.43277,4.61955-.16965,9.10826-3.87837,12.50534-1.73179,1.58586-4.70078,2.19547-6.60439.99026a9.89239,9.89239,0,0,1-4.2371-5.64359,17.06851,17.06851,0,0,1,1.00895-11.9173,4.14787,4.14787,0,0,0,.362-2.23573c-.71491-3.86328-.69911-7.81462-1.57038-11.66676a56.37225,56.37225,0,0,1-.85405-7.20394c-.08768-.94425-.25341-1.2487-1.24187-.72966a8.03241,8.03241,0,0,0-3.423,3.681c-2.55563,5.06418-3.39527,10.57334-3.89923,16.12816a72.10359,72.10359,0,0,0-.09093,7.69169,42.87973,42.87973,0,0,0,.36591,6.72732,104.77939,104.77939,0,0,0,2.69186,12.03124,55.47854,55.47854,0,0,0,3.98333,9.53635c1.42339,2.7278,3.9165,4.51495,6.57527,6.11231,2.47476,1.48665,4.96893,2.55239,7.88759,2.35362a17.13209,17.13209,0,0,0,2.39281-.34219c1.22644-.26023,2.43917-.587,3.50384-.84756a5.65855,5.65855,0,0,1,1.01075-1.055,13.98325,13.98325,0,0,0,5.9218-7.05728c.89358-2.25838,2.15342-4.3913,2.41006-6.91423.22465-2.20409.909-4.36218,1.1193-6.56628.20632-2.16492-.0514-4.37153.11143-6.54364a56.736,56.736,0,0,0-.79724-13.97762,61.49612,61.49612,0,0,0-3.08581-11.03019,39.99653,39.99653,0,0,0-7.443-12.037C83.73351,151.8099,81.377,151.21,78.74518,150.6755Z" style="fill:#cbccce;fill-rule:evenodd"/><path d="M192.666,159.68815a9.31645,9.31645,0,0,0-.11607-1.409c-.63228-2.77561-1.24621-5.55733-1.96186-8.31137a39.28167,39.28167,0,0,0-3.5689-8.4742c-.78035-1.4676-1.75407-2.58115-3.77519-2.45319-3.79465.24046-7.60689.19733-11.41015.32062-3.77917.12293-7.55547.34794-11.33533.45254-5.77734.16031-11.55716.22429-17.33447.38783-5.96278.16894-11.9241.41121-17.88583.61645-4.87654.16786-9.75273.34254-14.63.48848-3.60556.10819-7.21256.18116-10.81956.25592-1.54668.03163-3.09551-.01078-4.64111.04924-3.11061.12114-6.22014.28037-9.3286.44427-1.258.06578-2.51321.18584-4.01209.29942.376.44715.56864.69732.78251.927a53.01969,53.01969,0,0,1,5.00055,5.45525c2.13113,3.06173,3.86832,6.39519,5.85567,9.56115a2.38039,2.38039,0,0,0,1.611,1.01722c2.28245.1082,4.57282.02337,6.86031.028,4.53328.00971,9.06728.03954,13.60058.04457,3.3568.0036,6.71327-.03235,10.0701-.02624,5.48221.00971,10.96477.02013,16.44662.06506,5.025.041,10.0493.12581,15.07392.1959,5.14684.07224,10.29333.17972,15.44018.21279,2.64621.01689,5.29281-.12365,7.93971-.14126C184.53,159.66874,188.53274,159.68815,192.666,159.68815Z" style="fill:#8c8d8e;fill-rule:evenodd"/><path d="M88.6647,221.10274a20.87713,20.87713,0,0,0-2.27956,1.49456c60.15-6.191,93.75607-4.63213,95.6417-6.05048,4.84959-3.64726,4.71408-7.723,5.14326-8.88073,1.207-3.2587.49279-2.02618,1.592-5.3237.51256-1.53769.881-3.12391,1.36048-4.8521-6.2471,0-12.29974-.00072-18.35238.00036-5.18711.00108-10.37529-.04817-15.56168.02911-2.78459.04134-2.78423.13982-3.13433-2.39568a.85323.85323,0,0,1,.07189-.2703,5.34835,5.34835,0,0,1,1.36085-.3864c2.17069-.03343,4.34241-.0133,6.51416.01186,2.92334.03379,5.846.1179,8.76966.1276,3.208.01079,6.41712-.09345,9.62406-.04708,3.28566.04816,6.56952.25736,9.85554.30157.62614.00827,1.689-.2818,1.81518-.67252.65993-2.03587,1.09809-4.14472,1.57507-6.237a11.86245,11.86245,0,0,0,.09238-1.47767c.30121-3.162.83534-6.3215.86589-9.486.04278-4.41969-.298-8.84263-.45253-13.2652-.02984-.85331-.4263-1.13368-1.239-1.09558-1.04705.04853-2.0984.03846-3.14727.02229-6.167-.09382-12.33281-.23256-18.50012-.28863-8.80019-.08016-17.6015-.078-26.40172-.15708-6.57922-.05931-13.15773-.225-19.73695-.28252-7.0695-.06147-14.13973-.05392-21.20959-.07261-2.3964-.00683-4.79277-.00108-7.19495-.00108a1.88457,1.88457,0,0,0-.04529.55965c.89789,3.19149,1.8177,6.37686,2.71235,9.56906a46.812,46.812,0,0,1,1.94135,9.89149,87.4319,87.4319,0,0,1-.96043,21.0924c-.13084.71062.13156.98236.84505.96151,1.17609-.03415,2.354-.00287,3.53044-.02516,3.1027-.05715,6.2054-.1294,9.30846-.19374q5.74477-.11808,11.49064-.2304c3.33274-.06,6.66872-.03127,9.99787-.17577a14.925,14.925,0,0,1,7.18273,1.16963,5.78356,5.78356,0,0,1,1.06215.845c-.06685.10748-.13335.21531-.20018.32242-1.23219,0-2.46544-.01581-3.69761.00324-4.88373.07548-9.76709.14593-14.65013.25161-2.59553.05607-5.18926.21674-7.78479.266-5.52352.1046-11.04744.22609-16.57063.20668-1.35941-.005-1.80224.55031-2.18576,1.65415C95.25039,216.99792,92.91725,219.33105,88.6647,221.10274Z" style="fill:#8c8d8e;fill-rule:evenodd"/><path d="M78.0094,33.918c-.03127.0913-.0629.18188-.09453.27281.29977.431.57187.88387.90507,1.28717.487.58876,1.00213,1.28536.39287,1.92229a1.48757,1.48757,0,0,1-2.11205-.10747c-.53775-.47518-.87635-1.18652-1.43672-1.62109a3.525,3.525,0,0,0-1.80224-.7426c-.29618-.02049-.83786.61644-.93131,1.0316-.5291,2.34679-.932,4.72162-1.43382,7.07453a5.32552,5.32552,0,0,1-.73757,1.904A5.79265,5.79265,0,0,0,69.326,48.60659c.0485,1.60023-.56579,3.21017-.64271,4.8273-.10459,2.20877-.01545,4.43012.06362,6.64357.10245,2.85109.28648,5.69895.41734,8.54932a2.465,2.465,0,0,0,2.20192,2.38634c2.446.10459,4.89308.23867,7.34016.25233,3.47652.019,6.98146.29438,10.38823-.69481,1.92086-.55749,3.81871-1.19514,5.732-1.7778.41587-.12652.9367-.05427,1.26919-.27964.84576-.57439,1.58585-1.30334,2.41832-1.90109a4.31438,4.31438,0,0,0,2.10525-3.42368c.22465-3.71771-1.28714-7.03787-2.40754-10.39111-1.308-3.91612-3.14224-7.6597-4.80969-11.4511-1.1441-2.60307-2.37052-5.17093-3.60448-7.73339-.60027-1.24546-1.26524-1.3249-2.36154-.59056a2.26247,2.26247,0,0,1-1.44351.14629,14.29941,14.29941,0,0,0-1.73755-.46476,1.21425,1.21425,0,0,0-.87416.8163c-.04493,1.92193-.74081,2.34248-2.5096,1.496C79.95254,34.57685,78.96552,34.2796,78.0094,33.918ZM93.73932,53.08559a3.9282,3.9282,0,0,1-1.7825,5.52355,11.58838,11.58838,0,0,1-5.81828,1.37918,60.29354,60.29354,0,0,1-6.51776-.41049,19.11807,19.11807,0,0,1-3.66056-1.30118,1.5592,1.5592,0,0,0-1.75767.11107c-.31846.25449-1.06107.10208-1.54668-.06074a1.60375,1.60375,0,0,1,.03128-1.23253,8.112,8.112,0,0,1,1.67068-1.92625c.229-.18763.90258-.018,1.267.18188a36.5941,36.5941,0,0,0,3.222,1.91259,9.0695,9.0695,0,0,0,3.55812.83211,50.63674,50.63674,0,0,0,7.54181-.68043c2.25118-.39215,2.48877-.99565,2.55706-3.27775C92.51468,53.78543,93.28209,53.4569,93.73932,53.08559Zm-11.11109-.09022c.67827,0,1.359.03559,2.0348-.00754,1.34469-.08591,2.03408-.64628,1.76989-1.91439a38.529,38.529,0,0,0-1.66385-4.89883c-.06794-.19195-.25125-.3652-.25952-.55247-.02552-.56755.00934-1.138.02049-1.707.51687.28971,1.24438.45146,1.51325.89214a55.51127,55.51127,0,0,1,2.65735,4.9585,3.76572,3.76572,0,0,1-.80515,4.08254,3.51783,3.51783,0,0,1-4.07212.44032,14.67965,14.67965,0,0,1-1.36552-.93671C82.51465,53.233,82.5718,53.114,82.62823,52.99537Zm8.3563-9.87135a18.86677,18.86677,0,0,0-2.55024.73758c-.97442.42989-1.4029-.19051-1.52547-.8375a1.66712,1.66712,0,0,1,.68079-1.40686,5.03566,5.03566,0,0,1,4.3744-.07189c.408.16822.6222.808.92485,1.23181-.41228.17181-.817.36555-1.24008.5043a2.06351,2.06351,0,0,1-.615.01042C91.01724,43.23581,91.00071,43.1801,90.98453,43.124Zm-17.521,3.5671a7.9291,7.9291,0,0,1,.52982-1.43776c.8375-1.36229,3.16668-2.5409,4.40711-2.20734.34293.092.85044.47626.853.73111.00431.45433-.28576,1.289-.509,1.308A12.66107,12.66107,0,0,0,74.296,46.78386C74.1436,46.85826,73.901,46.74684,73.46354,46.69112Zm16.6569-9.77286c-1.49957.138-2.92514.33428-4.35428.3616-.42918.00826-.86734-.45434-1.33785-.72248C85.83014,35.11781,89.12945,35.38488,90.12044,36.91826ZM73.74606,41.19058c.18368-.43528.23508-.86769.47842-1.079a6.46765,6.46765,0,0,1,3.78384-1.68111c.23867-.01905.68366.17613.70307.31739a1.15219,1.15219,0,0,1-.29726.82312,1.80125,1.80125,0,0,1-.75339.31811C76.45086,40.29593,75.2381,40.69563,73.74606,41.19058Z" style="fill:#eccbaa;fill-rule:evenodd"/><path d="M38.69329,93.47392c.2951.42342.64556.71493.71242,1.06107.23076,1.19551.37453,2.40862.52837,3.61743.16966,1.33568.27534,1.45178,1.5873,1.63114q-.45936-2.925-.9306-5.92036C39.9916,94.20215,39.67852,92.14866,38.69329,93.47392Z" style="fill:#cc2127;fill-rule:evenodd"/><path d="M74.66767,104.18421a1.88626,1.88626,0,0,0-2.03228,1.78822,2.77,2.77,0,0,0,2.37375,2.6437,2.61245,2.61245,0,0,0,1.80224-2.069C76.73949,105.25463,75.95232,104.00521,74.66767,104.18421Z" style="fill:#cc2127;fill-rule:evenodd"/><path d="M23.38862,127.04975c-1.30622-.05212-2.15917.48848-2.21668,1.51792-.03882.68725-.018,1.37774-.05176,2.06535-.069,1.40506-.18691,2.808-.22933,4.2141-.03989,1.32921-.00826,2.661-.00826,3.96608h2.506Z" style="fill:#cc2127;fill-rule:evenodd"/><path d="M72.61023,119.275c.91048-3.25655,1.82057-6.51057,2.71558-9.71068-1.01432-.32206-1.89821-.60279-2.90789-.92341-.68723,2.53766-1.44064,5.01709-2.019,7.53642C69.775,118.894,69.92771,118.47849,72.61023,119.275Z" style="fill:#cc2127;fill-rule:evenodd"/><path d="M57.74227,108.75272c-1.93775-.58769-3.98189-1.207-6.03646-1.82992-.523,4.46139-.26419,4.83593,3.291,6.14789a8.07218,8.07218,0,0,0,.75878.3598c.72679.18116,1.46508.31739,2.19906.47159a20.69229,20.69229,0,0,0,.14236-2.33206C58.05606,110.66639,57.87706,109.76922,57.74227,108.75272Z" style="fill:#cc2127;fill-rule:evenodd"/><path d="M75.39949,93.75716c1.32059-.4644,2.65592-.89,3.95674-1.40362,1.189-.46943,2.3547-1.005,3.5042-1.56573,1.00572-.49064,2.25082-.83714,2.89243-1.64373a17.10121,17.10121,0,0,0,1.75156-3.77737c.307-.69049.06721-1.03663-.63442-1.25517a5.97951,5.97951,0,0,0-5.11306.96582C78.54677,87.078,76.8779,90.29214,75.39949,93.75716Z" style="fill:#cc2127;fill-rule:evenodd"/><path d="M37.6031,83.68057c.12509-.06326.25054-.12617.37562-.18979a3.4742,3.4742,0,0,0,.21315-1.17825q-3.48943-18.75585-7.03-37.51243c-1.06287.12688-1.68147.4608-1.40542,1.71454.50933,2.31157.88423,4.65225,1.34036,6.97605q1.31232,6.68022,2.65448,13.35506,1.59322,7.909,3.23174,15.80933A3.69905,3.69905,0,0,0,37.6031,83.68057Z" style="fill:#cc2127;fill-rule:evenodd"/><path d="M40.12531,107.12337c-3.24,1.06071-6.4315,2.06176-9.58991,3.157a4.11981,4.11981,0,0,0-2.96144,3.2871c-.19015,1.12577-.35405,2.25945-.4511,3.39637-.25233,2.9582-.46224,5.92-.6869,8.88-.19589,2.57756-.431,5.15368-.551,7.73519-.0284.61177-.5406,1.721.63837,1.77744,1.27925.06218.8853-1.18508.96368-1.8594.28214-2.42838.38674-4.87726.62505-7.31176.3749-3.83776.83139-7.668,1.19586-11.50717.14486-1.5226.71817-2.56894,1.96328-2.983,2.63722-.877,5.28918-1.70879,7.93072-2.57289.48561-.15923.94965-.38388,1.38316-.56145C40.461,108.17294,40.3622,107.86454,40.12531,107.12337Z" style="fill:#cc2127;fill-rule:evenodd"/><path d="M82.41041,100.97835a4.144,4.144,0,0,0-2.864,3.93337,6.46169,6.46169,0,0,1-1.44962,4.26082,2.81132,2.81132,0,0,0-.46692,2.05278c.46658,2.31157,1.1114,4.58683,1.68794,6.87612.25377,1.00752,1.10169.76669,1.69731.64987.54635-.10675,1.34932-.487,1.46293-.90328a12.2495,12.2495,0,0,0,.26308-3.143c.00971-3.125-.00359-6.25033-.06-9.37532C82.65447,103.89234,82.50638,102.45673,82.41041,100.97835Z" style="fill:#cc2127;fill-rule:evenodd"/><path d="M42.57636,94.79379q-.17526.1898-.35083.37957c.3084.49028.5025,1.17.94533,1.437A32.1278,32.1278,0,0,0,49.36332,99.964c2.40072.808,2.40934.86518,2.47153,3.41973.02156.8925.24046,1.6653,1.09557,1.96148,1.48414.51436,3.02327.86481,4.51965,1.34611.78643.25269,1.24544-.04673,1.2868-.7613a42.75351,42.75351,0,0,0,.04419-4.98186c-.019-.32494-.74333-.69876-1.20844-.886-.666-.26814-1.41153-.33248-2.09016-.57547C53.264,98.6923,51.06025,97.8566,48.85,97.03743c-.266-.09885-.53377-.193-.80084-.28863Q45.313,95.77183,42.57636,94.79379Z" style="fill:#cc2127;fill-rule:evenodd"/><path d="M23.765,125.8528c0-1.29255-.07189-2.855.01546-4.40819.16249-2.89962.35728-5.80067.67755-8.68591a4.48723,4.48723,0,0,1,1.083-1.95465c2.05889-2.684,5.28344-3.2472,8.18557-4.35931,1.92769-.73793,3.99268-1.14159,5.86574-1.98412.71636-.32242,1.60526-1.56429,1.473-2.18648-.24334-1.14375-1.4712-.49136-2.15989-.25377q-4.62009,1.59323-9.16037,3.41614c-1.58011.63333-3.09048,1.44675-4.61164,2.21919-2.49453,1.26667-3.25724,3.575-3.4014,6.11087-.15852,2.80077-.10676,5.61269-.17289,8.41957-.02948,1.22893-.14342,2.4557-.18044,3.68464-.02011.66856.26059,1.04238.98774.70594C22.747,126.40059,23.11292,126.19212,23.765,125.8528Z" style="fill:#cc2127;fill-rule:evenodd"/><path d="M109.26431,26.29424c0,.44678-.01007.81162.00144,1.17609.09273,2.8953.16,5.79133.29186,8.68447.20129,4.40892.47087,8.815.66931,13.22351.19623,4.3665.35225,8.7348.50355,13.10345.18224,5.2608.33177,10.523.51329,15.78418q.10782,3.1336.30372,6.26327c.03453.53629-.15384,1.3666.76885,1.34755.90867-.01833.651-.80335.63981-1.32311-.05-2.27059-.15061-4.54047-.21531-6.81142-.175-6.11626-.33033-12.23325-.51508-18.34951-.06182-2.04271-.18691-4.08362-.28719-6.12525q-.46746-9.54156-.93347-19.08277c-.10856-2.29108-.17072-4.58432-.26312-6.87612C110.70891,26.48258,110.27218,26.13788,109.26431,26.29424Z" style="fill:#cc2127;fill-rule:evenodd"/><path d="M64.43149,97.4835a8.95654,8.95654,0,0,0,1.70519-.26491.96775.96775,0,0,0,.49567-.74405c-.01366-1.03627-.19194-2.07182-.18979-3.10737.00468-2.70013.12437-5.401.09993-8.1011-.023-2.5391-.21854-5.0764-.25375-7.61586-.04243-3.05022.02334-6.10188.00969-9.15283-.02732-6.07025-.11467-12.14015-.10568-18.2104.00827-5.55877.15061-11.11718.15851-16.67595.0054-4.02431-.11-8.04862-.18008-12.07293-.00683-.38784-.0726-.77352-.13335-1.38241-1.09055.85475-1.8939,1.51469-1.86406,2.85612.06541,2.937.0327,5.87616.0345,8.81424.00252,3.818-.02586,7.636.00539,11.45361.04565,5.6533.14737,11.30589.1952,16.95919.02516,2.95856-.17219,5.91389-.01332,8.87641.106,1.98125.05679,3.97256.037,5.95883-.0611,6.07709-.15707,12.15381-.20236,18.23053C64.21977,94.69171,64.3596,96.07952,64.43149,97.4835Z" style="fill:#cc2127;fill-rule:evenodd"/><path d="M41.19932,111.68217c-2.67245,1.15237-5.02787,2.12861-7.33223,3.21341-.27572.12976-.3645.85367-.35336,1.29758.004.17541.633.551.78179.47087.789-.42378,1.11966.09561,1.51684.58122a14.42713,14.42713,0,0,1,1.53518,1.84645c1.27027,2.24544,2.39532,4.5739,3.68787,6.80532.85943,1.48341,1.56825,3.02973,3.31154,3.92366,4.64471,2.38131,9.18051,4.9754,13.76809,7.4692a16.0907,16.0907,0,0,0,1.65125.66353c0-.86158.02734-1.50857-.00683-2.152a12.05689,12.05689,0,0,1-.1675-2.91975,2.52244,2.52244,0,0,0-.94713-2.59769,26.86781,26.86781,0,0,0-3.93121-2.43629c-1.72137-.9421-3.5096-1.76127-5.23564-2.69474-2.0851-1.12829-4.093-2.40862-6.22517-3.43411a1.55716,1.55716,0,0,1-1.01722-1.30082C41.87507,117.65609,41.57314,114.887,41.19932,111.68217Z" style="fill:#cc2127;fill-rule:evenodd"/><path d="M63.02894,139.03462a1.7486,1.7486,0,0,0,2.49273-1.80979,37.293,37.293,0,0,0-.08051-3.97184c-.32134-2.84893.77531-5.73238-.243-8.55651-.05068-.14126.03164-.32565.03164-.48956.00035-.73039.02015-1.46221-.0158-2.19116-.16894-3.46322-.3742-6.92429-.52373-10.38823-.0611-1.41045.04889-2.82916-.03055-4.23746-.14737-2.61026.41875-3.50312,2.90645-4.45456,2.83707-1.08552,5.65833-2.21237,8.49037-3.31154,2.06143-.80012,4.10483-1.65774,6.20361-2.34751a1.92556,1.92556,0,0,1,2.61638,1.42123,16.22281,16.22281,0,0,1,.42019,2.75261c.4076,4.15335.8332,8.30562,1.1725,12.46508.275,3.37444.41587,6.75966.68258,10.13482.0241.303.55785.81773.812.79329a2.07306,2.07306,0,0,0,1.18437-.71385c.16893-.18943.07835-.63585.05822-.9633-.2401-3.90893-.50283-7.81679-.73038-11.7268-.1276-2.19619-.15025-4.3992-.31056-6.59288-.175-2.39927-.56648-4.787-.65993-7.1874-.12725-3.26085-2.35974-4.9168-5.47394-3.85717-2.01036.684-4.01928,1.37774-6.00125,2.1376-4.3363,1.66242-8.62337,3.45747-12.99849,5.007a2.27573,2.27573,0,0,0-1.799,2.58546c.133,3.28135.24514,6.56305.36124,9.8444.06578,1.85472.13443,3.7098.17864,5.56452.03056,1.28788-.05715,2.58331.05392,3.8622.10244,1.18472.505,2.34464.58984,3.52864.25305,3.52612.42055,7.05872.60746,10.58916C63.05842,137.576,63.02894,138.23378,63.02894,139.03462Z" style="fill:#cc2127;fill-rule:evenodd"/><path d="M183.47108,135.9276c-.68222-2.53335-.71026-2.57612-2.94778-2.52975-2.83061.05859-5.66085.15743-8.4911.23579-3.313.0913-6.62846.13371-9.93892.28073-4.00383.17756-8.00226.49315-12.00644.656-4.85028.197-9.70709.24693-14.557.45218-5.03074.21243-10.05646.56037-15.08649.80155-4.58109.21962-9.16541.38209-13.74865.555-1.21671.046-2.43845-.00719-3.653.06182-4.78024.27354-9.55755.59164-14.33708.86626-3.62782.20847-7.25785.37957-10.88749.56109a3.69268,3.69268,0,0,0-3.4517,4.135c.22247,2.483.30553,4.97791.486,7.46524q.627,8.62607,1.30153,17.2489a23.71139,23.71139,0,0,0,.464,2.51178c.12006-.00036.24011-.00144.3598-.0018a4.93122,4.93122,0,0,0,.26312-1.22569c-.11467-2.75836-.30481-5.51384-.40867-8.27292-.114-3.00385-.15815-6.00987-.23723-9.01444-.073-2.76195-.20814-5.52318-.21065-8.28514-.00252-2.13077.8605-2.845,3.01356-2.91291,3.41577-.10748,6.82975-.284,10.24517-.41983q8.57757-.3413,17.15508-.66676c2.93844-.11071,5.87762-.20129,8.81639-.30014,2.24507-.07476,4.48979-.16534,6.73558-.21638,2.23142-.05068,4.46535-.02121,6.69568-.09849,3.53152-.12293,7.06088-.3199,10.5917-.45973q4.87616-.193,9.75559-.33032c3.49413-.10352,6.989-.16822,10.48312-.27749q8.20286-.25665,16.40493-.55067C178.66391,136.11415,181.04665,136.0189,183.47108,135.9276Z" style="fill:#cc2127;fill-rule:evenodd"/><path d="M31.475,34.23826a17.61951,17.61951,0,0,1-1.70553,2.04738c-.77893.71421-1.77459,1.19191-2.5517,1.90756a2.36151,2.36151,0,0,0,.14665,2.9219c.74656.57763,1.436.27354,1.98879-.42126.06686-.08411.22216-.09238.32242-.15708C35.252,36.924,40.809,33.28179,46.40655,29.7021,52.07567,26.07641,57.75737,22.46834,63.493,18.949c1.75084-1.07437,3.64546-2.115,5.82226-1.86263,2.78853.32386,5.56846.75375,8.33546,1.23361A84.7262,84.7262,0,0,1,86.25,20.0457c2.85468.807,5.78953.91693,8.66722,1.464,2.59121.49352,5.20759.86338,7.81786,1.25158,2.4097.358,4.82191.71781,7.24311.978a1.734,1.734,0,0,0,1.98486-1.60311c.18509-1.1689-.70091-1.629-1.60637-1.80727-2.809-.55282-5.63279-1.03663-8.45766-1.505-4.42617-.73434-8.85917-1.42986-13.28821-2.15019-2.20985-.35908-4.41682-.73505-6.62451-1.10708-2.32629-.39179-4.64327-.84828-6.98-1.16495-2.47188-.33572-4.9567-.65023-7.44509-.75159A6.58049,6.58049,0,0,0,64.218,14.405c-2.36944,1.33532-4.57929,2.94994-6.89731,4.38159-1.37381.84829-2.88167,1.48342-4.23533,2.35974-1.25373.81162-2.32487,1.90576-3.57932,2.7163-1.92229,1.243-3.95314,2.317-5.90165,3.52109-3.405,2.10418-6.76975,4.27377-10.18553,6.35961A7.2194,7.2194,0,0,1,31.475,34.23826Z" style="fill:#cc2127;fill-rule:evenodd"/><path d="M191.24832,140.48676c1.19982-.11107,1.71993-.54707,1.71706-1.79433-.00683-2.8245.18906-5.64863.2667-8.47385a2.71752,2.71752,0,0,0-1.48952-2.82449,10.06911,10.06911,0,0,0-3.39529-1.13476c-2.965-.1427-5.94625-.09345-8.91488.02732-3.13793.128-6.26651.46368-9.403.6434-4.864.27929-9.73117.50861-14.59729.74944q-10.34491.51059-20.69091,1.00572c-3.85681.18295-7.71506.33967-11.57259.51508-2.01.09093-4.02034.17864-6.02856.29869-4.98618.29834-9.96984.63262-14.95674.9155-2.28137.1294-4.56814.15887-6.85132.25808-5.49586.23939-10.99173.4777-16.48616.74656a11.32938,11.32938,0,0,0-8.37,4.45313c-1.86586,2.24759-1.29,4.92-1.02261,7.4577.49243,4.67382,1.18687,9.32572,1.72424,13.99487.45362,3.9402.76849,7.89693,1.23864,11.83462.07081.59308.656,1.12469,1.0032,1.6847q.21727-.10028.43456-.20021c-.13047-1.65738-.22105-3.31944-.40185-4.97144-.18188-1.6563-.5406-3.29608-.66317-4.95454-.14306-1.9356-.04385-3.88916-.17721-5.8262-.183-2.6613-.48309-5.3147-.73757-7.97134-.14737-1.537-.39287-3.07035-.43277-4.60984-.04529-1.75911-.00575-3.48551,1.27278-4.99912,1.97729-2.33961,4.63573-2.95425,7.42643-3.12606,5.4743-.33788,10.95831-.52227,16.43838-.76562q8.47614-.37688,16.952-.74332,8.40287-.36178,16.80535-.70918c6.22481-.26167,12.44819-.54635,18.67447-.77568,5.4581-.20128,10.91946-.32385,16.37866-.5122,2.48844-.08591,4.97252-.28791,7.46057-.36519,4.63-.1427,9.261-.30517,13.89171-.31236,2.15593-.00323,2.56714.52479,2.97225,2.62249C190.21277,135.20548,190.72066,137.78448,191.24832,140.48676Z" style="fill:#cc2127;fill-rule:evenodd"/><path d="M132.92816,86.02808c-8.60683,1.41009-17.10473,2.80221-25.57,4.18966-.64951,6.563-3.25187,8.99036-8.30347,9.632-.19446-.3501-.27713-.71241-.49028-.82312-.21494-.11107-.55965.02732-.96869.06865.35477.29007.57549.47051.79652.65095-2.69186-.56217-5.447-.78-7.63272-2.72493a25.52885,25.52885,0,0,0,.24907,3.37372q.67341,5.3237,1.36084,10.64488c.363,2.82916.74836,5.65509,1.08911,8.48678.25918,2.15269.4759,4.3115.6851,6.46995.06685.69085.335,1.01686,1.08192.99386,1.7095-.05284,3.42332.00862,5.13139-.06542q7.255-.317,14.50674-.70954c5.71726-.30265,11.432-.65957,17.15074-.93958,3.42872-.16786,6.86426-.19338,10.293-.35908,3.38594-.16319,6.76721-.42235,10.1503-.63837,2.58472-.1657,5.16983-.33,7.70749-.49208.24262-1.60383.54959-3.0477.66281-4.507.202-2.60272.2685-5.21586.42917-7.82217.09346-1.51972.3138-3.03261.38245-4.55233.14737-3.26266.22789-6.52819.34866-9.79192a3.31335,3.31335,0,0,0-1.661-2.93161c-2.23-1.29938-4.65693-2.26089-7.14606-3.42512a2.6692,2.6692,0,0,1-.13659.29331c-.1427.23938-.29546.473-.44463.70917a7.30868,7.30868,0,0,1-5.029,3.64331,10.24488,10.24488,0,0,1-6.52711-.73362c-2.579-1.29759-5.27481-2.57612-6.571-5.48005C133.98313,88.0902,133.4188,87.02553,132.92816,86.02808Zm-6.10581,25.96824c0,.96834-.0277,1.638.005,2.30438.092,1.84034.106,1.89354,1.86227,1.76378,5.03578-.3731,10.0676-.80191,15.10266-1.18831a23.56872,23.56872,0,0,1,2.59448-.03307,1.17493,1.17493,0,0,1,1.212,1.38385c-.06434.76346-.03163,1.71634-1.20772,1.80224-3.49773.25377-6.994.52658-10.49211.77352-5.93582.41875-11.87236.84505-17.811,1.22462-2.56931.16391-5.14615.19949-7.718.33069q-3.27756.16659-6.55047.42629c-1.31915.10676-1.74437-.18259-1.88024-1.46508-.13119-1.235.197-1.67248,1.47659-1.75659,3.14691-.207,6.29814-.353,9.44541-.55822,3.13472-.20488,6.26867-.42845,9.3962-.7178.30622-.028.56609-.57187.84286-.88028.0198-.02192.00108-.08015-.00143-.12113-.25844-3.79894.51366-2.73211-4.29533-2.62644-3.46574.0762-6.92393.46835-10.38715.6948-1.72137.11287-3.44885.13048-5.16806.26347-1.50211.11646-1.248-1.10456-1.34719-1.854a1.16258,1.16258,0,0,1,1.2372-1.44352c4.4808-.206,8.95909-.47913,13.43558-.76776,1.86838-.12042,3.73065-.34183,5.79384-.53593-.06254-1.12685-.10244-2.27239-.216-3.41039-.01582-.15779-.39752-.40437-.60315-.3979-2.21452.07117-4.429.15923-6.64068.29618-1.46039.09022-2.91436.29618-4.37477.39934q-3.79032.268-7.586.45074a1.0396,1.0396,0,0,1-.76849-.4608,1.94922,1.94922,0,0,1,1.36267-2.88452c2.6753-.24011,5.36-.3652,8.03781-.57906,3.74251-.29942,7.48-.65958,11.22322-.94713,1.74329-.13408,3.49485-.1578,5.24246-.23364q6.74816-.29277,13.496-.58625c1.59556-.0683,3.19077-.14953,4.787-.18188a1.61775,1.61775,0,0,1,1.48629,1.82561c-.12545.76525-.38853,1.39319-1.48483,1.43489-3.0657.11574-6.12276.44643-9.18734.61464-3.08439.16894-6.17307.29511-9.261.33105-.96762.01114-1.638.46009-1.71346,1.20952a8.841,8.841,0,0,0,.45326,2.855c.028.11682.59705.1639.908.14126,4.32552-.31307,8.64889-.66137,12.97513-.9633,1.96291-.13695,3.93265-.17362,5.897-.28971,1.31125-.07764,1.18365.886,1.21743,1.67068.03235.75375.17146,1.52835-1.09162,1.60167-5.25684.30553-10.50649.73-15.76114,1.07258C129.52461,112.065,128.27375,111.99632,126.82235,111.99632Z" style="fill:#cc2127;fill-rule:evenodd"/><path d="M121.50151,28.38727c-1.48378,1.28105-2.05385,2.71809-1.26092,4.327a4.16431,4.16431,0,0,1,.4705,3.03764c-.47877,1.74653,1.23325,3.22455,1.4216,4.90674.15564,1.39,1.88886,2.25622,3.39133,3.0247a12.24659,12.24659,0,0,0,7.4329,1.046c4.84779-.753,5.71045-3.782,4.88374-6.29239a.98664.98664,0,0,1,.43025-1.26164c2.14912-1.71849,2.65412-3.64654,1.0129-5.5904-.98774-1.17-1.45535-2.23681-1.04741-3.571a2.51564,2.51564,0,0,0-.61536-2.22818,7.11277,7.11277,0,0,0,1.63977-7.108,9.40579,9.40579,0,0,1-.47015-4.65729c.47878-2.67784-1.23324-4.94448-1.422-7.52347-.15564-2.13078-1.88851-3.45927-3.391-4.63752A8.56013,8.56013,0,0,0,126.54448.25519c-4.84744,1.15488-5.71043,5.79959-4.88338,9.64814a1.97006,1.97006,0,0,1-.43061,1.93451c-2.1491,2.63507-2.65412,5.59076-1.01255,8.57161a7.57032,7.57032,0,0,1,1.047,5.47538A4.65975,4.65975,0,0,0,121.50151,28.38727Z" style="fill-rule:evenodd"/><path d="M123.93244,25.56493c.08372.00791.17107.01581.26239.02444.13513.01258-.05358-.09022-.27212-.19733a2.82641,2.82641,0,0,1,1.27314-2.60128,26.79737,26.79737,0,0,1-2.68321-4.73673c-.87059-2.671-.66068-4.93621,3.18355-5.33735a2.2871,2.2871,0,0,0,.70163-.34363c-.50573-.76525-.97229-1.42662-1.39355-2.11567a5.745,5.745,0,0,1-.30912-5.60406,3.26368,3.26368,0,0,1,1.24151-1.289c2.20733-1.38133,6.92573.01438,8.13489,2.98948a34.03728,34.03728,0,0,1,1.70986,6.4128,5.51867,5.51867,0,0,1-.31882,3.02363,1.55251,1.55251,0,0,0-.00755,1.65523,6.97169,6.97169,0,0,1,.65529,1.18148c.92625,2.42587.84574,5.84129-2.59517,6.25034-.91984.10963-.7926.656-.41878,1.33964.57008,1.04238,1.01363,2.15485,1.5988,3.42979.032-.00288.16139-.03594.3217-.0496a3.05412,3.05412,0,0,1-.71095.43456,17.43945,17.43945,0,0,1,2.68321,3.0894c.87021,1.74222.66065,3.21953-3.18394,3.48084a2.96294,2.96294,0,0,0-.70163.22429c.50574.49927.97265.9306,1.39356,1.3799a2.666,2.666,0,0,1,.30912,3.6548,2.92006,2.92006,0,0,1-1.24116.84074c-2.20733.90112-6.92572-.00935-8.13488-1.94961A16.52786,16.52786,0,0,1,123.72,36.5696a2.45955,2.45955,0,0,1,.31883-1.9719c.28036-.43313.36375-.70918.00755-1.07976a4.50212,4.50212,0,0,1-.65527-.77064,2.59739,2.59739,0,0,1-.41192-1.2789l.00324.00683a1.17263,1.17263,0,0,0,1.04525.01186,3.17172,3.17172,0,0,0,.74621-2.57216c.26167-.48094-.08519-.98667-.386-1.34935A8.73287,8.73287,0,0,1,123.93244,25.56493Z" style="fill:#fff;fill-rule:evenodd"/><path d="M118.45236,170.53035l.39934,10.98275,1.8788-.02013.10388,2.86511-1.8788.02013.10747,2.95856-6.60007.07081-.10747-2.95856-7.84158.08447-.10424-2.86511,5.30248-11.04386Zm-6.20109,11.05392-.25988-7.15254-2.65627,7.18381Z" style="fill-rule:evenodd"/><path d="M136.70841,170.33445l.61034,16.80607-6.6.07081-.32748-9.01013a10.182,10.182,0,0,0-.2322-2.34464,1.17307,1.17307,0,0,0-.83031-.58805,13.00658,13.00658,0,0,0-2.95605-.17073l-.65346.00683-.07117-1.95932a14.0768,14.0768,0,0,0,7.17194-2.76914Z" style="fill-rule:evenodd"/><path d="M160.84493,174.54028l-6.60007.07117q-.04259-1.17321-.09453-1.4791a.73932.73932,0,0,0-.41084-.50933,1.90277,1.90277,0,0,0-.96331-.19733,1.56511,1.56511,0,0,0-.826.206.69852.69852,0,0,0-.35729.51292,10.01956,10.01956,0,0,0-.00323,1.25661l.09741,2.6782a2.92,2.92,0,0,1,1.44962-1.02836,7.42512,7.42512,0,0,1,2.40575-.3634,7.868,7.868,0,0,1,3.22455.58841,3.33875,3.33875,0,0,1,1.81878,1.47587,6.15287,6.15287,0,0,1,.46152,2.35254l.04853,1.33892a11.834,11.834,0,0,1-.11682,2.6286,2.889,2.889,0,0,1-1.07761,1.60563,6.47727,6.47727,0,0,1-2.49093,1.16387,15.34066,15.34066,0,0,1-3.7346.44535,17.00834,17.00834,0,0,1-4.37908-.42019,6.28126,6.28126,0,0,1-2.671-1.31627,3.40542,3.40542,0,0,1-1.14518-1.831,28.99323,28.99323,0,0,1-.29115-3.74574l-.08446-2.32523a36.38253,36.38253,0,0,1-.00683-4.01353,3.10471,3.10471,0,0,1,1.06577-1.92733,6.20309,6.20309,0,0,1,2.671-1.38421,15.64041,15.64041,0,0,1,3.96141-.49423,15.3745,15.3745,0,0,1,4.57893.52191,5.0951,5.0951,0,0,1,2.607,1.5819A4.3718,4.3718,0,0,1,160.84493,174.54028Zm-6.40956,5.31327a1.85406,1.85406,0,0,0-.35477-1.22174,1.36411,1.36411,0,0,0-1.02513-.321,1.3481,1.3481,0,0,0-.99311.32709,1.745,1.745,0,0,0-.27356,1.244l.11035,3.0416a2.41059,2.41059,0,0,0,.35512,1.45,1.31151,1.31151,0,0,0,1.01722.33177,1.72589,1.72589,0,0,0,.87273-.27425q.44751-.2696.40547-1.432Z" style="fill-rule:evenodd"/><path d="M184.29241,175.514l.20344,5.6055a8.5197,8.5197,0,0,1-.22537,2.78531,3.58418,3.58418,0,0,1-1.29687,1.64445,6.43732,6.43732,0,0,1-2.44346,1.11679,14.52058,14.52058,0,0,1-3.23931.367,18.73728,18.73728,0,0,1-3.94952-.30553,6.29238,6.29238,0,0,1-2.53913-1.05784,4.72557,4.72557,0,0,1-1.37953-1.53769,6.42382,6.42382,0,0,1-.48633-2.58582l-.21315-5.865a7.37089,7.37089,0,0,1,.50286-3.474,4.29873,4.29873,0,0,1,2.4327-1.87449,12.90819,12.90819,0,0,1,4.50812-.74441,14.50671,14.50671,0,0,1,3.9057.441,7.35,7.35,0,0,1,2.60775,1.15057,3.65519,3.65519,0,0,1,1.2088,1.55531A9.3453,9.3453,0,0,1,184.29241,175.514Zm-6.65148-1.34108a4.13372,4.13372,0,0,0-.26526-1.67428q-.21621-.33481-.968-.32709a1.06747,1.06747,0,0,0-.959.36879,3.54592,3.54592,0,0,0-.17649,1.6581l.29765,8.20067a4.02,4.02,0,0,0,.285,1.76234,1.175,1.175,0,0,0,.96654.29079q.73488-.00808.95108-.36339a3.421,3.421,0,0,0,.17109-1.59053Z" style="fill-rule:evenodd"/></svg>