<svg xmlns="http://www.w3.org/2000/svg" viewBox="0 0 936.54713 145.09162"><path d="M833.8408,129.12484c13.7798,20.1681,45.833,16.7443,58.1763,12.9258a40.2815,40.2815,0,0,0,25.9253-24.373c2.5857-6.9807,4.7123-24.8152,6.1818-34.0431,1.5934-10.006,1.9105-23.1868-4.4215-32.1584a12.93957,12.93957,0,0,0,4.5339-8.1618l2.3404-16.8576A12.93925,12.93925,0,0,0,915.54,11.861l-61.9835-.123a12.93558,12.93558,0,0,0-12.297,8.8918c-17.7757-16.7071-54.9642-14.1212-71.0907,5.0985-12.203-17.8152-40.1888-18.7158-58.4881-12.8316a40.46138,40.46138,0,0,0-19.22572,12.889c-13.2524-18.9748-43.6886-19.2563-62.1283-10.4144-21.6679,10.3899-22.9435,29.3668-25.9268,49.4779h-25.9427q1.1538-2.90055,2.0292-5.9003c6.4671-21.5755-3.8778-42.0655-24.7517-47.1821-19.3651-4.7468-39.2609-2.1321-52.8528,12.9243-15.2428-20.5431-58.2397-19.868-75.9855-.1347-8.9851-11.8059-22.3144-14.592-36.0828-14.839-19.2142-.3448-38.0692,9.2822-44.6085,29.0675a79.68463,79.68463,0,0,0-3.4289,16.2784l-.5134,3.6977a12.93932,12.93932,0,0,0,11.0371,14.5957l10.1257.0536-26.0838,33.6354a12.93976,12.93976,0,0,0-2.623,6.1788l-2.1048,15.0351a12.93927,12.93927,0,0,0,11.0205,14.6082l63.526.125a12.93551,12.93551,0,0,0,11.931-7.9147c15.2154,13.711,47.2561,12.4508,63.6004,1.5489a12.93921,12.93921,0,0,0,9.3512,6.2408l63.526.125a12.93559,12.93559,0,0,0,12.8228-11.16l2.4941-17.964a12.93946,12.93946,0,0,0-.3087-5.0935l28.5182.0876q.0555,3.09915.4167,6.1816a33.29885,33.29885,0,0,0,6.6868,15.7225c8.7234,11.4966,23.0733,14.3611,36.5715,14.2442,15.2187-.1317,28.0267-4.5955,37.7675-15.8487,8.6943,13.0603,23.1758,16.0715,37.34962,15.924,15.5097-.1614,29.3355-4.2779,40.1467-16.2005,8.6851,13.0943,23.3757,16.3051,38.0236,16.1254,13.8984-.1705,24.8318-3.4901,34.3809-12.3934A40.73071,40.73071,0,0,0,833.8408,129.12484ZM506.32528,73.47974h5.4688l-6.766,8.7396Zm-96.976,25.6704h-2.7422l8.1952-10.2178q.3414.9573.7589,1.8849A12.93935,12.93935,0,0,0,409.34928,99.15014Z" style="fill-rule:evenodd"/><path d="M268.86489,141.69024a12.94059,12.94059,0,0,0,5.4164,1.3003l17.9832-.3177a47.07259,47.07259,0,0,0,13.2404-2.3914c6.6502-2.1661,12.7122-6.394,16.0436-12.6226a38.83334,38.83334,0,0,0,3.9896-12.3022l9.02439-63.0531,1.2029-13.0224c.7924-9.4749-2.9582-18.2669-11.3-22.5999-9.724-5.051-23.8663-5.0955-35.3907-4.9429a12.93875,12.93875,0,0,0-5.582,1.3033,12.93885,12.93885,0,0,0-5.6599-1.3036h-37.1542a12.93919,12.93919,0,0,0-11.6157,7.2384l-9.7863,19.9394c-3.3843-20.5045-23.6596-29.2729-42.1141-29.1985-14.2339.0573-29.5014,4.7784-38.9369,16.0626-8.2971-13.2974-24.726-16.3504-39.2023-16.1262-9.4114.1457-20.0184,1.1374-28.4803,5.9019a12.88393,12.88393,0,0,0-8.5684-3.7982l-18.3335.3063a47.55773,47.55773,0,0,0-13.0225,2.3248c-6.4536,2.0524-12.5185,6.0797-15.9345,12.0527a37.35638,37.35638,0,0,0-4.3293,12.9249l-9.0285,63.0601-1.1879,12.9291a23.16922,23.16922,0,0,0,15.6919,24.7411c8.4625,2.9875,21.2503,3.0221,30.982,2.8961a12.93909,12.93909,0,0,0,10.4431-5.4046c8.5616,6.0795,19.0158,7.3818,29.2082,7.4885,14.9118.1562,30.2228-4.0366,39.9109-16.0245,8.5361,13.0327,23.2687,16.0848,37.766,15.9593,13.796-.1194,24.8895-3.5042,34.4045-12.3991a41.36147,41.36147,0,0,0,6.8831-8.1692h17.4337l-.5319,3.8312a12.93917,12.93917,0,0,0,11.037,14.5957l29.8223.123A12.9277,12.9277,0,0,0,268.86489,141.69024ZM57.57469,68.74994a12.9382,12.9382,0,0,0,4.221,1.3525l8.2999.0651-.6861,5.0956a62.28189,62.28189,0,0,0-12.7651.2719Z" style="fill-rule:evenodd"/><path d="M843.6864,119.60534c13.7798,20.1681,45.833,16.7443,58.1763,12.9258a40.2815,40.2815,0,0,0,25.9253-24.373c2.5858-6.9806,4.7123-24.8152,6.1818-34.0431,1.5934-10.006,1.9105-23.1868-4.4215-32.1584a12.93957,12.93957,0,0,0,4.5339-8.1618l2.3404-16.8576a12.93917,12.93917,0,0,0-11.037-14.5957l-61.9835-.1229a12.93549,12.93549,0,0,0-12.297,8.8917c-17.7757-16.7071-54.9642-14.1212-71.0907,5.0986-12.203-17.8153-40.1888-18.7159-58.4881-12.8317a40.461,40.461,0,0,0-19.22572,12.8891c-13.2524-18.9749-43.6886-19.2564-62.1283-10.4144-21.6679,10.3898-22.9435,29.3667-25.9268,49.4778h-25.9427q1.1538-2.9004,2.0292-5.9003c6.4671-21.5755-3.8778-42.0654-24.7516-47.1821-19.3652-4.7468-39.261-2.1321-52.8529,12.9243-15.2428-20.5431-58.2397-19.8679-75.9855-.1347-8.9851-11.8059-22.3144-14.592-36.0828-14.839-19.2142-.3448-38.0691,9.2822-44.6085,29.0675a79.69131,79.69131,0,0,0-3.4289,16.2784l-.5133,3.6977a12.93933,12.93933,0,0,0,11.037,14.5958l10.1257.0535-26.0838,33.6355a12.939,12.939,0,0,0-2.623,6.1787l-2.1048,15.0351a12.93926,12.93926,0,0,0,11.0205,14.6082l63.526.125a12.93551,12.93551,0,0,0,11.931-7.9147c15.2154,13.711,47.2561,12.4508,63.6004,1.549a12.93956,12.93956,0,0,0,9.3512,6.2407l63.526.125a12.93559,12.93559,0,0,0,12.8228-11.16l2.4941-17.964a12.93884,12.93884,0,0,0-.3087-5.0934l28.5182.0875q.0555,3.09915.4168,6.1816a33.29686,33.29686,0,0,0,6.6868,15.7225c8.7233,11.4966,23.0733,14.3611,36.5715,14.2443,15.2186-.1318,28.0266-4.5955,37.7674-15.8488,8.6943,13.0603,23.17582,16.0715,37.34962,15.924,15.5097-.1614,29.3356-4.2779,40.1467-16.2005,8.6851,13.0944,23.3757,16.3051,38.0236,16.1254,13.8985-.1705,24.8318-3.4901,34.3809-12.3934A40.73071,40.73071,0,0,0,843.6864,119.60534ZM516.17088,63.96024h5.4688l-6.7659,8.7396Zm-96.976,25.6704h-2.7422l8.1952-10.2178q.3414.9573.7589,1.8849A12.93935,12.93935,0,0,0,419.19488,89.63064Z" style="fill-rule:evenodd"/><path d="M278.71049,132.17074a12.93756,12.93756,0,0,0,5.4164,1.3003l17.9832-.3177a47.076,47.076,0,0,0,13.2404-2.3913c6.6502-2.1661,12.7122-6.3941,16.0436-12.6227a38.83357,38.83357,0,0,0,3.98959-12.3022l9.0245-63.0531,1.2028-13.0224c.7924-9.4749-2.9581-18.2669-11.3-22.5999-9.724-5.0509-23.86629-5.0954-35.39069-4.9429a12.938,12.938,0,0,0-5.5819,1.3033,12.9395,12.9395,0,0,0-5.66-1.3035h-37.1542a12.9391,12.9391,0,0,0-11.6157,7.2383l-9.7863,19.9394c-3.3843-20.5045-23.6596-29.2728-42.1141-29.1985-14.2339.0573-29.5014,4.7785-38.9369,16.0627-8.297-13.2975-24.726-16.3504-39.2023-16.1263-9.4114.1457-20.0184,1.1374-28.4803,5.9019a12.88335,12.88335,0,0,0-8.5684-3.7981l-18.3335.3062A47.5584,47.5584,0,0,0,40.46419,4.869c-6.4535,2.0524-12.5185,6.0797-15.9345,12.0527a37.35708,37.35708,0,0,0-4.3293,12.9249l-9.0285,63.0602-1.1879,12.929a23.16922,23.16922,0,0,0,15.6919,24.7411c8.4625,2.9875,21.2503,3.0221,30.982,2.8962a12.93931,12.93931,0,0,0,10.4431-5.4047c8.5616,6.0795,19.0158,7.3818,29.2082,7.4885,14.9119.1562,30.2229-4.0366,39.9109-16.0245,8.5361,13.0327,23.2687,16.0848,37.7661,15.9594,13.7959-.1195,24.8894-3.5042,34.4044-12.3991a41.36206,41.36206,0,0,0,6.8831-8.1693h17.4337l-.5319,3.8312a12.9394,12.9394,0,0,0,11.037,14.5958l29.8223.1229A12.9277,12.9277,0,0,0,278.71049,132.17074ZM67.42029,59.23044a12.939,12.939,0,0,0,4.221,1.3525l8.2999.0651-.6861,5.0956a62.28189,62.28189,0,0,0-12.7651.2719Z" style="fill-rule:evenodd"/><path d="M845.0228,104.78394a39.74045,39.74045,0,0,0,1.2438,5.513q.04155.1374.089.2728a23.28071,23.28071,0,0,0,5.217,8.4603c7.4585,7.6917,19.3787,10.0458,29.7935,9.9931a58.76088,58.76088,0,0,0,18.5849-2.6727,33.8118,33.8118,0,0,0,21.7793-20.464,53.61736,53.61736,0,0,0,2.3523-9.1126c1.4868-8.3347,2.3305-15.5582,3.4979-23.6782.9241-6.4272,1.286-12.8492.0623-19.2321a20.82774,20.82774,0,0,0-4.0467-9.0579,21.98864,21.98864,0,0,0-8.653-6.3205h6.3228a6.46949,6.46949,0,0,0,6.4081-5.58l2.3405-16.8576a6.46988,6.46988,0,0,0-6.4082-7.3593H863.3956a6.46974,6.46974,0,0,0-6.3874,5.4409l-2.5065,15.5622c-1.8142-9.2269-8.1601-15.7496-16.8906-19.47a45.09564,45.09564,0,0,0-18.677-3.5525,49.67723,49.67723,0,0,0-22.695,5.0171,33.14773,33.14773,0,0,0-15.1554,14.4489,49.91517,49.91517,0,0,0-2.0486,4.7026,26.75407,26.75407,0,0,0-16.6972-20.7741c-6.7058-2.687-13.2771-3.3644-20.4462-3.3931A55.54583,55.54583,0,0,0,723.5059,9.537c-10.1837,3.3736-18.71172,10.9243-22.08342,21.2515-1.4674-9.71-7.9832-16.6901-17.0814-20.5672a45.09518,45.09518,0,0,0-18.6769-3.5525,49.67723,49.67723,0,0,0-22.695,5.0171,33.14773,33.14773,0,0,0-15.1554,14.4489c-5.1116,10.1197-6.4945,24.8921-8.0267,35.9288a6.46869,6.46869,0,0,0-1.8302-.2643h-36.8764a6.46973,6.46973,0,0,0-4.142,1.4997c6.2025-9.6472,10.8402-22.7216,7.9617-34.2612a28.44125,28.44125,0,0,0-20.8778-20.5104,55.49915,55.49915,0,0,0-15.0726-1.8578c-11.8049-.015-22.5478,3.2853-30.7233,12.0886a34.67089,34.67089,0,0,0-6.332,9.3196,26.70891,26.70891,0,0,0-16.0949-18.0145c-6.7057-2.687-13.2771-3.3644-20.4462-3.3931-15.7307-.0629-32.3632,5.6986-39.2568,20.9893a28.441,28.441,0,0,0-20.4828-19.1321,55.49915,55.49915,0,0,0-15.0726-1.8578c-11.8049-.015-22.5479,3.2853-30.7234,12.0886a34.458,34.458,0,0,0-7.6461,12.6023,89.56318,89.56318,0,0,0-3.1299,14.9882l-.5252,3.7825a6.4693,6.4693,0,0,0,6.4082,7.3593h21.4967c-9.1492,12.2636-23.4498,30.408-34.1314,44.0131a6.46921,6.46921,0,0,0-1.3185,3.0983l-2.1048,15.0351a6.46911,6.46911,0,0,0,6.4072,7.3666h61.7385a6.46966,6.46966,0,0,0,6.4082-5.5799l2.0632-14.8605c3.5544,17.8955,19.952,22.4728,35.6645,22.5235,14.6438.0473,28.3032-4.4697,37.0609-16.1209l-.9339,6.6712a6.46921,6.46921,0,0,0,6.4072,7.3666h61.7386a6.46949,6.46949,0,0,0,6.4081-5.5799l2.4941-17.9641a6.46921,6.46921,0,0,0-6.4082-7.3593h-16.8059c6.7768-7.9983,18.2634-21.7529,23.8092-29.8028a6.46492,6.46492,0,0,0-.2462,1.0818l-2.5212,18.1593a6.46989,6.46989,0,0,0,6.4082,7.3594h36.8765q.10875,0,.2174-.0037-.06465.733-.1201,1.4669a43.28387,43.28387,0,0,0,.2504,10.4104,30.55236,30.55236,0,0,0,5.4673,12.6349,25.3208,25.3208,0,0,0,12.9394,9.1337,58.89812,58.89812,0,0,0,18.3706,2.4813,52.29457,52.29457,0,0,0,16.0528-2.3773,35.91511,35.91511,0,0,0,13.9888-8.2782,34.277,34.277,0,0,0,9.126-13.5121c2.7826,19.1512,19.49982,24.1797,35.95832,24.2328,13.0498.0422,25.7503-3.5736,34.7958-13.4172a33.41509,33.41509,0,0,0,6.6377-10.5174c2.0657,10.4405,8.6214,18.3141,18.3399,21.3881a58.89812,58.89812,0,0,0,18.3706,2.4813,52.29412,52.29412,0,0,0,16.0528-2.3773,35.91621,35.91621,0,0,0,13.9889-8.2782A34.25181,34.25181,0,0,0,845.0228,104.78394Zm5.7233-31.5063a6.47,6.47,0,0,0,2.3235,1.2137,6.624,6.624,0,0,0-2.5554.457Zm31.8836,1.461a6.47024,6.47024,0,0,0,3.7721-1.2202l-.4751,3.4219A6.47,6.47,0,0,0,882.6297,74.73864Zm-185.59142,1.694a18.50971,18.50971,0,0,0,2.299,4.7011,22.96877,22.96877,0,0,0,4.5168,4.9431h-5.5144a6.4696,6.4696,0,0,0-2.7234.6012Zm-186.3629-19.5133a6.4701,6.4701,0,0,0,2.6581.5712h21.4967c-10.7913,14.4645-18.8495,24.5486-29.9889,38.7368q1.9491-10.57665,3.2949-21.2511C508.59548,71.50854,510.35878,59.15174,510.67538,56.91934Zm-85.8377,41.9851a6.46974,6.46974,0,0,0-5.3311-2.8041h-16.8059c8.8342-10.4264,8.3909-10.0396,14.8904-17.9712a173.63682,173.63682,0,0,0,10.9373-14.8278q.61785-.96075,1.1992-1.9443c-.9541,10.234-.5175,18.1092,7.5882,24.7198h-5.5144a6.46975,6.46975,0,0,0-6.4024,5.5388A54.18,54.18,0,0,0,424.83768,98.90444Z" style="fill:#fff;fill-rule:evenodd"/><path d="M278.70849,123.66794a6.46956,6.46956,0,0,0,5.5392,3.3346q8.8761.1824,17.7466-.3178a47.20513,47.20513,0,0,0,11.4153-2.0944,25.17027,25.17027,0,0,0,6.0968-2.9224,18.30191,18.30191,0,0,0,6.2144-6.6382,37.89536,37.89536,0,0,0,3.283-10.2667q.918-4.53735,1.5351-9.1279l7.46479-53.7675a105.49333,105.49333,0,0,0,1.1647-12.697,25.895,25.895,0,0,0-.651-7.1559c-2.2795-9.3938-13.00759-12.29-21.17649-12.9301-6.6114-.5182-11.7558-.3964-18.3426-.3964a6.46962,6.46962,0,0,0-5.6599,3.3357,6.4699,6.4699,0,0,0-5.66-3.3357h-37.1542a6.46976,6.46976,0,0,0-5.8079,3.6192l-24.2717,49.4533,1.4132-10.1815.9222-7.8653a61.31058,61.31058,0,0,0,.2451-10.752,25.22138,25.22138,0,0,0-10.4997-18.92,37.028,37.028,0,0,0-6.8143-3.8206,45.09518,45.09518,0,0,0-18.6769-3.5525,49.67723,49.67723,0,0,0-22.695,5.0171,33.14773,33.14773,0,0,0-15.1554,14.4489,49.87676,49.87676,0,0,0-2.8424,6.9814c-.5129-9.3077-4.5351-18.3238-13.6323-22.4474-7.2472-3.285-15.7743-4.1047-23.7392-4.0638-10.4708.0538-23.32,1.4644-31.3443,9.3988a6.46913,6.46913,0,0,0-6.2907-7.3144q-8.868-.19755-17.7302.3234a48.67628,48.67628,0,0,0-11.2453,2.042,25.46388,25.46388,0,0,0-6.1843,2.8942,18.48627,18.48627,0,0,0-6.071,6.2564c-1.6839,2.8587-2.9143,7.4456-3.5224,10.7065q-.9225,4.54545-1.5407,9.1449l-7.4647,53.7667a104.19488,104.19488,0,0,0-1.1579,12.6925c-.2239,5.707,1.017,10.7001,5.1957,14.3094a20.109,20.109,0,0,0,6.2684,3.6697,37.53127,37.53127,0,0,0,10.3505,2.1201c6.8713.5077,11.5231.3884,18.3486.3884a6.46959,6.46959,0,0,0,6.4082-5.5799l.7866-5.6653c4.5573,7.0159,12.6591,11.0651,20.7588,12.382a67.24168,67.24168,0,0,0,11.8424.9462c8.2637-.0181,15.0636-1.0186,22.2929-4.1461,9.0882-3.9317,15.1549-11.1213,18.4118-20.6792a30.20507,30.20507,0,0,0,5.5385,13.1452,25.32121,25.32121,0,0,0,12.9394,9.1337,58.89812,58.89812,0,0,0,18.3706,2.4813,52.29457,52.29457,0,0,0,16.0528-2.3773,35.91511,35.91511,0,0,0,13.9888-8.2782,34.89229,34.89229,0,0,0,7.8078-10.395,6.46992,6.46992,0,0,0,2.4524.4828h25.9047l-1.5536,11.1905a6.46921,6.46921,0,0,0,6.4082,7.3593h28.0566A6.4697,6.4697,0,0,0,278.70849,123.66794Zm13.0804-91.0703a6.46986,6.46986,0,0,0,5.213,2.7627q1.6848.04725,3.3703.0447l-.5268,4.6381-7.4752,53.8426a54.88055,54.88055,0,0,1-1.1195,6.302q-.4332.02955-.8667.0531l2.1285-15.331a6.46989,6.46989,0,0,0-6.4082-7.3594h-.5565Zm-149.6024,22.0512-1.6947,12.2064a16.67765,16.67765,0,0,0-3.3688-5.9634A21.11539,21.11539,0,0,0,142.18649,54.64884Zm-73.5486-19.2926q-.22785,1.2921-.3862,2.595l-1.2392,8.9256a6.46989,6.46989,0,0,0,6.4082,7.3594h13.9118l-2.2167,15.8117a6.47013,6.47013,0,0,0,.0656,2.1654h-16.053a6.46963,6.46963,0,0,0-6.3947,5.4876q-1.38945,9.0477-2.2213,18.168-.15135,2.361-.1905,4.7273a29.38506,29.38506,0,0,0-5.0597-.3195l.5402-4.6166,7.4762-53.8492.5902-3.7828.5631-2.5408Q66.53234,35.35774,68.63789,35.35624Z" style="fill:#fff;fill-rule:evenodd"/><path d="M71.21149,15.15794l-1.9066,13.7333a38.12043,38.12043,0,0,0-7.5289.4557,4.54656,4.54656,0,0,0-2.7937,2.1153q-1.02915,1.65975-2.1044,9.4051l-7.4912,53.9572q-1.00305,7.22475-.6265,9.0146a3.00338,3.00338,0,0,0,1.9966,2.3757q1.62015.58575,7.7315.5858l-1.9067,13.7334h-8.8198q-12.2226,0-17.6584-2.1154-5.4357-2.1153-6.7067-6.2158-1.2711-4.1004.5814-17.4433l7.473-53.8271q1.8435-13.27785,4.2274-17.4434,2.38395-4.1655,8.5762-6.2484,6.19215-2.08275,18.137-2.0827Z" style="fill:#cc1f1e;fill-rule:evenodd"/><path d="M125.15269,60.81654q6.1089,2.0187,8.5966,6.6099,2.4876,4.5912.1369,21.523-1.7448,12.5679-5.7634,19.5033a25.5876,25.5876,0,0,1-12.0206,10.5497q-8.0022,3.6144-19.7387,3.6144-13.3338,0-20.3555-4.1982-7.02165-4.198-8.5726-10.2837t.5364-21.1208l1.1566-8.3312h28.0567l-2.3766,17.118q-.94875,6.83415-.3383,8.6891.61065,1.8549,3.5968,1.855a4.924,4.924,0,0,0,4.6311-2.3432q1.367-2.34315,2.7405-12.2363l1.0121-7.2898q.8403-6.0531-.2295-8.8519a5.83237,5.83237,0,0,0-3.7951-3.6774q-2.72535-.8787-10.9021-1.0088l2.1236-15.2955q10.00035,0,12.461-.716a6.37544,6.37544,0,0,0,3.8366-3.1242,22.06863,22.06863,0,0,0,2.09-7.5501l.8132-5.8578q.76815-5.53245-.2032-7.2898a3.68585,3.68585,0,0,0-3.5409-1.7573,4.87775,4.87775,0,0,0-4.2508,1.8549q-1.33395,1.85505-2.1743,7.9081l-1.2019,8.6566H73.42069l1.247-8.982q2.0964-15.1002,10.1943-20.4048t24.1402-5.3046q20.07015,0,26.2029,7.3497,6.1326,7.34985,4.3176,20.4232-1.228,8.84565-4.344,12.7809T125.15269,60.81654Z" style="fill:#cc1f1e;fill-rule:evenodd"/><path d="M215.43219,50.82564l-4.8797,35.1471q-1.66275,11.976-3.8107,17.4434a28.42253,28.42253,0,0,1-7.1828,10.2186,29.95332,29.95332,0,0,1-11.5048,6.8342,45.82173,45.82173,0,0,1-14.1092,2.0828q-10.0698,0-16.434-2.1804a19.10166,19.10166,0,0,1-9.6811-6.8016,24.24593,24.24593,0,0,1-4.2743-9.7306q-.95745-5.1093.5878-16.2392l5.1056-36.7743q2.0151-14.51445,5.6919-21.7391,3.67665-7.2246,12.2338-11.5855a43.20747,43.20747,0,0,1,19.8771-4.3608,39.69066,39.69066,0,0,1,16.1082,3.0265q6.8718,3.02655,9.8776,7.3874a20.47185,20.47185,0,0,1,3.5315,9.8282Q217.09484,38.84954,215.43219,50.82564Zm-26.8278-8.8518q1.1658-8.39625.5913-10.5116-.57435-2.1153-3.769-2.1153a4.73587,4.73587,0,0,0-4.4438,2.2455q-1.3188,2.2455-2.4483,10.3814l-7.1387,51.4188q-1.27425,9.1773-.5987,11.0648.67545,1.8876,3.8006,1.8876a4.66414,4.66414,0,0,0,4.4046-2.213q1.2795-2.213,2.3549-9.9583Z" style="fill:#cc1f1e;fill-rule:evenodd"/><path d="M287.67839,15.15794l-9.5605,68.8622h7.9864l-2.494,17.964h-7.9864l-2.5754,18.5499h-28.0566l2.5753-18.5499h-33.3346l2.494-17.964,33.7976-68.8622Zm-37.6171,68.8622,6.226-44.8451-18.6224,44.8451Z" style="fill:#cc1f1e;fill-rule:evenodd"/><path d="M298.99829,15.15794h8.8198q11.945,0,17.5588,2.0827,5.61375,2.0829,6.84109,6.2484,1.2273,4.16565-.61609,17.4434l-7.4731,53.8271q-1.8525,13.3428-4.2274,17.4433-2.375,4.10055-8.4327,6.2158-6.05775,2.11545-18.2805,2.1154h-8.8198l1.9067-13.7334q6.18075,0,7.9288-.5858a4.53656,4.53656,0,0,0,2.6563-2.3757q.90825-1.7898,1.9113-9.0146l7.4912-53.9572q1.07535-7.7454.4724-9.4051a3.19141,3.19141,0,0,0-2.2412-2.1153,35.97375,35.97375,0,0,0-7.4023-.4557Z" style="fill:#cc1f1e;fill-rule:evenodd"/><path d="M419.50658,102.56994l-2.4941,17.9641H355.274l2.1047-15.0352q33.26925-42.0462,39.8301-52.0371t7.338-15.5884q.5964-4.29585-.6746-6.4111-1.2711-2.1153-4.47-2.1153a6.198,6.198,0,0,0-5.089,2.3431q-1.89,2.34315-2.8569,9.3075l-1.3916,10.0234h-25.1399l.5332-3.8402a83.103,83.103,0,0,1,2.9105-13.9612,28.20674,28.20674,0,0,1,6.188-10.0559,28.89908,28.89908,0,0,1,10.9701-7.485,40.884,40.884,0,0,1,15.0058-2.5384q16.73685,0,24.2337,7.7779,7.49685,7.7778,5.8432,19.6888-1.2561,9.0471-7.4838,19.1357-6.22785,10.0884-34.3862,42.8273Z" style="fill:#cc1f1e;fill-rule:evenodd"/><path d="M431.80138,92.54654H459.858q-1.02105,7.3548-1.0793,9.2749a4.16711,4.16711,0,0,0,1.2542,3.2218,5.2912,5.2912,0,0,0,3.8819,1.3018,5.7976,5.7976,0,0,0,3.7135-1.2367,5.51774,5.51774,0,0,0,2.0053-3.1893q.44475-1.95255,1.267-7.8755L473.232,77.251a16.79413,16.79413,0,0,1-7.1313,6.346,24.639,24.639,0,0,1-10.6413,2.1153,21.59348,21.59348,0,0,1-13.0694-3.9052q-5.36085-3.90525-6.1991-9.3725-.8382-5.46735.454-14.7748l1.1657-8.3963a110.93316,110.93316,0,0,1,3.2237-16.467,24.69717,24.69717,0,0,1,6.2137-9.9909,30.28765,30.28765,0,0,1,11.7538-7.127,49.07446,49.07446,0,0,1,16.3252-2.5384q11.25045,0,18.0664,2.9289a20.422,20.422,0,0,1,10.0107,8.4288,21.11345,21.11345,0,0,1,2.9796,11.5529q-.2154,6.0531-2.6281,23.4314l-2.0332,14.6446q-2.6115,18.8103-4.0481,25.1562a26.94525,26.94525,0,0,1-6.4938,12.0086,31.21224,31.21224,0,0,1-12.7422,8.4939,49.68087,49.68087,0,0,1-17.2687,2.8313q-11.8755,0-18.9135-3.5798a18.3415,18.3415,0,0,1-9.4331-10.0885Q430.42778,102.43974,431.80138,92.54654Zm32.62-32.869q-.92175,6.63885.7018,8.201a5.05,5.05,0,0,0,3.568,1.5621,5.55689,5.55689,0,0,0,4.5466-1.9852q1.62975-1.9851,2.4341-7.7779l2.6476-19.0706q.9669-6.9642-.0197-9.1122-.98655-2.14785-3.9728-2.1478a6.7831,6.7831,0,0,0-3.9805,1.6597q-2.175,1.65975-3.1871,8.9495Z" style="fill:#cc1f1e;fill-rule:evenodd"/><path d="M567.91518,102.56994l-2.494,17.9641h-61.7386l2.1048-15.0352q33.2691-42.0462,39.83-52.0371,6.56085-9.9909,7.338-15.5884.5964-4.29585-.6746-6.4111-1.2711-2.1153-4.47-2.1153a6.19763,6.19763,0,0,0-5.0889,2.3431q-1.89,2.34315-2.857,9.3075l-1.3916,10.0234h-25.1398l.5331-3.8402a83.09151,83.09151,0,0,1,2.9106-13.9612,28.20531,28.20531,0,0,1,6.188-10.0559,28.89754,28.89754,0,0,1,10.9701-7.485,40.88367,40.88367,0,0,1,15.0058-2.5384q16.7367,0,24.2336,7.7779,7.49685,7.7778,5.8432,19.6888-1.256,9.0471-7.4838,19.1357-6.2277,10.0884-34.3862,42.8273Z" style="fill:#cc1f1e;fill-rule:evenodd"/><polygon points="617.957 68.269 615.436 86.428 578.559 86.428 581.08 68.269 617.957 68.269" style="fill:#cc1f1e;fill-rule:evenodd"/><path d="M694.06208,50.82564l-4.8796,35.1471q-1.66275,11.976-3.8107,17.4434a28.42253,28.42253,0,0,1-7.1828,10.2186,29.95332,29.95332,0,0,1-11.5048,6.8342,45.82173,45.82173,0,0,1-14.1092,2.0828q-10.0698,0-16.434-2.1804a19.10166,19.10166,0,0,1-9.6811-6.8016,24.24593,24.24593,0,0,1-4.2743-9.7306q-.95745-5.1093.5878-16.2392l5.1056-36.7743q2.0151-14.51445,5.6918-21.7391,3.6768-7.2246,12.2339-11.5855a43.20747,43.20747,0,0,1,19.8771-4.3608,39.69066,39.69066,0,0,1,16.1082,3.0265q6.8718,3.02655,9.8776,7.3874a20.47288,20.47288,0,0,1,3.5315,9.8282Q695.72483,38.84954,694.06208,50.82564Zm-26.8277-8.8518q1.1658-8.39625.5913-10.5116-.57435-2.1153-3.769-2.1153a4.73587,4.73587,0,0,0-4.4438,2.2455q-1.3188,2.2455-2.4483,10.3814l-7.1387,51.4188q-1.27425,9.1773-.5987,11.0648.67545,1.8876,3.8006,1.8876a4.66414,4.66414,0,0,0,4.4046-2.213q1.2795-2.213,2.3549-9.9583Z" style="fill:#cc1f1e;fill-rule:evenodd"/><path d="M698.33968,92.54654H726.3963q-1.021,7.3548-1.0793,9.2749a4.16739,4.16739,0,0,0,1.2541,3.2218,5.29146,5.29146,0,0,0,3.882,1.3018,5.7976,5.7976,0,0,0,3.7135-1.2367,5.51824,5.51824,0,0,0,2.0053-3.1893q.44475-1.95255,1.267-7.8755l2.3314-16.7925a16.79413,16.79413,0,0,1-7.1313,6.346,24.639,24.639,0,0,1-10.6413,2.1153,21.59358,21.59358,0,0,1-13.06942-3.9052q-5.36085-3.90525-6.1991-9.3725-.8382-5.46735.454-14.7748l1.1657-8.3963a110.93316,110.93316,0,0,1,3.2237-16.467,24.69722,24.69722,0,0,1,6.21372-9.9909,30.28765,30.28765,0,0,1,11.7538-7.127,49.07446,49.07446,0,0,1,16.3252-2.5384q11.25045,0,18.0663,2.9289a20.42181,20.42181,0,0,1,10.0108,8.4288,21.11345,21.11345,0,0,1,2.9796,11.5529q-.2154,6.0531-2.6281,23.4314l-2.0332,14.6446q-2.6115,18.8103-4.0481,25.1562a26.94722,26.94722,0,0,1-6.4938,12.0086,31.21224,31.21224,0,0,1-12.7422,8.4939,49.68127,49.68127,0,0,1-17.2687,2.8313q-11.8755,0-18.91352-3.5798a18.342,18.342,0,0,1-9.4332-10.0885Q696.96613,102.43974,698.33968,92.54654Zm32.62-32.869q-.92175,6.63885.7018,8.201a5.05,5.05,0,0,0,3.568,1.5621,5.55689,5.55689,0,0,0,4.5466-1.9852q1.62975-1.9851,2.434-7.7779l2.6477-19.0706q.9669-6.9642-.0197-9.1122-.98655-2.14785-3.9728-2.1478a6.7836,6.7836,0,0,0-3.9806,1.6597q-2.17485,1.65975-3.187,8.9495Z" style="fill:#cc1f1e;fill-rule:evenodd"/><path d="M847.3321,50.82564l-4.8797,35.1471q-1.6626,11.976-3.8107,17.4434a28.4213,28.4213,0,0,1-7.1828,10.2186,29.95258,29.95258,0,0,1-11.5048,6.8342,45.82108,45.82108,0,0,1-14.1091,2.0828q-10.07,0-16.4341-2.1804a19.10209,19.10209,0,0,1-9.6811-6.8016,24.24731,24.24731,0,0,1-4.2743-9.7306q-.9573-5.1093.5879-16.2392l5.1055-36.7743q2.0151-14.51445,5.6919-21.7391,3.6768-7.2246,12.2339-11.5855a43.20675,43.20675,0,0,1,19.877-4.3608,39.69,39.69,0,0,1,16.1082,3.0265q6.8718,3.02655,9.8776,7.3874a20.473,20.473,0,0,1,3.5316,9.8282Q848.9947,38.84954,847.3321,50.82564Zm-26.8277-8.8518q1.16565-8.39625.5913-10.5116-.5745-2.1153-3.769-2.1153a4.73614,4.73614,0,0,0-4.4439,2.2455q-1.31865,2.2455-2.4483,10.3814l-7.1387,51.4188q-1.2741,9.1773-.5987,11.0648.6756,1.8876,3.8006,1.8876a4.6642,4.6642,0,0,0,4.4047-2.213q1.2795-2.213,2.3548-9.9583Z" style="fill:#cc1f1e;fill-rule:evenodd"/><path d="M923.6063,15.15794l-2.3404,16.8575H886.4728l-2.485,17.899a24.86523,24.86523,0,0,1,17.8093-7.2247q11.5977,0,16.6905,6.0857,5.0928,6.08565,2.6891,23.3988l-2.0874,15.0351q-1.55415,11.1951-3.4275,16.4346a26.66965,26.66965,0,0,1-6.2425,9.6979,28.33393,28.33393,0,0,1-11.4006,6.8342,52.28875,52.28875,0,0,1-16.6846,2.3757q-10.83375,0-18.6055-3.5473-7.7718-3.5472-10.2682-10.5766-2.49645-7.02945-.4542-21.7391l.7952-5.7277h28.0567l-.9127,6.5738a94.91208,94.91208,0,0,0-1.2512,14.5144q.16755,4.29585,4.6816,4.2958a5.28439,5.28439,0,0,0,3.5399-1.2367,4.88133,4.88133,0,0,0,1.7594-2.6686q.303-1.4319,1.969-12.4316l2.9007-20.893q.8223-5.9229-.199-8.0708-1.02135-2.14785-4.077-2.1479a5.53536,5.53536,0,0,0-3.4176,1.1065,6.16449,6.16449,0,0,0-2.0313,2.3757,28.53245,28.53245,0,0,0-1.1997,5.8904H854.8413l8.5543-53.1111Z" style="fill:#cc1f1e;fill-rule:evenodd"/></svg>