<svg xmlns="http://www.w3.org/2000/svg" viewBox="0 0 1867.15576 851.72681"><path d="M1335.55029,207.69312c-284.42529.03417-564.374,103.01513-619.03125,124.23095C450.4209,188.98877,106.312,0,106.312,0l-102,6.60107V459.12451H1866.31055V268.22778C1798.61719,251.69165,1594.0957,207.66406,1335.55029,207.69312Z" style="fill:#ce2128"/><path d="M1624.92285,341.17236c-316.86719,11.58057-572.53662,123.90674-572.53662,123.90674l208.12695,119.835s141.09522-85.52978,390.54151-135.21045c69.71631-13.88305,142.52539-22.8,211.25586-28.44433V344.50317C1791.07715,339.98267,1710.90332,338.03,1624.92285,341.17236Z" style="fill:#96121f;opacity:0.45"/><path d="M1358.062,683.47363l199.103,162.69751S1672.48438,717.19751,1862.31055,632V499.6377C1564.29688,544.80054,1358.062,683.47363,1358.062,683.47363Z" style="fill:#96121f;opacity:0.45"/><path d="M111.96387,0,0,6.60107S258.33887,184.91138,415.96875,366.7627c157.62842,181.85693,252.919,393.52624,252.919,393.52624s132.57324-15.10327,363.999.91931c231.42676,16.01563,434.33594,89.76795,440.78857,90.51856,0,0-322.51416-301.32886-651.5874-490.04859C542.21484,201.17163,111.96387,0,111.96387,0Z" style="fill:#96121f;opacity:0.45"/><path d="M1311.45947,165.69312c-317.0874.03808-576.6748,105.98095-576.6748,105.98095L924.084,387.446s158.44239-71.78173,409.53028-112.3435c231.8457-37.45191,490.41553-1.15674,528.69629,4.62793V231.3418C1830.44775,222.81006,1606.01953,165.65991,1311.45947,165.69312Z" style="fill:#96121f;opacity:0.45"/><path d="M1866.208,232.40454s-1.32715-.37451-3.89746-1.06274v48.38867c3.17822.48022,4.84521.75122,4.84521.75122Z" style="fill:#96121f;opacity:0.45"/></svg>