<?xml version="1.0" encoding="utf-8"?>
<!-- Generator: Adobe Illustrator 25.2.3, SVG Export Plug-In . SVG Version: 6.00 Build 0)  -->
<svg version="1.1" id="Layer_1" xmlns="http://www.w3.org/2000/svg" xmlns:xlink="http://www.w3.org/1999/xlink" x="0px" y="0px"
	 viewBox="0 0 570.4 279.2" style="enable-background:new 0 0 570.4 279.2;" xml:space="preserve">
<style type="text/css">
	.st0{fill:#303030;}
	.st1{fill:#FFFFFF;}
	.st2{fill-rule:evenodd;clip-rule:evenodd;}
	.st3{fill-rule:evenodd;clip-rule:evenodd;fill:#8C8D8E;}
	.st4{fill-rule:evenodd;clip-rule:evenodd;fill:#B0B0B1;}
	.st5{fill-rule:evenodd;clip-rule:evenodd;fill:#939598;}
	.st6{fill-rule:evenodd;clip-rule:evenodd;fill:#909090;}
	.st7{fill-rule:evenodd;clip-rule:evenodd;fill:#CBCCCE;}
	.st8{fill-rule:evenodd;clip-rule:evenodd;fill:#ECCBAA;}
	.st9{fill-rule:evenodd;clip-rule:evenodd;fill:#CC2127;}
	.st10{fill-rule:evenodd;clip-rule:evenodd;fill:#FFFFFF;}
</style>
<g>
	<path class="st0" d="M0,0v169.7c0.2,0.2,0.3,0.3,0.3,0.3L0,183.3v95.9h372.3c-19.6-14.2-90.4-65.3-162.9-114.6l49.1-3.1
		c67.6,43.8,146.2,97.1,176.4,117.6h135.5c-90.7-58.9-220.7-137-349.4-192.2C153.9,58.3,75,27.8,0,0z M135,115.5
		c-13.2-8.4-25.7-16.2-37.4-23.2c-19-11.4-38.2-22.2-57-32.2l35.8-0.6c38.9,18.6,76.3,37.4,101.6,52c0.9,0.5,1.9,1.1,2.9,1.7
		C166.6,113.9,149.4,114.7,135,115.5z"/>
	<path class="st1" d="M76.5,59.4l-35.8,0.6c18.7,10.1,38,20.9,57,32.2c11.6,6.9,24.2,14.8,37.4,23.2c14.4-0.8,31.6-1.6,46-2.3
		c-1-0.6-1.9-1.1-2.9-1.7C152.9,96.8,115.5,78.1,76.5,59.4z"/>
	<path class="st1" d="M258.5,161.6l-49.1,3.1c72.5,49.2,143.3,100.3,162.9,114.6h62.6C404.7,258.7,326.1,205.4,258.5,161.6z"/>
</g>
<g>
	<path class="st2" d="M214.1,239.6l132.4-4.7c-3.6-1.8-7.2-3.6-10.8-5.3c-1.9-0.9-1.7-0.8-1.1-2.6c1.4-4.1,2.8-8.2,3.9-12.4
		c1.9-7.3,3-14.7,3.5-22.1c0.2-3.5,0.4-7,0.2-10.4c-0.1-2.9-0.4-5.9-1.1-8.7c-0.6-2.1-0.8-4-0.6-6.2c0.3-2,0.3-4.1,0.5-6.1
		c0.1-1.2,0.3-2.4,0.4-3.6c0.4-4.3,0.7-8.5,1.1-12.8c0.1-1.6-0.6-2.9-1.6-4.1c-1.5-1.7-3.5-1.7-5.4-1.8c-2.8-0.1-5.6,0.1-8.5,0.2
		c-5.4,0.1-10.8,0.2-16.2,0.2c-0.3,0-0.5-0.1-0.9-0.1c0-0.3-0.1-0.5-0.1-0.6c0.1-2.7,0.1-5.3,0.2-8c0.1-3.3,0.4-6.5,0.5-9.8
		c0.1-3.3,0.2-6.7,0.1-10c0-0.5-0.5-1.2-0.9-1.5c-2.9-1.7-5.9-3.3-8.8-5c-0.4-0.2-0.8-0.9-0.8-1.4c0-1.7,0.1-3.4,0.2-5.1
		c0.1-3-0.6-5.8-2.6-8.2c-0.8-0.9-1.8-1.8-3-1.5c-1.6,0.4-3.1,1-4.6,1.7c-2.2,1.2-4.4,2.6-6.6,3.9c-0.2-0.4-0.3-0.6-0.3-0.7
		c-0.1-1.4-0.3-2.7-0.3-4.1c0-3.2-0.3-6.2-2.3-8.8c-0.3-0.4-0.5-1-0.6-1.6c-0.2-1.8-0.4-3.6-0.5-5.4c-0.2-3.1-0.3-6.3-0.6-9.4
		c-0.1-0.9-0.5-2.2-1.1-2.4c-2.4-1-5.6,0.5-5.5,3.7c0.2,4.7,0.2,9.5,0.3,14.2c0,0.9-0.3,1.7-0.5,2.6c-0.2,0.6-0.6,1.1-0.6,1.7
		c-0.1,1.2,0,2.4,0,3.6c0,2,0,4.1,0,6.1c0,2.5,0,4.9,0,7.6c-3.2,0.4-6.2,0.8-9.5,1.3c0-1.4,0-2.4,0-3.5c0-2.1,0-4.2-0.1-6.2
		c-0.2-4.4-0.5-8.8-0.7-13.3c-0.2-5.6-0.4-11.2-0.6-16.9c-0.1-4.2-0.3-8.4-0.5-12.6c-0.1-1.4-0.3-2.7-0.4-4.1
		c-0.1-1.4-0.2-2.9,0-4.3c0.2-1,0.8-1.9,1.3-2.8c0.7-1.2,0.4-2.3-0.9-2.5c-3.1-0.6-6.1-1.2-9.2-1.7c-3.3-0.6-6.7-1-10-1.6
		c-4-0.7-8-1.4-12.1-2.1c-3.8-0.6-7.6-1.3-11.4-1.9c-2.1-0.3-4.3-0.8-6.4,0.3c-1.9,1.1-3.8,2.3-5.7,3.5c-4.4,2.8-8.8,5.6-13.2,8.4
		c-6.4,4.1-12.8,8.2-19.2,12.3c-1.1,0.7-1.7,1.8-1.7,3.2c0,2.3,0.9,4.2,2.8,5.6c0.4,0.3,0.7,0.7,0.8,1.2c0.3,1.2,0.4,2.4,0.6,3.6
		c0.7,3.7,1.5,7.3,2.2,11c0.4,2,0.7,4,1.1,6c0.3,1.5,0.8,2.9,1.1,4.4c0.5,2.7,0.9,5.4,1.4,8.2c0.4,2.2,1,4.3,1.4,6.5
		c0.7,3.6,1.3,7.3,2.1,10.9c0.3,1.6,0.1,2.4-1.5,3c-2.6,1-5.2,2.1-7.9,2.9c-2.9,0.9-5,2.5-6.3,5.2c-0.3,0.5-0.8,1.2-1.3,1.3
		c-1.3,0.1-2.2,0.8-3.2,1.6c-3.6,3-6.9,6.3-9.2,10.4c-1.6,2.9-3.1,5.9-4.2,9.1c-1,2.9-1.6,6.1-2.1,9.2c-0.5,3-0.7,6-0.9,9.1
		c-0.1,1.9-0.1,3.9,0.1,5.9c0.2,2,0.6,4,0.9,5.9c0.4,2.4,0.9,4.8,1.5,7.2c0.4,1.7,1,3.5,1.6,5.1c0.5,1.4,0.8,3,1.9,4.1
		c0,0,0,0.1,0,0.1c1,1.9,1.6,4,3,5.6c1.7,1.8,3.4,3.7,5.4,5.2c3.1,2.4,6.4,4.5,9.7,6.7c2.2,1.5,4.4,3.1,6.6,4.6
		c2.6,1.8,5.3,3.5,7.9,5.3c1.9,1.3,3.7,2.9,5.7,4.2c3,2,6.1,3.9,9,6c2.9,2,5.8,4,8.6,6.1c1.1,0.8,2.3,1.5,3.4,2.3
		C213.9,239.4,214,239.5,214.1,239.6z M244.4,41.2c1.5,0.3,3,0.6,4.9,0.9c-2.2,2.1-4.3,4-6.6,5.6C243.4,45.5,243.9,43.4,244.4,41.2z
		 M216,44.9v-7.5c5.7,0.8,11.3,1.5,17.1,2.2c-0.6,1.7-1.9,1.9-3.1,1.9c-1.8,0.1-3.7-0.1-5.5-0.2c-1.9,0-3.6,0.6-5.2,1.7
		c-1,0.6-1.9,1.3-2.8,2C216.3,45,216.1,44.9,216,44.9z M254.6,88.1c-1.2-1.4-2.3-2.7-3.5-4.1c-0.1-0.2-0.2-0.4-0.4-0.5
		c-1.4-0.8-1.8-2-1.6-3.6c0.1-0.5,0.2-1.1,0.3-1.7c0.3-2.1-0.5-4-1.1-5.8c-0.4-1.1-0.7-2.2-1.1-3.2c-1.9-4.5-3.7-9.1-5.6-13.6
		c-1-2.5-1-2.6,1.1-4.5c3-2.7,6-5.4,9.1-8.1c0.3-0.2,0.6-0.4,1-0.7c0.1,0.4,0.2,0.7,0.3,1c0.2,3.8,0.3,7.7,0.5,11.5
		c0.1,2,0.3,3.9,0.4,5.9c0.1,1.3,0,2.6,0.1,3.9c0.2,4,0.5,8,0.7,12c0.2,3.3,0.2,6.7,0.3,10c0,0.4,0,0.9,0,1.3
		C254.9,88,254.7,88.1,254.6,88.1z M208.4,42.3c0,5.1,0,9.9,0,14.6c0,1.7,0.1,3.5,0.1,5.2c0.1,3.8,0.1,7.7,0.1,11.5
		c0,2.5,0.2,5,0.2,7.5c0,1.2,0,2.5-0.1,3.7c0,0.4-0.4,0.9-0.8,1.1c-3.3,2.1-6.7,4.2-10.1,6.3c-2.7,1.7-5.4,3.3-8.1,5
		c-0.4,0.2-0.8,0.4-1.2,0.5c-0.7-3.2-1.4-6.2-2-9.3c-1-5.3-1.8-10.5-2.7-15.8c-0.6-3.2-1.3-6.5-1.9-9.7c-0.2-0.8-0.4-1.7-0.4-2.6
		c0-0.5,0.3-1.3,0.8-1.6c2.8-2,5.7-3.9,8.5-5.8c3.1-2,6.1-4.1,9.2-6.1c2.3-1.5,4.8-2.9,7.1-4.4C207.5,42.5,207.8,42.5,208.4,42.3z"
		/>
	<path class="st3" d="M231.4,164.9c0.1-0.2,0.3-0.3,0.4-0.5c-1.7-1.7-3.4-3.4-5.1-5.1c-0.8,2.2-0.5,3.1,1.1,3.9
		C229,163.8,230.2,164.4,231.4,164.9z"/>
	<path class="st4" d="M290.4,98.9c0.1,0,0.2,0.1,0.2,0.1c0.1,1.2,0.1,2.5,0.4,3.7c0.4,1.3,0.2,2.8,1.4,3.9c1,0.9,1.7,0.8,2.3-0.4
		c0.8-1.7,0.4-3.5,0.5-5.2c0.1-1.4,0-2.9-0.1-4.3c-0.1-1.2-0.2-2.5-0.4-3.7c-0.1-0.3-1-0.8-1.3-0.7c-0.6,0.3-1.3,0.8-1.6,1.5
		C291.2,95.4,290.8,97.2,290.4,98.9z"/>
	<path class="st4" d="M243.7,105.1c0.6,1.5,1.1,3.1,1.8,4.7c0.3,0.6,2,0.6,2.2,0c0.3-0.9,0.5-1.8,0.6-2.8c0.1-0.8-0.1-1.6-0.1-2.5
		c-0.1-2.7-0.1-5.5-0.2-8.2c0-0.5-0.5-1.1-0.9-1.3c-0.3-0.2-1,0.1-1.4,0.4c-1.3,1-1.8,2.5-2,4C243.5,101.4,243.7,103.2,243.7,105.1z
		"/>
	<path class="st5" d="M218.6,198.8c0.7,2,1.3,4,2,5.9c0.1,0.2,0.3,0.3,0.4,0.4c0.9,0.3,3.3-0.3,3.9-1c2.6-3,2.4-7.6-0.5-10.3
		c-1.1-1-3.2-0.9-3.9,0.4C219.7,195.5,219.2,197.1,218.6,198.8z"/>
	<path class="st5" d="M166.3,164.8c-0.1,2.4,0.5,4.5,1.7,6.1c1.5,1.8,4.1,1.8,5.5-0.1c1.5-2.1,1.6-4.4,1.1-6.7
		c-0.2-0.9-0.7-1.7-1.1-2.5c-0.9-1.7-3.8-2.5-5-1.1C167.3,161.6,165.9,163,166.3,164.8z"/>
	<path class="st6" d="M274.3,97.7c0,1.7,0.3,2,1.4,1.3c1.4-0.9,2.6-1.9,3.9-2.9c0.7-0.5,0.9-1.1,0.9-2c-0.1-2.7-0.1-5.5-0.1-8.2
		c0-1.8-0.4-3.5-1.9-4.7c-0.2-0.2-0.5-0.6-0.5-0.9c-0.2-1.3-0.3-2.7-0.4-4c0-1,0.2-2.1,0.1-3.1c-0.1-0.9-0.5-1.8-0.6-2.6
		c-0.2-2.1-0.3-4.3-0.5-6.4c0-0.2-0.4-0.6-0.7-0.6c-0.2,0-0.6,0.2-0.7,0.4c-0.1,0.3-0.2,0.7-0.2,1.1c0.1,4.7,0.2,9.4,0.3,14
		c0,1.2,0,2.5-0.9,3.5c-0.4,0.5-0.6,1.2-0.6,1.8C274,88.7,274.1,93.2,274.3,97.7z"/>
	<path class="st3" d="M166,131.9c-0.5,0.2-0.9,0.4-1.2,0.6c-2.9,2.4-5.5,5.2-7.6,8.4c-1.8,2.8-2.7,5.9-3.7,8.9
		c-0.8,2.4-1.1,5-1.3,7.6c-0.3,3.7-0.4,7.5-0.4,11.2c0,1.9,0.1,3.8,0.4,5.6c0.5,3.3,1.3,6.5,1.9,9.8c0.7,4.1,2.7,7.6,4.8,11
		c0.1,0.2,0.4,0.3,0.9,0.8c-0.2-0.6-0.3-0.9-0.4-1.2c-0.5-1.3-1.2-2.6-1.5-4c-0.4-1.7-0.5-3.4-0.9-5.1c-0.2-0.8-0.8-1.6-0.9-2.4
		c-0.4-2.7-0.7-5.5-1-8.3c-0.1-1.5-0.2-3-0.2-4.5c0-0.5,0.4-1.1,0.3-1.5c-0.7-1.4-0.2-2.7-0.1-4c0.3-4.3,0.8-8.6,1.9-12.7
		c0.8-2.9,1.4-5.9,3.1-8.4c1.1-1.7,2.4-3.3,3.6-4.9c0.8-1.1,2.1-1.9,2.2-3.3C165.9,134.5,165.9,133.2,166,131.9z"/>
	<path class="st3" d="M208.7,226.2c0.1-0.1,0.2-0.1,0.3-0.2c-0.4-0.9-0.7-1.9-1.1-2.8c-1.1-2.8-2.3-5.6-3.3-8.4
		c-0.7-2.1-1.3-4.3-1.6-6.5c-0.5-3.1-0.8-6.2-1-9.3c-0.1-1.9,0-3.8,0.1-5.7c0.2-2.3,0.3-4.6,0.7-6.9c0.7-4.6,2.7-8.8,4.9-12.9
		c1.4-2.6,2.8-5.1,5.4-6.8c0.9-0.6,1.1-1.3,1-2.2c-0.1-1.2-0.1-2.4-0.2-3.7c-1.3-0.2-1.9,0.8-2.7,1.4c-2.8,2.3-4.3,5.5-5.9,8.6
		c-2.1,4-4.1,8-5,12.4c-0.5,2.4-1.1,4.8-1.2,7.2c-0.1,3.3,0,6.7,0.2,10c0.3,3.4,0.6,6.9,1.5,10.2c1.3,5.4,3.6,10.4,7.1,14.8
		C208,225.7,208.4,225.9,208.7,226.2z"/>
	<path class="st5" d="M239.4,88.3c-0.1-0.1-0.2-0.3-0.2-0.4c-0.8,0.3-1.5,0.5-2.3,0.8c-0.2,0.1-0.3,0.4-0.4,0.6
		c0.3,0.1,0.6,0.3,0.8,0.2C237.9,89.2,238.6,88.7,239.4,88.3z M223.6,89.6c0,0.1-0.1,0.2-0.1,0.3c0.9,0.5,1.8,1,2.7,1.5
		c0.3-0.5,0.5-0.8,0.8-1.4C225.8,89.8,224.7,89.7,223.6,89.6z M231.1,90.2c-0.1,0.1-0.2,0.3-0.3,0.4c0.6,0.9,1.3,1.7,2.1,2.8
		c0.3-1.3,0.4-2.2,0.7-3.3C232.6,90.2,231.9,90.2,231.1,90.2z M255.7,102.3c-0.1-3-0.2-6-0.5-8.9c-0.1-1.1-0.5-2.4-1.3-3.3
		c-1.5-1.7-3.3-3.2-4.9-4.8c-0.8-0.8-1.5-0.8-2.4-0.1c-2.2,1.7-4.5,3.5-6.7,5.2c-1.3,1-2.5,2.4-4.5,1.4c-0.3,1.5-0.6,2.8-0.8,4.2
		c0,0.3,0.3,1,0.6,1.1c1.4,0.5,2.4,0,3.1-1.3c1.4-2.8,3.7-4.6,6.3-6.1c0.7-0.4,1.7-0.8,2.4-0.8c3,0.4,4.7,2.4,5.5,5.1
		c0.8,2.8,1.1,5.8,1.7,8.7C254.5,102.5,255,102.4,255.7,102.3z M216.4,103.2c0.5,0,0.7,0,1-0.1c1.7-0.4,2.9-1.6,4.2-2.6
		c0.3-0.2,0.9-0.5,1-0.3c0.3,0.3,0.5,0.8,0.5,1.1c-0.1,0.5-0.4,1.1-0.8,1.4c-1.4,1-2.8,2.1-4.3,2.9c-1.1,0.6-1.8,1.2-1.5,2.6
		c0.2,0.8,0.2,1.7,0.3,2.6c0,0.3,0.2,0.7,0.4,0.7c0.7,0.2,2.4-0.8,2.5-1.5c0.5-2.6,2-4.8,3.5-6.9c1.8-2.5,4-4.5,7.2-5.2
		c0.6-0.1,1.5-0.8,1-1.9c-0.7-1.5-1.2-3.1-1.8-4.5c-0.8,0.5-1.7,1-2.5,1.7c-0.6,0.5-1.1,0.7-1.7,0.4c-2.7-1.3-5.4-2.7-8.1-4
		c-0.3-0.1-0.6-0.1-0.9-0.2V103.2z M187.4,103.4c-0.2,1.8,1.2,3.8,3,4.7c1.6,0.7,3.7,0.6,4.8,2.4c0.1,0.1,0.3,0.2,0.4,0.2
		c2.7,0.1,5.2,1.2,7.6,2.2c0.4,0.2,0.7,0.5,1,0.6c0.9,0.3,1.8,0.4,2.6,0.7c1.3,0.5,1.6,0.3,1.7-1c0.1-1.4-0.1-2.8,0-4.1
		c0.1-1,0.1-1.7-1.2-1.7c-0.3,0-0.7-0.2-1-0.4c-1.2-0.5-2.3-2.3-1.8-3.1c0.6-1.1,1-2.4,2.2-2.9c2.2-0.9,1.9-3,2.1-4.6
		c0.2-1.7-0.1-3.5-0.1-5.3c0-0.8-0.5-1.3-1.2-0.9c-1.5,0.7-3,1.3-4.5,2.1c-1.3,0.7-2.5,1.7-3.9,2.5c-3.3,1.9-6.6,3.8-10,5.6
		C188,101,187.7,102.1,187.4,103.4z"/>
	<path class="st5" d="M209.9,159.1c-5.8-3.3-11.7-6.8-17.8-10.3c0,0.4-0.1,0.7-0.1,0.9c0.5,2.6,1.1,5.2,1.6,7.8
		c0.5,2.3,1.2,4.5,1.4,6.8c0.3,2.6,0.4,5.2,0.3,7.8c-0.1,4.6-0.3,9.2-1.4,13.6c-0.6,2.4-1.3,4.8-2.4,7c-1.8,3.9-3.7,7.7-6.8,10.7
		c-0.8,0.8-1.5,1.6-2.4,2.5c0.5,0.1,0.7,0.3,1,0.3c3.3-0.1,6.7-0.1,10-0.2c1.1,0,1.6-1,1.9-1.9c0.1-0.4-0.3-0.9-0.5-1.5
		c0.1-0.2,0.5-0.5,0.5-0.9c0.1-1.2,0.1-2.5,0.2-3.7c0.2-2.9,0.3-5.8,0.6-8.7c0.2-2.1,0.7-4.2,1.2-6.2c0.3-1.4,0.7-2.8,1.2-4.1
		c0.8-2.1,1.7-4.2,2.6-6.3c0.9-2,1.7-4.1,2.9-5.9C205.8,164.2,207.9,161.7,209.9,159.1z"/>
	<path class="st7" d="M166.2,141.7l-0.3-0.1c-0.2,0.2-0.4,0.3-0.5,0.5c-1,2-2.1,3.9-3,6c-0.9,2-1.7,4-2.2,6
		c-0.9,3.9-1.8,7.7-2.3,11.7c-0.4,2.7-0.4,5.5,0,8.1c0.6,3.8,1.6,7.5,2.6,11.2c1.1,4,2.4,7.9,4.5,11.5c2,3.3,4.2,6.1,8,7.3
		c1.6,0.5,3.3,0.6,5,0.5c1.2-0.1,2.3-0.8,3.3-1.9c0.8-0.9,2.1-1.5,3-2.5c1.8-2.1,3.3-4.3,4.6-6.8c1.5-2.9,3-5.8,3-9.3
		c0-1.9,0.6-3.7,0.8-5.6c0.1-0.5-0.2-0.9-0.2-1.4c0-1.7,0-3.4,0-5.2c0-0.5-0.5-1-0.3-1.4c0.7-1.9-0.1-3.8-0.6-5.5
		c-0.3-1.1-0.1-1.2,0.6-1.3c-0.2-0.7-0.6-1.3-0.6-1.8c0.2-1.2,0-2.3-0.3-3.5c-0.1-0.4-0.2-0.7-0.3-1.1c-0.5-2.2-0.9-4.4-1.6-6.6
		c-1.1-3.2-2.3-6.3-3.6-9.4c-0.9-2.1-1.9-4.1-3.1-6c-0.6-0.9-1.7-1.6-2.7-2.5c-0.2,1.4-0.4,2.5-0.5,3.6c-0.5,3.7-1,7.4-1.6,11.1
		c-0.4,2.7-0.9,5.4-1.3,8.1c-0.1,1,0.2,2.1,0.4,3.1c0.2,1,0.8,1.9,1,2.9c0.2,1.5,0.2,3.1,0.3,4.6c0.1,3.2-0.9,6.1-2.7,8.6
		c-0.9,1.4-2.2,2.5-3.9,3c-2,0.6-4.4-0.8-5.5-2.4c-1.2-1.7-2.1-3.7-2.8-5.7c-1.1-3.1-0.5-6.3,0-9.5c0.2-0.9,0.9-1.7,1.3-2.5
		c0.5-0.9,1.4-1.8,1.4-2.7c0.1-2.4-0.3-4.8-0.5-7.2c0-0.1,0-0.2,0-0.4C165.9,145.4,166,143.5,166.2,141.7z"/>
	<path class="st7" d="M225.9,165.7c0,1,0,1.8,0,2.7c0,3,0.1,6,0.1,9c0,3,0,6,0.1,9c0,1.4,0,2.6,1.2,3.7c1.7,1.7,2.8,3.9,3,6.1
		c0.4,4.5-0.2,9-3.8,12.3c-1.7,1.6-4.6,2.2-6.5,1c-2.1-1.3-3.5-3.2-4.2-5.6c-1.2-4-0.6-7.9,1-11.7c0.3-0.7,0.5-1.5,0.4-2.2
		c-0.7-3.8-0.7-7.7-1.5-11.5c-0.5-2.3-0.6-4.7-0.8-7.1c-0.1-0.9-0.2-1.2-1.2-0.7c-1.6,0.8-2.6,2.1-3.4,3.6c-2.5,5-3.3,10.4-3.8,15.9
		c-0.2,2.5-0.1,5-0.1,7.6c0,2.2,0,4.5,0.4,6.6c0.7,4,1.5,8,2.6,11.8c1,3.2,2.4,6.4,3.9,9.4c1.4,2.7,3.9,4.4,6.5,6
		c2.4,1.5,4.9,2.5,7.8,2.3c0.8-0.1,1.6-0.2,2.4-0.3c1.2-0.3,2.4-0.6,3.4-0.8c0.4-0.4,0.6-0.8,1-1c2.8-1.6,4.7-4,5.8-6.9
		c0.9-2.2,2.1-4.3,2.4-6.8c0.2-2.2,0.9-4.3,1.1-6.5c0.2-2.1-0.1-4.3,0.1-6.4c0.3-4.6,0-9.2-0.8-13.8c-0.6-3.7-1.7-7.3-3-10.9
		c-1.7-4.5-4.3-8.3-7.3-11.8C230.8,166.8,228.5,166.2,225.9,165.7z"/>
	<path class="st3" d="M337.9,174.5c0-0.4,0-0.9-0.1-1.4c-0.6-2.7-1.2-5.5-1.9-8.2c-0.8-2.9-2.1-5.7-3.5-8.3
		c-0.8-1.4-1.7-2.5-3.7-2.4c-3.7,0.2-7.5,0.2-11.2,0.3c-3.7,0.1-7.4,0.3-11.2,0.4c-5.7,0.2-11.4,0.2-17.1,0.4
		c-5.9,0.2-11.7,0.4-17.6,0.6c-4.8,0.2-9.6,0.3-14.4,0.5c-3.5,0.1-7.1,0.2-10.6,0.3c-1.5,0-3,0-4.6,0c-3.1,0.1-6.1,0.3-9.2,0.4
		c-1.2,0.1-2.5,0.2-3.9,0.3c0.4,0.4,0.6,0.7,0.8,0.9c1.7,1.8,3.5,3.4,4.9,5.4c2.1,3,3.8,6.3,5.8,9.4c0.3,0.5,1,1,1.6,1
		c2.2,0.1,4.5,0,6.7,0c4.5,0,8.9,0,13.4,0c3.3,0,6.6,0,9.9,0c5.4,0,10.8,0,16.2,0.1c4.9,0,9.9,0.1,14.8,0.2
		c5.1,0.1,10.1,0.2,15.2,0.2c2.6,0,5.2-0.1,7.8-0.1C329.9,174.5,333.9,174.5,337.9,174.5z"/>
	<path class="st3" d="M235.6,235c-0.7,0.4-1.4,0.9-2.2,1.5c59.2-6.1,92.2-4.6,94.1-6c4.8-3.6,4.6-7.6,5.1-8.7c1.2-3.2,0.5-2,1.6-5.2
		c0.5-1.5,0.9-3.1,1.3-4.8c-6.1,0-12.1,0-18.1,0c-5.1,0-10.2,0-15.3,0c-2.7,0-2.7,0.1-3.1-2.4c0-0.1,0-0.2,0.1-0.3
		c0.4-0.1,0.9-0.4,1.3-0.4c2.1,0,4.3,0,6.4,0c2.9,0,5.8,0.1,8.6,0.1c3.2,0,6.3-0.1,9.5,0c3.2,0,6.5,0.3,9.7,0.3
		c0.6,0,1.7-0.3,1.8-0.7c0.6-2,1.1-4.1,1.5-6.1c0.1-0.5,0-1,0.1-1.5c0.3-3.1,0.8-6.2,0.9-9.3c0-4.3-0.3-8.7-0.4-13.1
		c0-0.8-0.4-1.1-1.2-1.1c-1,0-2.1,0-3.1,0c-6.1-0.1-12.1-0.2-18.2-0.3c-8.7-0.1-17.3-0.1-26-0.2c-6.5-0.1-12.9-0.2-19.4-0.3
		c-7-0.1-13.9-0.1-20.9-0.1c-2.4,0-4.7,0-7.1,0c0,0.2-0.1,0.4,0,0.6c0.9,3.1,1.8,6.3,2.7,9.4c0.9,3.2,1.7,6.4,1.9,9.7
		c0.4,7,0.3,13.9-0.9,20.8c-0.1,0.7,0.1,1,0.8,0.9c1.2,0,2.3,0,3.5,0c3.1-0.1,6.1-0.1,9.2-0.2c3.8-0.1,7.5-0.2,11.3-0.2
		c3.3-0.1,6.6,0,9.8-0.2c2.5-0.1,4.8,0.1,7.1,1.2c0.4,0.2,0.7,0.5,1,0.8c-0.1,0.1-0.1,0.2-0.2,0.3c-1.2,0-2.4,0-3.6,0
		c-4.8,0.1-9.6,0.1-14.4,0.2c-2.6,0.1-5.1,0.2-7.7,0.3c-5.4,0.1-10.9,0.2-16.3,0.2c-1.3,0-1.8,0.5-2.2,1.6
		C242.1,230.9,239.8,233.2,235.6,235z"/>
	<path class="st8" d="M225.1,50.8c0,0.1-0.1,0.2-0.1,0.3c0.3,0.4,0.6,0.9,0.9,1.3c0.5,0.6,1,1.3,0.4,1.9c-0.6,0.6-1.5,0.4-2.1-0.1
		c-0.5-0.5-0.9-1.2-1.4-1.6c-0.5-0.4-1.2-0.7-1.8-0.7c-0.3,0-0.8,0.6-0.9,1c-0.5,2.3-0.9,4.6-1.4,7c-0.1,0.6-0.4,1.3-0.7,1.9
		c-0.8,1.1-1.5,2.1-1.4,3.6c0,1.6-0.6,3.2-0.6,4.7c-0.1,2.2,0,4.4,0.1,6.5c0.1,2.8,0.3,5.6,0.4,8.4c0.1,1.2,1,2.3,2.2,2.3
		c2.4,0.1,4.8,0.2,7.2,0.2c3.4,0,6.9,0.3,10.2-0.7c1.9-0.5,3.8-1.2,5.6-1.7c0.4-0.1,0.9-0.1,1.2-0.3c0.8-0.6,1.6-1.3,2.4-1.9
		c1.2-0.8,2-1.8,2.1-3.4c0.2-3.7-1.3-6.9-2.4-10.2c-1.3-3.9-3.1-7.5-4.7-11.3c-1.1-2.6-2.3-5.1-3.5-7.6c-0.6-1.2-1.2-1.3-2.3-0.6
		c-0.4,0.2-1,0.2-1.4,0.1c-0.6-0.1-1.1-0.5-1.7-0.5c-0.3,0-0.9,0.5-0.9,0.8c0,1.9-0.7,2.3-2.5,1.5C227.1,51.5,226.1,51.2,225.1,50.8
		z M240.6,69.7c1.1,2.2,0.4,4.3-1.8,5.4c-1.8,0.9-3.7,1.4-5.7,1.4c-2.1-0.1-4.3-0.1-6.4-0.4c-1.2-0.2-2.4-0.8-3.6-1.3
		c-0.6-0.2-1.1-0.4-1.7,0.1c-0.3,0.3-1,0.1-1.5-0.1c-0.1,0-0.2-0.9,0-1.2c0.4-0.7,1-1.4,1.6-1.9c0.2-0.2,0.9,0,1.2,0.2
		c1.1,0.6,2,1.4,3.2,1.9c1.1,0.5,2.3,0.8,3.5,0.8c2.5-0.1,5-0.2,7.4-0.7c2.2-0.4,2.4-1,2.5-3.2C239.4,70.4,240.2,70,240.6,69.7z
		 M229.7,69.6c0.7,0,1.3,0,2,0c1.3-0.1,2-0.6,1.7-1.9c-0.3-1.6-1.1-3.2-1.6-4.8c-0.1-0.2-0.2-0.4-0.3-0.5c0-0.6,0-1.1,0-1.7
		c0.5,0.3,1.2,0.4,1.5,0.9c1,1.6,1.8,3.2,2.6,4.9c0.6,1.3,0.2,3.1-0.8,4c-1,1-2.6,1.2-4,0.4c-0.5-0.3-0.9-0.6-1.3-0.9
		C229.6,69.8,229.6,69.7,229.7,69.6z M237.9,59.9c-0.8,0.2-1.7,0.4-2.5,0.7c-1,0.4-1.4-0.2-1.5-0.8c-0.1-0.4,0.3-1.2,0.7-1.4
		c1.4-0.7,2.9-0.7,4.3-0.1c0.4,0.2,0.6,0.8,0.9,1.2c-0.4,0.2-0.8,0.4-1.2,0.5c-0.2,0.1-0.4,0-0.6,0C237.9,60,237.9,59.9,237.9,59.9z
		 M220.7,63.4c0.2-0.5,0.3-1,0.5-1.4c0.8-1.3,3.1-2.5,4.3-2.2c0.3,0.1,0.8,0.5,0.8,0.7c0,0.4-0.3,1.3-0.5,1.3c-1.6,0.1-3,1-4.4,1.7
		C221.3,63.5,221.1,63.4,220.7,63.4z M237.1,53.8c-1.5,0.1-2.9,0.3-4.3,0.4c-0.4,0-0.9-0.4-1.3-0.7C232.8,52,236.1,52.3,237.1,53.8z
		 M221,58c0.2-0.4,0.2-0.9,0.5-1.1c1.1-0.9,2.3-1.5,3.7-1.7c0.2,0,0.7,0.2,0.7,0.3c0,0.3-0.1,0.6-0.3,0.8c-0.2,0.2-0.5,0.2-0.7,0.3
		C223.6,57.1,222.4,57.5,221,58z"/>
	<path class="st9" d="M186.5,109.4c0.3,0.4,0.6,0.7,0.7,1c0.2,1.2,0.4,2.4,0.5,3.6c0.2,1.3,0.3,1.4,1.6,1.6
		c-0.3-1.9-0.6-3.9-0.9-5.8C187.7,110.1,187.4,108.1,186.5,109.4z"/>
	<path class="st9" d="M221.9,119.9c-1.1,0-2,0.7-2,1.8c0,1.2,1.2,2.6,2.3,2.6c0.7,0,1.8-1.3,1.8-2
		C223.9,121,223.1,119.8,221.9,119.9z"/>
	<path class="st9" d="M171.4,142.4c-1.3-0.1-2.1,0.5-2.2,1.5c0,0.7,0,1.4-0.1,2c-0.1,1.4-0.2,2.8-0.2,4.1c0,1.3,0,2.6,0,3.9h2.5
		V142.4z"/>
	<path class="st9" d="M219.8,134.8c0.9-3.2,1.8-6.4,2.7-9.6c-1-0.3-1.9-0.6-2.9-0.9c-0.7,2.5-1.4,4.9-2,7.4
		C217,134.4,217.2,134,219.8,134.8z"/>
	<path class="st9" d="M205.2,124.4c-1.9-0.6-3.9-1.2-5.9-1.8c-0.5,4.4-0.3,4.8,3.2,6c0.3,0.1,0.5,0.3,0.7,0.4
		c0.7,0.2,1.4,0.3,2.2,0.5c0.1-0.8,0.2-1.5,0.1-2.3C205.5,126.3,205.3,125.4,205.2,124.4z"/>
	<path class="st9" d="M222.6,109.7c1.3-0.5,2.6-0.9,3.9-1.4c1.2-0.5,2.3-1,3.4-1.5c1-0.5,2.2-0.8,2.8-1.6c0.8-1,1.2-2.5,1.7-3.7
		c0.3-0.7,0.1-1-0.6-1.2c-1.9-0.6-3.5,0-5,1C225.7,103.1,224,106.3,222.6,109.7z"/>
	<path class="st9" d="M185.4,99.8c0.1-0.1,0.2-0.1,0.4-0.2c0.1-0.4,0.3-0.8,0.2-1.2c-2.3-12.3-4.6-24.6-6.9-36.9
		c-1,0.1-1.7,0.5-1.4,1.7c0.5,2.3,0.9,4.6,1.3,6.9c0.9,4.4,1.7,8.8,2.6,13.1c1,5.2,2.1,10.4,3.2,15.6
		C184.9,99.1,185.2,99.4,185.4,99.8z"/>
	<path class="st9" d="M187.9,122.8c-3.2,1-6.3,2-9.4,3.1c-1.5,0.5-2.6,1.6-2.9,3.2c-0.2,1.1-0.3,2.2-0.4,3.3
		c-0.2,2.9-0.5,5.8-0.7,8.7c-0.2,2.5-0.4,5.1-0.5,7.6c0,0.6-0.5,1.7,0.6,1.7c1.3,0.1,0.9-1.2,0.9-1.8c0.3-2.4,0.4-4.8,0.6-7.2
		c0.4-3.8,0.8-7.5,1.2-11.3c0.1-1.5,0.7-2.5,1.9-2.9c2.6-0.9,5.2-1.7,7.8-2.5c0.5-0.2,0.9-0.4,1.4-0.6
		C188.2,123.9,188.1,123.6,187.9,122.8z"/>
	<path class="st9" d="M229.5,116.8c-1.8,0.8-2.8,2.1-2.8,3.9c0,1.6-0.4,2.9-1.4,4.2c-0.4,0.5-0.6,1.4-0.5,2c0.5,2.3,1.1,4.5,1.7,6.8
		c0.2,1,1.1,0.8,1.7,0.6c0.5-0.1,1.3-0.5,1.4-0.9c0.3-1,0.3-2.1,0.3-3.1c0-3.1,0-6.1-0.1-9.2C229.7,119.7,229.6,118.2,229.5,116.8z"
		/>
	<path class="st9" d="M190.3,110.7c-0.1,0.1-0.2,0.2-0.3,0.4c0.3,0.5,0.5,1.2,0.9,1.4c2,1.2,3.9,2.5,6.1,3.3
		c2.4,0.8,2.4,0.9,2.4,3.4c0,0.9,0.2,1.6,1.1,1.9c1.5,0.5,3,0.9,4.4,1.3c0.8,0.2,1.2,0,1.3-0.7c0.1-1.6,0.1-3.3,0-4.9
		c0-0.3-0.7-0.7-1.2-0.9c-0.7-0.3-1.4-0.3-2.1-0.6c-2.2-0.8-4.4-1.6-6.5-2.4c-0.3-0.1-0.5-0.2-0.8-0.3
		C193.9,112,192.1,111.3,190.3,110.7z"/>
	<path class="st9" d="M171.8,141.3c0-1.3-0.1-2.8,0-4.3c0.2-2.9,0.4-5.7,0.7-8.5c0.1-0.7,0.6-1.3,1.1-1.9c2-2.6,5.2-3.2,8.1-4.3
		c1.9-0.7,3.9-1.1,5.8-2c0.7-0.3,1.6-1.5,1.4-2.2c-0.2-1.1-1.4-0.5-2.1-0.2c-3,1-6,2.2-9,3.4c-1.6,0.6-3,1.4-4.5,2.2
		c-2.5,1.2-3.2,3.5-3.3,6c-0.2,2.8-0.1,5.5-0.2,8.3c0,1.2-0.1,2.4-0.2,3.6c0,0.7,0.3,1,1,0.7C170.8,141.8,171.1,141.6,171.8,141.3z"
		/>
	<path class="st9" d="M255.9,43.3c0,0.4,0,0.8,0,1.2c0.1,2.8,0.2,5.7,0.3,8.5c0.2,4.3,0.5,8.7,0.7,13c0.2,4.3,0.3,8.6,0.5,12.9
		c0.2,5.2,0.3,10.4,0.5,15.5c0.1,2.1,0.2,4.1,0.3,6.2c0,0.5-0.2,1.3,0.8,1.3c0.9,0,0.6-0.8,0.6-1.3c0-2.2-0.1-4.5-0.2-6.7
		c-0.2-6-0.3-12-0.5-18.1c-0.1-2-0.2-4-0.3-6c-0.3-6.3-0.6-12.5-0.9-18.8c-0.1-2.3-0.2-4.5-0.3-6.8
		C257.3,43.5,256.9,43.2,255.9,43.3z"/>
	<path class="st9" d="M211.8,113.3c0.7-0.1,1.2-0.1,1.7-0.3c0.2-0.1,0.5-0.5,0.5-0.7c0-1-0.2-2-0.2-3.1c0-2.7,0.1-5.3,0.1-8
		c0-2.5-0.2-5-0.2-7.5c0-3,0-6,0-9c0-6-0.1-11.9-0.1-17.9c0-5.5,0.1-10.9,0.2-16.4c0-4-0.1-7.9-0.2-11.9c0-0.4-0.1-0.8-0.1-1.4
		c-1.1,0.8-1.9,1.5-1.8,2.8c0.1,2.9,0,5.8,0,8.7c0,3.8,0,7.5,0,11.3c0,5.6,0.1,11.1,0.2,16.7c0,2.9-0.2,5.8,0,8.7
		c0.1,1.9,0.1,3.9,0,5.9c-0.1,6-0.2,12-0.2,17.9C211.6,110.6,211.7,112,211.8,113.3z"/>
	<path class="st9" d="M188.9,127.3c-2.6,1.1-4.9,2.1-7.2,3.2c-0.3,0.1-0.4,0.8-0.3,1.3c0,0.2,0.6,0.5,0.8,0.5
		c0.8-0.4,1.1,0.1,1.5,0.6c0.5,0.6,1.1,1.1,1.5,1.8c1.2,2.2,2.4,4.5,3.6,6.7c0.8,1.5,1.5,3,3.3,3.9c4.6,2.3,9,4.9,13.5,7.3
		c0.5,0.3,1,0.4,1.6,0.7c0-0.8,0-1.5,0-2.1c-0.1-1-0.4-2-0.2-2.9c0.2-1.1-0.2-2-0.9-2.6c-1.2-0.9-2.5-1.7-3.9-2.4
		c-1.7-0.9-3.5-1.7-5.2-2.7c-2.1-1.1-4-2.4-6.1-3.4c-0.7-0.3-0.9-0.7-1-1.3C189.6,133.2,189.3,130.5,188.9,127.3z"/>
	<path class="st9" d="M210.4,154.2c1.1,0.6,2.5-0.2,2.5-1.8c0-1.3,0.1-2.6-0.1-3.9c-0.3-2.8,0.8-5.6-0.2-8.4c0-0.1,0-0.3,0-0.5
		c0-0.7,0-1.4,0-2.2c-0.2-3.4-0.4-6.8-0.5-10.2c-0.1-1.4,0-2.8,0-4.2c-0.1-2.6,0.4-3.4,2.9-4.4c2.8-1.1,5.6-2.2,8.4-3.3
		c2-0.8,4-1.6,6.1-2.3c1.2-0.4,2.2,0.2,2.6,1.4c0.2,0.9,0.3,1.8,0.4,2.7c0.4,4.1,0.8,8.2,1.2,12.3c0.3,3.3,0.4,6.7,0.7,10
		c0,0.3,0.5,0.8,0.8,0.8c0.4,0,0.9-0.4,1.2-0.7c0.2-0.2,0.1-0.6,0.1-0.9c-0.2-3.8-0.5-7.7-0.7-11.5c-0.1-2.2-0.1-4.3-0.3-6.5
		c-0.2-2.4-0.6-4.7-0.6-7.1c-0.1-3.2-2.3-4.8-5.4-3.8c-2,0.7-4,1.4-5.9,2.1c-4.3,1.6-8.5,3.4-12.8,4.9c-1.4,0.5-1.8,1.2-1.8,2.5
		c0.1,3.2,0.2,6.5,0.4,9.7c0.1,1.8,0.1,3.6,0.2,5.5c0,1.3-0.1,2.5,0.1,3.8c0.1,1.2,0.5,2.3,0.6,3.5c0.2,3.5,0.4,6.9,0.6,10.4
		C210.4,152.8,210.4,153.4,210.4,154.2z"/>
	<path class="st9" d="M328.9,151.2c-0.7-2.5-0.7-2.5-2.9-2.5c-2.8,0.1-5.6,0.2-8.4,0.2c-3.3,0.1-6.5,0.1-9.8,0.3
		c-3.9,0.2-7.9,0.5-11.8,0.6c-4.8,0.2-9.5,0.2-14.3,0.4c-4.9,0.2-9.9,0.6-14.8,0.8c-4.5,0.2-9,0.4-13.5,0.5c-1.2,0-2.4,0-3.6,0.1
		c-4.7,0.3-9.4,0.6-14.1,0.9c-3.6,0.2-7.1,0.4-10.7,0.6c-2.1,0.1-3.6,1.9-3.4,4.1c0.2,2.4,0.3,4.9,0.5,7.3c0.4,5.7,0.8,11.3,1.3,17
		c0.1,0.8,0.3,1.6,0.5,2.5c0.1,0,0.2,0,0.4,0c0.1-0.4,0.3-0.8,0.3-1.2c-0.1-2.7-0.3-5.4-0.4-8.1c-0.1-3-0.2-5.9-0.2-8.9
		c-0.1-2.7-0.2-5.4-0.2-8.2c0-2.1,0.8-2.8,3-2.9c3.4-0.1,6.7-0.3,10.1-0.4c5.6-0.2,11.3-0.4,16.9-0.7c2.9-0.1,5.8-0.2,8.7-0.3
		c2.2-0.1,4.4-0.2,6.6-0.2c2.2,0,4.4,0,6.6-0.1c3.5-0.1,6.9-0.3,10.4-0.5c3.2-0.1,6.4-0.2,9.6-0.3c3.4-0.1,6.9-0.2,10.3-0.3
		c5.4-0.2,10.8-0.4,16.1-0.5C324.2,151.4,326.5,151.3,328.9,151.2z"/>
	<path class="st9" d="M179.4,51.1c-0.5,0.6-1,1.4-1.7,2c-0.8,0.7-1.7,1.2-2.5,1.9c-0.6,0.6-0.5,2.3,0.1,2.9c0.7,0.6,1.4,0.3,2-0.4
		c0.1-0.1,0.2-0.1,0.3-0.2c5.5-3.6,11-7.1,16.5-10.7c5.6-3.6,11.2-7.1,16.8-10.6c1.7-1.1,3.6-2.1,5.7-1.8c2.7,0.3,5.5,0.7,8.2,1.2
		c2.8,0.5,5.7,0.9,8.5,1.7c2.8,0.8,5.7,0.9,8.5,1.4c2.5,0.5,5.1,0.8,7.7,1.2c2.4,0.4,4.7,0.7,7.1,1c1.1,0.1,1.8-0.5,2-1.6
		c0.2-1.1-0.7-1.6-1.6-1.8c-2.8-0.5-5.5-1-8.3-1.5c-4.4-0.7-8.7-1.4-13.1-2.1c-2.2-0.4-4.3-0.7-6.5-1.1c-2.3-0.4-4.6-0.8-6.9-1.1
		c-2.4-0.3-4.9-0.6-7.3-0.7c-1.1,0-2.3,0.2-3.3,0.7c-2.3,1.3-4.5,2.9-6.8,4.3c-1.4,0.8-2.8,1.5-4.2,2.3c-1.2,0.8-2.3,1.9-3.5,2.7
		c-1.9,1.2-3.9,2.3-5.8,3.5c-3.3,2.1-6.7,4.2-10,6.3C180.8,50.9,180.1,51,179.4,51.1z"/>
	<path class="st9" d="M336.6,155.7c1.2-0.1,1.7-0.5,1.7-1.8c0-2.8,0.2-5.6,0.3-8.3c0-1.2-0.3-2.3-1.5-2.8c-1.1-0.5-2.2-1.1-3.3-1.1
		c-2.9-0.1-5.8-0.1-8.8,0c-3.1,0.1-6.2,0.5-9.3,0.6c-4.8,0.3-9.6,0.5-14.4,0.7c-6.8,0.3-13.6,0.7-20.4,1c-3.8,0.2-7.6,0.3-11.4,0.5
		c-2,0.1-4,0.2-5.9,0.3c-4.9,0.3-9.8,0.6-14.7,0.9c-2.2,0.1-4.5,0.2-6.7,0.3c-5.4,0.2-10.8,0.5-16.2,0.7c-3.4,0.2-6.1,1.8-8.2,4.4
		c-1.8,2.2-1.3,4.8-1,7.3c0.5,4.6,1.2,9.2,1.7,13.8c0.4,3.9,0.8,7.8,1.2,11.6c0.1,0.6,0.6,1.1,1,1.7c0.1-0.1,0.3-0.1,0.4-0.2
		c-0.1-1.6-0.2-3.3-0.4-4.9c-0.2-1.6-0.5-3.2-0.7-4.9c-0.1-1.9,0-3.8-0.2-5.7c-0.2-2.6-0.5-5.2-0.7-7.8c-0.1-1.5-0.4-3-0.4-4.5
		c0-1.7,0-3.4,1.3-4.9c1.9-2.3,4.6-2.9,7.3-3.1c5.4-0.3,10.8-0.5,16.2-0.8c5.6-0.2,11.1-0.5,16.7-0.7c5.5-0.2,11-0.5,16.5-0.7
		c6.1-0.3,12.2-0.5,18.4-0.8c5.4-0.2,10.7-0.3,16.1-0.5c2.4-0.1,4.9-0.3,7.3-0.4c4.6-0.1,9.1-0.3,13.7-0.3c2.1,0,2.5,0.5,2.9,2.6
		C335.5,150.5,336,153,336.6,155.7z"/>
	<path class="st9" d="M279.2,102.1c-8.5,1.4-16.8,2.8-25.2,4.1c-0.6,6.5-3.2,8.8-8.2,9.5c-0.2-0.3-0.3-0.7-0.5-0.8
		c-0.2-0.1-0.6,0-1,0.1c0.3,0.3,0.6,0.5,0.8,0.6c-2.6-0.6-5.4-0.8-7.5-2.7c0,1.2,0.1,2.3,0.2,3.3c0.4,3.5,0.9,7,1.3,10.5
		c0.4,2.8,0.7,5.6,1.1,8.3c0.3,2.1,0.5,4.2,0.7,6.4c0.1,0.7,0.3,1,1.1,1c1.7-0.1,3.4,0,5-0.1c4.8-0.2,9.5-0.4,14.3-0.7
		c5.6-0.3,11.2-0.6,16.9-0.9c3.4-0.2,6.8-0.2,10.1-0.4c3.3-0.2,6.7-0.4,10-0.6c2.5-0.2,5.1-0.3,7.6-0.5c0.2-1.6,0.5-3,0.7-4.4
		c0.2-2.6,0.3-5.1,0.4-7.7c0.1-1.5,0.3-3,0.4-4.5c0.1-3.2,0.2-6.4,0.3-9.6c0-1.3-0.7-2.4-1.6-2.9c-2.2-1.3-4.6-2.2-7-3.4
		c0,0.1-0.1,0.2-0.1,0.3c-0.1,0.2-0.3,0.5-0.4,0.7c-1.2,1.9-2.7,3.2-4.9,3.6c-2.2,0.4-4.4,0.3-6.4-0.7c-2.5-1.3-5.2-2.5-6.5-5.4
		C280.2,104.1,279.7,103.1,279.2,102.1z M273.2,127.6c0,1,0,1.6,0,2.3c0.1,1.8,0.1,1.9,1.8,1.7c5-0.4,9.9-0.8,14.9-1.2
		c0.8-0.1,1.7-0.1,2.6,0c0.8,0,1.3,0.6,1.2,1.4c-0.1,0.8,0,1.7-1.2,1.8c-3.4,0.2-6.9,0.5-10.3,0.8c-5.8,0.4-11.7,0.8-17.5,1.2
		c-2.5,0.2-5.1,0.2-7.6,0.3c-2.1,0.1-4.3,0.2-6.4,0.4c-1.3,0.1-1.7-0.2-1.8-1.4c-0.1-1.2,0.2-1.6,1.5-1.7c3.1-0.2,6.2-0.3,9.3-0.5
		c3.1-0.2,6.2-0.4,9.2-0.7c0.3,0,0.6-0.6,0.8-0.9c0,0,0-0.1,0-0.1c-0.3-3.7,0.5-2.7-4.2-2.6c-3.4,0.1-6.8,0.5-10.2,0.7
		c-1.7,0.1-3.4,0.1-5.1,0.3c-1.5,0.1-1.2-1.1-1.3-1.8c-0.1-0.7,0.2-1.4,1.2-1.4c4.4-0.2,8.8-0.5,13.2-0.8c1.8-0.1,3.7-0.3,5.7-0.5
		c-0.1-1.1-0.1-2.2-0.2-3.4c0-0.2-0.4-0.4-0.6-0.4c-2.2,0.1-4.4,0.2-6.5,0.3c-1.4,0.1-2.9,0.3-4.3,0.4c-2.5,0.2-5,0.3-7.5,0.4
		c-0.3,0-0.6-0.2-0.8-0.5c-0.7-1.1,0.1-2.7,1.3-2.8c2.6-0.2,5.3-0.4,7.9-0.6c3.7-0.3,7.4-0.6,11-0.9c1.7-0.1,3.4-0.2,5.2-0.2
		c4.4-0.2,8.9-0.4,13.3-0.6c1.6-0.1,3.1-0.1,4.7-0.2c0.8,0,1.6,0.9,1.5,1.8c-0.1,0.8-0.4,1.4-1.5,1.4c-3,0.1-6,0.4-9,0.6
		c-3,0.2-6.1,0.3-9.1,0.3c-1,0-1.6,0.5-1.7,1.2c-0.1,0.9,0.2,1.9,0.4,2.8c0,0.1,0.6,0.2,0.9,0.1c4.3-0.3,8.5-0.7,12.8-0.9
		c1.9-0.1,3.9-0.2,5.8-0.3c1.3-0.1,1.2,0.9,1.2,1.6c0,0.7,0.2,1.5-1.1,1.6c-5.2,0.3-10.3,0.7-15.5,1.1
		C275.8,127.7,274.6,127.6,273.2,127.6z"/>
	<path class="st2" d="M267.9,45.4c-1.5,1.3-2,2.7-1.2,4.3c0.5,1,0.7,2,0.5,3c-0.5,1.7,1.2,3.2,1.4,4.8c0.2,1.4,1.9,2.2,3.3,3
		c2.1,1.1,4.7,1.4,7.3,1c4.8-0.7,5.6-3.7,4.8-6.2c-0.2-0.5-0.1-0.9,0.4-1.2c2.1-1.7,2.6-3.6,1-5.5c-1-1.2-1.4-2.2-1-3.5
		c0.2-0.8-0.1-1.5-0.6-2.2c1.7-2,2.5-4.4,1.6-7c-0.5-1.5-0.7-3-0.5-4.6c0.5-2.6-1.2-4.9-1.4-7.4c-0.2-2.1-1.9-3.4-3.3-4.6
		c-2.1-1.6-4.7-2.2-7.3-1.6c-4.8,1.1-5.6,5.7-4.8,9.5c0.2,0.8,0.1,1.3-0.4,1.9c-2.1,2.6-2.6,5.5-1,8.4c1,1.8,1.4,3.4,1,5.4
		C267.5,43.8,267.7,44.6,267.9,45.4z"/>
	<path class="st10" d="M270.3,42.6c0.1,0,0.2,0,0.3,0c0.1,0-0.1-0.1-0.3-0.2c0-1,0.3-1.9,1.3-2.6c-0.9-1.6-2.1-3-2.6-4.7
		c-0.9-2.6-0.6-4.9,3.1-5.3c0.2,0,0.5-0.2,0.7-0.3c-0.5-0.8-1-1.4-1.4-2.1c-1.1-1.8-1.1-3.7-0.3-5.5c0.2-0.5,0.7-1,1.2-1.3
		c2.2-1.4,6.8,0,8,2.9c0.8,2,1.3,4.2,1.7,6.3c0.2,1,0.1,2.1-0.3,3c-0.3,0.7-0.4,1.1,0,1.6c0.2,0.4,0.5,0.8,0.6,1.2
		c0.9,2.4,0.8,5.7-2.6,6.1c-0.9,0.1-0.8,0.6-0.4,1.3c0.6,1,1,2.1,1.6,3.4c0,0,0.2,0,0.3,0c-0.2,0.2-0.4,0.3-0.7,0.4
		c0.9,1.1,2.1,2,2.6,3c0.9,1.7,0.6,3.2-3.1,3.4c-0.2,0-0.5,0.1-0.7,0.2c0.5,0.5,1,0.9,1.4,1.4c1.1,1.2,1.1,2.4,0.3,3.6
		c-0.2,0.3-0.7,0.6-1.2,0.8c-2.2,0.9-6.8,0-8-1.9c-0.8-1.3-1.3-2.7-1.7-4.1c-0.2-0.6-0.1-1.4,0.3-1.9c0.3-0.4,0.4-0.7,0-1.1
		c-0.2-0.2-0.5-0.5-0.6-0.8c-0.3-0.5-0.4-0.9-0.4-1.3c0,0,0,0,0,0c0.1,0.1,0.9,0.2,1,0c0.6-0.8,0.9-1.6,0.7-2.5
		c0.3-0.5-0.1-1-0.4-1.3C270.6,43.9,270.4,43.2,270.3,42.6z"/>
	<g>
		<path class="st2" d="M264.9,185.2l0.4,10.8l1.8,0l0.1,2.8l-1.8,0l0.1,2.9l-6.5,0.1l-0.1-2.9l-7.7,0.1l-0.1-2.8l5.2-10.9
			L264.9,185.2z M258.8,196.1l-0.3-7l-2.6,7.1L258.8,196.1z"/>
		<path class="st2" d="M282.9,185l0.6,16.5l-6.5,0.1l-0.3-8.9c0-1.3-0.1-2-0.2-2.3c-0.1-0.3-0.4-0.5-0.8-0.6
			c-0.4-0.1-1.4-0.2-2.9-0.2l-0.6,0l-0.1-1.9c3.1-0.5,5.5-1.4,7.1-2.7L282.9,185z"/>
		<path class="st2" d="M306.6,189.2l-6.5,0.1c0-0.8-0.1-1.3-0.1-1.5c0-0.2-0.2-0.4-0.4-0.5c-0.2-0.1-0.6-0.2-0.9-0.2
			c-0.3,0-0.6,0.1-0.8,0.2c-0.2,0.1-0.3,0.3-0.4,0.5c0,0.2,0,0.6,0,1.2l0.1,2.6c0.3-0.4,0.8-0.8,1.4-1c0.6-0.2,1.4-0.3,2.4-0.4
			c1.2,0,2.2,0.2,3.2,0.6c0.9,0.4,1.5,0.9,1.8,1.5c0.3,0.6,0.4,1.3,0.5,2.3l0,1.3c0,1.2,0,2-0.1,2.6c-0.1,0.6-0.5,1.1-1.1,1.6
			c-0.6,0.5-1.4,0.9-2.5,1.1c-1,0.3-2.3,0.4-3.7,0.4c-1.7,0-3.2-0.1-4.3-0.4c-1.1-0.3-2-0.7-2.6-1.3c-0.6-0.6-1-1.2-1.1-1.8
			c-0.1-0.6-0.2-1.9-0.3-3.7l-0.1-2.3c-0.1-2-0.1-3.3,0-3.9c0.1-0.7,0.4-1.3,1-1.9c0.6-0.6,1.5-1.1,2.6-1.4c1.1-0.3,2.4-0.5,3.9-0.5
			c1.8,0,3.3,0.2,4.5,0.5c1.2,0.4,2,0.9,2.6,1.6C306.3,187.3,306.6,188.1,306.6,189.2z M300.3,194.4c0-0.6-0.1-1-0.3-1.2
			c-0.2-0.2-0.5-0.3-1-0.3c-0.4,0-0.8,0.1-1,0.3c-0.2,0.2-0.3,0.6-0.3,1.2l0.1,3c0,0.7,0.1,1.2,0.3,1.4c0.2,0.2,0.5,0.3,1,0.3
			c0.3,0,0.6-0.1,0.9-0.3c0.3-0.2,0.4-0.6,0.4-1.4L300.3,194.4z"/>
		<path class="st2" d="M329.7,190.1l0.2,5.5c0,1.3,0,2.2-0.2,2.7c-0.2,0.6-0.6,1.1-1.3,1.6c-0.7,0.5-1.5,0.9-2.4,1.1
			c-0.9,0.2-2,0.3-3.2,0.4c-1.6,0-2.8-0.1-3.9-0.3c-1-0.2-1.9-0.6-2.5-1c-0.6-0.5-1.1-1-1.4-1.5c-0.3-0.5-0.4-1.4-0.5-2.5l-0.2-5.8
			c-0.1-1.5,0.1-2.7,0.5-3.4c0.4-0.8,1.2-1.4,2.4-1.8c1.2-0.5,2.7-0.7,4.4-0.7c1.4,0,2.7,0.1,3.8,0.4c1.1,0.3,2,0.7,2.6,1.1
			c0.6,0.5,1,1,1.2,1.5C329.5,188,329.7,188.9,329.7,190.1z M323.2,188.8c0-0.9-0.1-1.4-0.3-1.6c-0.1-0.2-0.5-0.3-1-0.3
			c-0.5,0-0.8,0.1-0.9,0.4c-0.1,0.2-0.2,0.8-0.2,1.6l0.3,8.1c0,1,0.1,1.5,0.3,1.7c0.2,0.2,0.5,0.3,1,0.3c0.5,0,0.8-0.1,0.9-0.4
			c0.1-0.2,0.2-0.8,0.2-1.6L323.2,188.8z"/>
	</g>
</g>
</svg>
